M48
; DRILL file {KiCad 5.1.9-73d0e3b20d~88~ubuntu20.04.1} date Sat Apr 24 16:50:51 2021
; FORMAT={-:-/ absolute / inch / decimal}
; #@! TF.CreationDate,2021-04-24T16:50:51+02:00
; #@! TF.GenerationSoftware,Kicad,Pcbnew,5.1.9-73d0e3b20d~88~ubuntu20.04.1
; #@! TF.FileFunction,Plated,1,4,PTH
FMAT,2
INCH
T1C0.0118
T2C0.0157
T3C0.0236
T4C0.0256
T5C0.0354
T6C0.0630
%
G90
G05
T1
X5.2953Y-3.4201
X5.2953Y-3.4575
X5.6215Y-3.3925
X5.626Y-3.2748
X5.7776Y-3.9972
X5.7776Y-4.0268
X5.7776Y-4.0563
X5.8858Y-3.7618
X5.8858Y-3.8319
X5.8858Y-3.902
X5.8858Y-3.972
X5.8858Y-4.0421
X5.8858Y-4.1122
X5.937Y-3.7618
X5.937Y-3.8319
X5.937Y-3.902
X5.937Y-3.972
X5.937Y-4.0421
X5.937Y-4.1122
X5.9882Y-3.7618
X5.9882Y-3.8319
X5.9882Y-3.902
X5.9882Y-3.972
X5.9882Y-4.0421
X5.9882Y-4.1122
T2
X4.9488Y-3.1913
X4.9543Y-3.7039
X4.9606Y-3.3465
X4.9606Y-3.5039
X4.9606Y-3.8976
X4.9606Y-4.2126
X4.9606Y-4.3701
X4.9606Y-4.5276
X4.9606Y-4.685
X4.9713Y-3.7886
X5.0316Y-3.1913
X5.081Y-3.6847
X5.1051Y-3.439
X5.1181Y-4.685
X5.1508Y-4.0606
X5.1516Y-3.8752
X5.1539Y-4.1453
X5.1701Y-4.2776
X5.1701Y-4.3366
X5.1701Y-4.3953
X5.1701Y-4.4543
X5.2055Y-3.2343
X5.2228Y-3.5709
X5.2232Y-3.3071
X5.224Y-3.6839
X5.2756Y-4.685
X5.2953Y-3.6976
X5.3114Y-3.3484
X5.3114Y-3.5295
X5.3528Y-3.3087
X5.3551Y-4.562
X5.3555Y-4.4085
X5.3555Y-4.4852
X5.3555Y-4.5232
X5.3701Y-3.698
X5.3701Y-3.8815
X5.3841Y-4.1622
X5.4201Y-3.6949
X5.4331Y-4.685
X5.4953Y-3.6949
X5.5142Y-3.4518
X5.5148Y-3.4134
X5.5311Y-4.2323
X5.538Y-4.3748
X5.5394Y-4.4776
X5.5394Y-4.5185
X5.5906Y-4.685
X5.6063Y-4.1417
X5.6073Y-4.0344
X5.6378Y-3.4262
X5.6378Y-3.4645
X5.6378Y-3.503
X5.6378Y-3.5405
X5.6581Y-4.4341
X5.6891Y-3.622
X5.6951Y-3.7443
X5.696Y-3.8979
X5.747Y-3.375
X5.747Y-3.5541
X5.7472Y-4.1287
X5.748Y-4.685
X5.7561Y-3.7443
X5.7689Y-3.2701
X5.7693Y-4.4439
X5.7693Y-4.5512
X5.7862Y-3.2039
X5.813Y-3.6819
X5.8199Y-3.3807
X5.8613Y-3.2403
X5.8878Y-3.6819
X5.9341Y-4.3209
X5.9341Y-4.5945
X5.9465Y-3.2461
X5.9555Y-3.5217
X5.9622Y-3.6323
X5.9693Y-3.2039
X6.0433Y-3.4945
X6.0433Y-3.5217
X6.0433Y-3.5492
X6.0561Y-4.3209
X6.0561Y-4.5945
X6.0837Y-3.7392
X6.0837Y-4.1348
X6.0915Y-3.7057
X6.0915Y-4.1683
X6.1236Y-3.6327
X6.174Y-3.5791
X6.2142Y-3.8843
X6.2142Y-3.9894
X6.2205Y-4.685
X6.2831Y-3.2217
X6.2831Y-3.3
X6.2886Y-3.989
X6.2894Y-3.8843
X6.3264Y-3.4811
X6.3268Y-3.7598
X6.3268Y-4.1142
X6.3268Y-4.3937
X6.3634Y-3.9898
X6.3642Y-3.885
X6.378Y-3.189
X6.378Y-4.685
X6.4394Y-3.8839
X6.4394Y-3.9898
X6.461Y-4.3004
X6.461Y-3.5705
X6.5138Y-3.8563
X6.5138Y-4.0177
X6.5138Y-4.4791
X6.5142Y-3.3917
X6.5354Y-3.189
X6.5354Y-4.685
X6.5657Y-4.3004
X6.5661Y-4.0764
X6.5661Y-4.152
X6.5661Y-4.4358
X6.5665Y-3.435
X6.5669Y-3.5709
X6.5681Y-3.7224
X6.5681Y-3.7972
X6.6929Y-3.189
X6.6929Y-4.685
X6.8504Y-3.189
X6.8504Y-3.3465
X6.8504Y-3.5039
X6.8504Y-3.6614
X6.8504Y-3.8189
X6.8504Y-3.937
X6.8504Y-4.0551
X6.8504Y-4.2126
X6.8504Y-4.3701
X6.8504Y-4.5276
X6.8504Y-4.685
T4
X5.4514Y-3.2386
X5.5014Y-3.2386
X5.5514Y-3.2386
X5.6014Y-3.2386
X5.6514Y-3.2386
X5.7014Y-3.2386
T6
X6.7047Y-3.4409
X6.7047Y-3.6378
X6.7047Y-3.8346
X6.7047Y-4.0315
X6.7047Y-4.2283
X6.7047Y-4.4252
T3
G00X5.0018Y-3.2689
M15
G01X4.9781Y-3.2689
M16
G05
G00X5.0018Y-3.6091
M15
G01X4.9781Y-3.6091
M16
G05
G00X5.1762Y-3.2689
M15
G01X5.1329Y-3.2689
M16
G05
G00X5.1762Y-3.6091
M15
G01X5.1329Y-3.6091
M16
G05
T5
G00X4.9961Y-4.0118
M15
G01X4.9646Y-4.0118
M16
G05
G00X4.9961Y-4.5827
M15
G01X4.9646Y-4.5827
M16
G05
G00X5.2465Y-4.0118
M15
G01X5.1835Y-4.0118
M16
G05
G00X5.2465Y-4.5827
M15
G01X5.1835Y-4.5827
M16
G05
T0
M30
