%TF.GenerationSoftware,KiCad,Pcbnew,5.1.9-73d0e3b20d~88~ubuntu20.04.1*%
%TF.CreationDate,2021-04-24T16:50:53+02:00*%
%TF.ProjectId,elmo,656c6d6f-2e6b-4696-9361-645f70636258,v1.00*%
%TF.SameCoordinates,Original*%
%TF.FileFunction,Copper,L1,Top*%
%TF.FilePolarity,Positive*%
%FSLAX46Y46*%
G04 Gerber Fmt 4.6, Leading zero omitted, Abs format (unit mm)*
G04 Created by KiCad (PCBNEW 5.1.9-73d0e3b20d~88~ubuntu20.04.1) date 2021-04-24 16:50:53*
%MOMM*%
%LPD*%
G01*
G04 APERTURE LIST*
%TA.AperFunction,ComponentPad*%
%ADD10C,2.524000*%
%TD*%
%TA.AperFunction,SMDPad,CuDef*%
%ADD11R,1.600000X1.000000*%
%TD*%
%TA.AperFunction,SMDPad,CuDef*%
%ADD12R,2.600000X0.280000*%
%TD*%
%TA.AperFunction,ComponentPad*%
%ADD13O,3.100000X1.500000*%
%TD*%
%TA.AperFunction,ComponentPad*%
%ADD14O,2.300000X1.500000*%
%TD*%
%TA.AperFunction,ComponentPad*%
%ADD15O,2.100000X1.000000*%
%TD*%
%TA.AperFunction,ComponentPad*%
%ADD16O,1.600000X1.000000*%
%TD*%
%TA.AperFunction,SMDPad,CuDef*%
%ADD17R,1.150000X0.300000*%
%TD*%
%TA.AperFunction,SMDPad,CuDef*%
%ADD18R,1.060000X0.650000*%
%TD*%
%TA.AperFunction,SMDPad,CuDef*%
%ADD19R,0.900000X0.800000*%
%TD*%
%TA.AperFunction,SMDPad,CuDef*%
%ADD20R,0.700000X1.000000*%
%TD*%
%TA.AperFunction,SMDPad,CuDef*%
%ADD21R,0.800000X0.900000*%
%TD*%
%TA.AperFunction,SMDPad,CuDef*%
%ADD22R,0.450000X0.600000*%
%TD*%
%TA.AperFunction,SMDPad,CuDef*%
%ADD23R,0.650000X1.060000*%
%TD*%
%TA.AperFunction,ComponentPad*%
%ADD24R,1.000000X1.000000*%
%TD*%
%TA.AperFunction,ComponentPad*%
%ADD25O,1.000000X1.000000*%
%TD*%
%TA.AperFunction,SMDPad,CuDef*%
%ADD26R,1.100000X0.400000*%
%TD*%
%TA.AperFunction,SMDPad,CuDef*%
%ADD27R,3.400000X9.700000*%
%TD*%
%TA.AperFunction,ComponentPad*%
%ADD28C,0.600000*%
%TD*%
%TA.AperFunction,SMDPad,CuDef*%
%ADD29R,1.500000X2.400000*%
%TD*%
%TA.AperFunction,SMDPad,CuDef*%
%ADD30R,0.600000X0.450000*%
%TD*%
%TA.AperFunction,ViaPad*%
%ADD31C,0.700000*%
%TD*%
%TA.AperFunction,ViaPad*%
%ADD32C,0.800000*%
%TD*%
%TA.AperFunction,ViaPad*%
%ADD33C,0.600000*%
%TD*%
%TA.AperFunction,ViaPad*%
%ADD34C,0.500000*%
%TD*%
%TA.AperFunction,Conductor*%
%ADD35C,0.400000*%
%TD*%
%TA.AperFunction,Conductor*%
%ADD36C,0.500000*%
%TD*%
%TA.AperFunction,Conductor*%
%ADD37C,0.250000*%
%TD*%
G04 APERTURE END LIST*
D10*
%TO.P,J3,1*%
%TO.N,speaker_rigth_m*%
X170300000Y-112400000D03*
%TO.P,J3,2*%
%TO.N,speaker_rigth_p*%
X170300000Y-107400000D03*
%TO.P,J3,3*%
%TO.N,GND*%
X170300000Y-102400000D03*
%TO.P,J3,4*%
%TO.N,vin*%
X170300000Y-97400000D03*
%TO.P,J3,5*%
%TO.N,speaker_left_m*%
X170300000Y-92400000D03*
%TO.P,J3,6*%
%TO.N,speaker_left_p*%
X170300000Y-87400000D03*
%TD*%
D11*
%TO.P,L5,2*%
%TO.N,Net-(C27-Pad1)*%
X153500000Y-81650000D03*
%TO.P,L5,1*%
%TO.N,Net-(C26-Pad2)*%
X153500000Y-85350000D03*
%TD*%
D12*
%TO.P,J1,1*%
%TO.N,N/C*%
X133220000Y-113650000D03*
%TO.P,J1,2*%
%TO.N,GND*%
X133220000Y-113150000D03*
%TO.P,J1,3*%
%TO.N,N/C*%
X133220000Y-112650000D03*
%TO.P,J1,4*%
X133220000Y-112150000D03*
%TO.P,J1,5*%
%TO.N,GND*%
X133220000Y-111650000D03*
%TO.P,J1,6*%
%TO.N,N/C*%
X133220000Y-111150000D03*
%TO.P,J1,7*%
X133220000Y-110650000D03*
%TO.P,J1,8*%
%TO.N,GND*%
X133220000Y-110150000D03*
%TO.P,J1,9*%
%TO.N,N/C*%
X133220000Y-109650000D03*
%TO.P,J1,10*%
X133220000Y-109150000D03*
%TO.P,J1,11*%
%TO.N,GND*%
X133220000Y-108650000D03*
%TO.P,J1,12*%
%TO.N,N/C*%
X133220000Y-108150000D03*
%TO.P,J1,13*%
%TO.N,hdmi_cec*%
X133220000Y-107650000D03*
%TO.P,J1,14*%
%TO.N,hdmi_utility*%
X133220000Y-107150000D03*
%TO.P,J1,15*%
%TO.N,hdmi_scl*%
X133220000Y-106650000D03*
%TO.P,J1,16*%
%TO.N,hdmi_sda*%
X133220000Y-106150000D03*
%TO.P,J1,17*%
%TO.N,GND*%
X133220000Y-105650000D03*
%TO.P,J1,18*%
%TO.N,+5V*%
X133220000Y-105150000D03*
%TO.P,J1,19*%
%TO.N,hdmi_hpd*%
X133220000Y-104650000D03*
D13*
%TO.P,J1,S2*%
%TO.N,N/C*%
X132460000Y-101900000D03*
%TO.P,J1,S1*%
X132460000Y-116400000D03*
D14*
%TO.P,J1,S3*%
X126500000Y-101900000D03*
%TO.P,J1,S4*%
X126500000Y-116400000D03*
%TD*%
D15*
%TO.P,J2,S1*%
%TO.N,N/C*%
X130925000Y-83030000D03*
%TO.P,J2,S2*%
X130925000Y-91670000D03*
D16*
%TO.P,J2,S4*%
X126745000Y-83030000D03*
%TO.P,J2,S3*%
X126745000Y-91670000D03*
D17*
%TO.P,J2,B1*%
%TO.N,GND*%
X131490000Y-90400000D03*
%TO.P,J2,B4*%
%TO.N,usb_vbus*%
X131490000Y-89600000D03*
%TO.P,J2,B5*%
%TO.N,Net-(J2-PadB5)*%
X131490000Y-89100000D03*
%TO.P,J2,A8*%
%TO.N,N/C*%
X131490000Y-88600000D03*
%TO.P,J2,B6*%
%TO.N,usb_dp*%
X131490000Y-88100000D03*
%TO.P,J2,A7*%
%TO.N,usb_dm*%
X131490000Y-87600000D03*
%TO.P,J2,A6*%
%TO.N,usb_dp*%
X131490000Y-87100000D03*
%TO.P,J2,B7*%
%TO.N,usb_dm*%
X131490000Y-86600000D03*
%TO.P,J2,A5*%
%TO.N,Net-(J2-PadA5)*%
X131490000Y-86100000D03*
%TO.P,J2,B8*%
%TO.N,N/C*%
X131490000Y-85600000D03*
%TO.P,J2,A4*%
%TO.N,usb_vbus*%
X131490000Y-84800000D03*
%TO.P,J2,A1*%
%TO.N,GND*%
X131490000Y-84000000D03*
%TO.P,J2,B12*%
X131490000Y-84300000D03*
%TO.P,J2,B9*%
%TO.N,usb_vbus*%
X131490000Y-85100000D03*
%TO.P,J2,A9*%
X131490000Y-89900000D03*
%TO.P,J2,A12*%
%TO.N,GND*%
X131490000Y-90700000D03*
%TD*%
%TO.P,R9,2*%
%TO.N,hpd_in*%
%TA.AperFunction,SMDPad,CuDef*%
G36*
G01*
X134315000Y-95540000D02*
X134685000Y-95540000D01*
G75*
G02*
X134820000Y-95675000I0J-135000D01*
G01*
X134820000Y-95945000D01*
G75*
G02*
X134685000Y-96080000I-135000J0D01*
G01*
X134315000Y-96080000D01*
G75*
G02*
X134180000Y-95945000I0J135000D01*
G01*
X134180000Y-95675000D01*
G75*
G02*
X134315000Y-95540000I135000J0D01*
G01*
G37*
%TD.AperFunction*%
%TO.P,R9,1*%
%TO.N,GND*%
%TA.AperFunction,SMDPad,CuDef*%
G36*
G01*
X134315000Y-94520000D02*
X134685000Y-94520000D01*
G75*
G02*
X134820000Y-94655000I0J-135000D01*
G01*
X134820000Y-94925000D01*
G75*
G02*
X134685000Y-95060000I-135000J0D01*
G01*
X134315000Y-95060000D01*
G75*
G02*
X134180000Y-94925000I0J135000D01*
G01*
X134180000Y-94655000D01*
G75*
G02*
X134315000Y-94520000I135000J0D01*
G01*
G37*
%TD.AperFunction*%
%TD*%
D18*
%TO.P,U6,1*%
%TO.N,Net-(C26-Pad2)*%
X152400000Y-88500000D03*
%TO.P,U6,2*%
%TO.N,vin*%
X152400000Y-89450000D03*
%TO.P,U6,3*%
%TO.N,N/C*%
X152400000Y-90400000D03*
%TO.P,U6,4*%
%TO.N,Net-(R20-Pad2)*%
X154600000Y-90400000D03*
%TO.P,U6,6*%
%TO.N,Net-(C26-Pad1)*%
X154600000Y-88500000D03*
%TO.P,U6,5*%
%TO.N,GND*%
X154600000Y-89450000D03*
%TD*%
%TO.P,C26,2*%
%TO.N,Net-(C26-Pad2)*%
%TA.AperFunction,SMDPad,CuDef*%
G36*
G01*
X153175000Y-86650000D02*
X153175000Y-87150000D01*
G75*
G02*
X152950000Y-87375000I-225000J0D01*
G01*
X152500000Y-87375000D01*
G75*
G02*
X152275000Y-87150000I0J225000D01*
G01*
X152275000Y-86650000D01*
G75*
G02*
X152500000Y-86425000I225000J0D01*
G01*
X152950000Y-86425000D01*
G75*
G02*
X153175000Y-86650000I0J-225000D01*
G01*
G37*
%TD.AperFunction*%
%TO.P,C26,1*%
%TO.N,Net-(C26-Pad1)*%
%TA.AperFunction,SMDPad,CuDef*%
G36*
G01*
X154725000Y-86650000D02*
X154725000Y-87150000D01*
G75*
G02*
X154500000Y-87375000I-225000J0D01*
G01*
X154050000Y-87375000D01*
G75*
G02*
X153825000Y-87150000I0J225000D01*
G01*
X153825000Y-86650000D01*
G75*
G02*
X154050000Y-86425000I225000J0D01*
G01*
X154500000Y-86425000D01*
G75*
G02*
X154725000Y-86650000I0J-225000D01*
G01*
G37*
%TD.AperFunction*%
%TD*%
D19*
%TO.P,U4,1*%
%TO.N,GND*%
X147600000Y-88500000D03*
%TO.P,U4,2*%
%TO.N,+3V3*%
X147600000Y-90400000D03*
%TO.P,U4,3*%
%TO.N,+5V*%
X149600000Y-89450000D03*
%TD*%
%TO.P,C16,2*%
%TO.N,GND*%
%TA.AperFunction,SMDPad,CuDef*%
G36*
G01*
X149050000Y-92675000D02*
X149050000Y-91725000D01*
G75*
G02*
X149300000Y-91475000I250000J0D01*
G01*
X149800000Y-91475000D01*
G75*
G02*
X150050000Y-91725000I0J-250000D01*
G01*
X150050000Y-92675000D01*
G75*
G02*
X149800000Y-92925000I-250000J0D01*
G01*
X149300000Y-92925000D01*
G75*
G02*
X149050000Y-92675000I0J250000D01*
G01*
G37*
%TD.AperFunction*%
%TO.P,C16,1*%
%TO.N,+3V3*%
%TA.AperFunction,SMDPad,CuDef*%
G36*
G01*
X147150000Y-92675000D02*
X147150000Y-91725000D01*
G75*
G02*
X147400000Y-91475000I250000J0D01*
G01*
X147900000Y-91475000D01*
G75*
G02*
X148150000Y-91725000I0J-250000D01*
G01*
X148150000Y-92675000D01*
G75*
G02*
X147900000Y-92925000I-250000J0D01*
G01*
X147400000Y-92925000D01*
G75*
G02*
X147150000Y-92675000I0J250000D01*
G01*
G37*
%TD.AperFunction*%
%TD*%
%TO.P,C28,1*%
%TO.N,Net-(C27-Pad1)*%
%TA.AperFunction,SMDPad,CuDef*%
G36*
G01*
X156090000Y-84295000D02*
X156090000Y-83345000D01*
G75*
G02*
X156340000Y-83095000I250000J0D01*
G01*
X156840000Y-83095000D01*
G75*
G02*
X157090000Y-83345000I0J-250000D01*
G01*
X157090000Y-84295000D01*
G75*
G02*
X156840000Y-84545000I-250000J0D01*
G01*
X156340000Y-84545000D01*
G75*
G02*
X156090000Y-84295000I0J250000D01*
G01*
G37*
%TD.AperFunction*%
%TO.P,C28,2*%
%TO.N,GND*%
%TA.AperFunction,SMDPad,CuDef*%
G36*
G01*
X157990000Y-84295000D02*
X157990000Y-83345000D01*
G75*
G02*
X158240000Y-83095000I250000J0D01*
G01*
X158740000Y-83095000D01*
G75*
G02*
X158990000Y-83345000I0J-250000D01*
G01*
X158990000Y-84295000D01*
G75*
G02*
X158740000Y-84545000I-250000J0D01*
G01*
X158240000Y-84545000D01*
G75*
G02*
X157990000Y-84295000I0J250000D01*
G01*
G37*
%TD.AperFunction*%
%TD*%
%TO.P,R2,1*%
%TO.N,GND*%
%TA.AperFunction,SMDPad,CuDef*%
G36*
G01*
X134310000Y-89465000D02*
X134310000Y-89835000D01*
G75*
G02*
X134175000Y-89970000I-135000J0D01*
G01*
X133905000Y-89970000D01*
G75*
G02*
X133770000Y-89835000I0J135000D01*
G01*
X133770000Y-89465000D01*
G75*
G02*
X133905000Y-89330000I135000J0D01*
G01*
X134175000Y-89330000D01*
G75*
G02*
X134310000Y-89465000I0J-135000D01*
G01*
G37*
%TD.AperFunction*%
%TO.P,R2,2*%
%TO.N,Net-(J2-PadB5)*%
%TA.AperFunction,SMDPad,CuDef*%
G36*
G01*
X133290000Y-89465000D02*
X133290000Y-89835000D01*
G75*
G02*
X133155000Y-89970000I-135000J0D01*
G01*
X132885000Y-89970000D01*
G75*
G02*
X132750000Y-89835000I0J135000D01*
G01*
X132750000Y-89465000D01*
G75*
G02*
X132885000Y-89330000I135000J0D01*
G01*
X133155000Y-89330000D01*
G75*
G02*
X133290000Y-89465000I0J-135000D01*
G01*
G37*
%TD.AperFunction*%
%TD*%
%TO.P,R10,1*%
%TO.N,+3V3*%
%TA.AperFunction,SMDPad,CuDef*%
G36*
G01*
X126440000Y-94265000D02*
X126440000Y-93895000D01*
G75*
G02*
X126575000Y-93760000I135000J0D01*
G01*
X126845000Y-93760000D01*
G75*
G02*
X126980000Y-93895000I0J-135000D01*
G01*
X126980000Y-94265000D01*
G75*
G02*
X126845000Y-94400000I-135000J0D01*
G01*
X126575000Y-94400000D01*
G75*
G02*
X126440000Y-94265000I0J135000D01*
G01*
G37*
%TD.AperFunction*%
%TO.P,R10,2*%
%TO.N,cec_in*%
%TA.AperFunction,SMDPad,CuDef*%
G36*
G01*
X127460000Y-94265000D02*
X127460000Y-93895000D01*
G75*
G02*
X127595000Y-93760000I135000J0D01*
G01*
X127865000Y-93760000D01*
G75*
G02*
X128000000Y-93895000I0J-135000D01*
G01*
X128000000Y-94265000D01*
G75*
G02*
X127865000Y-94400000I-135000J0D01*
G01*
X127595000Y-94400000D01*
G75*
G02*
X127460000Y-94265000I0J135000D01*
G01*
G37*
%TD.AperFunction*%
%TD*%
%TO.P,C1,1*%
%TO.N,Net-(C1-Pad1)*%
%TA.AperFunction,SMDPad,CuDef*%
G36*
G01*
X156425000Y-96725000D02*
X155925000Y-96725000D01*
G75*
G02*
X155700000Y-96500000I0J225000D01*
G01*
X155700000Y-96050000D01*
G75*
G02*
X155925000Y-95825000I225000J0D01*
G01*
X156425000Y-95825000D01*
G75*
G02*
X156650000Y-96050000I0J-225000D01*
G01*
X156650000Y-96500000D01*
G75*
G02*
X156425000Y-96725000I-225000J0D01*
G01*
G37*
%TD.AperFunction*%
%TO.P,C1,2*%
%TO.N,Net-(C1-Pad2)*%
%TA.AperFunction,SMDPad,CuDef*%
G36*
G01*
X156425000Y-95175000D02*
X155925000Y-95175000D01*
G75*
G02*
X155700000Y-94950000I0J225000D01*
G01*
X155700000Y-94500000D01*
G75*
G02*
X155925000Y-94275000I225000J0D01*
G01*
X156425000Y-94275000D01*
G75*
G02*
X156650000Y-94500000I0J-225000D01*
G01*
X156650000Y-94950000D01*
G75*
G02*
X156425000Y-95175000I-225000J0D01*
G01*
G37*
%TD.AperFunction*%
%TD*%
%TO.P,C2,2*%
%TO.N,Net-(C2-Pad2)*%
%TA.AperFunction,SMDPad,CuDef*%
G36*
G01*
X155925000Y-104825000D02*
X156425000Y-104825000D01*
G75*
G02*
X156650000Y-105050000I0J-225000D01*
G01*
X156650000Y-105500000D01*
G75*
G02*
X156425000Y-105725000I-225000J0D01*
G01*
X155925000Y-105725000D01*
G75*
G02*
X155700000Y-105500000I0J225000D01*
G01*
X155700000Y-105050000D01*
G75*
G02*
X155925000Y-104825000I225000J0D01*
G01*
G37*
%TD.AperFunction*%
%TO.P,C2,1*%
%TO.N,Net-(C2-Pad1)*%
%TA.AperFunction,SMDPad,CuDef*%
G36*
G01*
X155925000Y-103275000D02*
X156425000Y-103275000D01*
G75*
G02*
X156650000Y-103500000I0J-225000D01*
G01*
X156650000Y-103950000D01*
G75*
G02*
X156425000Y-104175000I-225000J0D01*
G01*
X155925000Y-104175000D01*
G75*
G02*
X155700000Y-103950000I0J225000D01*
G01*
X155700000Y-103500000D01*
G75*
G02*
X155925000Y-103275000I225000J0D01*
G01*
G37*
%TD.AperFunction*%
%TD*%
%TO.P,C3,2*%
%TO.N,Net-(C3-Pad2)*%
%TA.AperFunction,SMDPad,CuDef*%
G36*
G01*
X156425000Y-98175000D02*
X155925000Y-98175000D01*
G75*
G02*
X155700000Y-97950000I0J225000D01*
G01*
X155700000Y-97500000D01*
G75*
G02*
X155925000Y-97275000I225000J0D01*
G01*
X156425000Y-97275000D01*
G75*
G02*
X156650000Y-97500000I0J-225000D01*
G01*
X156650000Y-97950000D01*
G75*
G02*
X156425000Y-98175000I-225000J0D01*
G01*
G37*
%TD.AperFunction*%
%TO.P,C3,1*%
%TO.N,Net-(C3-Pad1)*%
%TA.AperFunction,SMDPad,CuDef*%
G36*
G01*
X156425000Y-99725000D02*
X155925000Y-99725000D01*
G75*
G02*
X155700000Y-99500000I0J225000D01*
G01*
X155700000Y-99050000D01*
G75*
G02*
X155925000Y-98825000I225000J0D01*
G01*
X156425000Y-98825000D01*
G75*
G02*
X156650000Y-99050000I0J-225000D01*
G01*
X156650000Y-99500000D01*
G75*
G02*
X156425000Y-99725000I-225000J0D01*
G01*
G37*
%TD.AperFunction*%
%TD*%
%TO.P,C4,1*%
%TO.N,Net-(C4-Pad1)*%
%TA.AperFunction,SMDPad,CuDef*%
G36*
G01*
X155925000Y-100275000D02*
X156425000Y-100275000D01*
G75*
G02*
X156650000Y-100500000I0J-225000D01*
G01*
X156650000Y-100950000D01*
G75*
G02*
X156425000Y-101175000I-225000J0D01*
G01*
X155925000Y-101175000D01*
G75*
G02*
X155700000Y-100950000I0J225000D01*
G01*
X155700000Y-100500000D01*
G75*
G02*
X155925000Y-100275000I225000J0D01*
G01*
G37*
%TD.AperFunction*%
%TO.P,C4,2*%
%TO.N,Net-(C4-Pad2)*%
%TA.AperFunction,SMDPad,CuDef*%
G36*
G01*
X155925000Y-101825000D02*
X156425000Y-101825000D01*
G75*
G02*
X156650000Y-102050000I0J-225000D01*
G01*
X156650000Y-102500000D01*
G75*
G02*
X156425000Y-102725000I-225000J0D01*
G01*
X155925000Y-102725000D01*
G75*
G02*
X155700000Y-102500000I0J225000D01*
G01*
X155700000Y-102050000D01*
G75*
G02*
X155925000Y-101825000I225000J0D01*
G01*
G37*
%TD.AperFunction*%
%TD*%
%TO.P,C5,1*%
%TO.N,GND*%
%TA.AperFunction,SMDPad,CuDef*%
G36*
G01*
X164975000Y-86750000D02*
X165925000Y-86750000D01*
G75*
G02*
X166175000Y-87000000I0J-250000D01*
G01*
X166175000Y-87500000D01*
G75*
G02*
X165925000Y-87750000I-250000J0D01*
G01*
X164975000Y-87750000D01*
G75*
G02*
X164725000Y-87500000I0J250000D01*
G01*
X164725000Y-87000000D01*
G75*
G02*
X164975000Y-86750000I250000J0D01*
G01*
G37*
%TD.AperFunction*%
%TO.P,C5,2*%
%TO.N,speaker_left_p*%
%TA.AperFunction,SMDPad,CuDef*%
G36*
G01*
X164975000Y-88650000D02*
X165925000Y-88650000D01*
G75*
G02*
X166175000Y-88900000I0J-250000D01*
G01*
X166175000Y-89400000D01*
G75*
G02*
X165925000Y-89650000I-250000J0D01*
G01*
X164975000Y-89650000D01*
G75*
G02*
X164725000Y-89400000I0J250000D01*
G01*
X164725000Y-88900000D01*
G75*
G02*
X164975000Y-88650000I250000J0D01*
G01*
G37*
%TD.AperFunction*%
%TD*%
%TO.P,C6,2*%
%TO.N,GND*%
%TA.AperFunction,SMDPad,CuDef*%
G36*
G01*
X165925000Y-91190000D02*
X164975000Y-91190000D01*
G75*
G02*
X164725000Y-90940000I0J250000D01*
G01*
X164725000Y-90440000D01*
G75*
G02*
X164975000Y-90190000I250000J0D01*
G01*
X165925000Y-90190000D01*
G75*
G02*
X166175000Y-90440000I0J-250000D01*
G01*
X166175000Y-90940000D01*
G75*
G02*
X165925000Y-91190000I-250000J0D01*
G01*
G37*
%TD.AperFunction*%
%TO.P,C6,1*%
%TO.N,speaker_left_m*%
%TA.AperFunction,SMDPad,CuDef*%
G36*
G01*
X165925000Y-93090000D02*
X164975000Y-93090000D01*
G75*
G02*
X164725000Y-92840000I0J250000D01*
G01*
X164725000Y-92340000D01*
G75*
G02*
X164975000Y-92090000I250000J0D01*
G01*
X165925000Y-92090000D01*
G75*
G02*
X166175000Y-92340000I0J-250000D01*
G01*
X166175000Y-92840000D01*
G75*
G02*
X165925000Y-93090000I-250000J0D01*
G01*
G37*
%TD.AperFunction*%
%TD*%
%TO.P,C7,2*%
%TO.N,speaker_rigth_p*%
%TA.AperFunction,SMDPad,CuDef*%
G36*
G01*
X165925000Y-107830000D02*
X164975000Y-107830000D01*
G75*
G02*
X164725000Y-107580000I0J250000D01*
G01*
X164725000Y-107080000D01*
G75*
G02*
X164975000Y-106830000I250000J0D01*
G01*
X165925000Y-106830000D01*
G75*
G02*
X166175000Y-107080000I0J-250000D01*
G01*
X166175000Y-107580000D01*
G75*
G02*
X165925000Y-107830000I-250000J0D01*
G01*
G37*
%TD.AperFunction*%
%TO.P,C7,1*%
%TO.N,GND*%
%TA.AperFunction,SMDPad,CuDef*%
G36*
G01*
X165925000Y-109730000D02*
X164975000Y-109730000D01*
G75*
G02*
X164725000Y-109480000I0J250000D01*
G01*
X164725000Y-108980000D01*
G75*
G02*
X164975000Y-108730000I250000J0D01*
G01*
X165925000Y-108730000D01*
G75*
G02*
X166175000Y-108980000I0J-250000D01*
G01*
X166175000Y-109480000D01*
G75*
G02*
X165925000Y-109730000I-250000J0D01*
G01*
G37*
%TD.AperFunction*%
%TD*%
%TO.P,C8,1*%
%TO.N,speaker_rigth_m*%
%TA.AperFunction,SMDPad,CuDef*%
G36*
G01*
X164975000Y-110270000D02*
X165925000Y-110270000D01*
G75*
G02*
X166175000Y-110520000I0J-250000D01*
G01*
X166175000Y-111020000D01*
G75*
G02*
X165925000Y-111270000I-250000J0D01*
G01*
X164975000Y-111270000D01*
G75*
G02*
X164725000Y-111020000I0J250000D01*
G01*
X164725000Y-110520000D01*
G75*
G02*
X164975000Y-110270000I250000J0D01*
G01*
G37*
%TD.AperFunction*%
%TO.P,C8,2*%
%TO.N,GND*%
%TA.AperFunction,SMDPad,CuDef*%
G36*
G01*
X164975000Y-112170000D02*
X165925000Y-112170000D01*
G75*
G02*
X166175000Y-112420000I0J-250000D01*
G01*
X166175000Y-112920000D01*
G75*
G02*
X165925000Y-113170000I-250000J0D01*
G01*
X164975000Y-113170000D01*
G75*
G02*
X164725000Y-112920000I0J250000D01*
G01*
X164725000Y-112420000D01*
G75*
G02*
X164975000Y-112170000I250000J0D01*
G01*
G37*
%TD.AperFunction*%
%TD*%
%TO.P,U2,1*%
%TO.N,N/C*%
%TA.AperFunction,SMDPad,CuDef*%
G36*
G01*
X145790000Y-117075000D02*
X145790000Y-117275000D01*
G75*
G02*
X145690000Y-117375000I-100000J0D01*
G01*
X144415000Y-117375000D01*
G75*
G02*
X144315000Y-117275000I0J100000D01*
G01*
X144315000Y-117075000D01*
G75*
G02*
X144415000Y-116975000I100000J0D01*
G01*
X145690000Y-116975000D01*
G75*
G02*
X145790000Y-117075000I0J-100000D01*
G01*
G37*
%TD.AperFunction*%
%TO.P,U2,2*%
%TA.AperFunction,SMDPad,CuDef*%
G36*
G01*
X145790000Y-116425000D02*
X145790000Y-116625000D01*
G75*
G02*
X145690000Y-116725000I-100000J0D01*
G01*
X144415000Y-116725000D01*
G75*
G02*
X144315000Y-116625000I0J100000D01*
G01*
X144315000Y-116425000D01*
G75*
G02*
X144415000Y-116325000I100000J0D01*
G01*
X145690000Y-116325000D01*
G75*
G02*
X145790000Y-116425000I0J-100000D01*
G01*
G37*
%TD.AperFunction*%
%TO.P,U2,3*%
%TA.AperFunction,SMDPad,CuDef*%
G36*
G01*
X145790000Y-115775000D02*
X145790000Y-115975000D01*
G75*
G02*
X145690000Y-116075000I-100000J0D01*
G01*
X144415000Y-116075000D01*
G75*
G02*
X144315000Y-115975000I0J100000D01*
G01*
X144315000Y-115775000D01*
G75*
G02*
X144415000Y-115675000I100000J0D01*
G01*
X145690000Y-115675000D01*
G75*
G02*
X145790000Y-115775000I0J-100000D01*
G01*
G37*
%TD.AperFunction*%
%TO.P,U2,4*%
%TA.AperFunction,SMDPad,CuDef*%
G36*
G01*
X145790000Y-115125000D02*
X145790000Y-115325000D01*
G75*
G02*
X145690000Y-115425000I-100000J0D01*
G01*
X144415000Y-115425000D01*
G75*
G02*
X144315000Y-115325000I0J100000D01*
G01*
X144315000Y-115125000D01*
G75*
G02*
X144415000Y-115025000I100000J0D01*
G01*
X145690000Y-115025000D01*
G75*
G02*
X145790000Y-115125000I0J-100000D01*
G01*
G37*
%TD.AperFunction*%
%TO.P,U2,5*%
%TO.N,+3V3*%
%TA.AperFunction,SMDPad,CuDef*%
G36*
G01*
X145790000Y-114475000D02*
X145790000Y-114675000D01*
G75*
G02*
X145690000Y-114775000I-100000J0D01*
G01*
X144415000Y-114775000D01*
G75*
G02*
X144315000Y-114675000I0J100000D01*
G01*
X144315000Y-114475000D01*
G75*
G02*
X144415000Y-114375000I100000J0D01*
G01*
X145690000Y-114375000D01*
G75*
G02*
X145790000Y-114475000I0J-100000D01*
G01*
G37*
%TD.AperFunction*%
%TO.P,U2,6*%
%TO.N,GND*%
%TA.AperFunction,SMDPad,CuDef*%
G36*
G01*
X145790000Y-113825000D02*
X145790000Y-114025000D01*
G75*
G02*
X145690000Y-114125000I-100000J0D01*
G01*
X144415000Y-114125000D01*
G75*
G02*
X144315000Y-114025000I0J100000D01*
G01*
X144315000Y-113825000D01*
G75*
G02*
X144415000Y-113725000I100000J0D01*
G01*
X145690000Y-113725000D01*
G75*
G02*
X145790000Y-113825000I0J-100000D01*
G01*
G37*
%TD.AperFunction*%
%TO.P,U2,7*%
%TO.N,N/C*%
%TA.AperFunction,SMDPad,CuDef*%
G36*
G01*
X145790000Y-113175000D02*
X145790000Y-113375000D01*
G75*
G02*
X145690000Y-113475000I-100000J0D01*
G01*
X144415000Y-113475000D01*
G75*
G02*
X144315000Y-113375000I0J100000D01*
G01*
X144315000Y-113175000D01*
G75*
G02*
X144415000Y-113075000I100000J0D01*
G01*
X145690000Y-113075000D01*
G75*
G02*
X145790000Y-113175000I0J-100000D01*
G01*
G37*
%TD.AperFunction*%
%TO.P,U2,8*%
%TO.N,GND*%
%TA.AperFunction,SMDPad,CuDef*%
G36*
G01*
X145790000Y-112525000D02*
X145790000Y-112725000D01*
G75*
G02*
X145690000Y-112825000I-100000J0D01*
G01*
X144415000Y-112825000D01*
G75*
G02*
X144315000Y-112725000I0J100000D01*
G01*
X144315000Y-112525000D01*
G75*
G02*
X144415000Y-112425000I100000J0D01*
G01*
X145690000Y-112425000D01*
G75*
G02*
X145790000Y-112525000I0J-100000D01*
G01*
G37*
%TD.AperFunction*%
%TO.P,U2,9*%
%TO.N,N/C*%
%TA.AperFunction,SMDPad,CuDef*%
G36*
G01*
X145790000Y-111875000D02*
X145790000Y-112075000D01*
G75*
G02*
X145690000Y-112175000I-100000J0D01*
G01*
X144415000Y-112175000D01*
G75*
G02*
X144315000Y-112075000I0J100000D01*
G01*
X144315000Y-111875000D01*
G75*
G02*
X144415000Y-111775000I100000J0D01*
G01*
X145690000Y-111775000D01*
G75*
G02*
X145790000Y-111875000I0J-100000D01*
G01*
G37*
%TD.AperFunction*%
%TO.P,U2,10*%
%TO.N,lrkco*%
%TA.AperFunction,SMDPad,CuDef*%
G36*
G01*
X145790000Y-111225000D02*
X145790000Y-111425000D01*
G75*
G02*
X145690000Y-111525000I-100000J0D01*
G01*
X144415000Y-111525000D01*
G75*
G02*
X144315000Y-111425000I0J100000D01*
G01*
X144315000Y-111225000D01*
G75*
G02*
X144415000Y-111125000I100000J0D01*
G01*
X145690000Y-111125000D01*
G75*
G02*
X145790000Y-111225000I0J-100000D01*
G01*
G37*
%TD.AperFunction*%
%TO.P,U2,11*%
%TO.N,bcko*%
%TA.AperFunction,SMDPad,CuDef*%
G36*
G01*
X145790000Y-110575000D02*
X145790000Y-110775000D01*
G75*
G02*
X145690000Y-110875000I-100000J0D01*
G01*
X144415000Y-110875000D01*
G75*
G02*
X144315000Y-110775000I0J100000D01*
G01*
X144315000Y-110575000D01*
G75*
G02*
X144415000Y-110475000I100000J0D01*
G01*
X145690000Y-110475000D01*
G75*
G02*
X145790000Y-110575000I0J-100000D01*
G01*
G37*
%TD.AperFunction*%
%TO.P,U2,12*%
%TO.N,dout*%
%TA.AperFunction,SMDPad,CuDef*%
G36*
G01*
X145790000Y-109925000D02*
X145790000Y-110125000D01*
G75*
G02*
X145690000Y-110225000I-100000J0D01*
G01*
X144415000Y-110225000D01*
G75*
G02*
X144315000Y-110125000I0J100000D01*
G01*
X144315000Y-109925000D01*
G75*
G02*
X144415000Y-109825000I100000J0D01*
G01*
X145690000Y-109825000D01*
G75*
G02*
X145790000Y-109925000I0J-100000D01*
G01*
G37*
%TD.AperFunction*%
%TO.P,U2,13*%
%TO.N,N/C*%
%TA.AperFunction,SMDPad,CuDef*%
G36*
G01*
X145790000Y-109275000D02*
X145790000Y-109475000D01*
G75*
G02*
X145690000Y-109575000I-100000J0D01*
G01*
X144415000Y-109575000D01*
G75*
G02*
X144315000Y-109475000I0J100000D01*
G01*
X144315000Y-109275000D01*
G75*
G02*
X144415000Y-109175000I100000J0D01*
G01*
X145690000Y-109175000D01*
G75*
G02*
X145790000Y-109275000I0J-100000D01*
G01*
G37*
%TD.AperFunction*%
%TO.P,U2,14*%
%TA.AperFunction,SMDPad,CuDef*%
G36*
G01*
X145790000Y-108625000D02*
X145790000Y-108825000D01*
G75*
G02*
X145690000Y-108925000I-100000J0D01*
G01*
X144415000Y-108925000D01*
G75*
G02*
X144315000Y-108825000I0J100000D01*
G01*
X144315000Y-108625000D01*
G75*
G02*
X144415000Y-108525000I100000J0D01*
G01*
X145690000Y-108525000D01*
G75*
G02*
X145790000Y-108625000I0J-100000D01*
G01*
G37*
%TD.AperFunction*%
%TO.P,U2,15*%
%TA.AperFunction,SMDPad,CuDef*%
G36*
G01*
X140065000Y-108625000D02*
X140065000Y-108825000D01*
G75*
G02*
X139965000Y-108925000I-100000J0D01*
G01*
X138690000Y-108925000D01*
G75*
G02*
X138590000Y-108825000I0J100000D01*
G01*
X138590000Y-108625000D01*
G75*
G02*
X138690000Y-108525000I100000J0D01*
G01*
X139965000Y-108525000D01*
G75*
G02*
X140065000Y-108625000I0J-100000D01*
G01*
G37*
%TD.AperFunction*%
%TO.P,U2,16*%
%TA.AperFunction,SMDPad,CuDef*%
G36*
G01*
X140065000Y-109275000D02*
X140065000Y-109475000D01*
G75*
G02*
X139965000Y-109575000I-100000J0D01*
G01*
X138690000Y-109575000D01*
G75*
G02*
X138590000Y-109475000I0J100000D01*
G01*
X138590000Y-109275000D01*
G75*
G02*
X138690000Y-109175000I100000J0D01*
G01*
X139965000Y-109175000D01*
G75*
G02*
X140065000Y-109275000I0J-100000D01*
G01*
G37*
%TD.AperFunction*%
%TO.P,U2,17*%
%TA.AperFunction,SMDPad,CuDef*%
G36*
G01*
X140065000Y-109925000D02*
X140065000Y-110125000D01*
G75*
G02*
X139965000Y-110225000I-100000J0D01*
G01*
X138690000Y-110225000D01*
G75*
G02*
X138590000Y-110125000I0J100000D01*
G01*
X138590000Y-109925000D01*
G75*
G02*
X138690000Y-109825000I100000J0D01*
G01*
X139965000Y-109825000D01*
G75*
G02*
X140065000Y-109925000I0J-100000D01*
G01*
G37*
%TD.AperFunction*%
%TO.P,U2,18*%
%TA.AperFunction,SMDPad,CuDef*%
G36*
G01*
X140065000Y-110575000D02*
X140065000Y-110775000D01*
G75*
G02*
X139965000Y-110875000I-100000J0D01*
G01*
X138690000Y-110875000D01*
G75*
G02*
X138590000Y-110775000I0J100000D01*
G01*
X138590000Y-110575000D01*
G75*
G02*
X138690000Y-110475000I100000J0D01*
G01*
X139965000Y-110475000D01*
G75*
G02*
X140065000Y-110575000I0J-100000D01*
G01*
G37*
%TD.AperFunction*%
%TO.P,U2,19*%
%TO.N,GND*%
%TA.AperFunction,SMDPad,CuDef*%
G36*
G01*
X140065000Y-111225000D02*
X140065000Y-111425000D01*
G75*
G02*
X139965000Y-111525000I-100000J0D01*
G01*
X138690000Y-111525000D01*
G75*
G02*
X138590000Y-111425000I0J100000D01*
G01*
X138590000Y-111225000D01*
G75*
G02*
X138690000Y-111125000I100000J0D01*
G01*
X139965000Y-111125000D01*
G75*
G02*
X140065000Y-111225000I0J-100000D01*
G01*
G37*
%TD.AperFunction*%
%TO.P,U2,20*%
%TO.N,spdif_in*%
%TA.AperFunction,SMDPad,CuDef*%
G36*
G01*
X140065000Y-111875000D02*
X140065000Y-112075000D01*
G75*
G02*
X139965000Y-112175000I-100000J0D01*
G01*
X138690000Y-112175000D01*
G75*
G02*
X138590000Y-112075000I0J100000D01*
G01*
X138590000Y-111875000D01*
G75*
G02*
X138690000Y-111775000I100000J0D01*
G01*
X139965000Y-111775000D01*
G75*
G02*
X140065000Y-111875000I0J-100000D01*
G01*
G37*
%TD.AperFunction*%
%TO.P,U2,21*%
%TO.N,dir_rst*%
%TA.AperFunction,SMDPad,CuDef*%
G36*
G01*
X140065000Y-112525000D02*
X140065000Y-112725000D01*
G75*
G02*
X139965000Y-112825000I-100000J0D01*
G01*
X138690000Y-112825000D01*
G75*
G02*
X138590000Y-112725000I0J100000D01*
G01*
X138590000Y-112525000D01*
G75*
G02*
X138690000Y-112425000I100000J0D01*
G01*
X139965000Y-112425000D01*
G75*
G02*
X140065000Y-112525000I0J-100000D01*
G01*
G37*
%TD.AperFunction*%
%TO.P,U2,22*%
%TO.N,Net-(C19-Pad1)*%
%TA.AperFunction,SMDPad,CuDef*%
G36*
G01*
X140065000Y-113175000D02*
X140065000Y-113375000D01*
G75*
G02*
X139965000Y-113475000I-100000J0D01*
G01*
X138690000Y-113475000D01*
G75*
G02*
X138590000Y-113375000I0J100000D01*
G01*
X138590000Y-113175000D01*
G75*
G02*
X138690000Y-113075000I100000J0D01*
G01*
X139965000Y-113075000D01*
G75*
G02*
X140065000Y-113175000I0J-100000D01*
G01*
G37*
%TD.AperFunction*%
%TO.P,U2,23*%
%TO.N,GND*%
%TA.AperFunction,SMDPad,CuDef*%
G36*
G01*
X140065000Y-113825000D02*
X140065000Y-114025000D01*
G75*
G02*
X139965000Y-114125000I-100000J0D01*
G01*
X138690000Y-114125000D01*
G75*
G02*
X138590000Y-114025000I0J100000D01*
G01*
X138590000Y-113825000D01*
G75*
G02*
X138690000Y-113725000I100000J0D01*
G01*
X139965000Y-113725000D01*
G75*
G02*
X140065000Y-113825000I0J-100000D01*
G01*
G37*
%TD.AperFunction*%
%TO.P,U2,24*%
%TO.N,+3V3*%
%TA.AperFunction,SMDPad,CuDef*%
G36*
G01*
X140065000Y-114475000D02*
X140065000Y-114675000D01*
G75*
G02*
X139965000Y-114775000I-100000J0D01*
G01*
X138690000Y-114775000D01*
G75*
G02*
X138590000Y-114675000I0J100000D01*
G01*
X138590000Y-114475000D01*
G75*
G02*
X138690000Y-114375000I100000J0D01*
G01*
X139965000Y-114375000D01*
G75*
G02*
X140065000Y-114475000I0J-100000D01*
G01*
G37*
%TD.AperFunction*%
%TO.P,U2,25*%
%TO.N,Net-(R17-Pad2)*%
%TA.AperFunction,SMDPad,CuDef*%
G36*
G01*
X140065000Y-115125000D02*
X140065000Y-115325000D01*
G75*
G02*
X139965000Y-115425000I-100000J0D01*
G01*
X138690000Y-115425000D01*
G75*
G02*
X138590000Y-115325000I0J100000D01*
G01*
X138590000Y-115125000D01*
G75*
G02*
X138690000Y-115025000I100000J0D01*
G01*
X139965000Y-115025000D01*
G75*
G02*
X140065000Y-115125000I0J-100000D01*
G01*
G37*
%TD.AperFunction*%
%TO.P,U2,26*%
%TA.AperFunction,SMDPad,CuDef*%
G36*
G01*
X140065000Y-115775000D02*
X140065000Y-115975000D01*
G75*
G02*
X139965000Y-116075000I-100000J0D01*
G01*
X138690000Y-116075000D01*
G75*
G02*
X138590000Y-115975000I0J100000D01*
G01*
X138590000Y-115775000D01*
G75*
G02*
X138690000Y-115675000I100000J0D01*
G01*
X139965000Y-115675000D01*
G75*
G02*
X140065000Y-115775000I0J-100000D01*
G01*
G37*
%TD.AperFunction*%
%TO.P,U2,27*%
%TO.N,dir_error*%
%TA.AperFunction,SMDPad,CuDef*%
G36*
G01*
X140065000Y-116425000D02*
X140065000Y-116625000D01*
G75*
G02*
X139965000Y-116725000I-100000J0D01*
G01*
X138690000Y-116725000D01*
G75*
G02*
X138590000Y-116625000I0J100000D01*
G01*
X138590000Y-116425000D01*
G75*
G02*
X138690000Y-116325000I100000J0D01*
G01*
X139965000Y-116325000D01*
G75*
G02*
X140065000Y-116425000I0J-100000D01*
G01*
G37*
%TD.AperFunction*%
%TO.P,U2,28*%
%TO.N,N/C*%
%TA.AperFunction,SMDPad,CuDef*%
G36*
G01*
X140065000Y-117075000D02*
X140065000Y-117275000D01*
G75*
G02*
X139965000Y-117375000I-100000J0D01*
G01*
X138690000Y-117375000D01*
G75*
G02*
X138590000Y-117275000I0J100000D01*
G01*
X138590000Y-117075000D01*
G75*
G02*
X138690000Y-116975000I100000J0D01*
G01*
X139965000Y-116975000D01*
G75*
G02*
X140065000Y-117075000I0J-100000D01*
G01*
G37*
%TD.AperFunction*%
%TD*%
%TO.P,U3,1*%
%TO.N,dir_rst*%
%TA.AperFunction,SMDPad,CuDef*%
G36*
G01*
X145240000Y-90175000D02*
X145240000Y-90375000D01*
G75*
G02*
X145140000Y-90475000I-100000J0D01*
G01*
X143865000Y-90475000D01*
G75*
G02*
X143765000Y-90375000I0J100000D01*
G01*
X143765000Y-90175000D01*
G75*
G02*
X143865000Y-90075000I100000J0D01*
G01*
X145140000Y-90075000D01*
G75*
G02*
X145240000Y-90175000I0J-100000D01*
G01*
G37*
%TD.AperFunction*%
%TO.P,U3,2*%
%TO.N,i2c_sda*%
%TA.AperFunction,SMDPad,CuDef*%
G36*
G01*
X145240000Y-89525000D02*
X145240000Y-89725000D01*
G75*
G02*
X145140000Y-89825000I-100000J0D01*
G01*
X143865000Y-89825000D01*
G75*
G02*
X143765000Y-89725000I0J100000D01*
G01*
X143765000Y-89525000D01*
G75*
G02*
X143865000Y-89425000I100000J0D01*
G01*
X145140000Y-89425000D01*
G75*
G02*
X145240000Y-89525000I0J-100000D01*
G01*
G37*
%TD.AperFunction*%
%TO.P,U3,3*%
%TO.N,i2c_scl*%
%TA.AperFunction,SMDPad,CuDef*%
G36*
G01*
X145240000Y-88875000D02*
X145240000Y-89075000D01*
G75*
G02*
X145140000Y-89175000I-100000J0D01*
G01*
X143865000Y-89175000D01*
G75*
G02*
X143765000Y-89075000I0J100000D01*
G01*
X143765000Y-88875000D01*
G75*
G02*
X143865000Y-88775000I100000J0D01*
G01*
X145140000Y-88775000D01*
G75*
G02*
X145240000Y-88875000I0J-100000D01*
G01*
G37*
%TD.AperFunction*%
%TO.P,U3,4*%
%TO.N,Net-(C24-Pad1)*%
%TA.AperFunction,SMDPad,CuDef*%
G36*
G01*
X145240000Y-88225000D02*
X145240000Y-88425000D01*
G75*
G02*
X145140000Y-88525000I-100000J0D01*
G01*
X143865000Y-88525000D01*
G75*
G02*
X143765000Y-88425000I0J100000D01*
G01*
X143765000Y-88225000D01*
G75*
G02*
X143865000Y-88125000I100000J0D01*
G01*
X145140000Y-88125000D01*
G75*
G02*
X145240000Y-88225000I0J-100000D01*
G01*
G37*
%TD.AperFunction*%
%TO.P,U3,5*%
%TO.N,+3V3*%
%TA.AperFunction,SMDPad,CuDef*%
G36*
G01*
X145240000Y-87575000D02*
X145240000Y-87775000D01*
G75*
G02*
X145140000Y-87875000I-100000J0D01*
G01*
X143865000Y-87875000D01*
G75*
G02*
X143765000Y-87775000I0J100000D01*
G01*
X143765000Y-87575000D01*
G75*
G02*
X143865000Y-87475000I100000J0D01*
G01*
X145140000Y-87475000D01*
G75*
G02*
X145240000Y-87575000I0J-100000D01*
G01*
G37*
%TD.AperFunction*%
%TO.P,U3,6*%
%TO.N,tas_pdn*%
%TA.AperFunction,SMDPad,CuDef*%
G36*
G01*
X145240000Y-86925000D02*
X145240000Y-87125000D01*
G75*
G02*
X145140000Y-87225000I-100000J0D01*
G01*
X143865000Y-87225000D01*
G75*
G02*
X143765000Y-87125000I0J100000D01*
G01*
X143765000Y-86925000D01*
G75*
G02*
X143865000Y-86825000I100000J0D01*
G01*
X145140000Y-86825000D01*
G75*
G02*
X145240000Y-86925000I0J-100000D01*
G01*
G37*
%TD.AperFunction*%
%TO.P,U3,7*%
%TO.N,dir_error*%
%TA.AperFunction,SMDPad,CuDef*%
G36*
G01*
X145240000Y-86275000D02*
X145240000Y-86475000D01*
G75*
G02*
X145140000Y-86575000I-100000J0D01*
G01*
X143865000Y-86575000D01*
G75*
G02*
X143765000Y-86475000I0J100000D01*
G01*
X143765000Y-86275000D01*
G75*
G02*
X143865000Y-86175000I100000J0D01*
G01*
X145140000Y-86175000D01*
G75*
G02*
X145240000Y-86275000I0J-100000D01*
G01*
G37*
%TD.AperFunction*%
%TO.P,U3,8*%
%TO.N,uart_tx*%
%TA.AperFunction,SMDPad,CuDef*%
G36*
G01*
X145240000Y-85625000D02*
X145240000Y-85825000D01*
G75*
G02*
X145140000Y-85925000I-100000J0D01*
G01*
X143865000Y-85925000D01*
G75*
G02*
X143765000Y-85825000I0J100000D01*
G01*
X143765000Y-85625000D01*
G75*
G02*
X143865000Y-85525000I100000J0D01*
G01*
X145140000Y-85525000D01*
G75*
G02*
X145240000Y-85625000I0J-100000D01*
G01*
G37*
%TD.AperFunction*%
%TO.P,U3,9*%
%TO.N,uart_rx*%
%TA.AperFunction,SMDPad,CuDef*%
G36*
G01*
X145240000Y-84975000D02*
X145240000Y-85175000D01*
G75*
G02*
X145140000Y-85275000I-100000J0D01*
G01*
X143865000Y-85275000D01*
G75*
G02*
X143765000Y-85175000I0J100000D01*
G01*
X143765000Y-84975000D01*
G75*
G02*
X143865000Y-84875000I100000J0D01*
G01*
X145140000Y-84875000D01*
G75*
G02*
X145240000Y-84975000I0J-100000D01*
G01*
G37*
%TD.AperFunction*%
%TO.P,U3,10*%
%TO.N,tas_fault*%
%TA.AperFunction,SMDPad,CuDef*%
G36*
G01*
X145240000Y-84325000D02*
X145240000Y-84525000D01*
G75*
G02*
X145140000Y-84625000I-100000J0D01*
G01*
X143865000Y-84625000D01*
G75*
G02*
X143765000Y-84525000I0J100000D01*
G01*
X143765000Y-84325000D01*
G75*
G02*
X143865000Y-84225000I100000J0D01*
G01*
X145140000Y-84225000D01*
G75*
G02*
X145240000Y-84325000I0J-100000D01*
G01*
G37*
%TD.AperFunction*%
%TO.P,U3,11*%
%TO.N,cec_in*%
%TA.AperFunction,SMDPad,CuDef*%
G36*
G01*
X139515000Y-84325000D02*
X139515000Y-84525000D01*
G75*
G02*
X139415000Y-84625000I-100000J0D01*
G01*
X138140000Y-84625000D01*
G75*
G02*
X138040000Y-84525000I0J100000D01*
G01*
X138040000Y-84325000D01*
G75*
G02*
X138140000Y-84225000I100000J0D01*
G01*
X139415000Y-84225000D01*
G75*
G02*
X139515000Y-84325000I0J-100000D01*
G01*
G37*
%TD.AperFunction*%
%TO.P,U3,12*%
%TO.N,hpd_in*%
%TA.AperFunction,SMDPad,CuDef*%
G36*
G01*
X139515000Y-84975000D02*
X139515000Y-85175000D01*
G75*
G02*
X139415000Y-85275000I-100000J0D01*
G01*
X138140000Y-85275000D01*
G75*
G02*
X138040000Y-85175000I0J100000D01*
G01*
X138040000Y-84975000D01*
G75*
G02*
X138140000Y-84875000I100000J0D01*
G01*
X139415000Y-84875000D01*
G75*
G02*
X139515000Y-84975000I0J-100000D01*
G01*
G37*
%TD.AperFunction*%
%TO.P,U3,13*%
%TO.N,led0*%
%TA.AperFunction,SMDPad,CuDef*%
G36*
G01*
X139515000Y-85625000D02*
X139515000Y-85825000D01*
G75*
G02*
X139415000Y-85925000I-100000J0D01*
G01*
X138140000Y-85925000D01*
G75*
G02*
X138040000Y-85825000I0J100000D01*
G01*
X138040000Y-85625000D01*
G75*
G02*
X138140000Y-85525000I100000J0D01*
G01*
X139415000Y-85525000D01*
G75*
G02*
X139515000Y-85625000I0J-100000D01*
G01*
G37*
%TD.AperFunction*%
%TO.P,U3,14*%
%TO.N,led1*%
%TA.AperFunction,SMDPad,CuDef*%
G36*
G01*
X139515000Y-86275000D02*
X139515000Y-86475000D01*
G75*
G02*
X139415000Y-86575000I-100000J0D01*
G01*
X138140000Y-86575000D01*
G75*
G02*
X138040000Y-86475000I0J100000D01*
G01*
X138040000Y-86275000D01*
G75*
G02*
X138140000Y-86175000I100000J0D01*
G01*
X139415000Y-86175000D01*
G75*
G02*
X139515000Y-86275000I0J-100000D01*
G01*
G37*
%TD.AperFunction*%
%TO.P,U3,15*%
%TO.N,GND*%
%TA.AperFunction,SMDPad,CuDef*%
G36*
G01*
X139515000Y-86925000D02*
X139515000Y-87125000D01*
G75*
G02*
X139415000Y-87225000I-100000J0D01*
G01*
X138140000Y-87225000D01*
G75*
G02*
X138040000Y-87125000I0J100000D01*
G01*
X138040000Y-86925000D01*
G75*
G02*
X138140000Y-86825000I100000J0D01*
G01*
X139415000Y-86825000D01*
G75*
G02*
X139515000Y-86925000I0J-100000D01*
G01*
G37*
%TD.AperFunction*%
%TO.P,U3,16*%
%TO.N,+3V3*%
%TA.AperFunction,SMDPad,CuDef*%
G36*
G01*
X139515000Y-87575000D02*
X139515000Y-87775000D01*
G75*
G02*
X139415000Y-87875000I-100000J0D01*
G01*
X138140000Y-87875000D01*
G75*
G02*
X138040000Y-87775000I0J100000D01*
G01*
X138040000Y-87575000D01*
G75*
G02*
X138140000Y-87475000I100000J0D01*
G01*
X139415000Y-87475000D01*
G75*
G02*
X139515000Y-87575000I0J-100000D01*
G01*
G37*
%TD.AperFunction*%
%TO.P,U3,17*%
%TO.N,usb_dm*%
%TA.AperFunction,SMDPad,CuDef*%
G36*
G01*
X139515000Y-88225000D02*
X139515000Y-88425000D01*
G75*
G02*
X139415000Y-88525000I-100000J0D01*
G01*
X138140000Y-88525000D01*
G75*
G02*
X138040000Y-88425000I0J100000D01*
G01*
X138040000Y-88225000D01*
G75*
G02*
X138140000Y-88125000I100000J0D01*
G01*
X139415000Y-88125000D01*
G75*
G02*
X139515000Y-88225000I0J-100000D01*
G01*
G37*
%TD.AperFunction*%
%TO.P,U3,18*%
%TO.N,usb_dp*%
%TA.AperFunction,SMDPad,CuDef*%
G36*
G01*
X139515000Y-88875000D02*
X139515000Y-89075000D01*
G75*
G02*
X139415000Y-89175000I-100000J0D01*
G01*
X138140000Y-89175000D01*
G75*
G02*
X138040000Y-89075000I0J100000D01*
G01*
X138040000Y-88875000D01*
G75*
G02*
X138140000Y-88775000I100000J0D01*
G01*
X139415000Y-88775000D01*
G75*
G02*
X139515000Y-88875000I0J-100000D01*
G01*
G37*
%TD.AperFunction*%
%TO.P,U3,19*%
%TO.N,swdio*%
%TA.AperFunction,SMDPad,CuDef*%
G36*
G01*
X139515000Y-89525000D02*
X139515000Y-89725000D01*
G75*
G02*
X139415000Y-89825000I-100000J0D01*
G01*
X138140000Y-89825000D01*
G75*
G02*
X138040000Y-89725000I0J100000D01*
G01*
X138040000Y-89525000D01*
G75*
G02*
X138140000Y-89425000I100000J0D01*
G01*
X139415000Y-89425000D01*
G75*
G02*
X139515000Y-89525000I0J-100000D01*
G01*
G37*
%TD.AperFunction*%
%TO.P,U3,20*%
%TO.N,swclk*%
%TA.AperFunction,SMDPad,CuDef*%
G36*
G01*
X139515000Y-90175000D02*
X139515000Y-90375000D01*
G75*
G02*
X139415000Y-90475000I-100000J0D01*
G01*
X138140000Y-90475000D01*
G75*
G02*
X138040000Y-90375000I0J100000D01*
G01*
X138040000Y-90175000D01*
G75*
G02*
X138140000Y-90075000I100000J0D01*
G01*
X139415000Y-90075000D01*
G75*
G02*
X139515000Y-90175000I0J-100000D01*
G01*
G37*
%TD.AperFunction*%
%TD*%
%TO.P,C9,1*%
%TO.N,vin*%
%TA.AperFunction,SMDPad,CuDef*%
G36*
G01*
X154112500Y-93855000D02*
X154112500Y-94355000D01*
G75*
G02*
X153887500Y-94580000I-225000J0D01*
G01*
X153437500Y-94580000D01*
G75*
G02*
X153212500Y-94355000I0J225000D01*
G01*
X153212500Y-93855000D01*
G75*
G02*
X153437500Y-93630000I225000J0D01*
G01*
X153887500Y-93630000D01*
G75*
G02*
X154112500Y-93855000I0J-225000D01*
G01*
G37*
%TD.AperFunction*%
%TO.P,C9,2*%
%TO.N,GND*%
%TA.AperFunction,SMDPad,CuDef*%
G36*
G01*
X152562500Y-93855000D02*
X152562500Y-94355000D01*
G75*
G02*
X152337500Y-94580000I-225000J0D01*
G01*
X151887500Y-94580000D01*
G75*
G02*
X151662500Y-94355000I0J225000D01*
G01*
X151662500Y-93855000D01*
G75*
G02*
X151887500Y-93630000I225000J0D01*
G01*
X152337500Y-93630000D01*
G75*
G02*
X152562500Y-93855000I0J-225000D01*
G01*
G37*
%TD.AperFunction*%
%TD*%
%TO.P,C10,2*%
%TO.N,GND*%
%TA.AperFunction,SMDPad,CuDef*%
G36*
G01*
X152562500Y-105645000D02*
X152562500Y-106145000D01*
G75*
G02*
X152337500Y-106370000I-225000J0D01*
G01*
X151887500Y-106370000D01*
G75*
G02*
X151662500Y-106145000I0J225000D01*
G01*
X151662500Y-105645000D01*
G75*
G02*
X151887500Y-105420000I225000J0D01*
G01*
X152337500Y-105420000D01*
G75*
G02*
X152562500Y-105645000I0J-225000D01*
G01*
G37*
%TD.AperFunction*%
%TO.P,C10,1*%
%TO.N,vin*%
%TA.AperFunction,SMDPad,CuDef*%
G36*
G01*
X154112500Y-105645000D02*
X154112500Y-106145000D01*
G75*
G02*
X153887500Y-106370000I-225000J0D01*
G01*
X153437500Y-106370000D01*
G75*
G02*
X153212500Y-106145000I0J225000D01*
G01*
X153212500Y-105645000D01*
G75*
G02*
X153437500Y-105420000I225000J0D01*
G01*
X153887500Y-105420000D01*
G75*
G02*
X154112500Y-105645000I0J-225000D01*
G01*
G37*
%TD.AperFunction*%
%TD*%
%TO.P,C11,1*%
%TO.N,vin*%
%TA.AperFunction,SMDPad,CuDef*%
G36*
G01*
X164050000Y-99525000D02*
X164050000Y-100475000D01*
G75*
G02*
X163800000Y-100725000I-250000J0D01*
G01*
X163300000Y-100725000D01*
G75*
G02*
X163050000Y-100475000I0J250000D01*
G01*
X163050000Y-99525000D01*
G75*
G02*
X163300000Y-99275000I250000J0D01*
G01*
X163800000Y-99275000D01*
G75*
G02*
X164050000Y-99525000I0J-250000D01*
G01*
G37*
%TD.AperFunction*%
%TO.P,C11,2*%
%TO.N,GND*%
%TA.AperFunction,SMDPad,CuDef*%
G36*
G01*
X162150000Y-99525000D02*
X162150000Y-100475000D01*
G75*
G02*
X161900000Y-100725000I-250000J0D01*
G01*
X161400000Y-100725000D01*
G75*
G02*
X161150000Y-100475000I0J250000D01*
G01*
X161150000Y-99525000D01*
G75*
G02*
X161400000Y-99275000I250000J0D01*
G01*
X161900000Y-99275000D01*
G75*
G02*
X162150000Y-99525000I0J-250000D01*
G01*
G37*
%TD.AperFunction*%
%TD*%
%TO.P,C12,2*%
%TO.N,GND*%
%TA.AperFunction,SMDPad,CuDef*%
G36*
G01*
X158350000Y-99525000D02*
X158350000Y-100475000D01*
G75*
G02*
X158100000Y-100725000I-250000J0D01*
G01*
X157600000Y-100725000D01*
G75*
G02*
X157350000Y-100475000I0J250000D01*
G01*
X157350000Y-99525000D01*
G75*
G02*
X157600000Y-99275000I250000J0D01*
G01*
X158100000Y-99275000D01*
G75*
G02*
X158350000Y-99525000I0J-250000D01*
G01*
G37*
%TD.AperFunction*%
%TO.P,C12,1*%
%TO.N,vin*%
%TA.AperFunction,SMDPad,CuDef*%
G36*
G01*
X160250000Y-99525000D02*
X160250000Y-100475000D01*
G75*
G02*
X160000000Y-100725000I-250000J0D01*
G01*
X159500000Y-100725000D01*
G75*
G02*
X159250000Y-100475000I0J250000D01*
G01*
X159250000Y-99525000D01*
G75*
G02*
X159500000Y-99275000I250000J0D01*
G01*
X160000000Y-99275000D01*
G75*
G02*
X160250000Y-99525000I0J-250000D01*
G01*
G37*
%TD.AperFunction*%
%TD*%
D20*
%TO.P,Q2,5*%
%TO.N,i2c_scl*%
X138620000Y-97550000D03*
%TO.P,Q2,6*%
%TO.N,hdmi_scl*%
X139570000Y-97550000D03*
%TO.P,Q2,4*%
%TO.N,hdmi_sda*%
X137670000Y-97550000D03*
%TO.P,Q2,3*%
%TO.N,+3V3*%
X137670000Y-94950000D03*
%TO.P,Q2,2*%
%TO.N,i2c_sda*%
X138620000Y-94950000D03*
%TO.P,Q2,1*%
%TO.N,+3V3*%
X139570000Y-94950000D03*
%TD*%
D18*
%TO.P,U5,1*%
%TO.N,Net-(R4-Pad1)*%
X138900000Y-103370000D03*
%TO.P,U5,2*%
%TO.N,GND*%
X138900000Y-104320000D03*
%TO.P,U5,3*%
%TO.N,spdif_inv*%
X138900000Y-105270000D03*
%TO.P,U5,4*%
%TO.N,spdif_in*%
X141100000Y-105270000D03*
%TO.P,U5,6*%
%TO.N,Net-(C18-Pad1)*%
X141100000Y-103370000D03*
%TO.P,U5,5*%
%TO.N,+3V3*%
X141100000Y-104320000D03*
%TD*%
D21*
%TO.P,Q1,1*%
%TO.N,+3V3*%
X126300000Y-97260000D03*
%TO.P,Q1,2*%
%TO.N,hdmi_cec*%
X128200000Y-97260000D03*
%TO.P,Q1,3*%
%TO.N,cec_in*%
X127250000Y-95260000D03*
%TD*%
%TO.P,C17,2*%
%TO.N,hdmi_utility*%
%TA.AperFunction,SMDPad,CuDef*%
G36*
G01*
X137430000Y-101720000D02*
X137770000Y-101720000D01*
G75*
G02*
X137910000Y-101860000I0J-140000D01*
G01*
X137910000Y-102140000D01*
G75*
G02*
X137770000Y-102280000I-140000J0D01*
G01*
X137430000Y-102280000D01*
G75*
G02*
X137290000Y-102140000I0J140000D01*
G01*
X137290000Y-101860000D01*
G75*
G02*
X137430000Y-101720000I140000J0D01*
G01*
G37*
%TD.AperFunction*%
%TO.P,C17,1*%
%TO.N,Net-(C17-Pad1)*%
%TA.AperFunction,SMDPad,CuDef*%
G36*
G01*
X137430000Y-100760000D02*
X137770000Y-100760000D01*
G75*
G02*
X137910000Y-100900000I0J-140000D01*
G01*
X137910000Y-101180000D01*
G75*
G02*
X137770000Y-101320000I-140000J0D01*
G01*
X137430000Y-101320000D01*
G75*
G02*
X137290000Y-101180000I0J140000D01*
G01*
X137290000Y-100900000D01*
G75*
G02*
X137430000Y-100760000I140000J0D01*
G01*
G37*
%TD.AperFunction*%
%TD*%
%TO.P,C18,1*%
%TO.N,Net-(C18-Pad1)*%
%TA.AperFunction,SMDPad,CuDef*%
G36*
G01*
X141180000Y-101850000D02*
X141180000Y-102190000D01*
G75*
G02*
X141040000Y-102330000I-140000J0D01*
G01*
X140760000Y-102330000D01*
G75*
G02*
X140620000Y-102190000I0J140000D01*
G01*
X140620000Y-101850000D01*
G75*
G02*
X140760000Y-101710000I140000J0D01*
G01*
X141040000Y-101710000D01*
G75*
G02*
X141180000Y-101850000I0J-140000D01*
G01*
G37*
%TD.AperFunction*%
%TO.P,C18,2*%
%TO.N,spdif_inv*%
%TA.AperFunction,SMDPad,CuDef*%
G36*
G01*
X140220000Y-101850000D02*
X140220000Y-102190000D01*
G75*
G02*
X140080000Y-102330000I-140000J0D01*
G01*
X139800000Y-102330000D01*
G75*
G02*
X139660000Y-102190000I0J140000D01*
G01*
X139660000Y-101850000D01*
G75*
G02*
X139800000Y-101710000I140000J0D01*
G01*
X140080000Y-101710000D01*
G75*
G02*
X140220000Y-101850000I0J-140000D01*
G01*
G37*
%TD.AperFunction*%
%TD*%
%TO.P,R1,2*%
%TO.N,Net-(J2-PadA5)*%
%TA.AperFunction,SMDPad,CuDef*%
G36*
G01*
X133290000Y-84865000D02*
X133290000Y-85235000D01*
G75*
G02*
X133155000Y-85370000I-135000J0D01*
G01*
X132885000Y-85370000D01*
G75*
G02*
X132750000Y-85235000I0J135000D01*
G01*
X132750000Y-84865000D01*
G75*
G02*
X132885000Y-84730000I135000J0D01*
G01*
X133155000Y-84730000D01*
G75*
G02*
X133290000Y-84865000I0J-135000D01*
G01*
G37*
%TD.AperFunction*%
%TO.P,R1,1*%
%TO.N,GND*%
%TA.AperFunction,SMDPad,CuDef*%
G36*
G01*
X134310000Y-84865000D02*
X134310000Y-85235000D01*
G75*
G02*
X134175000Y-85370000I-135000J0D01*
G01*
X133905000Y-85370000D01*
G75*
G02*
X133770000Y-85235000I0J135000D01*
G01*
X133770000Y-84865000D01*
G75*
G02*
X133905000Y-84730000I135000J0D01*
G01*
X134175000Y-84730000D01*
G75*
G02*
X134310000Y-84865000I0J-135000D01*
G01*
G37*
%TD.AperFunction*%
%TD*%
%TO.P,R3,2*%
%TO.N,GND*%
%TA.AperFunction,SMDPad,CuDef*%
G36*
G01*
X137415000Y-104560000D02*
X137785000Y-104560000D01*
G75*
G02*
X137920000Y-104695000I0J-135000D01*
G01*
X137920000Y-104965000D01*
G75*
G02*
X137785000Y-105100000I-135000J0D01*
G01*
X137415000Y-105100000D01*
G75*
G02*
X137280000Y-104965000I0J135000D01*
G01*
X137280000Y-104695000D01*
G75*
G02*
X137415000Y-104560000I135000J0D01*
G01*
G37*
%TD.AperFunction*%
%TO.P,R3,1*%
%TO.N,hdmi_utility*%
%TA.AperFunction,SMDPad,CuDef*%
G36*
G01*
X137415000Y-103540000D02*
X137785000Y-103540000D01*
G75*
G02*
X137920000Y-103675000I0J-135000D01*
G01*
X137920000Y-103945000D01*
G75*
G02*
X137785000Y-104080000I-135000J0D01*
G01*
X137415000Y-104080000D01*
G75*
G02*
X137280000Y-103945000I0J135000D01*
G01*
X137280000Y-103675000D01*
G75*
G02*
X137415000Y-103540000I135000J0D01*
G01*
G37*
%TD.AperFunction*%
%TD*%
%TO.P,R4,1*%
%TO.N,Net-(R4-Pad1)*%
%TA.AperFunction,SMDPad,CuDef*%
G36*
G01*
X138785000Y-102300000D02*
X138415000Y-102300000D01*
G75*
G02*
X138280000Y-102165000I0J135000D01*
G01*
X138280000Y-101895000D01*
G75*
G02*
X138415000Y-101760000I135000J0D01*
G01*
X138785000Y-101760000D01*
G75*
G02*
X138920000Y-101895000I0J-135000D01*
G01*
X138920000Y-102165000D01*
G75*
G02*
X138785000Y-102300000I-135000J0D01*
G01*
G37*
%TD.AperFunction*%
%TO.P,R4,2*%
%TO.N,Net-(C17-Pad1)*%
%TA.AperFunction,SMDPad,CuDef*%
G36*
G01*
X138785000Y-101280000D02*
X138415000Y-101280000D01*
G75*
G02*
X138280000Y-101145000I0J135000D01*
G01*
X138280000Y-100875000D01*
G75*
G02*
X138415000Y-100740000I135000J0D01*
G01*
X138785000Y-100740000D01*
G75*
G02*
X138920000Y-100875000I0J-135000D01*
G01*
X138920000Y-101145000D01*
G75*
G02*
X138785000Y-101280000I-135000J0D01*
G01*
G37*
%TD.AperFunction*%
%TD*%
%TO.P,R5,2*%
%TO.N,Net-(R4-Pad1)*%
%TA.AperFunction,SMDPad,CuDef*%
G36*
G01*
X140170000Y-100835000D02*
X140170000Y-101205000D01*
G75*
G02*
X140035000Y-101340000I-135000J0D01*
G01*
X139765000Y-101340000D01*
G75*
G02*
X139630000Y-101205000I0J135000D01*
G01*
X139630000Y-100835000D01*
G75*
G02*
X139765000Y-100700000I135000J0D01*
G01*
X140035000Y-100700000D01*
G75*
G02*
X140170000Y-100835000I0J-135000D01*
G01*
G37*
%TD.AperFunction*%
%TO.P,R5,1*%
%TO.N,Net-(C18-Pad1)*%
%TA.AperFunction,SMDPad,CuDef*%
G36*
G01*
X141190000Y-100835000D02*
X141190000Y-101205000D01*
G75*
G02*
X141055000Y-101340000I-135000J0D01*
G01*
X140785000Y-101340000D01*
G75*
G02*
X140650000Y-101205000I0J135000D01*
G01*
X140650000Y-100835000D01*
G75*
G02*
X140785000Y-100700000I135000J0D01*
G01*
X141055000Y-100700000D01*
G75*
G02*
X141190000Y-100835000I0J-135000D01*
G01*
G37*
%TD.AperFunction*%
%TD*%
%TO.P,R6,1*%
%TO.N,spdif_in*%
%TA.AperFunction,SMDPad,CuDef*%
G36*
G01*
X139870000Y-106455000D02*
X139870000Y-106825000D01*
G75*
G02*
X139735000Y-106960000I-135000J0D01*
G01*
X139465000Y-106960000D01*
G75*
G02*
X139330000Y-106825000I0J135000D01*
G01*
X139330000Y-106455000D01*
G75*
G02*
X139465000Y-106320000I135000J0D01*
G01*
X139735000Y-106320000D01*
G75*
G02*
X139870000Y-106455000I0J-135000D01*
G01*
G37*
%TD.AperFunction*%
%TO.P,R6,2*%
%TO.N,spdif_inv*%
%TA.AperFunction,SMDPad,CuDef*%
G36*
G01*
X138850000Y-106455000D02*
X138850000Y-106825000D01*
G75*
G02*
X138715000Y-106960000I-135000J0D01*
G01*
X138445000Y-106960000D01*
G75*
G02*
X138310000Y-106825000I0J135000D01*
G01*
X138310000Y-106455000D01*
G75*
G02*
X138445000Y-106320000I135000J0D01*
G01*
X138715000Y-106320000D01*
G75*
G02*
X138850000Y-106455000I0J-135000D01*
G01*
G37*
%TD.AperFunction*%
%TD*%
%TO.P,R7,2*%
%TO.N,GND*%
%TA.AperFunction,SMDPad,CuDef*%
G36*
G01*
X137785000Y-105990000D02*
X137415000Y-105990000D01*
G75*
G02*
X137280000Y-105855000I0J135000D01*
G01*
X137280000Y-105585000D01*
G75*
G02*
X137415000Y-105450000I135000J0D01*
G01*
X137785000Y-105450000D01*
G75*
G02*
X137920000Y-105585000I0J-135000D01*
G01*
X137920000Y-105855000D01*
G75*
G02*
X137785000Y-105990000I-135000J0D01*
G01*
G37*
%TD.AperFunction*%
%TO.P,R7,1*%
%TO.N,spdif_inv*%
%TA.AperFunction,SMDPad,CuDef*%
G36*
G01*
X137785000Y-107010000D02*
X137415000Y-107010000D01*
G75*
G02*
X137280000Y-106875000I0J135000D01*
G01*
X137280000Y-106605000D01*
G75*
G02*
X137415000Y-106470000I135000J0D01*
G01*
X137785000Y-106470000D01*
G75*
G02*
X137920000Y-106605000I0J-135000D01*
G01*
X137920000Y-106875000D01*
G75*
G02*
X137785000Y-107010000I-135000J0D01*
G01*
G37*
%TD.AperFunction*%
%TD*%
%TO.P,R8,1*%
%TO.N,hpd_in*%
%TA.AperFunction,SMDPad,CuDef*%
G36*
G01*
X134315000Y-96420000D02*
X134685000Y-96420000D01*
G75*
G02*
X134820000Y-96555000I0J-135000D01*
G01*
X134820000Y-96825000D01*
G75*
G02*
X134685000Y-96960000I-135000J0D01*
G01*
X134315000Y-96960000D01*
G75*
G02*
X134180000Y-96825000I0J135000D01*
G01*
X134180000Y-96555000D01*
G75*
G02*
X134315000Y-96420000I135000J0D01*
G01*
G37*
%TD.AperFunction*%
%TO.P,R8,2*%
%TO.N,hdmi_hpd*%
%TA.AperFunction,SMDPad,CuDef*%
G36*
G01*
X134315000Y-97440000D02*
X134685000Y-97440000D01*
G75*
G02*
X134820000Y-97575000I0J-135000D01*
G01*
X134820000Y-97845000D01*
G75*
G02*
X134685000Y-97980000I-135000J0D01*
G01*
X134315000Y-97980000D01*
G75*
G02*
X134180000Y-97845000I0J135000D01*
G01*
X134180000Y-97575000D01*
G75*
G02*
X134315000Y-97440000I135000J0D01*
G01*
G37*
%TD.AperFunction*%
%TD*%
%TO.P,R11,1*%
%TO.N,hdmi_scl*%
%TA.AperFunction,SMDPad,CuDef*%
G36*
G01*
X133335000Y-97980000D02*
X132965000Y-97980000D01*
G75*
G02*
X132830000Y-97845000I0J135000D01*
G01*
X132830000Y-97575000D01*
G75*
G02*
X132965000Y-97440000I135000J0D01*
G01*
X133335000Y-97440000D01*
G75*
G02*
X133470000Y-97575000I0J-135000D01*
G01*
X133470000Y-97845000D01*
G75*
G02*
X133335000Y-97980000I-135000J0D01*
G01*
G37*
%TD.AperFunction*%
%TO.P,R11,2*%
%TO.N,+5V*%
%TA.AperFunction,SMDPad,CuDef*%
G36*
G01*
X133335000Y-96960000D02*
X132965000Y-96960000D01*
G75*
G02*
X132830000Y-96825000I0J135000D01*
G01*
X132830000Y-96555000D01*
G75*
G02*
X132965000Y-96420000I135000J0D01*
G01*
X133335000Y-96420000D01*
G75*
G02*
X133470000Y-96555000I0J-135000D01*
G01*
X133470000Y-96825000D01*
G75*
G02*
X133335000Y-96960000I-135000J0D01*
G01*
G37*
%TD.AperFunction*%
%TD*%
%TO.P,R12,2*%
%TO.N,+5V*%
%TA.AperFunction,SMDPad,CuDef*%
G36*
G01*
X132965000Y-95540000D02*
X133335000Y-95540000D01*
G75*
G02*
X133470000Y-95675000I0J-135000D01*
G01*
X133470000Y-95945000D01*
G75*
G02*
X133335000Y-96080000I-135000J0D01*
G01*
X132965000Y-96080000D01*
G75*
G02*
X132830000Y-95945000I0J135000D01*
G01*
X132830000Y-95675000D01*
G75*
G02*
X132965000Y-95540000I135000J0D01*
G01*
G37*
%TD.AperFunction*%
%TO.P,R12,1*%
%TO.N,hdmi_sda*%
%TA.AperFunction,SMDPad,CuDef*%
G36*
G01*
X132965000Y-94520000D02*
X133335000Y-94520000D01*
G75*
G02*
X133470000Y-94655000I0J-135000D01*
G01*
X133470000Y-94925000D01*
G75*
G02*
X133335000Y-95060000I-135000J0D01*
G01*
X132965000Y-95060000D01*
G75*
G02*
X132830000Y-94925000I0J135000D01*
G01*
X132830000Y-94655000D01*
G75*
G02*
X132965000Y-94520000I135000J0D01*
G01*
G37*
%TD.AperFunction*%
%TD*%
%TO.P,R13,2*%
%TO.N,i2c_scl*%
%TA.AperFunction,SMDPad,CuDef*%
G36*
G01*
X136585000Y-96970000D02*
X136215000Y-96970000D01*
G75*
G02*
X136080000Y-96835000I0J135000D01*
G01*
X136080000Y-96565000D01*
G75*
G02*
X136215000Y-96430000I135000J0D01*
G01*
X136585000Y-96430000D01*
G75*
G02*
X136720000Y-96565000I0J-135000D01*
G01*
X136720000Y-96835000D01*
G75*
G02*
X136585000Y-96970000I-135000J0D01*
G01*
G37*
%TD.AperFunction*%
%TO.P,R13,1*%
%TO.N,+3V3*%
%TA.AperFunction,SMDPad,CuDef*%
G36*
G01*
X136585000Y-97990000D02*
X136215000Y-97990000D01*
G75*
G02*
X136080000Y-97855000I0J135000D01*
G01*
X136080000Y-97585000D01*
G75*
G02*
X136215000Y-97450000I135000J0D01*
G01*
X136585000Y-97450000D01*
G75*
G02*
X136720000Y-97585000I0J-135000D01*
G01*
X136720000Y-97855000D01*
G75*
G02*
X136585000Y-97990000I-135000J0D01*
G01*
G37*
%TD.AperFunction*%
%TD*%
%TO.P,R14,1*%
%TO.N,+3V3*%
%TA.AperFunction,SMDPad,CuDef*%
G36*
G01*
X136215000Y-94530000D02*
X136585000Y-94530000D01*
G75*
G02*
X136720000Y-94665000I0J-135000D01*
G01*
X136720000Y-94935000D01*
G75*
G02*
X136585000Y-95070000I-135000J0D01*
G01*
X136215000Y-95070000D01*
G75*
G02*
X136080000Y-94935000I0J135000D01*
G01*
X136080000Y-94665000D01*
G75*
G02*
X136215000Y-94530000I135000J0D01*
G01*
G37*
%TD.AperFunction*%
%TO.P,R14,2*%
%TO.N,i2c_sda*%
%TA.AperFunction,SMDPad,CuDef*%
G36*
G01*
X136215000Y-95550000D02*
X136585000Y-95550000D01*
G75*
G02*
X136720000Y-95685000I0J-135000D01*
G01*
X136720000Y-95955000D01*
G75*
G02*
X136585000Y-96090000I-135000J0D01*
G01*
X136215000Y-96090000D01*
G75*
G02*
X136080000Y-95955000I0J135000D01*
G01*
X136080000Y-95685000D01*
G75*
G02*
X136215000Y-95550000I135000J0D01*
G01*
G37*
%TD.AperFunction*%
%TD*%
%TO.P,C20,2*%
%TO.N,+3V3*%
%TA.AperFunction,SMDPad,CuDef*%
G36*
G01*
X145755000Y-96435000D02*
X145755000Y-95935000D01*
G75*
G02*
X145980000Y-95710000I225000J0D01*
G01*
X146430000Y-95710000D01*
G75*
G02*
X146655000Y-95935000I0J-225000D01*
G01*
X146655000Y-96435000D01*
G75*
G02*
X146430000Y-96660000I-225000J0D01*
G01*
X145980000Y-96660000D01*
G75*
G02*
X145755000Y-96435000I0J225000D01*
G01*
G37*
%TD.AperFunction*%
%TO.P,C20,1*%
%TO.N,GND*%
%TA.AperFunction,SMDPad,CuDef*%
G36*
G01*
X144205000Y-96435000D02*
X144205000Y-95935000D01*
G75*
G02*
X144430000Y-95710000I225000J0D01*
G01*
X144880000Y-95710000D01*
G75*
G02*
X145105000Y-95935000I0J-225000D01*
G01*
X145105000Y-96435000D01*
G75*
G02*
X144880000Y-96660000I-225000J0D01*
G01*
X144430000Y-96660000D01*
G75*
G02*
X144205000Y-96435000I0J225000D01*
G01*
G37*
%TD.AperFunction*%
%TD*%
%TO.P,C21,1*%
%TO.N,GND*%
%TA.AperFunction,SMDPad,CuDef*%
G36*
G01*
X144205000Y-98210000D02*
X144205000Y-97710000D01*
G75*
G02*
X144430000Y-97485000I225000J0D01*
G01*
X144880000Y-97485000D01*
G75*
G02*
X145105000Y-97710000I0J-225000D01*
G01*
X145105000Y-98210000D01*
G75*
G02*
X144880000Y-98435000I-225000J0D01*
G01*
X144430000Y-98435000D01*
G75*
G02*
X144205000Y-98210000I0J225000D01*
G01*
G37*
%TD.AperFunction*%
%TO.P,C21,2*%
%TO.N,Net-(C21-Pad2)*%
%TA.AperFunction,SMDPad,CuDef*%
G36*
G01*
X145755000Y-98210000D02*
X145755000Y-97710000D01*
G75*
G02*
X145980000Y-97485000I225000J0D01*
G01*
X146430000Y-97485000D01*
G75*
G02*
X146655000Y-97710000I0J-225000D01*
G01*
X146655000Y-98210000D01*
G75*
G02*
X146430000Y-98435000I-225000J0D01*
G01*
X145980000Y-98435000D01*
G75*
G02*
X145755000Y-98210000I0J225000D01*
G01*
G37*
%TD.AperFunction*%
%TD*%
%TO.P,C22,1*%
%TO.N,GND*%
%TA.AperFunction,SMDPad,CuDef*%
G36*
G01*
X149655000Y-105630000D02*
X149655000Y-106130000D01*
G75*
G02*
X149430000Y-106355000I-225000J0D01*
G01*
X148980000Y-106355000D01*
G75*
G02*
X148755000Y-106130000I0J225000D01*
G01*
X148755000Y-105630000D01*
G75*
G02*
X148980000Y-105405000I225000J0D01*
G01*
X149430000Y-105405000D01*
G75*
G02*
X149655000Y-105630000I0J-225000D01*
G01*
G37*
%TD.AperFunction*%
%TO.P,C22,2*%
%TO.N,Net-(C22-Pad2)*%
%TA.AperFunction,SMDPad,CuDef*%
G36*
G01*
X148105000Y-105630000D02*
X148105000Y-106130000D01*
G75*
G02*
X147880000Y-106355000I-225000J0D01*
G01*
X147430000Y-106355000D01*
G75*
G02*
X147205000Y-106130000I0J225000D01*
G01*
X147205000Y-105630000D01*
G75*
G02*
X147430000Y-105405000I225000J0D01*
G01*
X147880000Y-105405000D01*
G75*
G02*
X148105000Y-105630000I0J-225000D01*
G01*
G37*
%TD.AperFunction*%
%TD*%
%TO.P,R17,2*%
%TO.N,Net-(R17-Pad2)*%
%TA.AperFunction,SMDPad,CuDef*%
G36*
G01*
X137650000Y-116060000D02*
X137650000Y-115690000D01*
G75*
G02*
X137785000Y-115555000I135000J0D01*
G01*
X138055000Y-115555000D01*
G75*
G02*
X138190000Y-115690000I0J-135000D01*
G01*
X138190000Y-116060000D01*
G75*
G02*
X138055000Y-116195000I-135000J0D01*
G01*
X137785000Y-116195000D01*
G75*
G02*
X137650000Y-116060000I0J135000D01*
G01*
G37*
%TD.AperFunction*%
%TO.P,R17,1*%
%TO.N,+3V3*%
%TA.AperFunction,SMDPad,CuDef*%
G36*
G01*
X136630000Y-116060000D02*
X136630000Y-115690000D01*
G75*
G02*
X136765000Y-115555000I135000J0D01*
G01*
X137035000Y-115555000D01*
G75*
G02*
X137170000Y-115690000I0J-135000D01*
G01*
X137170000Y-116060000D01*
G75*
G02*
X137035000Y-116195000I-135000J0D01*
G01*
X136765000Y-116195000D01*
G75*
G02*
X136630000Y-116060000I0J135000D01*
G01*
G37*
%TD.AperFunction*%
%TD*%
%TO.P,R18,1*%
%TO.N,Net-(C23-Pad1)*%
%TA.AperFunction,SMDPad,CuDef*%
G36*
G01*
X136610000Y-113135000D02*
X136610000Y-112765000D01*
G75*
G02*
X136745000Y-112630000I135000J0D01*
G01*
X137015000Y-112630000D01*
G75*
G02*
X137150000Y-112765000I0J-135000D01*
G01*
X137150000Y-113135000D01*
G75*
G02*
X137015000Y-113270000I-135000J0D01*
G01*
X136745000Y-113270000D01*
G75*
G02*
X136610000Y-113135000I0J135000D01*
G01*
G37*
%TD.AperFunction*%
%TO.P,R18,2*%
%TO.N,Net-(C19-Pad1)*%
%TA.AperFunction,SMDPad,CuDef*%
G36*
G01*
X137630000Y-113135000D02*
X137630000Y-112765000D01*
G75*
G02*
X137765000Y-112630000I135000J0D01*
G01*
X138035000Y-112630000D01*
G75*
G02*
X138170000Y-112765000I0J-135000D01*
G01*
X138170000Y-113135000D01*
G75*
G02*
X138035000Y-113270000I-135000J0D01*
G01*
X137765000Y-113270000D01*
G75*
G02*
X137630000Y-113135000I0J135000D01*
G01*
G37*
%TD.AperFunction*%
%TD*%
%TO.P,C19,1*%
%TO.N,Net-(C19-Pad1)*%
%TA.AperFunction,SMDPad,CuDef*%
G36*
G01*
X138150000Y-111805000D02*
X138150000Y-112145000D01*
G75*
G02*
X138010000Y-112285000I-140000J0D01*
G01*
X137730000Y-112285000D01*
G75*
G02*
X137590000Y-112145000I0J140000D01*
G01*
X137590000Y-111805000D01*
G75*
G02*
X137730000Y-111665000I140000J0D01*
G01*
X138010000Y-111665000D01*
G75*
G02*
X138150000Y-111805000I0J-140000D01*
G01*
G37*
%TD.AperFunction*%
%TO.P,C19,2*%
%TO.N,GND*%
%TA.AperFunction,SMDPad,CuDef*%
G36*
G01*
X137190000Y-111805000D02*
X137190000Y-112145000D01*
G75*
G02*
X137050000Y-112285000I-140000J0D01*
G01*
X136770000Y-112285000D01*
G75*
G02*
X136630000Y-112145000I0J140000D01*
G01*
X136630000Y-111805000D01*
G75*
G02*
X136770000Y-111665000I140000J0D01*
G01*
X137050000Y-111665000D01*
G75*
G02*
X137190000Y-111805000I0J-140000D01*
G01*
G37*
%TD.AperFunction*%
%TD*%
%TO.P,C23,2*%
%TO.N,GND*%
%TA.AperFunction,SMDPad,CuDef*%
G36*
G01*
X137190000Y-113755000D02*
X137190000Y-114095000D01*
G75*
G02*
X137050000Y-114235000I-140000J0D01*
G01*
X136770000Y-114235000D01*
G75*
G02*
X136630000Y-114095000I0J140000D01*
G01*
X136630000Y-113755000D01*
G75*
G02*
X136770000Y-113615000I140000J0D01*
G01*
X137050000Y-113615000D01*
G75*
G02*
X137190000Y-113755000I0J-140000D01*
G01*
G37*
%TD.AperFunction*%
%TO.P,C23,1*%
%TO.N,Net-(C23-Pad1)*%
%TA.AperFunction,SMDPad,CuDef*%
G36*
G01*
X138150000Y-113755000D02*
X138150000Y-114095000D01*
G75*
G02*
X138010000Y-114235000I-140000J0D01*
G01*
X137730000Y-114235000D01*
G75*
G02*
X137590000Y-114095000I0J140000D01*
G01*
X137590000Y-113755000D01*
G75*
G02*
X137730000Y-113615000I140000J0D01*
G01*
X138010000Y-113615000D01*
G75*
G02*
X138150000Y-113755000I0J-140000D01*
G01*
G37*
%TD.AperFunction*%
%TD*%
%TO.P,C25,2*%
%TO.N,GND*%
%TA.AperFunction,SMDPad,CuDef*%
G36*
G01*
X153940000Y-92745000D02*
X153940000Y-91795000D01*
G75*
G02*
X154190000Y-91545000I250000J0D01*
G01*
X154690000Y-91545000D01*
G75*
G02*
X154940000Y-91795000I0J-250000D01*
G01*
X154940000Y-92745000D01*
G75*
G02*
X154690000Y-92995000I-250000J0D01*
G01*
X154190000Y-92995000D01*
G75*
G02*
X153940000Y-92745000I0J250000D01*
G01*
G37*
%TD.AperFunction*%
%TO.P,C25,1*%
%TO.N,vin*%
%TA.AperFunction,SMDPad,CuDef*%
G36*
G01*
X152040000Y-92745000D02*
X152040000Y-91795000D01*
G75*
G02*
X152290000Y-91545000I250000J0D01*
G01*
X152790000Y-91545000D01*
G75*
G02*
X153040000Y-91795000I0J-250000D01*
G01*
X153040000Y-92745000D01*
G75*
G02*
X152790000Y-92995000I-250000J0D01*
G01*
X152290000Y-92995000D01*
G75*
G02*
X152040000Y-92745000I0J250000D01*
G01*
G37*
%TD.AperFunction*%
%TD*%
D22*
%TO.P,D1,1*%
%TO.N,Net-(C26-Pad2)*%
X150220000Y-84550000D03*
%TO.P,D1,2*%
%TO.N,GND*%
X150220000Y-82450000D03*
%TD*%
%TO.P,R20,2*%
%TO.N,Net-(R20-Pad2)*%
%TA.AperFunction,SMDPad,CuDef*%
G36*
G01*
X156095000Y-90160000D02*
X155725000Y-90160000D01*
G75*
G02*
X155590000Y-90025000I0J135000D01*
G01*
X155590000Y-89755000D01*
G75*
G02*
X155725000Y-89620000I135000J0D01*
G01*
X156095000Y-89620000D01*
G75*
G02*
X156230000Y-89755000I0J-135000D01*
G01*
X156230000Y-90025000D01*
G75*
G02*
X156095000Y-90160000I-135000J0D01*
G01*
G37*
%TD.AperFunction*%
%TO.P,R20,1*%
%TO.N,GND*%
%TA.AperFunction,SMDPad,CuDef*%
G36*
G01*
X156095000Y-91180000D02*
X155725000Y-91180000D01*
G75*
G02*
X155590000Y-91045000I0J135000D01*
G01*
X155590000Y-90775000D01*
G75*
G02*
X155725000Y-90640000I135000J0D01*
G01*
X156095000Y-90640000D01*
G75*
G02*
X156230000Y-90775000I0J-135000D01*
G01*
X156230000Y-91045000D01*
G75*
G02*
X156095000Y-91180000I-135000J0D01*
G01*
G37*
%TD.AperFunction*%
%TD*%
%TO.P,R21,1*%
%TO.N,Net-(R20-Pad2)*%
%TA.AperFunction,SMDPad,CuDef*%
G36*
G01*
X156095000Y-89280000D02*
X155725000Y-89280000D01*
G75*
G02*
X155590000Y-89145000I0J135000D01*
G01*
X155590000Y-88875000D01*
G75*
G02*
X155725000Y-88740000I135000J0D01*
G01*
X156095000Y-88740000D01*
G75*
G02*
X156230000Y-88875000I0J-135000D01*
G01*
X156230000Y-89145000D01*
G75*
G02*
X156095000Y-89280000I-135000J0D01*
G01*
G37*
%TD.AperFunction*%
%TO.P,R21,2*%
%TO.N,Net-(C27-Pad1)*%
%TA.AperFunction,SMDPad,CuDef*%
G36*
G01*
X156095000Y-88260000D02*
X155725000Y-88260000D01*
G75*
G02*
X155590000Y-88125000I0J135000D01*
G01*
X155590000Y-87855000D01*
G75*
G02*
X155725000Y-87720000I135000J0D01*
G01*
X156095000Y-87720000D01*
G75*
G02*
X156230000Y-87855000I0J-135000D01*
G01*
X156230000Y-88125000D01*
G75*
G02*
X156095000Y-88260000I-135000J0D01*
G01*
G37*
%TD.AperFunction*%
%TD*%
%TO.P,C13,2*%
%TO.N,GND*%
%TA.AperFunction,SMDPad,CuDef*%
G36*
G01*
X164975000Y-104950000D02*
X165925000Y-104950000D01*
G75*
G02*
X166175000Y-105200000I0J-250000D01*
G01*
X166175000Y-105700000D01*
G75*
G02*
X165925000Y-105950000I-250000J0D01*
G01*
X164975000Y-105950000D01*
G75*
G02*
X164725000Y-105700000I0J250000D01*
G01*
X164725000Y-105200000D01*
G75*
G02*
X164975000Y-104950000I250000J0D01*
G01*
G37*
%TD.AperFunction*%
%TO.P,C13,1*%
%TO.N,vin*%
%TA.AperFunction,SMDPad,CuDef*%
G36*
G01*
X164975000Y-103050000D02*
X165925000Y-103050000D01*
G75*
G02*
X166175000Y-103300000I0J-250000D01*
G01*
X166175000Y-103800000D01*
G75*
G02*
X165925000Y-104050000I-250000J0D01*
G01*
X164975000Y-104050000D01*
G75*
G02*
X164725000Y-103800000I0J250000D01*
G01*
X164725000Y-103300000D01*
G75*
G02*
X164975000Y-103050000I250000J0D01*
G01*
G37*
%TD.AperFunction*%
%TD*%
%TO.P,C29,1*%
%TO.N,vin*%
%TA.AperFunction,SMDPad,CuDef*%
G36*
G01*
X165975000Y-96950000D02*
X165025000Y-96950000D01*
G75*
G02*
X164775000Y-96700000I0J250000D01*
G01*
X164775000Y-96200000D01*
G75*
G02*
X165025000Y-95950000I250000J0D01*
G01*
X165975000Y-95950000D01*
G75*
G02*
X166225000Y-96200000I0J-250000D01*
G01*
X166225000Y-96700000D01*
G75*
G02*
X165975000Y-96950000I-250000J0D01*
G01*
G37*
%TD.AperFunction*%
%TO.P,C29,2*%
%TO.N,GND*%
%TA.AperFunction,SMDPad,CuDef*%
G36*
G01*
X165975000Y-95050000D02*
X165025000Y-95050000D01*
G75*
G02*
X164775000Y-94800000I0J250000D01*
G01*
X164775000Y-94300000D01*
G75*
G02*
X165025000Y-94050000I250000J0D01*
G01*
X165975000Y-94050000D01*
G75*
G02*
X166225000Y-94300000I0J-250000D01*
G01*
X166225000Y-94800000D01*
G75*
G02*
X165975000Y-95050000I-250000J0D01*
G01*
G37*
%TD.AperFunction*%
%TD*%
%TO.P,C30,1*%
%TO.N,vin*%
%TA.AperFunction,SMDPad,CuDef*%
G36*
G01*
X164975000Y-98550000D02*
X165925000Y-98550000D01*
G75*
G02*
X166175000Y-98800000I0J-250000D01*
G01*
X166175000Y-99300000D01*
G75*
G02*
X165925000Y-99550000I-250000J0D01*
G01*
X164975000Y-99550000D01*
G75*
G02*
X164725000Y-99300000I0J250000D01*
G01*
X164725000Y-98800000D01*
G75*
G02*
X164975000Y-98550000I250000J0D01*
G01*
G37*
%TD.AperFunction*%
%TO.P,C30,2*%
%TO.N,GND*%
%TA.AperFunction,SMDPad,CuDef*%
G36*
G01*
X164975000Y-100450000D02*
X165925000Y-100450000D01*
G75*
G02*
X166175000Y-100700000I0J-250000D01*
G01*
X166175000Y-101200000D01*
G75*
G02*
X165925000Y-101450000I-250000J0D01*
G01*
X164975000Y-101450000D01*
G75*
G02*
X164725000Y-101200000I0J250000D01*
G01*
X164725000Y-100700000D01*
G75*
G02*
X164975000Y-100450000I250000J0D01*
G01*
G37*
%TD.AperFunction*%
%TD*%
%TO.P,C15,2*%
%TO.N,GND*%
%TA.AperFunction,SMDPad,CuDef*%
G36*
G01*
X146710000Y-114050000D02*
X146370000Y-114050000D01*
G75*
G02*
X146230000Y-113910000I0J140000D01*
G01*
X146230000Y-113630000D01*
G75*
G02*
X146370000Y-113490000I140000J0D01*
G01*
X146710000Y-113490000D01*
G75*
G02*
X146850000Y-113630000I0J-140000D01*
G01*
X146850000Y-113910000D01*
G75*
G02*
X146710000Y-114050000I-140000J0D01*
G01*
G37*
%TD.AperFunction*%
%TO.P,C15,1*%
%TO.N,+3V3*%
%TA.AperFunction,SMDPad,CuDef*%
G36*
G01*
X146710000Y-115010000D02*
X146370000Y-115010000D01*
G75*
G02*
X146230000Y-114870000I0J140000D01*
G01*
X146230000Y-114590000D01*
G75*
G02*
X146370000Y-114450000I140000J0D01*
G01*
X146710000Y-114450000D01*
G75*
G02*
X146850000Y-114590000I0J-140000D01*
G01*
X146850000Y-114870000D01*
G75*
G02*
X146710000Y-115010000I-140000J0D01*
G01*
G37*
%TD.AperFunction*%
%TD*%
%TO.P,C31,1*%
%TO.N,+3V3*%
%TA.AperFunction,SMDPad,CuDef*%
G36*
G01*
X137460000Y-87955000D02*
X137120000Y-87955000D01*
G75*
G02*
X136980000Y-87815000I0J140000D01*
G01*
X136980000Y-87535000D01*
G75*
G02*
X137120000Y-87395000I140000J0D01*
G01*
X137460000Y-87395000D01*
G75*
G02*
X137600000Y-87535000I0J-140000D01*
G01*
X137600000Y-87815000D01*
G75*
G02*
X137460000Y-87955000I-140000J0D01*
G01*
G37*
%TD.AperFunction*%
%TO.P,C31,2*%
%TO.N,GND*%
%TA.AperFunction,SMDPad,CuDef*%
G36*
G01*
X137460000Y-86995000D02*
X137120000Y-86995000D01*
G75*
G02*
X136980000Y-86855000I0J140000D01*
G01*
X136980000Y-86575000D01*
G75*
G02*
X137120000Y-86435000I140000J0D01*
G01*
X137460000Y-86435000D01*
G75*
G02*
X137600000Y-86575000I0J-140000D01*
G01*
X137600000Y-86855000D01*
G75*
G02*
X137460000Y-86995000I-140000J0D01*
G01*
G37*
%TD.AperFunction*%
%TD*%
%TO.P,C32,2*%
%TO.N,GND*%
%TA.AperFunction,SMDPad,CuDef*%
G36*
G01*
X137190000Y-114720000D02*
X137190000Y-115060000D01*
G75*
G02*
X137050000Y-115200000I-140000J0D01*
G01*
X136770000Y-115200000D01*
G75*
G02*
X136630000Y-115060000I0J140000D01*
G01*
X136630000Y-114720000D01*
G75*
G02*
X136770000Y-114580000I140000J0D01*
G01*
X137050000Y-114580000D01*
G75*
G02*
X137190000Y-114720000I0J-140000D01*
G01*
G37*
%TD.AperFunction*%
%TO.P,C32,1*%
%TO.N,+3V3*%
%TA.AperFunction,SMDPad,CuDef*%
G36*
G01*
X138150000Y-114720000D02*
X138150000Y-115060000D01*
G75*
G02*
X138010000Y-115200000I-140000J0D01*
G01*
X137730000Y-115200000D01*
G75*
G02*
X137590000Y-115060000I0J140000D01*
G01*
X137590000Y-114720000D01*
G75*
G02*
X137730000Y-114580000I140000J0D01*
G01*
X138010000Y-114580000D01*
G75*
G02*
X138150000Y-114720000I0J-140000D01*
G01*
G37*
%TD.AperFunction*%
%TD*%
%TO.P,C33,1*%
%TO.N,+3V3*%
%TA.AperFunction,SMDPad,CuDef*%
G36*
G01*
X146145000Y-87835000D02*
X145805000Y-87835000D01*
G75*
G02*
X145665000Y-87695000I0J140000D01*
G01*
X145665000Y-87415000D01*
G75*
G02*
X145805000Y-87275000I140000J0D01*
G01*
X146145000Y-87275000D01*
G75*
G02*
X146285000Y-87415000I0J-140000D01*
G01*
X146285000Y-87695000D01*
G75*
G02*
X146145000Y-87835000I-140000J0D01*
G01*
G37*
%TD.AperFunction*%
%TO.P,C33,2*%
%TO.N,GND*%
%TA.AperFunction,SMDPad,CuDef*%
G36*
G01*
X146145000Y-86875000D02*
X145805000Y-86875000D01*
G75*
G02*
X145665000Y-86735000I0J140000D01*
G01*
X145665000Y-86455000D01*
G75*
G02*
X145805000Y-86315000I140000J0D01*
G01*
X146145000Y-86315000D01*
G75*
G02*
X146285000Y-86455000I0J-140000D01*
G01*
X146285000Y-86735000D01*
G75*
G02*
X146145000Y-86875000I-140000J0D01*
G01*
G37*
%TD.AperFunction*%
%TD*%
%TO.P,C34,1*%
%TO.N,GND*%
%TA.AperFunction,SMDPad,CuDef*%
G36*
G01*
X142240000Y-103060000D02*
X142580000Y-103060000D01*
G75*
G02*
X142720000Y-103200000I0J-140000D01*
G01*
X142720000Y-103480000D01*
G75*
G02*
X142580000Y-103620000I-140000J0D01*
G01*
X142240000Y-103620000D01*
G75*
G02*
X142100000Y-103480000I0J140000D01*
G01*
X142100000Y-103200000D01*
G75*
G02*
X142240000Y-103060000I140000J0D01*
G01*
G37*
%TD.AperFunction*%
%TO.P,C34,2*%
%TO.N,+3V3*%
%TA.AperFunction,SMDPad,CuDef*%
G36*
G01*
X142240000Y-104020000D02*
X142580000Y-104020000D01*
G75*
G02*
X142720000Y-104160000I0J-140000D01*
G01*
X142720000Y-104440000D01*
G75*
G02*
X142580000Y-104580000I-140000J0D01*
G01*
X142240000Y-104580000D01*
G75*
G02*
X142100000Y-104440000I0J140000D01*
G01*
X142100000Y-104160000D01*
G75*
G02*
X142240000Y-104020000I140000J0D01*
G01*
G37*
%TD.AperFunction*%
%TD*%
%TO.P,C27,1*%
%TO.N,Net-(C27-Pad1)*%
%TA.AperFunction,SMDPad,CuDef*%
G36*
G01*
X156090000Y-82305000D02*
X156090000Y-81355000D01*
G75*
G02*
X156340000Y-81105000I250000J0D01*
G01*
X156840000Y-81105000D01*
G75*
G02*
X157090000Y-81355000I0J-250000D01*
G01*
X157090000Y-82305000D01*
G75*
G02*
X156840000Y-82555000I-250000J0D01*
G01*
X156340000Y-82555000D01*
G75*
G02*
X156090000Y-82305000I0J250000D01*
G01*
G37*
%TD.AperFunction*%
%TO.P,C27,2*%
%TO.N,GND*%
%TA.AperFunction,SMDPad,CuDef*%
G36*
G01*
X157990000Y-82305000D02*
X157990000Y-81355000D01*
G75*
G02*
X158240000Y-81105000I250000J0D01*
G01*
X158740000Y-81105000D01*
G75*
G02*
X158990000Y-81355000I0J-250000D01*
G01*
X158990000Y-82305000D01*
G75*
G02*
X158740000Y-82555000I-250000J0D01*
G01*
X158240000Y-82555000D01*
G75*
G02*
X157990000Y-82305000I0J250000D01*
G01*
G37*
%TD.AperFunction*%
%TD*%
D23*
%TO.P,U7,5*%
%TO.N,+5V*%
X130850000Y-95150000D03*
%TO.P,U7,6*%
%TO.N,hdmi_cec*%
X129900000Y-95150000D03*
%TO.P,U7,4*%
%TO.N,hdmi_sda*%
X131800000Y-95150000D03*
%TO.P,U7,3*%
%TO.N,hdmi_scl*%
X131800000Y-97350000D03*
%TO.P,U7,2*%
%TO.N,GND*%
X130850000Y-97350000D03*
%TO.P,U7,1*%
%TO.N,hdmi_utility*%
X129900000Y-97350000D03*
%TD*%
D18*
%TO.P,U8,1*%
%TO.N,usb_dp*%
X135600000Y-88300000D03*
%TO.P,U8,2*%
%TO.N,GND*%
X135600000Y-87350000D03*
%TO.P,U8,3*%
%TO.N,usb_dm*%
X135600000Y-86400000D03*
%TO.P,U8,4*%
X133400000Y-86400000D03*
%TO.P,U8,6*%
%TO.N,usb_dp*%
X133400000Y-88300000D03*
%TO.P,U8,5*%
%TO.N,usb_vbus*%
X133400000Y-87350000D03*
%TD*%
%TO.P,C14,1*%
%TO.N,+5V*%
%TA.AperFunction,SMDPad,CuDef*%
G36*
G01*
X129645000Y-93830000D02*
X129645000Y-93330000D01*
G75*
G02*
X129870000Y-93105000I225000J0D01*
G01*
X130320000Y-93105000D01*
G75*
G02*
X130545000Y-93330000I0J-225000D01*
G01*
X130545000Y-93830000D01*
G75*
G02*
X130320000Y-94055000I-225000J0D01*
G01*
X129870000Y-94055000D01*
G75*
G02*
X129645000Y-93830000I0J225000D01*
G01*
G37*
%TD.AperFunction*%
%TO.P,C14,2*%
%TO.N,GND*%
%TA.AperFunction,SMDPad,CuDef*%
G36*
G01*
X131195000Y-93830000D02*
X131195000Y-93330000D01*
G75*
G02*
X131420000Y-93105000I225000J0D01*
G01*
X131870000Y-93105000D01*
G75*
G02*
X132095000Y-93330000I0J-225000D01*
G01*
X132095000Y-93830000D01*
G75*
G02*
X131870000Y-94055000I-225000J0D01*
G01*
X131420000Y-94055000D01*
G75*
G02*
X131195000Y-93830000I0J225000D01*
G01*
G37*
%TD.AperFunction*%
%TD*%
D24*
%TO.P,J4,1*%
%TO.N,GND*%
X138465000Y-82260000D03*
D25*
%TO.P,J4,2*%
%TO.N,swdio*%
X139735000Y-82260000D03*
%TO.P,J4,3*%
%TO.N,swclk*%
X141005000Y-82260000D03*
%TO.P,J4,4*%
%TO.N,GND*%
X142275000Y-82260000D03*
%TO.P,J4,5*%
%TO.N,uart_rx*%
X143545000Y-82260000D03*
%TO.P,J4,6*%
%TO.N,uart_tx*%
X144815000Y-82260000D03*
%TD*%
%TO.P,C35,1*%
%TO.N,+5V*%
%TA.AperFunction,SMDPad,CuDef*%
G36*
G01*
X149825000Y-86700000D02*
X149825000Y-87200000D01*
G75*
G02*
X149600000Y-87425000I-225000J0D01*
G01*
X149150000Y-87425000D01*
G75*
G02*
X148925000Y-87200000I0J225000D01*
G01*
X148925000Y-86700000D01*
G75*
G02*
X149150000Y-86475000I225000J0D01*
G01*
X149600000Y-86475000D01*
G75*
G02*
X149825000Y-86700000I0J-225000D01*
G01*
G37*
%TD.AperFunction*%
%TO.P,C35,2*%
%TO.N,GND*%
%TA.AperFunction,SMDPad,CuDef*%
G36*
G01*
X148275000Y-86700000D02*
X148275000Y-87200000D01*
G75*
G02*
X148050000Y-87425000I-225000J0D01*
G01*
X147600000Y-87425000D01*
G75*
G02*
X147375000Y-87200000I0J225000D01*
G01*
X147375000Y-86700000D01*
G75*
G02*
X147600000Y-86475000I225000J0D01*
G01*
X148050000Y-86475000D01*
G75*
G02*
X148275000Y-86700000I0J-225000D01*
G01*
G37*
%TD.AperFunction*%
%TD*%
%TO.P,C24,1*%
%TO.N,Net-(C24-Pad1)*%
%TA.AperFunction,SMDPad,CuDef*%
G36*
G01*
X145805000Y-88165000D02*
X146145000Y-88165000D01*
G75*
G02*
X146285000Y-88305000I0J-140000D01*
G01*
X146285000Y-88585000D01*
G75*
G02*
X146145000Y-88725000I-140000J0D01*
G01*
X145805000Y-88725000D01*
G75*
G02*
X145665000Y-88585000I0J140000D01*
G01*
X145665000Y-88305000D01*
G75*
G02*
X145805000Y-88165000I140000J0D01*
G01*
G37*
%TD.AperFunction*%
%TO.P,C24,2*%
%TO.N,GND*%
%TA.AperFunction,SMDPad,CuDef*%
G36*
G01*
X145805000Y-89125000D02*
X146145000Y-89125000D01*
G75*
G02*
X146285000Y-89265000I0J-140000D01*
G01*
X146285000Y-89545000D01*
G75*
G02*
X146145000Y-89685000I-140000J0D01*
G01*
X145805000Y-89685000D01*
G75*
G02*
X145665000Y-89545000I0J140000D01*
G01*
X145665000Y-89265000D01*
G75*
G02*
X145805000Y-89125000I140000J0D01*
G01*
G37*
%TD.AperFunction*%
%TD*%
%TO.P,C36,1*%
%TO.N,vin*%
%TA.AperFunction,SMDPad,CuDef*%
G36*
G01*
X151575000Y-107675000D02*
X152975000Y-107675000D01*
G75*
G02*
X153225000Y-107925000I0J-250000D01*
G01*
X153225000Y-111575000D01*
G75*
G02*
X152975000Y-111825000I-250000J0D01*
G01*
X151575000Y-111825000D01*
G75*
G02*
X151325000Y-111575000I0J250000D01*
G01*
X151325000Y-107925000D01*
G75*
G02*
X151575000Y-107675000I250000J0D01*
G01*
G37*
%TD.AperFunction*%
%TO.P,C36,2*%
%TO.N,GND*%
%TA.AperFunction,SMDPad,CuDef*%
G36*
G01*
X151575000Y-114625000D02*
X152975000Y-114625000D01*
G75*
G02*
X153225000Y-114875000I0J-250000D01*
G01*
X153225000Y-118525000D01*
G75*
G02*
X152975000Y-118775000I-250000J0D01*
G01*
X151575000Y-118775000D01*
G75*
G02*
X151325000Y-118525000I0J250000D01*
G01*
X151325000Y-114875000D01*
G75*
G02*
X151575000Y-114625000I250000J0D01*
G01*
G37*
%TD.AperFunction*%
%TD*%
%TO.P,D2,1*%
%TO.N,GND*%
%TA.AperFunction,SMDPad,CuDef*%
G36*
G01*
X132770000Y-82322500D02*
X132770000Y-81977500D01*
G75*
G02*
X132917500Y-81830000I147500J0D01*
G01*
X133212500Y-81830000D01*
G75*
G02*
X133360000Y-81977500I0J-147500D01*
G01*
X133360000Y-82322500D01*
G75*
G02*
X133212500Y-82470000I-147500J0D01*
G01*
X132917500Y-82470000D01*
G75*
G02*
X132770000Y-82322500I0J147500D01*
G01*
G37*
%TD.AperFunction*%
%TO.P,D2,2*%
%TO.N,Net-(D2-Pad2)*%
%TA.AperFunction,SMDPad,CuDef*%
G36*
G01*
X133740000Y-82322500D02*
X133740000Y-81977500D01*
G75*
G02*
X133887500Y-81830000I147500J0D01*
G01*
X134182500Y-81830000D01*
G75*
G02*
X134330000Y-81977500I0J-147500D01*
G01*
X134330000Y-82322500D01*
G75*
G02*
X134182500Y-82470000I-147500J0D01*
G01*
X133887500Y-82470000D01*
G75*
G02*
X133740000Y-82322500I0J147500D01*
G01*
G37*
%TD.AperFunction*%
%TD*%
%TO.P,D3,2*%
%TO.N,Net-(D3-Pad2)*%
%TA.AperFunction,SMDPad,CuDef*%
G36*
G01*
X133740000Y-83297500D02*
X133740000Y-82952500D01*
G75*
G02*
X133887500Y-82805000I147500J0D01*
G01*
X134182500Y-82805000D01*
G75*
G02*
X134330000Y-82952500I0J-147500D01*
G01*
X134330000Y-83297500D01*
G75*
G02*
X134182500Y-83445000I-147500J0D01*
G01*
X133887500Y-83445000D01*
G75*
G02*
X133740000Y-83297500I0J147500D01*
G01*
G37*
%TD.AperFunction*%
%TO.P,D3,1*%
%TO.N,GND*%
%TA.AperFunction,SMDPad,CuDef*%
G36*
G01*
X132770000Y-83297500D02*
X132770000Y-82952500D01*
G75*
G02*
X132917500Y-82805000I147500J0D01*
G01*
X133212500Y-82805000D01*
G75*
G02*
X133360000Y-82952500I0J-147500D01*
G01*
X133360000Y-83297500D01*
G75*
G02*
X133212500Y-83445000I-147500J0D01*
G01*
X132917500Y-83445000D01*
G75*
G02*
X132770000Y-83297500I0J147500D01*
G01*
G37*
%TD.AperFunction*%
%TD*%
%TO.P,R19,1*%
%TO.N,led0*%
%TA.AperFunction,SMDPad,CuDef*%
G36*
G01*
X136230000Y-81965000D02*
X136230000Y-82335000D01*
G75*
G02*
X136095000Y-82470000I-135000J0D01*
G01*
X135825000Y-82470000D01*
G75*
G02*
X135690000Y-82335000I0J135000D01*
G01*
X135690000Y-81965000D01*
G75*
G02*
X135825000Y-81830000I135000J0D01*
G01*
X136095000Y-81830000D01*
G75*
G02*
X136230000Y-81965000I0J-135000D01*
G01*
G37*
%TD.AperFunction*%
%TO.P,R19,2*%
%TO.N,Net-(D2-Pad2)*%
%TA.AperFunction,SMDPad,CuDef*%
G36*
G01*
X135210000Y-81965000D02*
X135210000Y-82335000D01*
G75*
G02*
X135075000Y-82470000I-135000J0D01*
G01*
X134805000Y-82470000D01*
G75*
G02*
X134670000Y-82335000I0J135000D01*
G01*
X134670000Y-81965000D01*
G75*
G02*
X134805000Y-81830000I135000J0D01*
G01*
X135075000Y-81830000D01*
G75*
G02*
X135210000Y-81965000I0J-135000D01*
G01*
G37*
%TD.AperFunction*%
%TD*%
%TO.P,R22,1*%
%TO.N,led1*%
%TA.AperFunction,SMDPad,CuDef*%
G36*
G01*
X136230000Y-82940000D02*
X136230000Y-83310000D01*
G75*
G02*
X136095000Y-83445000I-135000J0D01*
G01*
X135825000Y-83445000D01*
G75*
G02*
X135690000Y-83310000I0J135000D01*
G01*
X135690000Y-82940000D01*
G75*
G02*
X135825000Y-82805000I135000J0D01*
G01*
X136095000Y-82805000D01*
G75*
G02*
X136230000Y-82940000I0J-135000D01*
G01*
G37*
%TD.AperFunction*%
%TO.P,R22,2*%
%TO.N,Net-(D3-Pad2)*%
%TA.AperFunction,SMDPad,CuDef*%
G36*
G01*
X135210000Y-82940000D02*
X135210000Y-83310000D01*
G75*
G02*
X135075000Y-83445000I-135000J0D01*
G01*
X134805000Y-83445000D01*
G75*
G02*
X134670000Y-83310000I0J135000D01*
G01*
X134670000Y-82940000D01*
G75*
G02*
X134805000Y-82805000I135000J0D01*
G01*
X135075000Y-82805000D01*
G75*
G02*
X135210000Y-82940000I0J-135000D01*
G01*
G37*
%TD.AperFunction*%
%TD*%
D26*
%TO.P,U1,1*%
%TO.N,GND*%
X147950000Y-95775000D03*
%TO.P,U1,2*%
%TO.N,+3V3*%
X147950000Y-96425000D03*
%TO.P,U1,3*%
%TO.N,tas_fault*%
X147950000Y-97075000D03*
%TO.P,U1,4*%
%TO.N,Net-(C21-Pad2)*%
X147950000Y-97725000D03*
%TO.P,U1,5*%
%TO.N,GND*%
X147950000Y-98375000D03*
%TO.P,U1,6*%
%TO.N,lrkco*%
X147950000Y-99025000D03*
%TO.P,U1,7*%
%TO.N,bcko*%
X147950000Y-99675000D03*
%TO.P,U1,8*%
%TO.N,dout*%
X147950000Y-100325000D03*
%TO.P,U1,9*%
%TO.N,N/C*%
X147950000Y-100975000D03*
%TO.P,U1,10*%
%TO.N,i2c_sda*%
X147950000Y-101625000D03*
%TO.P,U1,11*%
%TO.N,i2c_scl*%
X147950000Y-102275000D03*
%TO.P,U1,12*%
%TO.N,tas_pdn*%
X147950000Y-102925000D03*
%TO.P,U1,13*%
%TO.N,Net-(C22-Pad2)*%
X147950000Y-103575000D03*
%TO.P,U1,14*%
%TO.N,GND*%
X147950000Y-104225000D03*
%TO.P,U1,15*%
%TO.N,vin*%
X153650000Y-104225000D03*
%TO.P,U1,16*%
X153650000Y-103575000D03*
%TO.P,U1,17*%
%TO.N,Net-(C2-Pad2)*%
X153650000Y-102925000D03*
%TO.P,U1,18*%
%TO.N,Net-(C2-Pad1)*%
X153650000Y-102275000D03*
%TO.P,U1,19*%
%TO.N,GND*%
X153650000Y-101625000D03*
%TO.P,U1,20*%
%TO.N,Net-(C4-Pad2)*%
X153650000Y-100975000D03*
%TO.P,U1,21*%
%TO.N,Net-(C4-Pad1)*%
X153650000Y-100325000D03*
%TO.P,U1,22*%
%TO.N,Net-(C3-Pad1)*%
X153650000Y-99675000D03*
%TO.P,U1,23*%
%TO.N,Net-(C3-Pad2)*%
X153650000Y-99025000D03*
%TO.P,U1,24*%
%TO.N,GND*%
X153650000Y-98375000D03*
%TO.P,U1,25*%
%TO.N,Net-(C1-Pad1)*%
X153650000Y-97725000D03*
%TO.P,U1,26*%
%TO.N,Net-(C1-Pad2)*%
X153650000Y-97075000D03*
%TO.P,U1,27*%
%TO.N,vin*%
X153650000Y-96425000D03*
%TO.P,U1,28*%
X153650000Y-95775000D03*
D27*
%TO.P,U1,29*%
%TO.N,GND*%
X150800000Y-100000000D03*
D28*
X149500000Y-95550000D03*
X150800000Y-95550000D03*
X152100000Y-95550000D03*
X152100000Y-97330000D03*
X150800000Y-97330000D03*
X149500000Y-97330000D03*
X152100000Y-99110000D03*
X150800000Y-99110000D03*
X149500000Y-99110000D03*
X152100000Y-100890000D03*
X150800000Y-100890000D03*
X149500000Y-100890000D03*
X152100000Y-102670000D03*
X150800000Y-102670000D03*
X149500000Y-102670000D03*
X152100000Y-104450000D03*
X150800000Y-104450000D03*
X149500000Y-104450000D03*
%TD*%
D29*
%TO.P,L1,2*%
%TO.N,speaker_left_p*%
X163450000Y-88400000D03*
%TO.P,L1,1*%
%TO.N,Net-(C1-Pad2)*%
X157950000Y-88400000D03*
%TD*%
%TO.P,L2,1*%
%TO.N,Net-(C2-Pad2)*%
X157950000Y-111600000D03*
%TO.P,L2,2*%
%TO.N,speaker_rigth_m*%
X163450000Y-111600000D03*
%TD*%
%TO.P,L3,1*%
%TO.N,Net-(C3-Pad2)*%
X157950000Y-95500000D03*
%TO.P,L3,2*%
%TO.N,speaker_left_m*%
X163450000Y-95500000D03*
%TD*%
%TO.P,L4,2*%
%TO.N,speaker_rigth_p*%
X163450000Y-104500000D03*
%TO.P,L4,1*%
%TO.N,Net-(C4-Pad2)*%
X157950000Y-104500000D03*
%TD*%
%TO.P,R23,1*%
%TO.N,GND*%
%TA.AperFunction,SMDPad,CuDef*%
G36*
G01*
X146165000Y-104320000D02*
X145795000Y-104320000D01*
G75*
G02*
X145660000Y-104185000I0J135000D01*
G01*
X145660000Y-103915000D01*
G75*
G02*
X145795000Y-103780000I135000J0D01*
G01*
X146165000Y-103780000D01*
G75*
G02*
X146300000Y-103915000I0J-135000D01*
G01*
X146300000Y-104185000D01*
G75*
G02*
X146165000Y-104320000I-135000J0D01*
G01*
G37*
%TD.AperFunction*%
%TO.P,R23,2*%
%TO.N,tas_pdn*%
%TA.AperFunction,SMDPad,CuDef*%
G36*
G01*
X146165000Y-103300000D02*
X145795000Y-103300000D01*
G75*
G02*
X145660000Y-103165000I0J135000D01*
G01*
X145660000Y-102895000D01*
G75*
G02*
X145795000Y-102760000I135000J0D01*
G01*
X146165000Y-102760000D01*
G75*
G02*
X146300000Y-102895000I0J-135000D01*
G01*
X146300000Y-103165000D01*
G75*
G02*
X146165000Y-103300000I-135000J0D01*
G01*
G37*
%TD.AperFunction*%
%TD*%
%TO.P,R24,2*%
%TO.N,led1*%
%TA.AperFunction,SMDPad,CuDef*%
G36*
G01*
X150000000Y-81195000D02*
X150000000Y-81565000D01*
G75*
G02*
X149865000Y-81700000I-135000J0D01*
G01*
X149595000Y-81700000D01*
G75*
G02*
X149460000Y-81565000I0J135000D01*
G01*
X149460000Y-81195000D01*
G75*
G02*
X149595000Y-81060000I135000J0D01*
G01*
X149865000Y-81060000D01*
G75*
G02*
X150000000Y-81195000I0J-135000D01*
G01*
G37*
%TD.AperFunction*%
%TO.P,R24,1*%
%TO.N,vin*%
%TA.AperFunction,SMDPad,CuDef*%
G36*
G01*
X151020000Y-81195000D02*
X151020000Y-81565000D01*
G75*
G02*
X150885000Y-81700000I-135000J0D01*
G01*
X150615000Y-81700000D01*
G75*
G02*
X150480000Y-81565000I0J135000D01*
G01*
X150480000Y-81195000D01*
G75*
G02*
X150615000Y-81060000I135000J0D01*
G01*
X150885000Y-81060000D01*
G75*
G02*
X151020000Y-81195000I0J-135000D01*
G01*
G37*
%TD.AperFunction*%
%TD*%
%TO.P,R25,1*%
%TO.N,led1*%
%TA.AperFunction,SMDPad,CuDef*%
G36*
G01*
X147570000Y-81565000D02*
X147570000Y-81195000D01*
G75*
G02*
X147705000Y-81060000I135000J0D01*
G01*
X147975000Y-81060000D01*
G75*
G02*
X148110000Y-81195000I0J-135000D01*
G01*
X148110000Y-81565000D01*
G75*
G02*
X147975000Y-81700000I-135000J0D01*
G01*
X147705000Y-81700000D01*
G75*
G02*
X147570000Y-81565000I0J135000D01*
G01*
G37*
%TD.AperFunction*%
%TO.P,R25,2*%
%TO.N,GND*%
%TA.AperFunction,SMDPad,CuDef*%
G36*
G01*
X148590000Y-81565000D02*
X148590000Y-81195000D01*
G75*
G02*
X148725000Y-81060000I135000J0D01*
G01*
X148995000Y-81060000D01*
G75*
G02*
X149130000Y-81195000I0J-135000D01*
G01*
X149130000Y-81565000D01*
G75*
G02*
X148995000Y-81700000I-135000J0D01*
G01*
X148725000Y-81700000D01*
G75*
G02*
X148590000Y-81565000I0J135000D01*
G01*
G37*
%TD.AperFunction*%
%TD*%
D30*
%TO.P,D4,2*%
%TO.N,usb_vbus*%
X126600000Y-81060000D03*
%TO.P,D4,1*%
%TO.N,+5V*%
X128700000Y-81060000D03*
%TD*%
D22*
%TO.P,D5,1*%
%TO.N,+5V*%
X147900000Y-84550000D03*
%TO.P,D5,2*%
%TO.N,Net-(C27-Pad1)*%
X147900000Y-82450000D03*
%TD*%
%TO.P,R15,1*%
%TO.N,+3V3*%
%TA.AperFunction,SMDPad,CuDef*%
G36*
G01*
X146210000Y-94005000D02*
X146210000Y-94375000D01*
G75*
G02*
X146075000Y-94510000I-135000J0D01*
G01*
X145805000Y-94510000D01*
G75*
G02*
X145670000Y-94375000I0J135000D01*
G01*
X145670000Y-94005000D01*
G75*
G02*
X145805000Y-93870000I135000J0D01*
G01*
X146075000Y-93870000D01*
G75*
G02*
X146210000Y-94005000I0J-135000D01*
G01*
G37*
%TD.AperFunction*%
%TO.P,R15,2*%
%TO.N,tas_fault*%
%TA.AperFunction,SMDPad,CuDef*%
G36*
G01*
X145190000Y-94005000D02*
X145190000Y-94375000D01*
G75*
G02*
X145055000Y-94510000I-135000J0D01*
G01*
X144785000Y-94510000D01*
G75*
G02*
X144650000Y-94375000I0J135000D01*
G01*
X144650000Y-94005000D01*
G75*
G02*
X144785000Y-93870000I135000J0D01*
G01*
X145055000Y-93870000D01*
G75*
G02*
X145190000Y-94005000I0J-135000D01*
G01*
G37*
%TD.AperFunction*%
%TD*%
%TO.P,C37,1*%
%TO.N,dir_rst*%
%TA.AperFunction,SMDPad,CuDef*%
G36*
G01*
X141730000Y-106470000D02*
X141730000Y-106810000D01*
G75*
G02*
X141590000Y-106950000I-140000J0D01*
G01*
X141310000Y-106950000D01*
G75*
G02*
X141170000Y-106810000I0J140000D01*
G01*
X141170000Y-106470000D01*
G75*
G02*
X141310000Y-106330000I140000J0D01*
G01*
X141590000Y-106330000D01*
G75*
G02*
X141730000Y-106470000I0J-140000D01*
G01*
G37*
%TD.AperFunction*%
%TO.P,C37,2*%
%TO.N,GND*%
%TA.AperFunction,SMDPad,CuDef*%
G36*
G01*
X140770000Y-106470000D02*
X140770000Y-106810000D01*
G75*
G02*
X140630000Y-106950000I-140000J0D01*
G01*
X140350000Y-106950000D01*
G75*
G02*
X140210000Y-106810000I0J140000D01*
G01*
X140210000Y-106470000D01*
G75*
G02*
X140350000Y-106330000I140000J0D01*
G01*
X140630000Y-106330000D01*
G75*
G02*
X140770000Y-106470000I0J-140000D01*
G01*
G37*
%TD.AperFunction*%
%TD*%
D31*
%TO.N,GND*%
X153500000Y-89450000D03*
X153500000Y-88760000D03*
D32*
X166800000Y-90700000D03*
X164110022Y-90689978D03*
X165460000Y-86150000D03*
X166790000Y-87250000D03*
X166830000Y-94550000D03*
X165450000Y-102050000D03*
X161650000Y-98680000D03*
X161630000Y-101340000D03*
X157840000Y-101330000D03*
X157840000Y-98660000D03*
X166780000Y-105460000D03*
X165450000Y-113770000D03*
X166780000Y-112670000D03*
X166770000Y-109230000D03*
X164110000Y-109230000D03*
X144655000Y-95105000D03*
X143715000Y-112625000D03*
X146540000Y-112875000D03*
X140700000Y-113730000D03*
X136030000Y-113925000D03*
X136030000Y-111975000D03*
X131320000Y-110150000D03*
X131320000Y-108650000D03*
X151040000Y-82450000D03*
D31*
X153500000Y-90150000D03*
D32*
X159590000Y-83820000D03*
X159590000Y-81830000D03*
D31*
X134500000Y-93920000D03*
X140075000Y-86700000D03*
D33*
X134500000Y-86870000D03*
D32*
X134910000Y-89650000D03*
X134910000Y-85050000D03*
X132670000Y-84000000D03*
X132660000Y-90700000D03*
X132690000Y-93570000D03*
X136755000Y-105720000D03*
D31*
X136030000Y-114890000D03*
D32*
X140664991Y-111120000D03*
X145975000Y-85725000D03*
X147825000Y-85870000D03*
X149550000Y-93520000D03*
X131320000Y-111640000D03*
X131320000Y-113140000D03*
X156819992Y-90910000D03*
X155540000Y-92269966D03*
X142425001Y-102475000D03*
X144678659Y-99006341D03*
X145975000Y-90275000D03*
X130909999Y-105289999D03*
X153825000Y-116700000D03*
X150725000Y-116700000D03*
D31*
X130850000Y-98430000D03*
D32*
X174000000Y-81000000D03*
X170000000Y-81000000D03*
X166000000Y-81000000D03*
X162000000Y-81000000D03*
X174000000Y-85000000D03*
X174000000Y-103000000D03*
X174000000Y-107000000D03*
X174000000Y-111000000D03*
X174000000Y-115000000D03*
X174000000Y-119000000D03*
X146000000Y-119000000D03*
X142000000Y-119000000D03*
X138000000Y-119000000D03*
X134000000Y-119000000D03*
X130000000Y-119000000D03*
X126000000Y-119000000D03*
X126000000Y-115000000D03*
X126000000Y-111000000D03*
X126000000Y-107000000D03*
X126000000Y-99000000D03*
X126000000Y-85000000D03*
X126000000Y-89000000D03*
X160690000Y-88420000D03*
X160700000Y-95500000D03*
X160700000Y-104500000D03*
X160700000Y-111600000D03*
D31*
X132220000Y-82150000D03*
D32*
X174000000Y-89000000D03*
X174000000Y-93000000D03*
X174000000Y-97000000D03*
X174000000Y-100000000D03*
X170000000Y-119000000D03*
X166000000Y-119000000D03*
X162000000Y-119000000D03*
X158000000Y-119000000D03*
D31*
X145980000Y-104870000D03*
D32*
X148876041Y-82303959D03*
D31*
X140490000Y-107500000D03*
D32*
%TO.N,+5V*%
X129057650Y-93591887D03*
X146530000Y-83060000D03*
X130830000Y-103140000D03*
X127802653Y-81060000D03*
%TO.N,+3V3*%
X146205000Y-95105000D03*
X146540000Y-115600000D03*
X140700000Y-114770000D03*
X136020000Y-115875000D03*
X125840000Y-94080000D03*
X126270000Y-96230000D03*
D31*
X136400000Y-93930000D03*
D32*
X136400000Y-98590000D03*
X137670000Y-93850000D03*
X139580000Y-93850000D03*
D31*
X140060000Y-87675000D03*
X143200000Y-87997793D03*
D32*
X147650000Y-93520000D03*
X142400000Y-105200000D03*
%TO.N,usb_vbus*%
X125700000Y-81060000D03*
D33*
X134500000Y-87820000D03*
D32*
X129670000Y-87350000D03*
D34*
%TO.N,i2c_scl*%
X146750000Y-102280000D03*
D31*
X143200000Y-88975000D03*
D34*
%TO.N,i2c_sda*%
X146750000Y-101530000D03*
D31*
X143201039Y-89928570D03*
D34*
%TO.N,tas_pdn*%
X146750000Y-103030000D03*
D31*
X143200000Y-87025000D03*
D32*
%TO.N,vin*%
X151270000Y-89450000D03*
X166830000Y-96450000D03*
X165450000Y-97950000D03*
X163560000Y-98650000D03*
X163560000Y-101340000D03*
X159750000Y-98660000D03*
X159730000Y-101320000D03*
X166780000Y-103540000D03*
X154725000Y-94125000D03*
X154525000Y-94975000D03*
X154725000Y-105875000D03*
X154525000Y-105025000D03*
X151440000Y-92260000D03*
X153825000Y-109750000D03*
X150725000Y-109750000D03*
X151620000Y-81380000D03*
D33*
%TO.N,uart_tx*%
X142900002Y-83180008D03*
D32*
%TO.N,led1*%
X146970000Y-81380000D03*
D31*
X135960000Y-84040000D03*
D32*
%TO.N,dir_error*%
X144502500Y-92000000D03*
D33*
X142785037Y-86168927D03*
%TD*%
D35*
%TO.N,Net-(C1-Pad1)*%
X154725000Y-97725000D02*
X156175000Y-96275000D01*
X153662500Y-97725000D02*
X154725000Y-97725000D01*
%TO.N,Net-(C1-Pad2)*%
X155050000Y-95850000D02*
X156175000Y-94725000D01*
X155050000Y-96550000D02*
X155050000Y-95850000D01*
X154525000Y-97075000D02*
X155050000Y-96550000D01*
X153662500Y-97075000D02*
X154525000Y-97075000D01*
X157950000Y-92950000D02*
X156175000Y-94725000D01*
X157950000Y-88400000D02*
X157950000Y-92950000D01*
%TO.N,Net-(C2-Pad2)*%
X155050000Y-104150000D02*
X156175000Y-105275000D01*
X155050000Y-103450000D02*
X155050000Y-104150000D01*
X154525000Y-102925000D02*
X155050000Y-103450000D01*
X153662500Y-102925000D02*
X154525000Y-102925000D01*
X157950000Y-107050000D02*
X156175000Y-105275000D01*
X157950000Y-111600000D02*
X157950000Y-107050000D01*
%TO.N,Net-(C2-Pad1)*%
X154725000Y-102275000D02*
X156175000Y-103725000D01*
X153662500Y-102275000D02*
X154725000Y-102275000D01*
%TO.N,Net-(C3-Pad2)*%
X154875000Y-99025000D02*
X156175000Y-97725000D01*
X157950000Y-95950000D02*
X157950000Y-95500000D01*
X156175000Y-97725000D02*
X157950000Y-95950000D01*
X153662500Y-99025000D02*
X154875000Y-99025000D01*
%TO.N,Net-(C3-Pad1)*%
X155775000Y-99675000D02*
X156175000Y-99275000D01*
X153662500Y-99675000D02*
X155775000Y-99675000D01*
%TO.N,Net-(C4-Pad1)*%
X155775000Y-100325000D02*
X156175000Y-100725000D01*
X153662500Y-100325000D02*
X155775000Y-100325000D01*
%TO.N,Net-(C4-Pad2)*%
X154875000Y-100975000D02*
X156175000Y-102275000D01*
X153662500Y-100975000D02*
X154875000Y-100975000D01*
X157950000Y-104050000D02*
X157950000Y-104500000D01*
X156175000Y-102275000D02*
X157950000Y-104050000D01*
D36*
%TO.N,GND*%
X169650000Y-100950000D02*
X171200000Y-102500000D01*
X165450000Y-100950000D02*
X169650000Y-100950000D01*
X166790000Y-90690000D02*
X166800000Y-90700000D01*
X165450000Y-90690000D02*
X166790000Y-90690000D01*
X165450000Y-90690000D02*
X164110044Y-90690000D01*
X164110044Y-90690000D02*
X164110022Y-90689978D01*
X165450000Y-86160000D02*
X165460000Y-86150000D01*
X165450000Y-87250000D02*
X165450000Y-86160000D01*
X165450000Y-87250000D02*
X166790000Y-87250000D01*
X165500000Y-94550000D02*
X166830000Y-94550000D01*
X165450000Y-100950000D02*
X165450000Y-102050000D01*
X161650000Y-100000000D02*
X161650000Y-98680000D01*
X161650000Y-101320000D02*
X161630000Y-101340000D01*
X161650000Y-100000000D02*
X161650000Y-101320000D01*
X157850000Y-101320000D02*
X157840000Y-101330000D01*
X157850000Y-100000000D02*
X157850000Y-101320000D01*
X157850000Y-98670000D02*
X157840000Y-98660000D01*
X157850000Y-100000000D02*
X157850000Y-98670000D01*
X166770000Y-105450000D02*
X166780000Y-105460000D01*
X165450000Y-105450000D02*
X166770000Y-105450000D01*
X165450000Y-112670000D02*
X165450000Y-113770000D01*
X165450000Y-112670000D02*
X166780000Y-112670000D01*
X165450000Y-109230000D02*
X166770000Y-109230000D01*
X165450000Y-109230000D02*
X164110000Y-109230000D01*
D37*
X146385000Y-113925000D02*
X146540000Y-113770000D01*
X145052500Y-113925000D02*
X146385000Y-113925000D01*
X145052500Y-112625000D02*
X143715000Y-112625000D01*
X146540000Y-113770000D02*
X146540000Y-112875000D01*
X138110000Y-104320000D02*
X137600000Y-104830000D01*
X137600000Y-104830000D02*
X137600000Y-105720000D01*
D36*
X158490000Y-81830000D02*
X159590000Y-81830000D01*
X158490000Y-83820000D02*
X159590000Y-83820000D01*
X154600000Y-89450000D02*
X153500000Y-89450000D01*
X153500000Y-88760000D02*
X153500000Y-89450000D01*
X153500000Y-90150000D02*
X153500000Y-89450000D01*
D37*
X134500000Y-94790000D02*
X134500000Y-93920000D01*
X134980000Y-87350000D02*
X134500000Y-86870000D01*
X135600000Y-87350000D02*
X134980000Y-87350000D01*
X134040000Y-89650000D02*
X134910000Y-89650000D01*
X134040000Y-85050000D02*
X134910000Y-85050000D01*
X131490000Y-84000000D02*
X132670000Y-84000000D01*
X132370000Y-84300000D02*
X132670000Y-84000000D01*
X131490000Y-84300000D02*
X132370000Y-84300000D01*
X131490000Y-90700000D02*
X132660000Y-90700000D01*
X132360000Y-90400000D02*
X132660000Y-90700000D01*
X131490000Y-90400000D02*
X132360000Y-90400000D01*
X137600000Y-87025000D02*
X137290000Y-86715000D01*
X138777500Y-87025000D02*
X137600000Y-87025000D01*
X132680000Y-93580000D02*
X132690000Y-93570000D01*
X131645000Y-93580000D02*
X132680000Y-93580000D01*
X137600000Y-105720000D02*
X136755000Y-105720000D01*
X149280000Y-105805000D02*
X149205000Y-105880000D01*
X136910000Y-113925000D02*
X136030000Y-113925000D01*
X136910000Y-114890000D02*
X136030000Y-114890000D01*
X136910000Y-111975000D02*
X136030000Y-111975000D01*
X140505000Y-113925000D02*
X140700000Y-113730000D01*
X139327500Y-113925000D02*
X140505000Y-113925000D01*
X140459991Y-111325000D02*
X140664991Y-111120000D01*
X139327500Y-111325000D02*
X140459991Y-111325000D01*
X131460000Y-111650000D02*
X131450000Y-111640000D01*
X131460000Y-113150000D02*
X131450000Y-113140000D01*
X155910000Y-90910000D02*
X156819992Y-90910000D01*
D36*
X154440000Y-92270000D02*
X155539966Y-92270000D01*
D37*
X155539966Y-92270000D02*
X155540000Y-92269966D01*
D36*
X149550000Y-92200000D02*
X149550000Y-93520000D01*
X147825000Y-88275000D02*
X147600000Y-88500000D01*
X147825000Y-86950000D02*
X147825000Y-88275000D01*
X147825000Y-86950000D02*
X147825000Y-85870000D01*
D37*
X142410000Y-103340000D02*
X142410000Y-102490001D01*
X142410000Y-102490001D02*
X142425001Y-102475000D01*
X144655000Y-95105000D02*
X144655000Y-96185000D01*
X144655000Y-97960000D02*
X144655000Y-98982682D01*
X144655000Y-98982682D02*
X144678659Y-99006341D01*
X145975000Y-89405000D02*
X145975000Y-90275000D01*
X145975000Y-86595000D02*
X145975000Y-85725000D01*
X139750000Y-87025000D02*
X140075000Y-86700000D01*
X138777500Y-87025000D02*
X139750000Y-87025000D01*
D36*
X152275000Y-116700000D02*
X153825000Y-116700000D01*
X152275000Y-116700000D02*
X150725000Y-116700000D01*
D37*
X134940000Y-85020000D02*
X134910000Y-85050000D01*
X130850000Y-97350000D02*
X130850000Y-98430000D01*
X133065000Y-82150000D02*
X132220000Y-82150000D01*
X133065000Y-82150000D02*
X133065000Y-83125000D01*
D35*
X152425000Y-98375000D02*
X150800000Y-100000000D01*
X153650000Y-98375000D02*
X152425000Y-98375000D01*
X152425000Y-101625000D02*
X150800000Y-100000000D01*
X153650000Y-101625000D02*
X152425000Y-101625000D01*
X149175000Y-98375000D02*
X150800000Y-100000000D01*
X147950000Y-98375000D02*
X149175000Y-98375000D01*
X150800000Y-102325000D02*
X150800000Y-100000000D01*
X148900000Y-104225000D02*
X150800000Y-102325000D01*
X147950000Y-104225000D02*
X148900000Y-104225000D01*
X150800000Y-97675000D02*
X150800000Y-100000000D01*
X148900000Y-95775000D02*
X150800000Y-97675000D01*
X147950000Y-95775000D02*
X148900000Y-95775000D01*
X152112500Y-98687500D02*
X150800000Y-100000000D01*
D36*
X152112500Y-94125000D02*
X152112500Y-98687500D01*
D37*
X149205000Y-101595000D02*
X150800000Y-100000000D01*
X149205000Y-105880000D02*
X149205000Y-101595000D01*
X152112500Y-101312500D02*
X150800000Y-100000000D01*
D36*
X152112500Y-105875000D02*
X152112500Y-101312500D01*
D37*
X131270000Y-105650000D02*
X130909999Y-105289999D01*
X133220000Y-105650000D02*
X131270000Y-105650000D01*
X133220000Y-108650000D02*
X131320000Y-108650000D01*
X133220000Y-110150000D02*
X131320000Y-110150000D01*
X131330000Y-111650000D02*
X131320000Y-111640000D01*
X133220000Y-111650000D02*
X131330000Y-111650000D01*
X131330000Y-113150000D02*
X131320000Y-113140000D01*
X133220000Y-113150000D02*
X131330000Y-113150000D01*
X138110000Y-104320000D02*
X138900000Y-104320000D01*
X145980000Y-104050000D02*
X145980000Y-104870000D01*
D36*
X150220000Y-82450000D02*
X151040000Y-82450000D01*
D37*
X148860000Y-82287918D02*
X148876041Y-82303959D01*
X148860000Y-81380000D02*
X148860000Y-82287918D01*
X140490000Y-106640000D02*
X140490000Y-107500000D01*
%TO.N,+5V*%
X130850000Y-95150000D02*
X130850000Y-96219998D01*
X132740002Y-96219998D02*
X130850000Y-96219998D01*
X133150000Y-95810000D02*
X132740002Y-96219998D01*
X132679998Y-96219998D02*
X130850000Y-96219998D01*
X133150000Y-96690000D02*
X132679998Y-96219998D01*
X129069537Y-93580000D02*
X129057650Y-93591887D01*
X130095000Y-93580000D02*
X129069537Y-93580000D01*
X130850000Y-94335000D02*
X130095000Y-93580000D01*
X130850000Y-95150000D02*
X130850000Y-94335000D01*
X131482500Y-103792500D02*
X130830000Y-103140000D01*
X131490000Y-103800000D02*
X131482500Y-103792500D01*
X131490000Y-104825002D02*
X131490000Y-103800000D01*
X131814998Y-105150000D02*
X131490000Y-104825002D01*
X133220000Y-105150000D02*
X131814998Y-105150000D01*
X128700000Y-81060000D02*
X127802653Y-81060000D01*
D36*
X149600000Y-87175000D02*
X149375000Y-86950000D01*
X149600000Y-89450000D02*
X149600000Y-87175000D01*
X149375000Y-86025000D02*
X147900000Y-84550000D01*
X149375000Y-86950000D02*
X149375000Y-86025000D01*
X147870000Y-84550000D02*
X147900000Y-84550000D01*
X146530000Y-83210000D02*
X147870000Y-84550000D01*
X146530000Y-83060000D02*
X146530000Y-83210000D01*
D37*
%TO.N,+3V3*%
X146385000Y-114575000D02*
X146540000Y-114730000D01*
X145052500Y-114575000D02*
X146385000Y-114575000D01*
X146540000Y-114730000D02*
X146540000Y-115600000D01*
X142040000Y-104320000D02*
X142050000Y-104330000D01*
X141100000Y-104320000D02*
X142040000Y-104320000D01*
X142390000Y-104320000D02*
X142410000Y-104300000D01*
X142040000Y-104320000D02*
X142390000Y-104320000D01*
X136370000Y-97890000D02*
X136190000Y-97890000D01*
X136400000Y-94800000D02*
X136400000Y-93930000D01*
X136400000Y-97720000D02*
X136400000Y-98590000D01*
X137670000Y-94950000D02*
X137670000Y-93850000D01*
X139570000Y-93860000D02*
X139580000Y-93850000D01*
X139570000Y-94950000D02*
X139570000Y-93860000D01*
X138777500Y-87675000D02*
X137290000Y-87675000D01*
X138777500Y-87675000D02*
X140060000Y-87675000D01*
X126710000Y-94080000D02*
X125840000Y-94080000D01*
X126300000Y-96260000D02*
X126270000Y-96230000D01*
X126300000Y-97260000D02*
X126300000Y-96260000D01*
X138185000Y-114575000D02*
X137870000Y-114890000D01*
X139327500Y-114575000D02*
X138185000Y-114575000D01*
X140505000Y-114575000D02*
X140700000Y-114770000D01*
X139327500Y-114575000D02*
X140505000Y-114575000D01*
D36*
X147650000Y-92200000D02*
X147650000Y-93520000D01*
X147650000Y-90450000D02*
X147600000Y-90400000D01*
X147650000Y-92200000D02*
X147650000Y-90450000D01*
D37*
X142410000Y-105190000D02*
X142400000Y-105200000D01*
X142410000Y-104300000D02*
X142410000Y-105190000D01*
X146445000Y-96425000D02*
X146205000Y-96185000D01*
X147937500Y-96425000D02*
X146445000Y-96425000D01*
X146205000Y-95105000D02*
X146205000Y-96185000D01*
X143522793Y-87675000D02*
X143200000Y-87997793D01*
X144502500Y-87675000D02*
X143522793Y-87675000D01*
X145855000Y-87675000D02*
X145975000Y-87555000D01*
X144502500Y-87675000D02*
X145855000Y-87675000D01*
X137870000Y-114905000D02*
X136900000Y-115875000D01*
X137870000Y-114890000D02*
X137870000Y-114905000D01*
X136900000Y-115875000D02*
X136020000Y-115875000D01*
X146205000Y-94455000D02*
X145940000Y-94190000D01*
X146205000Y-95105000D02*
X146205000Y-94455000D01*
%TO.N,hdmi_utility*%
X137600000Y-102000000D02*
X137600000Y-103810000D01*
X129040011Y-106180011D02*
X130010000Y-107150000D01*
X129040011Y-100429989D02*
X129040011Y-106180011D01*
X129900000Y-99570000D02*
X129040011Y-100429989D01*
X129900000Y-97350000D02*
X129900000Y-99570000D01*
X133220000Y-107150000D02*
X130010000Y-107150000D01*
X136800000Y-103810000D02*
X137600000Y-103810000D01*
X135042820Y-107150000D02*
X136000000Y-106192820D01*
X136000000Y-104610000D02*
X136800000Y-103810000D01*
X136000000Y-106192820D02*
X136000000Y-104610000D01*
X133220000Y-107150000D02*
X135042820Y-107150000D01*
%TO.N,Net-(C17-Pad1)*%
X138570000Y-101040000D02*
X138600000Y-101010000D01*
X137600000Y-101040000D02*
X138570000Y-101040000D01*
%TO.N,Net-(C18-Pad1)*%
X141100000Y-102220000D02*
X140900000Y-102020000D01*
X141100000Y-103370000D02*
X141100000Y-102220000D01*
X140920000Y-102000000D02*
X140900000Y-102020000D01*
X140920000Y-101020000D02*
X140920000Y-102000000D01*
%TO.N,spdif_inv*%
X137780000Y-106740000D02*
X137880000Y-106640000D01*
X137600000Y-106740000D02*
X138480000Y-106740000D01*
X138580000Y-106640000D02*
X138580000Y-105590000D01*
X139640000Y-105270000D02*
X138900000Y-105270000D01*
X139940000Y-104970000D02*
X139640000Y-105270000D01*
X139940000Y-102020000D02*
X139940000Y-104970000D01*
%TO.N,hdmi_sda*%
X132790000Y-95150000D02*
X133150000Y-94790000D01*
X131800000Y-95150000D02*
X132790000Y-95150000D01*
X137670000Y-98720000D02*
X137670000Y-97550000D01*
X135050000Y-101340000D02*
X137670000Y-98720000D01*
X134770000Y-106150000D02*
X135050000Y-105870000D01*
X135050000Y-105870000D02*
X135050000Y-101340000D01*
X133220000Y-106150000D02*
X134770000Y-106150000D01*
X133830000Y-98320000D02*
X133830000Y-95470000D01*
X133830000Y-95470000D02*
X133150000Y-94790000D01*
X133720000Y-98430000D02*
X133830000Y-98320000D01*
X133180000Y-98430000D02*
X133720000Y-98430000D01*
X129940033Y-101669967D02*
X133180000Y-98430000D01*
X129940033Y-105430033D02*
X129940033Y-101669967D01*
X130660000Y-106150000D02*
X129940033Y-105430033D01*
X133220000Y-106150000D02*
X130660000Y-106150000D01*
%TO.N,hdmi_scl*%
X132790000Y-97350000D02*
X133150000Y-97710000D01*
X131800000Y-97350000D02*
X132790000Y-97350000D01*
X134906410Y-106650000D02*
X133220000Y-106650000D01*
X135540000Y-106016410D02*
X134906410Y-106650000D01*
X139180000Y-98740000D02*
X138520000Y-98740000D01*
X139570000Y-98350000D02*
X139180000Y-98740000D01*
X135540000Y-101720000D02*
X135540000Y-106016410D01*
X138520000Y-98740000D02*
X135540000Y-101720000D01*
X139570000Y-97550000D02*
X139570000Y-98350000D01*
X133220000Y-106650000D02*
X130390000Y-106650000D01*
X129490022Y-101369978D02*
X133150000Y-97710000D01*
X130390000Y-106650000D02*
X129490022Y-105750022D01*
X129490022Y-105750022D02*
X129490022Y-101369978D01*
%TO.N,hdmi_cec*%
X128590000Y-97650000D02*
X128200000Y-97260000D01*
X128590000Y-106540000D02*
X128590000Y-97650000D01*
X129700000Y-107650000D02*
X128590000Y-106540000D01*
X133220000Y-107650000D02*
X129700000Y-107650000D01*
X128200000Y-96280000D02*
X128200000Y-97260000D01*
X129330000Y-95150000D02*
X128200000Y-96280000D01*
X129900000Y-95150000D02*
X129330000Y-95150000D01*
%TO.N,usb_vbus*%
X134030000Y-87350000D02*
X134500000Y-87820000D01*
X133400000Y-87350000D02*
X134030000Y-87350000D01*
X129670000Y-86095000D02*
X129670000Y-87350000D01*
X130665000Y-85100000D02*
X129670000Y-86095000D01*
X131490000Y-85100000D02*
X130665000Y-85100000D01*
X129670000Y-88605000D02*
X129670000Y-87350000D01*
X130665000Y-89600000D02*
X129670000Y-88605000D01*
X131490000Y-89600000D02*
X130665000Y-89600000D01*
X131490000Y-84800000D02*
X131490000Y-85100000D01*
X131490000Y-89900000D02*
X131490000Y-89600000D01*
X126600000Y-81060000D02*
X125700000Y-81060000D01*
%TO.N,Net-(J2-PadB5)*%
X132470000Y-89100000D02*
X133020000Y-89650000D01*
X131490000Y-89100000D02*
X132470000Y-89100000D01*
%TO.N,usb_dp*%
X133200000Y-88100000D02*
X133400000Y-88300000D01*
X131490000Y-88100000D02*
X133200000Y-88100000D01*
X132300002Y-88100000D02*
X131490000Y-88100000D01*
X132390001Y-88010001D02*
X132300002Y-88100000D01*
X132390001Y-87189999D02*
X132390001Y-88010001D01*
X132300002Y-87100000D02*
X132390001Y-87189999D01*
X131490000Y-87100000D02*
X132300002Y-87100000D01*
X134199999Y-88445001D02*
X134800001Y-88445001D01*
X134054998Y-88300000D02*
X134199999Y-88445001D01*
X133400000Y-88300000D02*
X134054998Y-88300000D01*
X134945002Y-88300000D02*
X135600000Y-88300000D01*
X134800001Y-88445001D02*
X134945002Y-88300000D01*
X136934990Y-88964990D02*
X138777500Y-88964990D01*
X136270000Y-88300000D02*
X136934990Y-88964990D01*
X135600000Y-88300000D02*
X136270000Y-88300000D01*
%TO.N,usb_dm*%
X133200000Y-86600000D02*
X133400000Y-86400000D01*
X131490000Y-86600000D02*
X133200000Y-86600000D01*
X130630000Y-87600000D02*
X131490000Y-87600000D01*
X130589999Y-87559999D02*
X130630000Y-87600000D01*
X130589999Y-86689999D02*
X130589999Y-87559999D01*
X130679998Y-86600000D02*
X130589999Y-86689999D01*
X131490000Y-86600000D02*
X130679998Y-86600000D01*
X134199999Y-86244999D02*
X134800001Y-86244999D01*
X134044998Y-86400000D02*
X134199999Y-86244999D01*
X133400000Y-86400000D02*
X134044998Y-86400000D01*
X134955002Y-86400000D02*
X135600000Y-86400000D01*
X134800001Y-86244999D02*
X134955002Y-86400000D01*
X136935000Y-88325000D02*
X138777500Y-88325000D01*
X136575000Y-86550000D02*
X136575000Y-87965000D01*
X136575000Y-87965000D02*
X136935000Y-88325000D01*
X136425000Y-86400000D02*
X136575000Y-86550000D01*
X135600000Y-86400000D02*
X136425000Y-86400000D01*
%TO.N,Net-(J2-PadA5)*%
X133020000Y-85395000D02*
X133020000Y-85050000D01*
X132315000Y-86100000D02*
X133020000Y-85395000D01*
X131490000Y-86100000D02*
X132315000Y-86100000D01*
%TO.N,cec_in*%
X127250000Y-94560000D02*
X127730000Y-94080000D01*
X127250000Y-95260000D02*
X127250000Y-94560000D01*
X128343590Y-93466410D02*
X127730000Y-94080000D01*
X130223600Y-80999989D02*
X128343590Y-82880000D01*
X137600022Y-81875022D02*
X136724989Y-80999989D01*
X136724989Y-80999989D02*
X130223600Y-80999989D01*
X137600022Y-84190022D02*
X137600022Y-81875022D01*
X137835000Y-84425000D02*
X137600022Y-84190022D01*
X128343590Y-82880000D02*
X128343590Y-93466410D01*
X138777500Y-84425000D02*
X137835000Y-84425000D01*
%TO.N,i2c_scl*%
X138620000Y-97064998D02*
X138620000Y-97550000D01*
X138255002Y-96700000D02*
X138620000Y-97064998D01*
X136400000Y-96700000D02*
X138255002Y-96700000D01*
X144502500Y-88975000D02*
X143200000Y-88975000D01*
X139925000Y-92250000D02*
X143200000Y-88975000D01*
X135724999Y-93325001D02*
X136800000Y-92250000D01*
X136800000Y-92250000D02*
X139925000Y-92250000D01*
X135724999Y-96344999D02*
X135724999Y-93325001D01*
X136080000Y-96700000D02*
X135724999Y-96344999D01*
X136400000Y-96700000D02*
X136080000Y-96700000D01*
X146805000Y-102275000D02*
X146800000Y-102280000D01*
X147937500Y-102275000D02*
X146805000Y-102275000D01*
%TO.N,i2c_sda*%
X138620000Y-95700000D02*
X138620000Y-94950000D01*
X138500000Y-95820000D02*
X138620000Y-95700000D01*
X136400000Y-95820000D02*
X138500000Y-95820000D01*
X143504609Y-89625000D02*
X143201039Y-89928570D01*
X144502500Y-89625000D02*
X143504609Y-89625000D01*
X140304609Y-92825000D02*
X143201039Y-89928570D01*
X138985000Y-92825000D02*
X140304609Y-92825000D01*
X138620000Y-93190000D02*
X138985000Y-92825000D01*
X138620000Y-94950000D02*
X138620000Y-93190000D01*
X146750000Y-101580000D02*
X146800000Y-101630000D01*
X146845000Y-101625000D02*
X146750000Y-101530000D01*
X146750000Y-101530000D02*
X146750000Y-101580000D01*
X147937500Y-101625000D02*
X146845000Y-101625000D01*
%TO.N,Net-(R4-Pad1)*%
X138900000Y-102330000D02*
X138600000Y-102030000D01*
X138900000Y-103370000D02*
X138900000Y-102330000D01*
X138790000Y-102030000D02*
X138600000Y-102030000D01*
X139800000Y-101020000D02*
X138790000Y-102030000D01*
X139900000Y-101020000D02*
X139800000Y-101020000D01*
%TO.N,hdmi_hpd*%
X134480000Y-99140000D02*
X134500000Y-99120000D01*
X134480000Y-102930000D02*
X134480000Y-99140000D01*
X133220000Y-104190000D02*
X134480000Y-102930000D01*
X134500000Y-99120000D02*
X134500000Y-97710000D01*
X133220000Y-104650000D02*
X133220000Y-104190000D01*
%TO.N,lrkco*%
X142965000Y-107535000D02*
X142965000Y-110315000D01*
X144340000Y-106160000D02*
X142965000Y-107535000D01*
X144340000Y-101090000D02*
X144340000Y-106160000D01*
X143975000Y-111325000D02*
X145052500Y-111325000D01*
X142965000Y-110315000D02*
X143975000Y-111325000D01*
X146405000Y-99025000D02*
X144340000Y-101090000D01*
X147462501Y-99025000D02*
X146405000Y-99025000D01*
%TO.N,bcko*%
X144000000Y-110675000D02*
X145052500Y-110675000D01*
X143415011Y-107984989D02*
X143415011Y-110090011D01*
X144810000Y-106590000D02*
X143415011Y-107984989D01*
X144810000Y-101340000D02*
X144810000Y-106590000D01*
X146475000Y-99675000D02*
X144810000Y-101340000D01*
X143415011Y-110090011D02*
X144000000Y-110675000D01*
X147462501Y-99675000D02*
X146475000Y-99675000D01*
%TO.N,dout*%
X145290000Y-101570000D02*
X146535000Y-100325000D01*
X143865022Y-108384978D02*
X145290000Y-106960000D01*
X146535000Y-100325000D02*
X147462501Y-100325000D01*
X144050000Y-110025000D02*
X143865022Y-109840022D01*
X145290000Y-106960000D02*
X145290000Y-101570000D01*
X143865022Y-109840022D02*
X143865022Y-108384978D01*
X145052500Y-110025000D02*
X144050000Y-110025000D01*
%TO.N,hpd_in*%
X134500000Y-95810000D02*
X134500000Y-96690000D01*
X138777500Y-85075000D02*
X137775000Y-85075000D01*
X135250000Y-95060000D02*
X134500000Y-95810000D01*
X137150011Y-84450011D02*
X137150011Y-82125011D01*
X135250000Y-93596998D02*
X135250000Y-95060000D01*
X136475000Y-81450000D02*
X130410000Y-81450000D01*
X129380000Y-92640000D02*
X134293002Y-92640000D01*
X128944999Y-82915001D02*
X128944999Y-92204999D01*
X134293002Y-92640000D02*
X135250000Y-93596998D01*
X128944999Y-92204999D02*
X129380000Y-92640000D01*
X137150011Y-82125011D02*
X136475000Y-81450000D01*
X130410000Y-81450000D02*
X128944999Y-82915001D01*
X137775000Y-85075000D02*
X137150011Y-84450011D01*
%TO.N,Net-(C19-Pad1)*%
X138225000Y-113275000D02*
X137900000Y-112950000D01*
X139327500Y-113275000D02*
X138225000Y-113275000D01*
X137900000Y-112005000D02*
X137870000Y-111975000D01*
X137900000Y-112950000D02*
X137900000Y-112005000D01*
%TO.N,Net-(C21-Pad2)*%
X146440000Y-97725000D02*
X146205000Y-97960000D01*
X147937500Y-97725000D02*
X146440000Y-97725000D01*
%TO.N,Net-(C22-Pad2)*%
X146980000Y-105880000D02*
X147655000Y-105880000D01*
X146810000Y-105710000D02*
X146980000Y-105880000D01*
X146810000Y-103770000D02*
X146810000Y-105710000D01*
X147005000Y-103575000D02*
X146810000Y-103770000D01*
X147937500Y-103575000D02*
X147005000Y-103575000D01*
%TO.N,Net-(C23-Pad1)*%
X137870000Y-113917374D02*
X137870000Y-113925000D01*
X136902626Y-112950000D02*
X137870000Y-113917374D01*
X136880000Y-112950000D02*
X136902626Y-112950000D01*
%TO.N,Net-(C24-Pad1)*%
X145855000Y-88325000D02*
X145975000Y-88445000D01*
X144502500Y-88325000D02*
X145855000Y-88325000D01*
%TO.N,Net-(R17-Pad2)*%
X139327500Y-115875000D02*
X137920000Y-115875000D01*
X138570000Y-115225000D02*
X137920000Y-115875000D01*
X139327500Y-115225000D02*
X138570000Y-115225000D01*
%TO.N,tas_pdn*%
X144502500Y-87025000D02*
X143200000Y-87025000D01*
X146750000Y-102980000D02*
X146800000Y-102930000D01*
X146750000Y-103030000D02*
X146750000Y-102980000D01*
X146855000Y-102925000D02*
X146750000Y-103030000D01*
X147937500Y-102925000D02*
X146855000Y-102925000D01*
X146750000Y-103030000D02*
X145980000Y-103030000D01*
D36*
%TO.N,vin*%
X165500000Y-96450000D02*
X166830000Y-96450000D01*
X169650000Y-99050000D02*
X171200000Y-97500000D01*
X165450000Y-99050000D02*
X169650000Y-99050000D01*
X163550000Y-98660000D02*
X163560000Y-98650000D01*
X163550000Y-100000000D02*
X163550000Y-98660000D01*
X163550000Y-101330000D02*
X163560000Y-101340000D01*
X163550000Y-100000000D02*
X163550000Y-101330000D01*
X159750000Y-100000000D02*
X159750000Y-98660000D01*
X159750000Y-101300000D02*
X159730000Y-101320000D01*
X159750000Y-100000000D02*
X159750000Y-101300000D01*
X166770000Y-103550000D02*
X166780000Y-103540000D01*
X165450000Y-103550000D02*
X166770000Y-103550000D01*
D35*
X153662500Y-96425000D02*
X153662500Y-95775000D01*
X153662500Y-95775000D02*
X153662500Y-94125000D01*
X153662500Y-94125000D02*
X154725000Y-94125000D01*
X153725000Y-95775000D02*
X154525000Y-94975000D01*
X153662500Y-95775000D02*
X153725000Y-95775000D01*
X153662500Y-103575000D02*
X153662500Y-104225000D01*
X153662500Y-104225000D02*
X153662500Y-105875000D01*
X153662500Y-105875000D02*
X154725000Y-105875000D01*
X153725000Y-104225000D02*
X154525000Y-105025000D01*
X153662500Y-104225000D02*
X153725000Y-104225000D01*
D36*
X165450000Y-97950000D02*
X165450000Y-99050000D01*
D37*
X151450000Y-92270000D02*
X151440000Y-92260000D01*
D36*
X152540000Y-92270000D02*
X151450000Y-92270000D01*
X152275000Y-109750000D02*
X153825000Y-109750000D01*
X152275000Y-109750000D02*
X150725000Y-109750000D01*
X152275000Y-107262500D02*
X152275000Y-109750000D01*
X153662500Y-105875000D02*
X152275000Y-107262500D01*
D35*
X154725000Y-94775000D02*
X154525000Y-94975000D01*
X154725000Y-94125000D02*
X154725000Y-94775000D01*
X154725000Y-105225000D02*
X154525000Y-105025000D01*
X154725000Y-105875000D02*
X154725000Y-105225000D01*
D37*
X150750000Y-81380000D02*
X151620000Y-81380000D01*
D36*
X152400000Y-89450000D02*
X151270000Y-89450000D01*
X151270000Y-92090000D02*
X151440000Y-92260000D01*
X151270000Y-89450000D02*
X151270000Y-92090000D01*
%TO.N,Net-(C26-Pad2)*%
X152400000Y-87225000D02*
X152725000Y-86900000D01*
X152400000Y-88500000D02*
X152400000Y-87225000D01*
X153500000Y-86125000D02*
X152725000Y-86900000D01*
X153500000Y-85350000D02*
X153500000Y-86125000D01*
X151020000Y-85350000D02*
X150220000Y-84550000D01*
X153500000Y-85350000D02*
X151020000Y-85350000D01*
%TO.N,Net-(C26-Pad1)*%
X154600000Y-87225000D02*
X154275000Y-86900000D01*
X154600000Y-88500000D02*
X154600000Y-87225000D01*
D37*
%TO.N,Net-(R20-Pad2)*%
X155910000Y-89010000D02*
X155910000Y-89890000D01*
X155400000Y-90400000D02*
X155910000Y-89890000D01*
X154600000Y-90400000D02*
X155400000Y-90400000D01*
D36*
%TO.N,speaker_left_p*%
X164200000Y-89150000D02*
X163450000Y-88400000D01*
X165450000Y-89150000D02*
X164200000Y-89150000D01*
X169550000Y-89150000D02*
X171200000Y-87500000D01*
X165450000Y-89150000D02*
X169550000Y-89150000D01*
%TO.N,speaker_left_m*%
X171110000Y-92590000D02*
X171200000Y-92500000D01*
X165500000Y-92590000D02*
X171110000Y-92590000D01*
X163450000Y-94590000D02*
X163450000Y-95500000D01*
X165450000Y-92590000D02*
X163450000Y-94590000D01*
%TO.N,speaker_rigth_p*%
X163450000Y-105330000D02*
X163450000Y-104500000D01*
X165450000Y-107330000D02*
X163450000Y-105330000D01*
X171030000Y-107330000D02*
X171200000Y-107500000D01*
X165450000Y-107330000D02*
X171030000Y-107330000D01*
%TO.N,speaker_rigth_m*%
X164280000Y-110770000D02*
X163450000Y-111600000D01*
X165450000Y-110770000D02*
X164280000Y-110770000D01*
X169470000Y-110770000D02*
X171200000Y-112500000D01*
X165450000Y-110770000D02*
X169470000Y-110770000D01*
D37*
%TO.N,spdif_in*%
X141460000Y-111603002D02*
X141088002Y-111975000D01*
X141088002Y-111975000D02*
X139327500Y-111975000D01*
X141460000Y-109450000D02*
X141460000Y-111603002D01*
X139600000Y-107590000D02*
X141460000Y-109450000D01*
X139600000Y-106640000D02*
X139600000Y-107590000D01*
X139600000Y-106490000D02*
X139600000Y-106640000D01*
X140820000Y-105270000D02*
X139600000Y-106490000D01*
X141100000Y-105270000D02*
X140820000Y-105270000D01*
%TO.N,swdio*%
X140830000Y-88690000D02*
X140830000Y-84500000D01*
X139735000Y-83405000D02*
X139735000Y-82260000D01*
X139895000Y-89625000D02*
X140830000Y-88690000D01*
X140830000Y-84500000D02*
X139735000Y-83405000D01*
X138777500Y-89625000D02*
X139895000Y-89625000D01*
%TO.N,swclk*%
X141304999Y-89065001D02*
X141304999Y-82559999D01*
X140095000Y-90275000D02*
X141304999Y-89065001D01*
X138777500Y-90275000D02*
X140095000Y-90275000D01*
X141304999Y-82559999D02*
X141005000Y-82260000D01*
%TO.N,uart_tx*%
X142900002Y-85180002D02*
X142900002Y-83180008D01*
X143445000Y-85725000D02*
X142900002Y-85180002D01*
X144502500Y-85725000D02*
X143445000Y-85725000D01*
%TO.N,uart_rx*%
X143545000Y-83875000D02*
X143545000Y-82260000D01*
X143400000Y-84020000D02*
X143545000Y-83875000D01*
X143400000Y-84920000D02*
X143400000Y-84020000D01*
X143555000Y-85075000D02*
X143400000Y-84920000D01*
X144502500Y-85075000D02*
X143555000Y-85075000D01*
%TO.N,dir_rst*%
X144502500Y-90942500D02*
X144502500Y-90275000D01*
X141450000Y-108310000D02*
X141450000Y-106640000D01*
X141910010Y-108770010D02*
X141450000Y-108310000D01*
X141910010Y-112049990D02*
X141910010Y-108770010D01*
X141335000Y-112625000D02*
X141910010Y-112049990D01*
X139327500Y-112625000D02*
X141335000Y-112625000D01*
X142100000Y-106640000D02*
X141450000Y-106640000D01*
X143200000Y-105540000D02*
X142100000Y-106640000D01*
X143200000Y-92230000D02*
X143200000Y-105540000D01*
X144502500Y-90927500D02*
X143200000Y-92230000D01*
X144502500Y-90275000D02*
X144502500Y-90927500D01*
%TO.N,tas_fault*%
X145805000Y-97075000D02*
X145430000Y-96700000D01*
X147950000Y-97075000D02*
X145805000Y-97075000D01*
X145430000Y-94700000D02*
X144920000Y-94190000D01*
X145430000Y-96700000D02*
X145430000Y-94700000D01*
X145928002Y-84425000D02*
X144502500Y-84425000D01*
X146765001Y-85261999D02*
X145928002Y-84425000D01*
X146765001Y-92344999D02*
X146765001Y-85261999D01*
X144920000Y-94190000D02*
X146765001Y-92344999D01*
%TO.N,Net-(D2-Pad2)*%
X134940000Y-82150000D02*
X134035000Y-82150000D01*
%TO.N,Net-(D3-Pad2)*%
X134940000Y-83125000D02*
X134035000Y-83125000D01*
%TO.N,led1*%
X147840000Y-81380000D02*
X146970000Y-81380000D01*
X147840000Y-80920000D02*
X147840000Y-81380000D01*
X148050000Y-80710000D02*
X147840000Y-80920000D01*
X149520000Y-80710000D02*
X148050000Y-80710000D01*
X149730000Y-80920000D02*
X149520000Y-80710000D01*
X149730000Y-81380000D02*
X149730000Y-80920000D01*
X137415000Y-86075000D02*
X135960000Y-84620000D01*
X137638589Y-86075000D02*
X137415000Y-86075000D01*
X137938589Y-86375000D02*
X137638589Y-86075000D01*
X138777500Y-86375000D02*
X137938589Y-86375000D01*
X135960000Y-83125000D02*
X135960000Y-84040000D01*
X135960000Y-84620000D02*
X135960000Y-84040000D01*
%TO.N,led0*%
X137925000Y-85725000D02*
X137825000Y-85625000D01*
X138777500Y-85725000D02*
X137925000Y-85725000D01*
X136700000Y-84700000D02*
X136700000Y-82890000D01*
X137825000Y-85625000D02*
X137625000Y-85625000D01*
X136700000Y-82890000D02*
X136010000Y-82200000D01*
X137625000Y-85625000D02*
X136700000Y-84700000D01*
%TO.N,dir_error*%
X143800000Y-92702500D02*
X144502500Y-92000000D01*
X143800000Y-105900000D02*
X143800000Y-92702500D01*
X142514990Y-107185010D02*
X143800000Y-105900000D01*
X142514990Y-115285010D02*
X142514990Y-107185010D01*
X141275000Y-116525000D02*
X142514990Y-115285010D01*
X139327500Y-116525000D02*
X141275000Y-116525000D01*
X144502500Y-86375000D02*
X144477499Y-86349999D01*
X142966109Y-86349999D02*
X142785037Y-86168927D01*
X144477499Y-86349999D02*
X142966109Y-86349999D01*
D36*
%TO.N,Net-(C27-Pad1)*%
X153680000Y-81830000D02*
X153500000Y-81650000D01*
X156590000Y-81830000D02*
X153680000Y-81830000D01*
X156590000Y-81830000D02*
X156590000Y-83820000D01*
X147900000Y-82585920D02*
X147900000Y-82450000D01*
X148864080Y-83550000D02*
X147900000Y-82585920D01*
X156320000Y-83550000D02*
X148864080Y-83550000D01*
X156590000Y-83820000D02*
X156320000Y-83550000D01*
D37*
X155910000Y-84500000D02*
X156590000Y-83820000D01*
X155910000Y-87990000D02*
X155910000Y-84500000D01*
%TD*%
M02*
