%TF.GenerationSoftware,KiCad,Pcbnew,5.1.9-73d0e3b20d~88~ubuntu20.04.1*%
%TF.CreationDate,2021-04-24T16:50:53+02:00*%
%TF.ProjectId,elmo,656c6d6f-2e6b-4696-9361-645f70636258,v1.00*%
%TF.SameCoordinates,Original*%
%TF.FileFunction,Soldermask,Top*%
%TF.FilePolarity,Negative*%
%FSLAX46Y46*%
G04 Gerber Fmt 4.6, Leading zero omitted, Abs format (unit mm)*
G04 Created by KiCad (PCBNEW 5.1.9-73d0e3b20d~88~ubuntu20.04.1) date 2021-04-24 16:50:53*
%MOMM*%
%LPD*%
G01*
G04 APERTURE LIST*
%ADD10C,2.524000*%
%ADD11R,1.600000X1.000000*%
%ADD12R,2.600000X0.280000*%
%ADD13O,3.100000X1.500000*%
%ADD14O,2.300000X1.500000*%
%ADD15O,2.100000X1.000000*%
%ADD16O,1.600000X1.000000*%
%ADD17C,0.650000*%
%ADD18R,1.150000X0.300000*%
%ADD19R,1.060000X0.650000*%
%ADD20R,0.900000X0.800000*%
%ADD21R,0.700000X1.000000*%
%ADD22R,0.800000X0.900000*%
%ADD23R,0.450000X0.600000*%
%ADD24R,0.650000X1.060000*%
%ADD25R,1.000000X1.000000*%
%ADD26O,1.000000X1.000000*%
%ADD27R,1.100000X0.400000*%
%ADD28R,2.400000X6.170000*%
%ADD29R,1.500000X2.400000*%
%ADD30R,0.600000X0.450000*%
G04 APERTURE END LIST*
D10*
%TO.C,J3*%
X170300000Y-112400000D03*
X170300000Y-107400000D03*
X170300000Y-102400000D03*
X170300000Y-97400000D03*
X170300000Y-92400000D03*
X170300000Y-87400000D03*
%TD*%
D11*
%TO.C,L5*%
X153500000Y-81650000D03*
X153500000Y-85350000D03*
%TD*%
D12*
%TO.C,J1*%
X133220000Y-113650000D03*
X133220000Y-113150000D03*
X133220000Y-112650000D03*
X133220000Y-112150000D03*
X133220000Y-111650000D03*
X133220000Y-111150000D03*
X133220000Y-110650000D03*
X133220000Y-110150000D03*
X133220000Y-109650000D03*
X133220000Y-109150000D03*
X133220000Y-108650000D03*
X133220000Y-108150000D03*
X133220000Y-107650000D03*
X133220000Y-107150000D03*
X133220000Y-106650000D03*
X133220000Y-106150000D03*
X133220000Y-105650000D03*
X133220000Y-105150000D03*
X133220000Y-104650000D03*
D13*
X132460000Y-101900000D03*
X132460000Y-116400000D03*
D14*
X126500000Y-101900000D03*
X126500000Y-116400000D03*
%TD*%
D15*
%TO.C,J2*%
X130925000Y-83030000D03*
X130925000Y-91670000D03*
D16*
X126745000Y-83030000D03*
X126745000Y-91670000D03*
D17*
X130425000Y-90240000D03*
X130425000Y-84460000D03*
D18*
X131490000Y-90400000D03*
X131490000Y-89600000D03*
X131490000Y-89100000D03*
X131490000Y-88600000D03*
X131490000Y-88100000D03*
X131490000Y-87600000D03*
X131490000Y-87100000D03*
X131490000Y-86600000D03*
X131490000Y-86100000D03*
X131490000Y-85600000D03*
X131490000Y-84800000D03*
X131490000Y-84000000D03*
X131490000Y-84300000D03*
X131490000Y-85100000D03*
X131490000Y-89900000D03*
X131490000Y-90700000D03*
%TD*%
%TO.C,R9*%
G36*
G01*
X134315000Y-95540000D02*
X134685000Y-95540000D01*
G75*
G02*
X134820000Y-95675000I0J-135000D01*
G01*
X134820000Y-95945000D01*
G75*
G02*
X134685000Y-96080000I-135000J0D01*
G01*
X134315000Y-96080000D01*
G75*
G02*
X134180000Y-95945000I0J135000D01*
G01*
X134180000Y-95675000D01*
G75*
G02*
X134315000Y-95540000I135000J0D01*
G01*
G37*
G36*
G01*
X134315000Y-94520000D02*
X134685000Y-94520000D01*
G75*
G02*
X134820000Y-94655000I0J-135000D01*
G01*
X134820000Y-94925000D01*
G75*
G02*
X134685000Y-95060000I-135000J0D01*
G01*
X134315000Y-95060000D01*
G75*
G02*
X134180000Y-94925000I0J135000D01*
G01*
X134180000Y-94655000D01*
G75*
G02*
X134315000Y-94520000I135000J0D01*
G01*
G37*
%TD*%
D19*
%TO.C,U6*%
X152400000Y-88500000D03*
X152400000Y-89450000D03*
X152400000Y-90400000D03*
X154600000Y-90400000D03*
X154600000Y-88500000D03*
X154600000Y-89450000D03*
%TD*%
%TO.C,C26*%
G36*
G01*
X153175000Y-86650000D02*
X153175000Y-87150000D01*
G75*
G02*
X152950000Y-87375000I-225000J0D01*
G01*
X152500000Y-87375000D01*
G75*
G02*
X152275000Y-87150000I0J225000D01*
G01*
X152275000Y-86650000D01*
G75*
G02*
X152500000Y-86425000I225000J0D01*
G01*
X152950000Y-86425000D01*
G75*
G02*
X153175000Y-86650000I0J-225000D01*
G01*
G37*
G36*
G01*
X154725000Y-86650000D02*
X154725000Y-87150000D01*
G75*
G02*
X154500000Y-87375000I-225000J0D01*
G01*
X154050000Y-87375000D01*
G75*
G02*
X153825000Y-87150000I0J225000D01*
G01*
X153825000Y-86650000D01*
G75*
G02*
X154050000Y-86425000I225000J0D01*
G01*
X154500000Y-86425000D01*
G75*
G02*
X154725000Y-86650000I0J-225000D01*
G01*
G37*
%TD*%
D20*
%TO.C,U4*%
X147600000Y-88500000D03*
X147600000Y-90400000D03*
X149600000Y-89450000D03*
%TD*%
%TO.C,C16*%
G36*
G01*
X149050000Y-92675000D02*
X149050000Y-91725000D01*
G75*
G02*
X149300000Y-91475000I250000J0D01*
G01*
X149800000Y-91475000D01*
G75*
G02*
X150050000Y-91725000I0J-250000D01*
G01*
X150050000Y-92675000D01*
G75*
G02*
X149800000Y-92925000I-250000J0D01*
G01*
X149300000Y-92925000D01*
G75*
G02*
X149050000Y-92675000I0J250000D01*
G01*
G37*
G36*
G01*
X147150000Y-92675000D02*
X147150000Y-91725000D01*
G75*
G02*
X147400000Y-91475000I250000J0D01*
G01*
X147900000Y-91475000D01*
G75*
G02*
X148150000Y-91725000I0J-250000D01*
G01*
X148150000Y-92675000D01*
G75*
G02*
X147900000Y-92925000I-250000J0D01*
G01*
X147400000Y-92925000D01*
G75*
G02*
X147150000Y-92675000I0J250000D01*
G01*
G37*
%TD*%
%TO.C,C28*%
G36*
G01*
X156090000Y-84295000D02*
X156090000Y-83345000D01*
G75*
G02*
X156340000Y-83095000I250000J0D01*
G01*
X156840000Y-83095000D01*
G75*
G02*
X157090000Y-83345000I0J-250000D01*
G01*
X157090000Y-84295000D01*
G75*
G02*
X156840000Y-84545000I-250000J0D01*
G01*
X156340000Y-84545000D01*
G75*
G02*
X156090000Y-84295000I0J250000D01*
G01*
G37*
G36*
G01*
X157990000Y-84295000D02*
X157990000Y-83345000D01*
G75*
G02*
X158240000Y-83095000I250000J0D01*
G01*
X158740000Y-83095000D01*
G75*
G02*
X158990000Y-83345000I0J-250000D01*
G01*
X158990000Y-84295000D01*
G75*
G02*
X158740000Y-84545000I-250000J0D01*
G01*
X158240000Y-84545000D01*
G75*
G02*
X157990000Y-84295000I0J250000D01*
G01*
G37*
%TD*%
%TO.C,R2*%
G36*
G01*
X134310000Y-89465000D02*
X134310000Y-89835000D01*
G75*
G02*
X134175000Y-89970000I-135000J0D01*
G01*
X133905000Y-89970000D01*
G75*
G02*
X133770000Y-89835000I0J135000D01*
G01*
X133770000Y-89465000D01*
G75*
G02*
X133905000Y-89330000I135000J0D01*
G01*
X134175000Y-89330000D01*
G75*
G02*
X134310000Y-89465000I0J-135000D01*
G01*
G37*
G36*
G01*
X133290000Y-89465000D02*
X133290000Y-89835000D01*
G75*
G02*
X133155000Y-89970000I-135000J0D01*
G01*
X132885000Y-89970000D01*
G75*
G02*
X132750000Y-89835000I0J135000D01*
G01*
X132750000Y-89465000D01*
G75*
G02*
X132885000Y-89330000I135000J0D01*
G01*
X133155000Y-89330000D01*
G75*
G02*
X133290000Y-89465000I0J-135000D01*
G01*
G37*
%TD*%
%TO.C,R10*%
G36*
G01*
X126440000Y-94265000D02*
X126440000Y-93895000D01*
G75*
G02*
X126575000Y-93760000I135000J0D01*
G01*
X126845000Y-93760000D01*
G75*
G02*
X126980000Y-93895000I0J-135000D01*
G01*
X126980000Y-94265000D01*
G75*
G02*
X126845000Y-94400000I-135000J0D01*
G01*
X126575000Y-94400000D01*
G75*
G02*
X126440000Y-94265000I0J135000D01*
G01*
G37*
G36*
G01*
X127460000Y-94265000D02*
X127460000Y-93895000D01*
G75*
G02*
X127595000Y-93760000I135000J0D01*
G01*
X127865000Y-93760000D01*
G75*
G02*
X128000000Y-93895000I0J-135000D01*
G01*
X128000000Y-94265000D01*
G75*
G02*
X127865000Y-94400000I-135000J0D01*
G01*
X127595000Y-94400000D01*
G75*
G02*
X127460000Y-94265000I0J135000D01*
G01*
G37*
%TD*%
%TO.C,C1*%
G36*
G01*
X156425000Y-96725000D02*
X155925000Y-96725000D01*
G75*
G02*
X155700000Y-96500000I0J225000D01*
G01*
X155700000Y-96050000D01*
G75*
G02*
X155925000Y-95825000I225000J0D01*
G01*
X156425000Y-95825000D01*
G75*
G02*
X156650000Y-96050000I0J-225000D01*
G01*
X156650000Y-96500000D01*
G75*
G02*
X156425000Y-96725000I-225000J0D01*
G01*
G37*
G36*
G01*
X156425000Y-95175000D02*
X155925000Y-95175000D01*
G75*
G02*
X155700000Y-94950000I0J225000D01*
G01*
X155700000Y-94500000D01*
G75*
G02*
X155925000Y-94275000I225000J0D01*
G01*
X156425000Y-94275000D01*
G75*
G02*
X156650000Y-94500000I0J-225000D01*
G01*
X156650000Y-94950000D01*
G75*
G02*
X156425000Y-95175000I-225000J0D01*
G01*
G37*
%TD*%
%TO.C,C2*%
G36*
G01*
X155925000Y-104825000D02*
X156425000Y-104825000D01*
G75*
G02*
X156650000Y-105050000I0J-225000D01*
G01*
X156650000Y-105500000D01*
G75*
G02*
X156425000Y-105725000I-225000J0D01*
G01*
X155925000Y-105725000D01*
G75*
G02*
X155700000Y-105500000I0J225000D01*
G01*
X155700000Y-105050000D01*
G75*
G02*
X155925000Y-104825000I225000J0D01*
G01*
G37*
G36*
G01*
X155925000Y-103275000D02*
X156425000Y-103275000D01*
G75*
G02*
X156650000Y-103500000I0J-225000D01*
G01*
X156650000Y-103950000D01*
G75*
G02*
X156425000Y-104175000I-225000J0D01*
G01*
X155925000Y-104175000D01*
G75*
G02*
X155700000Y-103950000I0J225000D01*
G01*
X155700000Y-103500000D01*
G75*
G02*
X155925000Y-103275000I225000J0D01*
G01*
G37*
%TD*%
%TO.C,C3*%
G36*
G01*
X156425000Y-98175000D02*
X155925000Y-98175000D01*
G75*
G02*
X155700000Y-97950000I0J225000D01*
G01*
X155700000Y-97500000D01*
G75*
G02*
X155925000Y-97275000I225000J0D01*
G01*
X156425000Y-97275000D01*
G75*
G02*
X156650000Y-97500000I0J-225000D01*
G01*
X156650000Y-97950000D01*
G75*
G02*
X156425000Y-98175000I-225000J0D01*
G01*
G37*
G36*
G01*
X156425000Y-99725000D02*
X155925000Y-99725000D01*
G75*
G02*
X155700000Y-99500000I0J225000D01*
G01*
X155700000Y-99050000D01*
G75*
G02*
X155925000Y-98825000I225000J0D01*
G01*
X156425000Y-98825000D01*
G75*
G02*
X156650000Y-99050000I0J-225000D01*
G01*
X156650000Y-99500000D01*
G75*
G02*
X156425000Y-99725000I-225000J0D01*
G01*
G37*
%TD*%
%TO.C,C4*%
G36*
G01*
X155925000Y-100275000D02*
X156425000Y-100275000D01*
G75*
G02*
X156650000Y-100500000I0J-225000D01*
G01*
X156650000Y-100950000D01*
G75*
G02*
X156425000Y-101175000I-225000J0D01*
G01*
X155925000Y-101175000D01*
G75*
G02*
X155700000Y-100950000I0J225000D01*
G01*
X155700000Y-100500000D01*
G75*
G02*
X155925000Y-100275000I225000J0D01*
G01*
G37*
G36*
G01*
X155925000Y-101825000D02*
X156425000Y-101825000D01*
G75*
G02*
X156650000Y-102050000I0J-225000D01*
G01*
X156650000Y-102500000D01*
G75*
G02*
X156425000Y-102725000I-225000J0D01*
G01*
X155925000Y-102725000D01*
G75*
G02*
X155700000Y-102500000I0J225000D01*
G01*
X155700000Y-102050000D01*
G75*
G02*
X155925000Y-101825000I225000J0D01*
G01*
G37*
%TD*%
%TO.C,C5*%
G36*
G01*
X164975000Y-86750000D02*
X165925000Y-86750000D01*
G75*
G02*
X166175000Y-87000000I0J-250000D01*
G01*
X166175000Y-87500000D01*
G75*
G02*
X165925000Y-87750000I-250000J0D01*
G01*
X164975000Y-87750000D01*
G75*
G02*
X164725000Y-87500000I0J250000D01*
G01*
X164725000Y-87000000D01*
G75*
G02*
X164975000Y-86750000I250000J0D01*
G01*
G37*
G36*
G01*
X164975000Y-88650000D02*
X165925000Y-88650000D01*
G75*
G02*
X166175000Y-88900000I0J-250000D01*
G01*
X166175000Y-89400000D01*
G75*
G02*
X165925000Y-89650000I-250000J0D01*
G01*
X164975000Y-89650000D01*
G75*
G02*
X164725000Y-89400000I0J250000D01*
G01*
X164725000Y-88900000D01*
G75*
G02*
X164975000Y-88650000I250000J0D01*
G01*
G37*
%TD*%
%TO.C,C6*%
G36*
G01*
X165925000Y-91190000D02*
X164975000Y-91190000D01*
G75*
G02*
X164725000Y-90940000I0J250000D01*
G01*
X164725000Y-90440000D01*
G75*
G02*
X164975000Y-90190000I250000J0D01*
G01*
X165925000Y-90190000D01*
G75*
G02*
X166175000Y-90440000I0J-250000D01*
G01*
X166175000Y-90940000D01*
G75*
G02*
X165925000Y-91190000I-250000J0D01*
G01*
G37*
G36*
G01*
X165925000Y-93090000D02*
X164975000Y-93090000D01*
G75*
G02*
X164725000Y-92840000I0J250000D01*
G01*
X164725000Y-92340000D01*
G75*
G02*
X164975000Y-92090000I250000J0D01*
G01*
X165925000Y-92090000D01*
G75*
G02*
X166175000Y-92340000I0J-250000D01*
G01*
X166175000Y-92840000D01*
G75*
G02*
X165925000Y-93090000I-250000J0D01*
G01*
G37*
%TD*%
%TO.C,C7*%
G36*
G01*
X165925000Y-107830000D02*
X164975000Y-107830000D01*
G75*
G02*
X164725000Y-107580000I0J250000D01*
G01*
X164725000Y-107080000D01*
G75*
G02*
X164975000Y-106830000I250000J0D01*
G01*
X165925000Y-106830000D01*
G75*
G02*
X166175000Y-107080000I0J-250000D01*
G01*
X166175000Y-107580000D01*
G75*
G02*
X165925000Y-107830000I-250000J0D01*
G01*
G37*
G36*
G01*
X165925000Y-109730000D02*
X164975000Y-109730000D01*
G75*
G02*
X164725000Y-109480000I0J250000D01*
G01*
X164725000Y-108980000D01*
G75*
G02*
X164975000Y-108730000I250000J0D01*
G01*
X165925000Y-108730000D01*
G75*
G02*
X166175000Y-108980000I0J-250000D01*
G01*
X166175000Y-109480000D01*
G75*
G02*
X165925000Y-109730000I-250000J0D01*
G01*
G37*
%TD*%
%TO.C,C8*%
G36*
G01*
X164975000Y-110270000D02*
X165925000Y-110270000D01*
G75*
G02*
X166175000Y-110520000I0J-250000D01*
G01*
X166175000Y-111020000D01*
G75*
G02*
X165925000Y-111270000I-250000J0D01*
G01*
X164975000Y-111270000D01*
G75*
G02*
X164725000Y-111020000I0J250000D01*
G01*
X164725000Y-110520000D01*
G75*
G02*
X164975000Y-110270000I250000J0D01*
G01*
G37*
G36*
G01*
X164975000Y-112170000D02*
X165925000Y-112170000D01*
G75*
G02*
X166175000Y-112420000I0J-250000D01*
G01*
X166175000Y-112920000D01*
G75*
G02*
X165925000Y-113170000I-250000J0D01*
G01*
X164975000Y-113170000D01*
G75*
G02*
X164725000Y-112920000I0J250000D01*
G01*
X164725000Y-112420000D01*
G75*
G02*
X164975000Y-112170000I250000J0D01*
G01*
G37*
%TD*%
%TO.C,U2*%
G36*
G01*
X145790000Y-117075000D02*
X145790000Y-117275000D01*
G75*
G02*
X145690000Y-117375000I-100000J0D01*
G01*
X144415000Y-117375000D01*
G75*
G02*
X144315000Y-117275000I0J100000D01*
G01*
X144315000Y-117075000D01*
G75*
G02*
X144415000Y-116975000I100000J0D01*
G01*
X145690000Y-116975000D01*
G75*
G02*
X145790000Y-117075000I0J-100000D01*
G01*
G37*
G36*
G01*
X145790000Y-116425000D02*
X145790000Y-116625000D01*
G75*
G02*
X145690000Y-116725000I-100000J0D01*
G01*
X144415000Y-116725000D01*
G75*
G02*
X144315000Y-116625000I0J100000D01*
G01*
X144315000Y-116425000D01*
G75*
G02*
X144415000Y-116325000I100000J0D01*
G01*
X145690000Y-116325000D01*
G75*
G02*
X145790000Y-116425000I0J-100000D01*
G01*
G37*
G36*
G01*
X145790000Y-115775000D02*
X145790000Y-115975000D01*
G75*
G02*
X145690000Y-116075000I-100000J0D01*
G01*
X144415000Y-116075000D01*
G75*
G02*
X144315000Y-115975000I0J100000D01*
G01*
X144315000Y-115775000D01*
G75*
G02*
X144415000Y-115675000I100000J0D01*
G01*
X145690000Y-115675000D01*
G75*
G02*
X145790000Y-115775000I0J-100000D01*
G01*
G37*
G36*
G01*
X145790000Y-115125000D02*
X145790000Y-115325000D01*
G75*
G02*
X145690000Y-115425000I-100000J0D01*
G01*
X144415000Y-115425000D01*
G75*
G02*
X144315000Y-115325000I0J100000D01*
G01*
X144315000Y-115125000D01*
G75*
G02*
X144415000Y-115025000I100000J0D01*
G01*
X145690000Y-115025000D01*
G75*
G02*
X145790000Y-115125000I0J-100000D01*
G01*
G37*
G36*
G01*
X145790000Y-114475000D02*
X145790000Y-114675000D01*
G75*
G02*
X145690000Y-114775000I-100000J0D01*
G01*
X144415000Y-114775000D01*
G75*
G02*
X144315000Y-114675000I0J100000D01*
G01*
X144315000Y-114475000D01*
G75*
G02*
X144415000Y-114375000I100000J0D01*
G01*
X145690000Y-114375000D01*
G75*
G02*
X145790000Y-114475000I0J-100000D01*
G01*
G37*
G36*
G01*
X145790000Y-113825000D02*
X145790000Y-114025000D01*
G75*
G02*
X145690000Y-114125000I-100000J0D01*
G01*
X144415000Y-114125000D01*
G75*
G02*
X144315000Y-114025000I0J100000D01*
G01*
X144315000Y-113825000D01*
G75*
G02*
X144415000Y-113725000I100000J0D01*
G01*
X145690000Y-113725000D01*
G75*
G02*
X145790000Y-113825000I0J-100000D01*
G01*
G37*
G36*
G01*
X145790000Y-113175000D02*
X145790000Y-113375000D01*
G75*
G02*
X145690000Y-113475000I-100000J0D01*
G01*
X144415000Y-113475000D01*
G75*
G02*
X144315000Y-113375000I0J100000D01*
G01*
X144315000Y-113175000D01*
G75*
G02*
X144415000Y-113075000I100000J0D01*
G01*
X145690000Y-113075000D01*
G75*
G02*
X145790000Y-113175000I0J-100000D01*
G01*
G37*
G36*
G01*
X145790000Y-112525000D02*
X145790000Y-112725000D01*
G75*
G02*
X145690000Y-112825000I-100000J0D01*
G01*
X144415000Y-112825000D01*
G75*
G02*
X144315000Y-112725000I0J100000D01*
G01*
X144315000Y-112525000D01*
G75*
G02*
X144415000Y-112425000I100000J0D01*
G01*
X145690000Y-112425000D01*
G75*
G02*
X145790000Y-112525000I0J-100000D01*
G01*
G37*
G36*
G01*
X145790000Y-111875000D02*
X145790000Y-112075000D01*
G75*
G02*
X145690000Y-112175000I-100000J0D01*
G01*
X144415000Y-112175000D01*
G75*
G02*
X144315000Y-112075000I0J100000D01*
G01*
X144315000Y-111875000D01*
G75*
G02*
X144415000Y-111775000I100000J0D01*
G01*
X145690000Y-111775000D01*
G75*
G02*
X145790000Y-111875000I0J-100000D01*
G01*
G37*
G36*
G01*
X145790000Y-111225000D02*
X145790000Y-111425000D01*
G75*
G02*
X145690000Y-111525000I-100000J0D01*
G01*
X144415000Y-111525000D01*
G75*
G02*
X144315000Y-111425000I0J100000D01*
G01*
X144315000Y-111225000D01*
G75*
G02*
X144415000Y-111125000I100000J0D01*
G01*
X145690000Y-111125000D01*
G75*
G02*
X145790000Y-111225000I0J-100000D01*
G01*
G37*
G36*
G01*
X145790000Y-110575000D02*
X145790000Y-110775000D01*
G75*
G02*
X145690000Y-110875000I-100000J0D01*
G01*
X144415000Y-110875000D01*
G75*
G02*
X144315000Y-110775000I0J100000D01*
G01*
X144315000Y-110575000D01*
G75*
G02*
X144415000Y-110475000I100000J0D01*
G01*
X145690000Y-110475000D01*
G75*
G02*
X145790000Y-110575000I0J-100000D01*
G01*
G37*
G36*
G01*
X145790000Y-109925000D02*
X145790000Y-110125000D01*
G75*
G02*
X145690000Y-110225000I-100000J0D01*
G01*
X144415000Y-110225000D01*
G75*
G02*
X144315000Y-110125000I0J100000D01*
G01*
X144315000Y-109925000D01*
G75*
G02*
X144415000Y-109825000I100000J0D01*
G01*
X145690000Y-109825000D01*
G75*
G02*
X145790000Y-109925000I0J-100000D01*
G01*
G37*
G36*
G01*
X145790000Y-109275000D02*
X145790000Y-109475000D01*
G75*
G02*
X145690000Y-109575000I-100000J0D01*
G01*
X144415000Y-109575000D01*
G75*
G02*
X144315000Y-109475000I0J100000D01*
G01*
X144315000Y-109275000D01*
G75*
G02*
X144415000Y-109175000I100000J0D01*
G01*
X145690000Y-109175000D01*
G75*
G02*
X145790000Y-109275000I0J-100000D01*
G01*
G37*
G36*
G01*
X145790000Y-108625000D02*
X145790000Y-108825000D01*
G75*
G02*
X145690000Y-108925000I-100000J0D01*
G01*
X144415000Y-108925000D01*
G75*
G02*
X144315000Y-108825000I0J100000D01*
G01*
X144315000Y-108625000D01*
G75*
G02*
X144415000Y-108525000I100000J0D01*
G01*
X145690000Y-108525000D01*
G75*
G02*
X145790000Y-108625000I0J-100000D01*
G01*
G37*
G36*
G01*
X140065000Y-108625000D02*
X140065000Y-108825000D01*
G75*
G02*
X139965000Y-108925000I-100000J0D01*
G01*
X138690000Y-108925000D01*
G75*
G02*
X138590000Y-108825000I0J100000D01*
G01*
X138590000Y-108625000D01*
G75*
G02*
X138690000Y-108525000I100000J0D01*
G01*
X139965000Y-108525000D01*
G75*
G02*
X140065000Y-108625000I0J-100000D01*
G01*
G37*
G36*
G01*
X140065000Y-109275000D02*
X140065000Y-109475000D01*
G75*
G02*
X139965000Y-109575000I-100000J0D01*
G01*
X138690000Y-109575000D01*
G75*
G02*
X138590000Y-109475000I0J100000D01*
G01*
X138590000Y-109275000D01*
G75*
G02*
X138690000Y-109175000I100000J0D01*
G01*
X139965000Y-109175000D01*
G75*
G02*
X140065000Y-109275000I0J-100000D01*
G01*
G37*
G36*
G01*
X140065000Y-109925000D02*
X140065000Y-110125000D01*
G75*
G02*
X139965000Y-110225000I-100000J0D01*
G01*
X138690000Y-110225000D01*
G75*
G02*
X138590000Y-110125000I0J100000D01*
G01*
X138590000Y-109925000D01*
G75*
G02*
X138690000Y-109825000I100000J0D01*
G01*
X139965000Y-109825000D01*
G75*
G02*
X140065000Y-109925000I0J-100000D01*
G01*
G37*
G36*
G01*
X140065000Y-110575000D02*
X140065000Y-110775000D01*
G75*
G02*
X139965000Y-110875000I-100000J0D01*
G01*
X138690000Y-110875000D01*
G75*
G02*
X138590000Y-110775000I0J100000D01*
G01*
X138590000Y-110575000D01*
G75*
G02*
X138690000Y-110475000I100000J0D01*
G01*
X139965000Y-110475000D01*
G75*
G02*
X140065000Y-110575000I0J-100000D01*
G01*
G37*
G36*
G01*
X140065000Y-111225000D02*
X140065000Y-111425000D01*
G75*
G02*
X139965000Y-111525000I-100000J0D01*
G01*
X138690000Y-111525000D01*
G75*
G02*
X138590000Y-111425000I0J100000D01*
G01*
X138590000Y-111225000D01*
G75*
G02*
X138690000Y-111125000I100000J0D01*
G01*
X139965000Y-111125000D01*
G75*
G02*
X140065000Y-111225000I0J-100000D01*
G01*
G37*
G36*
G01*
X140065000Y-111875000D02*
X140065000Y-112075000D01*
G75*
G02*
X139965000Y-112175000I-100000J0D01*
G01*
X138690000Y-112175000D01*
G75*
G02*
X138590000Y-112075000I0J100000D01*
G01*
X138590000Y-111875000D01*
G75*
G02*
X138690000Y-111775000I100000J0D01*
G01*
X139965000Y-111775000D01*
G75*
G02*
X140065000Y-111875000I0J-100000D01*
G01*
G37*
G36*
G01*
X140065000Y-112525000D02*
X140065000Y-112725000D01*
G75*
G02*
X139965000Y-112825000I-100000J0D01*
G01*
X138690000Y-112825000D01*
G75*
G02*
X138590000Y-112725000I0J100000D01*
G01*
X138590000Y-112525000D01*
G75*
G02*
X138690000Y-112425000I100000J0D01*
G01*
X139965000Y-112425000D01*
G75*
G02*
X140065000Y-112525000I0J-100000D01*
G01*
G37*
G36*
G01*
X140065000Y-113175000D02*
X140065000Y-113375000D01*
G75*
G02*
X139965000Y-113475000I-100000J0D01*
G01*
X138690000Y-113475000D01*
G75*
G02*
X138590000Y-113375000I0J100000D01*
G01*
X138590000Y-113175000D01*
G75*
G02*
X138690000Y-113075000I100000J0D01*
G01*
X139965000Y-113075000D01*
G75*
G02*
X140065000Y-113175000I0J-100000D01*
G01*
G37*
G36*
G01*
X140065000Y-113825000D02*
X140065000Y-114025000D01*
G75*
G02*
X139965000Y-114125000I-100000J0D01*
G01*
X138690000Y-114125000D01*
G75*
G02*
X138590000Y-114025000I0J100000D01*
G01*
X138590000Y-113825000D01*
G75*
G02*
X138690000Y-113725000I100000J0D01*
G01*
X139965000Y-113725000D01*
G75*
G02*
X140065000Y-113825000I0J-100000D01*
G01*
G37*
G36*
G01*
X140065000Y-114475000D02*
X140065000Y-114675000D01*
G75*
G02*
X139965000Y-114775000I-100000J0D01*
G01*
X138690000Y-114775000D01*
G75*
G02*
X138590000Y-114675000I0J100000D01*
G01*
X138590000Y-114475000D01*
G75*
G02*
X138690000Y-114375000I100000J0D01*
G01*
X139965000Y-114375000D01*
G75*
G02*
X140065000Y-114475000I0J-100000D01*
G01*
G37*
G36*
G01*
X140065000Y-115125000D02*
X140065000Y-115325000D01*
G75*
G02*
X139965000Y-115425000I-100000J0D01*
G01*
X138690000Y-115425000D01*
G75*
G02*
X138590000Y-115325000I0J100000D01*
G01*
X138590000Y-115125000D01*
G75*
G02*
X138690000Y-115025000I100000J0D01*
G01*
X139965000Y-115025000D01*
G75*
G02*
X140065000Y-115125000I0J-100000D01*
G01*
G37*
G36*
G01*
X140065000Y-115775000D02*
X140065000Y-115975000D01*
G75*
G02*
X139965000Y-116075000I-100000J0D01*
G01*
X138690000Y-116075000D01*
G75*
G02*
X138590000Y-115975000I0J100000D01*
G01*
X138590000Y-115775000D01*
G75*
G02*
X138690000Y-115675000I100000J0D01*
G01*
X139965000Y-115675000D01*
G75*
G02*
X140065000Y-115775000I0J-100000D01*
G01*
G37*
G36*
G01*
X140065000Y-116425000D02*
X140065000Y-116625000D01*
G75*
G02*
X139965000Y-116725000I-100000J0D01*
G01*
X138690000Y-116725000D01*
G75*
G02*
X138590000Y-116625000I0J100000D01*
G01*
X138590000Y-116425000D01*
G75*
G02*
X138690000Y-116325000I100000J0D01*
G01*
X139965000Y-116325000D01*
G75*
G02*
X140065000Y-116425000I0J-100000D01*
G01*
G37*
G36*
G01*
X140065000Y-117075000D02*
X140065000Y-117275000D01*
G75*
G02*
X139965000Y-117375000I-100000J0D01*
G01*
X138690000Y-117375000D01*
G75*
G02*
X138590000Y-117275000I0J100000D01*
G01*
X138590000Y-117075000D01*
G75*
G02*
X138690000Y-116975000I100000J0D01*
G01*
X139965000Y-116975000D01*
G75*
G02*
X140065000Y-117075000I0J-100000D01*
G01*
G37*
%TD*%
%TO.C,U3*%
G36*
G01*
X145240000Y-90175000D02*
X145240000Y-90375000D01*
G75*
G02*
X145140000Y-90475000I-100000J0D01*
G01*
X143865000Y-90475000D01*
G75*
G02*
X143765000Y-90375000I0J100000D01*
G01*
X143765000Y-90175000D01*
G75*
G02*
X143865000Y-90075000I100000J0D01*
G01*
X145140000Y-90075000D01*
G75*
G02*
X145240000Y-90175000I0J-100000D01*
G01*
G37*
G36*
G01*
X145240000Y-89525000D02*
X145240000Y-89725000D01*
G75*
G02*
X145140000Y-89825000I-100000J0D01*
G01*
X143865000Y-89825000D01*
G75*
G02*
X143765000Y-89725000I0J100000D01*
G01*
X143765000Y-89525000D01*
G75*
G02*
X143865000Y-89425000I100000J0D01*
G01*
X145140000Y-89425000D01*
G75*
G02*
X145240000Y-89525000I0J-100000D01*
G01*
G37*
G36*
G01*
X145240000Y-88875000D02*
X145240000Y-89075000D01*
G75*
G02*
X145140000Y-89175000I-100000J0D01*
G01*
X143865000Y-89175000D01*
G75*
G02*
X143765000Y-89075000I0J100000D01*
G01*
X143765000Y-88875000D01*
G75*
G02*
X143865000Y-88775000I100000J0D01*
G01*
X145140000Y-88775000D01*
G75*
G02*
X145240000Y-88875000I0J-100000D01*
G01*
G37*
G36*
G01*
X145240000Y-88225000D02*
X145240000Y-88425000D01*
G75*
G02*
X145140000Y-88525000I-100000J0D01*
G01*
X143865000Y-88525000D01*
G75*
G02*
X143765000Y-88425000I0J100000D01*
G01*
X143765000Y-88225000D01*
G75*
G02*
X143865000Y-88125000I100000J0D01*
G01*
X145140000Y-88125000D01*
G75*
G02*
X145240000Y-88225000I0J-100000D01*
G01*
G37*
G36*
G01*
X145240000Y-87575000D02*
X145240000Y-87775000D01*
G75*
G02*
X145140000Y-87875000I-100000J0D01*
G01*
X143865000Y-87875000D01*
G75*
G02*
X143765000Y-87775000I0J100000D01*
G01*
X143765000Y-87575000D01*
G75*
G02*
X143865000Y-87475000I100000J0D01*
G01*
X145140000Y-87475000D01*
G75*
G02*
X145240000Y-87575000I0J-100000D01*
G01*
G37*
G36*
G01*
X145240000Y-86925000D02*
X145240000Y-87125000D01*
G75*
G02*
X145140000Y-87225000I-100000J0D01*
G01*
X143865000Y-87225000D01*
G75*
G02*
X143765000Y-87125000I0J100000D01*
G01*
X143765000Y-86925000D01*
G75*
G02*
X143865000Y-86825000I100000J0D01*
G01*
X145140000Y-86825000D01*
G75*
G02*
X145240000Y-86925000I0J-100000D01*
G01*
G37*
G36*
G01*
X145240000Y-86275000D02*
X145240000Y-86475000D01*
G75*
G02*
X145140000Y-86575000I-100000J0D01*
G01*
X143865000Y-86575000D01*
G75*
G02*
X143765000Y-86475000I0J100000D01*
G01*
X143765000Y-86275000D01*
G75*
G02*
X143865000Y-86175000I100000J0D01*
G01*
X145140000Y-86175000D01*
G75*
G02*
X145240000Y-86275000I0J-100000D01*
G01*
G37*
G36*
G01*
X145240000Y-85625000D02*
X145240000Y-85825000D01*
G75*
G02*
X145140000Y-85925000I-100000J0D01*
G01*
X143865000Y-85925000D01*
G75*
G02*
X143765000Y-85825000I0J100000D01*
G01*
X143765000Y-85625000D01*
G75*
G02*
X143865000Y-85525000I100000J0D01*
G01*
X145140000Y-85525000D01*
G75*
G02*
X145240000Y-85625000I0J-100000D01*
G01*
G37*
G36*
G01*
X145240000Y-84975000D02*
X145240000Y-85175000D01*
G75*
G02*
X145140000Y-85275000I-100000J0D01*
G01*
X143865000Y-85275000D01*
G75*
G02*
X143765000Y-85175000I0J100000D01*
G01*
X143765000Y-84975000D01*
G75*
G02*
X143865000Y-84875000I100000J0D01*
G01*
X145140000Y-84875000D01*
G75*
G02*
X145240000Y-84975000I0J-100000D01*
G01*
G37*
G36*
G01*
X145240000Y-84325000D02*
X145240000Y-84525000D01*
G75*
G02*
X145140000Y-84625000I-100000J0D01*
G01*
X143865000Y-84625000D01*
G75*
G02*
X143765000Y-84525000I0J100000D01*
G01*
X143765000Y-84325000D01*
G75*
G02*
X143865000Y-84225000I100000J0D01*
G01*
X145140000Y-84225000D01*
G75*
G02*
X145240000Y-84325000I0J-100000D01*
G01*
G37*
G36*
G01*
X139515000Y-84325000D02*
X139515000Y-84525000D01*
G75*
G02*
X139415000Y-84625000I-100000J0D01*
G01*
X138140000Y-84625000D01*
G75*
G02*
X138040000Y-84525000I0J100000D01*
G01*
X138040000Y-84325000D01*
G75*
G02*
X138140000Y-84225000I100000J0D01*
G01*
X139415000Y-84225000D01*
G75*
G02*
X139515000Y-84325000I0J-100000D01*
G01*
G37*
G36*
G01*
X139515000Y-84975000D02*
X139515000Y-85175000D01*
G75*
G02*
X139415000Y-85275000I-100000J0D01*
G01*
X138140000Y-85275000D01*
G75*
G02*
X138040000Y-85175000I0J100000D01*
G01*
X138040000Y-84975000D01*
G75*
G02*
X138140000Y-84875000I100000J0D01*
G01*
X139415000Y-84875000D01*
G75*
G02*
X139515000Y-84975000I0J-100000D01*
G01*
G37*
G36*
G01*
X139515000Y-85625000D02*
X139515000Y-85825000D01*
G75*
G02*
X139415000Y-85925000I-100000J0D01*
G01*
X138140000Y-85925000D01*
G75*
G02*
X138040000Y-85825000I0J100000D01*
G01*
X138040000Y-85625000D01*
G75*
G02*
X138140000Y-85525000I100000J0D01*
G01*
X139415000Y-85525000D01*
G75*
G02*
X139515000Y-85625000I0J-100000D01*
G01*
G37*
G36*
G01*
X139515000Y-86275000D02*
X139515000Y-86475000D01*
G75*
G02*
X139415000Y-86575000I-100000J0D01*
G01*
X138140000Y-86575000D01*
G75*
G02*
X138040000Y-86475000I0J100000D01*
G01*
X138040000Y-86275000D01*
G75*
G02*
X138140000Y-86175000I100000J0D01*
G01*
X139415000Y-86175000D01*
G75*
G02*
X139515000Y-86275000I0J-100000D01*
G01*
G37*
G36*
G01*
X139515000Y-86925000D02*
X139515000Y-87125000D01*
G75*
G02*
X139415000Y-87225000I-100000J0D01*
G01*
X138140000Y-87225000D01*
G75*
G02*
X138040000Y-87125000I0J100000D01*
G01*
X138040000Y-86925000D01*
G75*
G02*
X138140000Y-86825000I100000J0D01*
G01*
X139415000Y-86825000D01*
G75*
G02*
X139515000Y-86925000I0J-100000D01*
G01*
G37*
G36*
G01*
X139515000Y-87575000D02*
X139515000Y-87775000D01*
G75*
G02*
X139415000Y-87875000I-100000J0D01*
G01*
X138140000Y-87875000D01*
G75*
G02*
X138040000Y-87775000I0J100000D01*
G01*
X138040000Y-87575000D01*
G75*
G02*
X138140000Y-87475000I100000J0D01*
G01*
X139415000Y-87475000D01*
G75*
G02*
X139515000Y-87575000I0J-100000D01*
G01*
G37*
G36*
G01*
X139515000Y-88225000D02*
X139515000Y-88425000D01*
G75*
G02*
X139415000Y-88525000I-100000J0D01*
G01*
X138140000Y-88525000D01*
G75*
G02*
X138040000Y-88425000I0J100000D01*
G01*
X138040000Y-88225000D01*
G75*
G02*
X138140000Y-88125000I100000J0D01*
G01*
X139415000Y-88125000D01*
G75*
G02*
X139515000Y-88225000I0J-100000D01*
G01*
G37*
G36*
G01*
X139515000Y-88875000D02*
X139515000Y-89075000D01*
G75*
G02*
X139415000Y-89175000I-100000J0D01*
G01*
X138140000Y-89175000D01*
G75*
G02*
X138040000Y-89075000I0J100000D01*
G01*
X138040000Y-88875000D01*
G75*
G02*
X138140000Y-88775000I100000J0D01*
G01*
X139415000Y-88775000D01*
G75*
G02*
X139515000Y-88875000I0J-100000D01*
G01*
G37*
G36*
G01*
X139515000Y-89525000D02*
X139515000Y-89725000D01*
G75*
G02*
X139415000Y-89825000I-100000J0D01*
G01*
X138140000Y-89825000D01*
G75*
G02*
X138040000Y-89725000I0J100000D01*
G01*
X138040000Y-89525000D01*
G75*
G02*
X138140000Y-89425000I100000J0D01*
G01*
X139415000Y-89425000D01*
G75*
G02*
X139515000Y-89525000I0J-100000D01*
G01*
G37*
G36*
G01*
X139515000Y-90175000D02*
X139515000Y-90375000D01*
G75*
G02*
X139415000Y-90475000I-100000J0D01*
G01*
X138140000Y-90475000D01*
G75*
G02*
X138040000Y-90375000I0J100000D01*
G01*
X138040000Y-90175000D01*
G75*
G02*
X138140000Y-90075000I100000J0D01*
G01*
X139415000Y-90075000D01*
G75*
G02*
X139515000Y-90175000I0J-100000D01*
G01*
G37*
%TD*%
%TO.C,C9*%
G36*
G01*
X154112500Y-93855000D02*
X154112500Y-94355000D01*
G75*
G02*
X153887500Y-94580000I-225000J0D01*
G01*
X153437500Y-94580000D01*
G75*
G02*
X153212500Y-94355000I0J225000D01*
G01*
X153212500Y-93855000D01*
G75*
G02*
X153437500Y-93630000I225000J0D01*
G01*
X153887500Y-93630000D01*
G75*
G02*
X154112500Y-93855000I0J-225000D01*
G01*
G37*
G36*
G01*
X152562500Y-93855000D02*
X152562500Y-94355000D01*
G75*
G02*
X152337500Y-94580000I-225000J0D01*
G01*
X151887500Y-94580000D01*
G75*
G02*
X151662500Y-94355000I0J225000D01*
G01*
X151662500Y-93855000D01*
G75*
G02*
X151887500Y-93630000I225000J0D01*
G01*
X152337500Y-93630000D01*
G75*
G02*
X152562500Y-93855000I0J-225000D01*
G01*
G37*
%TD*%
%TO.C,C10*%
G36*
G01*
X152562500Y-105645000D02*
X152562500Y-106145000D01*
G75*
G02*
X152337500Y-106370000I-225000J0D01*
G01*
X151887500Y-106370000D01*
G75*
G02*
X151662500Y-106145000I0J225000D01*
G01*
X151662500Y-105645000D01*
G75*
G02*
X151887500Y-105420000I225000J0D01*
G01*
X152337500Y-105420000D01*
G75*
G02*
X152562500Y-105645000I0J-225000D01*
G01*
G37*
G36*
G01*
X154112500Y-105645000D02*
X154112500Y-106145000D01*
G75*
G02*
X153887500Y-106370000I-225000J0D01*
G01*
X153437500Y-106370000D01*
G75*
G02*
X153212500Y-106145000I0J225000D01*
G01*
X153212500Y-105645000D01*
G75*
G02*
X153437500Y-105420000I225000J0D01*
G01*
X153887500Y-105420000D01*
G75*
G02*
X154112500Y-105645000I0J-225000D01*
G01*
G37*
%TD*%
%TO.C,C11*%
G36*
G01*
X164050000Y-99525000D02*
X164050000Y-100475000D01*
G75*
G02*
X163800000Y-100725000I-250000J0D01*
G01*
X163300000Y-100725000D01*
G75*
G02*
X163050000Y-100475000I0J250000D01*
G01*
X163050000Y-99525000D01*
G75*
G02*
X163300000Y-99275000I250000J0D01*
G01*
X163800000Y-99275000D01*
G75*
G02*
X164050000Y-99525000I0J-250000D01*
G01*
G37*
G36*
G01*
X162150000Y-99525000D02*
X162150000Y-100475000D01*
G75*
G02*
X161900000Y-100725000I-250000J0D01*
G01*
X161400000Y-100725000D01*
G75*
G02*
X161150000Y-100475000I0J250000D01*
G01*
X161150000Y-99525000D01*
G75*
G02*
X161400000Y-99275000I250000J0D01*
G01*
X161900000Y-99275000D01*
G75*
G02*
X162150000Y-99525000I0J-250000D01*
G01*
G37*
%TD*%
%TO.C,C12*%
G36*
G01*
X158350000Y-99525000D02*
X158350000Y-100475000D01*
G75*
G02*
X158100000Y-100725000I-250000J0D01*
G01*
X157600000Y-100725000D01*
G75*
G02*
X157350000Y-100475000I0J250000D01*
G01*
X157350000Y-99525000D01*
G75*
G02*
X157600000Y-99275000I250000J0D01*
G01*
X158100000Y-99275000D01*
G75*
G02*
X158350000Y-99525000I0J-250000D01*
G01*
G37*
G36*
G01*
X160250000Y-99525000D02*
X160250000Y-100475000D01*
G75*
G02*
X160000000Y-100725000I-250000J0D01*
G01*
X159500000Y-100725000D01*
G75*
G02*
X159250000Y-100475000I0J250000D01*
G01*
X159250000Y-99525000D01*
G75*
G02*
X159500000Y-99275000I250000J0D01*
G01*
X160000000Y-99275000D01*
G75*
G02*
X160250000Y-99525000I0J-250000D01*
G01*
G37*
%TD*%
D21*
%TO.C,Q2*%
X138620000Y-97550000D03*
X139570000Y-97550000D03*
X137670000Y-97550000D03*
X137670000Y-94950000D03*
X138620000Y-94950000D03*
X139570000Y-94950000D03*
%TD*%
D19*
%TO.C,U5*%
X138900000Y-103370000D03*
X138900000Y-104320000D03*
X138900000Y-105270000D03*
X141100000Y-105270000D03*
X141100000Y-103370000D03*
X141100000Y-104320000D03*
%TD*%
D22*
%TO.C,Q1*%
X126300000Y-97260000D03*
X128200000Y-97260000D03*
X127250000Y-95260000D03*
%TD*%
%TO.C,C17*%
G36*
G01*
X137430000Y-101720000D02*
X137770000Y-101720000D01*
G75*
G02*
X137910000Y-101860000I0J-140000D01*
G01*
X137910000Y-102140000D01*
G75*
G02*
X137770000Y-102280000I-140000J0D01*
G01*
X137430000Y-102280000D01*
G75*
G02*
X137290000Y-102140000I0J140000D01*
G01*
X137290000Y-101860000D01*
G75*
G02*
X137430000Y-101720000I140000J0D01*
G01*
G37*
G36*
G01*
X137430000Y-100760000D02*
X137770000Y-100760000D01*
G75*
G02*
X137910000Y-100900000I0J-140000D01*
G01*
X137910000Y-101180000D01*
G75*
G02*
X137770000Y-101320000I-140000J0D01*
G01*
X137430000Y-101320000D01*
G75*
G02*
X137290000Y-101180000I0J140000D01*
G01*
X137290000Y-100900000D01*
G75*
G02*
X137430000Y-100760000I140000J0D01*
G01*
G37*
%TD*%
%TO.C,C18*%
G36*
G01*
X141180000Y-101850000D02*
X141180000Y-102190000D01*
G75*
G02*
X141040000Y-102330000I-140000J0D01*
G01*
X140760000Y-102330000D01*
G75*
G02*
X140620000Y-102190000I0J140000D01*
G01*
X140620000Y-101850000D01*
G75*
G02*
X140760000Y-101710000I140000J0D01*
G01*
X141040000Y-101710000D01*
G75*
G02*
X141180000Y-101850000I0J-140000D01*
G01*
G37*
G36*
G01*
X140220000Y-101850000D02*
X140220000Y-102190000D01*
G75*
G02*
X140080000Y-102330000I-140000J0D01*
G01*
X139800000Y-102330000D01*
G75*
G02*
X139660000Y-102190000I0J140000D01*
G01*
X139660000Y-101850000D01*
G75*
G02*
X139800000Y-101710000I140000J0D01*
G01*
X140080000Y-101710000D01*
G75*
G02*
X140220000Y-101850000I0J-140000D01*
G01*
G37*
%TD*%
%TO.C,R1*%
G36*
G01*
X133290000Y-84865000D02*
X133290000Y-85235000D01*
G75*
G02*
X133155000Y-85370000I-135000J0D01*
G01*
X132885000Y-85370000D01*
G75*
G02*
X132750000Y-85235000I0J135000D01*
G01*
X132750000Y-84865000D01*
G75*
G02*
X132885000Y-84730000I135000J0D01*
G01*
X133155000Y-84730000D01*
G75*
G02*
X133290000Y-84865000I0J-135000D01*
G01*
G37*
G36*
G01*
X134310000Y-84865000D02*
X134310000Y-85235000D01*
G75*
G02*
X134175000Y-85370000I-135000J0D01*
G01*
X133905000Y-85370000D01*
G75*
G02*
X133770000Y-85235000I0J135000D01*
G01*
X133770000Y-84865000D01*
G75*
G02*
X133905000Y-84730000I135000J0D01*
G01*
X134175000Y-84730000D01*
G75*
G02*
X134310000Y-84865000I0J-135000D01*
G01*
G37*
%TD*%
%TO.C,R3*%
G36*
G01*
X137415000Y-104560000D02*
X137785000Y-104560000D01*
G75*
G02*
X137920000Y-104695000I0J-135000D01*
G01*
X137920000Y-104965000D01*
G75*
G02*
X137785000Y-105100000I-135000J0D01*
G01*
X137415000Y-105100000D01*
G75*
G02*
X137280000Y-104965000I0J135000D01*
G01*
X137280000Y-104695000D01*
G75*
G02*
X137415000Y-104560000I135000J0D01*
G01*
G37*
G36*
G01*
X137415000Y-103540000D02*
X137785000Y-103540000D01*
G75*
G02*
X137920000Y-103675000I0J-135000D01*
G01*
X137920000Y-103945000D01*
G75*
G02*
X137785000Y-104080000I-135000J0D01*
G01*
X137415000Y-104080000D01*
G75*
G02*
X137280000Y-103945000I0J135000D01*
G01*
X137280000Y-103675000D01*
G75*
G02*
X137415000Y-103540000I135000J0D01*
G01*
G37*
%TD*%
%TO.C,R4*%
G36*
G01*
X138785000Y-102300000D02*
X138415000Y-102300000D01*
G75*
G02*
X138280000Y-102165000I0J135000D01*
G01*
X138280000Y-101895000D01*
G75*
G02*
X138415000Y-101760000I135000J0D01*
G01*
X138785000Y-101760000D01*
G75*
G02*
X138920000Y-101895000I0J-135000D01*
G01*
X138920000Y-102165000D01*
G75*
G02*
X138785000Y-102300000I-135000J0D01*
G01*
G37*
G36*
G01*
X138785000Y-101280000D02*
X138415000Y-101280000D01*
G75*
G02*
X138280000Y-101145000I0J135000D01*
G01*
X138280000Y-100875000D01*
G75*
G02*
X138415000Y-100740000I135000J0D01*
G01*
X138785000Y-100740000D01*
G75*
G02*
X138920000Y-100875000I0J-135000D01*
G01*
X138920000Y-101145000D01*
G75*
G02*
X138785000Y-101280000I-135000J0D01*
G01*
G37*
%TD*%
%TO.C,R5*%
G36*
G01*
X140170000Y-100835000D02*
X140170000Y-101205000D01*
G75*
G02*
X140035000Y-101340000I-135000J0D01*
G01*
X139765000Y-101340000D01*
G75*
G02*
X139630000Y-101205000I0J135000D01*
G01*
X139630000Y-100835000D01*
G75*
G02*
X139765000Y-100700000I135000J0D01*
G01*
X140035000Y-100700000D01*
G75*
G02*
X140170000Y-100835000I0J-135000D01*
G01*
G37*
G36*
G01*
X141190000Y-100835000D02*
X141190000Y-101205000D01*
G75*
G02*
X141055000Y-101340000I-135000J0D01*
G01*
X140785000Y-101340000D01*
G75*
G02*
X140650000Y-101205000I0J135000D01*
G01*
X140650000Y-100835000D01*
G75*
G02*
X140785000Y-100700000I135000J0D01*
G01*
X141055000Y-100700000D01*
G75*
G02*
X141190000Y-100835000I0J-135000D01*
G01*
G37*
%TD*%
%TO.C,R6*%
G36*
G01*
X139870000Y-106455000D02*
X139870000Y-106825000D01*
G75*
G02*
X139735000Y-106960000I-135000J0D01*
G01*
X139465000Y-106960000D01*
G75*
G02*
X139330000Y-106825000I0J135000D01*
G01*
X139330000Y-106455000D01*
G75*
G02*
X139465000Y-106320000I135000J0D01*
G01*
X139735000Y-106320000D01*
G75*
G02*
X139870000Y-106455000I0J-135000D01*
G01*
G37*
G36*
G01*
X138850000Y-106455000D02*
X138850000Y-106825000D01*
G75*
G02*
X138715000Y-106960000I-135000J0D01*
G01*
X138445000Y-106960000D01*
G75*
G02*
X138310000Y-106825000I0J135000D01*
G01*
X138310000Y-106455000D01*
G75*
G02*
X138445000Y-106320000I135000J0D01*
G01*
X138715000Y-106320000D01*
G75*
G02*
X138850000Y-106455000I0J-135000D01*
G01*
G37*
%TD*%
%TO.C,R7*%
G36*
G01*
X137785000Y-105990000D02*
X137415000Y-105990000D01*
G75*
G02*
X137280000Y-105855000I0J135000D01*
G01*
X137280000Y-105585000D01*
G75*
G02*
X137415000Y-105450000I135000J0D01*
G01*
X137785000Y-105450000D01*
G75*
G02*
X137920000Y-105585000I0J-135000D01*
G01*
X137920000Y-105855000D01*
G75*
G02*
X137785000Y-105990000I-135000J0D01*
G01*
G37*
G36*
G01*
X137785000Y-107010000D02*
X137415000Y-107010000D01*
G75*
G02*
X137280000Y-106875000I0J135000D01*
G01*
X137280000Y-106605000D01*
G75*
G02*
X137415000Y-106470000I135000J0D01*
G01*
X137785000Y-106470000D01*
G75*
G02*
X137920000Y-106605000I0J-135000D01*
G01*
X137920000Y-106875000D01*
G75*
G02*
X137785000Y-107010000I-135000J0D01*
G01*
G37*
%TD*%
%TO.C,R8*%
G36*
G01*
X134315000Y-96420000D02*
X134685000Y-96420000D01*
G75*
G02*
X134820000Y-96555000I0J-135000D01*
G01*
X134820000Y-96825000D01*
G75*
G02*
X134685000Y-96960000I-135000J0D01*
G01*
X134315000Y-96960000D01*
G75*
G02*
X134180000Y-96825000I0J135000D01*
G01*
X134180000Y-96555000D01*
G75*
G02*
X134315000Y-96420000I135000J0D01*
G01*
G37*
G36*
G01*
X134315000Y-97440000D02*
X134685000Y-97440000D01*
G75*
G02*
X134820000Y-97575000I0J-135000D01*
G01*
X134820000Y-97845000D01*
G75*
G02*
X134685000Y-97980000I-135000J0D01*
G01*
X134315000Y-97980000D01*
G75*
G02*
X134180000Y-97845000I0J135000D01*
G01*
X134180000Y-97575000D01*
G75*
G02*
X134315000Y-97440000I135000J0D01*
G01*
G37*
%TD*%
%TO.C,R11*%
G36*
G01*
X133335000Y-97980000D02*
X132965000Y-97980000D01*
G75*
G02*
X132830000Y-97845000I0J135000D01*
G01*
X132830000Y-97575000D01*
G75*
G02*
X132965000Y-97440000I135000J0D01*
G01*
X133335000Y-97440000D01*
G75*
G02*
X133470000Y-97575000I0J-135000D01*
G01*
X133470000Y-97845000D01*
G75*
G02*
X133335000Y-97980000I-135000J0D01*
G01*
G37*
G36*
G01*
X133335000Y-96960000D02*
X132965000Y-96960000D01*
G75*
G02*
X132830000Y-96825000I0J135000D01*
G01*
X132830000Y-96555000D01*
G75*
G02*
X132965000Y-96420000I135000J0D01*
G01*
X133335000Y-96420000D01*
G75*
G02*
X133470000Y-96555000I0J-135000D01*
G01*
X133470000Y-96825000D01*
G75*
G02*
X133335000Y-96960000I-135000J0D01*
G01*
G37*
%TD*%
%TO.C,R12*%
G36*
G01*
X132965000Y-95540000D02*
X133335000Y-95540000D01*
G75*
G02*
X133470000Y-95675000I0J-135000D01*
G01*
X133470000Y-95945000D01*
G75*
G02*
X133335000Y-96080000I-135000J0D01*
G01*
X132965000Y-96080000D01*
G75*
G02*
X132830000Y-95945000I0J135000D01*
G01*
X132830000Y-95675000D01*
G75*
G02*
X132965000Y-95540000I135000J0D01*
G01*
G37*
G36*
G01*
X132965000Y-94520000D02*
X133335000Y-94520000D01*
G75*
G02*
X133470000Y-94655000I0J-135000D01*
G01*
X133470000Y-94925000D01*
G75*
G02*
X133335000Y-95060000I-135000J0D01*
G01*
X132965000Y-95060000D01*
G75*
G02*
X132830000Y-94925000I0J135000D01*
G01*
X132830000Y-94655000D01*
G75*
G02*
X132965000Y-94520000I135000J0D01*
G01*
G37*
%TD*%
%TO.C,R13*%
G36*
G01*
X136585000Y-96970000D02*
X136215000Y-96970000D01*
G75*
G02*
X136080000Y-96835000I0J135000D01*
G01*
X136080000Y-96565000D01*
G75*
G02*
X136215000Y-96430000I135000J0D01*
G01*
X136585000Y-96430000D01*
G75*
G02*
X136720000Y-96565000I0J-135000D01*
G01*
X136720000Y-96835000D01*
G75*
G02*
X136585000Y-96970000I-135000J0D01*
G01*
G37*
G36*
G01*
X136585000Y-97990000D02*
X136215000Y-97990000D01*
G75*
G02*
X136080000Y-97855000I0J135000D01*
G01*
X136080000Y-97585000D01*
G75*
G02*
X136215000Y-97450000I135000J0D01*
G01*
X136585000Y-97450000D01*
G75*
G02*
X136720000Y-97585000I0J-135000D01*
G01*
X136720000Y-97855000D01*
G75*
G02*
X136585000Y-97990000I-135000J0D01*
G01*
G37*
%TD*%
%TO.C,R14*%
G36*
G01*
X136215000Y-94530000D02*
X136585000Y-94530000D01*
G75*
G02*
X136720000Y-94665000I0J-135000D01*
G01*
X136720000Y-94935000D01*
G75*
G02*
X136585000Y-95070000I-135000J0D01*
G01*
X136215000Y-95070000D01*
G75*
G02*
X136080000Y-94935000I0J135000D01*
G01*
X136080000Y-94665000D01*
G75*
G02*
X136215000Y-94530000I135000J0D01*
G01*
G37*
G36*
G01*
X136215000Y-95550000D02*
X136585000Y-95550000D01*
G75*
G02*
X136720000Y-95685000I0J-135000D01*
G01*
X136720000Y-95955000D01*
G75*
G02*
X136585000Y-96090000I-135000J0D01*
G01*
X136215000Y-96090000D01*
G75*
G02*
X136080000Y-95955000I0J135000D01*
G01*
X136080000Y-95685000D01*
G75*
G02*
X136215000Y-95550000I135000J0D01*
G01*
G37*
%TD*%
%TO.C,C20*%
G36*
G01*
X145755000Y-96435000D02*
X145755000Y-95935000D01*
G75*
G02*
X145980000Y-95710000I225000J0D01*
G01*
X146430000Y-95710000D01*
G75*
G02*
X146655000Y-95935000I0J-225000D01*
G01*
X146655000Y-96435000D01*
G75*
G02*
X146430000Y-96660000I-225000J0D01*
G01*
X145980000Y-96660000D01*
G75*
G02*
X145755000Y-96435000I0J225000D01*
G01*
G37*
G36*
G01*
X144205000Y-96435000D02*
X144205000Y-95935000D01*
G75*
G02*
X144430000Y-95710000I225000J0D01*
G01*
X144880000Y-95710000D01*
G75*
G02*
X145105000Y-95935000I0J-225000D01*
G01*
X145105000Y-96435000D01*
G75*
G02*
X144880000Y-96660000I-225000J0D01*
G01*
X144430000Y-96660000D01*
G75*
G02*
X144205000Y-96435000I0J225000D01*
G01*
G37*
%TD*%
%TO.C,C21*%
G36*
G01*
X144205000Y-98210000D02*
X144205000Y-97710000D01*
G75*
G02*
X144430000Y-97485000I225000J0D01*
G01*
X144880000Y-97485000D01*
G75*
G02*
X145105000Y-97710000I0J-225000D01*
G01*
X145105000Y-98210000D01*
G75*
G02*
X144880000Y-98435000I-225000J0D01*
G01*
X144430000Y-98435000D01*
G75*
G02*
X144205000Y-98210000I0J225000D01*
G01*
G37*
G36*
G01*
X145755000Y-98210000D02*
X145755000Y-97710000D01*
G75*
G02*
X145980000Y-97485000I225000J0D01*
G01*
X146430000Y-97485000D01*
G75*
G02*
X146655000Y-97710000I0J-225000D01*
G01*
X146655000Y-98210000D01*
G75*
G02*
X146430000Y-98435000I-225000J0D01*
G01*
X145980000Y-98435000D01*
G75*
G02*
X145755000Y-98210000I0J225000D01*
G01*
G37*
%TD*%
%TO.C,C22*%
G36*
G01*
X149655000Y-105630000D02*
X149655000Y-106130000D01*
G75*
G02*
X149430000Y-106355000I-225000J0D01*
G01*
X148980000Y-106355000D01*
G75*
G02*
X148755000Y-106130000I0J225000D01*
G01*
X148755000Y-105630000D01*
G75*
G02*
X148980000Y-105405000I225000J0D01*
G01*
X149430000Y-105405000D01*
G75*
G02*
X149655000Y-105630000I0J-225000D01*
G01*
G37*
G36*
G01*
X148105000Y-105630000D02*
X148105000Y-106130000D01*
G75*
G02*
X147880000Y-106355000I-225000J0D01*
G01*
X147430000Y-106355000D01*
G75*
G02*
X147205000Y-106130000I0J225000D01*
G01*
X147205000Y-105630000D01*
G75*
G02*
X147430000Y-105405000I225000J0D01*
G01*
X147880000Y-105405000D01*
G75*
G02*
X148105000Y-105630000I0J-225000D01*
G01*
G37*
%TD*%
%TO.C,R17*%
G36*
G01*
X137650000Y-116060000D02*
X137650000Y-115690000D01*
G75*
G02*
X137785000Y-115555000I135000J0D01*
G01*
X138055000Y-115555000D01*
G75*
G02*
X138190000Y-115690000I0J-135000D01*
G01*
X138190000Y-116060000D01*
G75*
G02*
X138055000Y-116195000I-135000J0D01*
G01*
X137785000Y-116195000D01*
G75*
G02*
X137650000Y-116060000I0J135000D01*
G01*
G37*
G36*
G01*
X136630000Y-116060000D02*
X136630000Y-115690000D01*
G75*
G02*
X136765000Y-115555000I135000J0D01*
G01*
X137035000Y-115555000D01*
G75*
G02*
X137170000Y-115690000I0J-135000D01*
G01*
X137170000Y-116060000D01*
G75*
G02*
X137035000Y-116195000I-135000J0D01*
G01*
X136765000Y-116195000D01*
G75*
G02*
X136630000Y-116060000I0J135000D01*
G01*
G37*
%TD*%
%TO.C,R18*%
G36*
G01*
X136610000Y-113135000D02*
X136610000Y-112765000D01*
G75*
G02*
X136745000Y-112630000I135000J0D01*
G01*
X137015000Y-112630000D01*
G75*
G02*
X137150000Y-112765000I0J-135000D01*
G01*
X137150000Y-113135000D01*
G75*
G02*
X137015000Y-113270000I-135000J0D01*
G01*
X136745000Y-113270000D01*
G75*
G02*
X136610000Y-113135000I0J135000D01*
G01*
G37*
G36*
G01*
X137630000Y-113135000D02*
X137630000Y-112765000D01*
G75*
G02*
X137765000Y-112630000I135000J0D01*
G01*
X138035000Y-112630000D01*
G75*
G02*
X138170000Y-112765000I0J-135000D01*
G01*
X138170000Y-113135000D01*
G75*
G02*
X138035000Y-113270000I-135000J0D01*
G01*
X137765000Y-113270000D01*
G75*
G02*
X137630000Y-113135000I0J135000D01*
G01*
G37*
%TD*%
%TO.C,C19*%
G36*
G01*
X138150000Y-111805000D02*
X138150000Y-112145000D01*
G75*
G02*
X138010000Y-112285000I-140000J0D01*
G01*
X137730000Y-112285000D01*
G75*
G02*
X137590000Y-112145000I0J140000D01*
G01*
X137590000Y-111805000D01*
G75*
G02*
X137730000Y-111665000I140000J0D01*
G01*
X138010000Y-111665000D01*
G75*
G02*
X138150000Y-111805000I0J-140000D01*
G01*
G37*
G36*
G01*
X137190000Y-111805000D02*
X137190000Y-112145000D01*
G75*
G02*
X137050000Y-112285000I-140000J0D01*
G01*
X136770000Y-112285000D01*
G75*
G02*
X136630000Y-112145000I0J140000D01*
G01*
X136630000Y-111805000D01*
G75*
G02*
X136770000Y-111665000I140000J0D01*
G01*
X137050000Y-111665000D01*
G75*
G02*
X137190000Y-111805000I0J-140000D01*
G01*
G37*
%TD*%
%TO.C,C23*%
G36*
G01*
X137190000Y-113755000D02*
X137190000Y-114095000D01*
G75*
G02*
X137050000Y-114235000I-140000J0D01*
G01*
X136770000Y-114235000D01*
G75*
G02*
X136630000Y-114095000I0J140000D01*
G01*
X136630000Y-113755000D01*
G75*
G02*
X136770000Y-113615000I140000J0D01*
G01*
X137050000Y-113615000D01*
G75*
G02*
X137190000Y-113755000I0J-140000D01*
G01*
G37*
G36*
G01*
X138150000Y-113755000D02*
X138150000Y-114095000D01*
G75*
G02*
X138010000Y-114235000I-140000J0D01*
G01*
X137730000Y-114235000D01*
G75*
G02*
X137590000Y-114095000I0J140000D01*
G01*
X137590000Y-113755000D01*
G75*
G02*
X137730000Y-113615000I140000J0D01*
G01*
X138010000Y-113615000D01*
G75*
G02*
X138150000Y-113755000I0J-140000D01*
G01*
G37*
%TD*%
%TO.C,C25*%
G36*
G01*
X153940000Y-92745000D02*
X153940000Y-91795000D01*
G75*
G02*
X154190000Y-91545000I250000J0D01*
G01*
X154690000Y-91545000D01*
G75*
G02*
X154940000Y-91795000I0J-250000D01*
G01*
X154940000Y-92745000D01*
G75*
G02*
X154690000Y-92995000I-250000J0D01*
G01*
X154190000Y-92995000D01*
G75*
G02*
X153940000Y-92745000I0J250000D01*
G01*
G37*
G36*
G01*
X152040000Y-92745000D02*
X152040000Y-91795000D01*
G75*
G02*
X152290000Y-91545000I250000J0D01*
G01*
X152790000Y-91545000D01*
G75*
G02*
X153040000Y-91795000I0J-250000D01*
G01*
X153040000Y-92745000D01*
G75*
G02*
X152790000Y-92995000I-250000J0D01*
G01*
X152290000Y-92995000D01*
G75*
G02*
X152040000Y-92745000I0J250000D01*
G01*
G37*
%TD*%
D23*
%TO.C,D1*%
X150220000Y-84550000D03*
X150220000Y-82450000D03*
%TD*%
%TO.C,R20*%
G36*
G01*
X156095000Y-90160000D02*
X155725000Y-90160000D01*
G75*
G02*
X155590000Y-90025000I0J135000D01*
G01*
X155590000Y-89755000D01*
G75*
G02*
X155725000Y-89620000I135000J0D01*
G01*
X156095000Y-89620000D01*
G75*
G02*
X156230000Y-89755000I0J-135000D01*
G01*
X156230000Y-90025000D01*
G75*
G02*
X156095000Y-90160000I-135000J0D01*
G01*
G37*
G36*
G01*
X156095000Y-91180000D02*
X155725000Y-91180000D01*
G75*
G02*
X155590000Y-91045000I0J135000D01*
G01*
X155590000Y-90775000D01*
G75*
G02*
X155725000Y-90640000I135000J0D01*
G01*
X156095000Y-90640000D01*
G75*
G02*
X156230000Y-90775000I0J-135000D01*
G01*
X156230000Y-91045000D01*
G75*
G02*
X156095000Y-91180000I-135000J0D01*
G01*
G37*
%TD*%
%TO.C,R21*%
G36*
G01*
X156095000Y-89280000D02*
X155725000Y-89280000D01*
G75*
G02*
X155590000Y-89145000I0J135000D01*
G01*
X155590000Y-88875000D01*
G75*
G02*
X155725000Y-88740000I135000J0D01*
G01*
X156095000Y-88740000D01*
G75*
G02*
X156230000Y-88875000I0J-135000D01*
G01*
X156230000Y-89145000D01*
G75*
G02*
X156095000Y-89280000I-135000J0D01*
G01*
G37*
G36*
G01*
X156095000Y-88260000D02*
X155725000Y-88260000D01*
G75*
G02*
X155590000Y-88125000I0J135000D01*
G01*
X155590000Y-87855000D01*
G75*
G02*
X155725000Y-87720000I135000J0D01*
G01*
X156095000Y-87720000D01*
G75*
G02*
X156230000Y-87855000I0J-135000D01*
G01*
X156230000Y-88125000D01*
G75*
G02*
X156095000Y-88260000I-135000J0D01*
G01*
G37*
%TD*%
%TO.C,C13*%
G36*
G01*
X164975000Y-104950000D02*
X165925000Y-104950000D01*
G75*
G02*
X166175000Y-105200000I0J-250000D01*
G01*
X166175000Y-105700000D01*
G75*
G02*
X165925000Y-105950000I-250000J0D01*
G01*
X164975000Y-105950000D01*
G75*
G02*
X164725000Y-105700000I0J250000D01*
G01*
X164725000Y-105200000D01*
G75*
G02*
X164975000Y-104950000I250000J0D01*
G01*
G37*
G36*
G01*
X164975000Y-103050000D02*
X165925000Y-103050000D01*
G75*
G02*
X166175000Y-103300000I0J-250000D01*
G01*
X166175000Y-103800000D01*
G75*
G02*
X165925000Y-104050000I-250000J0D01*
G01*
X164975000Y-104050000D01*
G75*
G02*
X164725000Y-103800000I0J250000D01*
G01*
X164725000Y-103300000D01*
G75*
G02*
X164975000Y-103050000I250000J0D01*
G01*
G37*
%TD*%
%TO.C,C29*%
G36*
G01*
X165975000Y-96950000D02*
X165025000Y-96950000D01*
G75*
G02*
X164775000Y-96700000I0J250000D01*
G01*
X164775000Y-96200000D01*
G75*
G02*
X165025000Y-95950000I250000J0D01*
G01*
X165975000Y-95950000D01*
G75*
G02*
X166225000Y-96200000I0J-250000D01*
G01*
X166225000Y-96700000D01*
G75*
G02*
X165975000Y-96950000I-250000J0D01*
G01*
G37*
G36*
G01*
X165975000Y-95050000D02*
X165025000Y-95050000D01*
G75*
G02*
X164775000Y-94800000I0J250000D01*
G01*
X164775000Y-94300000D01*
G75*
G02*
X165025000Y-94050000I250000J0D01*
G01*
X165975000Y-94050000D01*
G75*
G02*
X166225000Y-94300000I0J-250000D01*
G01*
X166225000Y-94800000D01*
G75*
G02*
X165975000Y-95050000I-250000J0D01*
G01*
G37*
%TD*%
%TO.C,C30*%
G36*
G01*
X164975000Y-98550000D02*
X165925000Y-98550000D01*
G75*
G02*
X166175000Y-98800000I0J-250000D01*
G01*
X166175000Y-99300000D01*
G75*
G02*
X165925000Y-99550000I-250000J0D01*
G01*
X164975000Y-99550000D01*
G75*
G02*
X164725000Y-99300000I0J250000D01*
G01*
X164725000Y-98800000D01*
G75*
G02*
X164975000Y-98550000I250000J0D01*
G01*
G37*
G36*
G01*
X164975000Y-100450000D02*
X165925000Y-100450000D01*
G75*
G02*
X166175000Y-100700000I0J-250000D01*
G01*
X166175000Y-101200000D01*
G75*
G02*
X165925000Y-101450000I-250000J0D01*
G01*
X164975000Y-101450000D01*
G75*
G02*
X164725000Y-101200000I0J250000D01*
G01*
X164725000Y-100700000D01*
G75*
G02*
X164975000Y-100450000I250000J0D01*
G01*
G37*
%TD*%
%TO.C,C15*%
G36*
G01*
X146710000Y-114050000D02*
X146370000Y-114050000D01*
G75*
G02*
X146230000Y-113910000I0J140000D01*
G01*
X146230000Y-113630000D01*
G75*
G02*
X146370000Y-113490000I140000J0D01*
G01*
X146710000Y-113490000D01*
G75*
G02*
X146850000Y-113630000I0J-140000D01*
G01*
X146850000Y-113910000D01*
G75*
G02*
X146710000Y-114050000I-140000J0D01*
G01*
G37*
G36*
G01*
X146710000Y-115010000D02*
X146370000Y-115010000D01*
G75*
G02*
X146230000Y-114870000I0J140000D01*
G01*
X146230000Y-114590000D01*
G75*
G02*
X146370000Y-114450000I140000J0D01*
G01*
X146710000Y-114450000D01*
G75*
G02*
X146850000Y-114590000I0J-140000D01*
G01*
X146850000Y-114870000D01*
G75*
G02*
X146710000Y-115010000I-140000J0D01*
G01*
G37*
%TD*%
%TO.C,C31*%
G36*
G01*
X137460000Y-87955000D02*
X137120000Y-87955000D01*
G75*
G02*
X136980000Y-87815000I0J140000D01*
G01*
X136980000Y-87535000D01*
G75*
G02*
X137120000Y-87395000I140000J0D01*
G01*
X137460000Y-87395000D01*
G75*
G02*
X137600000Y-87535000I0J-140000D01*
G01*
X137600000Y-87815000D01*
G75*
G02*
X137460000Y-87955000I-140000J0D01*
G01*
G37*
G36*
G01*
X137460000Y-86995000D02*
X137120000Y-86995000D01*
G75*
G02*
X136980000Y-86855000I0J140000D01*
G01*
X136980000Y-86575000D01*
G75*
G02*
X137120000Y-86435000I140000J0D01*
G01*
X137460000Y-86435000D01*
G75*
G02*
X137600000Y-86575000I0J-140000D01*
G01*
X137600000Y-86855000D01*
G75*
G02*
X137460000Y-86995000I-140000J0D01*
G01*
G37*
%TD*%
%TO.C,C32*%
G36*
G01*
X137190000Y-114720000D02*
X137190000Y-115060000D01*
G75*
G02*
X137050000Y-115200000I-140000J0D01*
G01*
X136770000Y-115200000D01*
G75*
G02*
X136630000Y-115060000I0J140000D01*
G01*
X136630000Y-114720000D01*
G75*
G02*
X136770000Y-114580000I140000J0D01*
G01*
X137050000Y-114580000D01*
G75*
G02*
X137190000Y-114720000I0J-140000D01*
G01*
G37*
G36*
G01*
X138150000Y-114720000D02*
X138150000Y-115060000D01*
G75*
G02*
X138010000Y-115200000I-140000J0D01*
G01*
X137730000Y-115200000D01*
G75*
G02*
X137590000Y-115060000I0J140000D01*
G01*
X137590000Y-114720000D01*
G75*
G02*
X137730000Y-114580000I140000J0D01*
G01*
X138010000Y-114580000D01*
G75*
G02*
X138150000Y-114720000I0J-140000D01*
G01*
G37*
%TD*%
%TO.C,C33*%
G36*
G01*
X146145000Y-87835000D02*
X145805000Y-87835000D01*
G75*
G02*
X145665000Y-87695000I0J140000D01*
G01*
X145665000Y-87415000D01*
G75*
G02*
X145805000Y-87275000I140000J0D01*
G01*
X146145000Y-87275000D01*
G75*
G02*
X146285000Y-87415000I0J-140000D01*
G01*
X146285000Y-87695000D01*
G75*
G02*
X146145000Y-87835000I-140000J0D01*
G01*
G37*
G36*
G01*
X146145000Y-86875000D02*
X145805000Y-86875000D01*
G75*
G02*
X145665000Y-86735000I0J140000D01*
G01*
X145665000Y-86455000D01*
G75*
G02*
X145805000Y-86315000I140000J0D01*
G01*
X146145000Y-86315000D01*
G75*
G02*
X146285000Y-86455000I0J-140000D01*
G01*
X146285000Y-86735000D01*
G75*
G02*
X146145000Y-86875000I-140000J0D01*
G01*
G37*
%TD*%
%TO.C,C34*%
G36*
G01*
X142240000Y-103060000D02*
X142580000Y-103060000D01*
G75*
G02*
X142720000Y-103200000I0J-140000D01*
G01*
X142720000Y-103480000D01*
G75*
G02*
X142580000Y-103620000I-140000J0D01*
G01*
X142240000Y-103620000D01*
G75*
G02*
X142100000Y-103480000I0J140000D01*
G01*
X142100000Y-103200000D01*
G75*
G02*
X142240000Y-103060000I140000J0D01*
G01*
G37*
G36*
G01*
X142240000Y-104020000D02*
X142580000Y-104020000D01*
G75*
G02*
X142720000Y-104160000I0J-140000D01*
G01*
X142720000Y-104440000D01*
G75*
G02*
X142580000Y-104580000I-140000J0D01*
G01*
X142240000Y-104580000D01*
G75*
G02*
X142100000Y-104440000I0J140000D01*
G01*
X142100000Y-104160000D01*
G75*
G02*
X142240000Y-104020000I140000J0D01*
G01*
G37*
%TD*%
%TO.C,C27*%
G36*
G01*
X156090000Y-82305000D02*
X156090000Y-81355000D01*
G75*
G02*
X156340000Y-81105000I250000J0D01*
G01*
X156840000Y-81105000D01*
G75*
G02*
X157090000Y-81355000I0J-250000D01*
G01*
X157090000Y-82305000D01*
G75*
G02*
X156840000Y-82555000I-250000J0D01*
G01*
X156340000Y-82555000D01*
G75*
G02*
X156090000Y-82305000I0J250000D01*
G01*
G37*
G36*
G01*
X157990000Y-82305000D02*
X157990000Y-81355000D01*
G75*
G02*
X158240000Y-81105000I250000J0D01*
G01*
X158740000Y-81105000D01*
G75*
G02*
X158990000Y-81355000I0J-250000D01*
G01*
X158990000Y-82305000D01*
G75*
G02*
X158740000Y-82555000I-250000J0D01*
G01*
X158240000Y-82555000D01*
G75*
G02*
X157990000Y-82305000I0J250000D01*
G01*
G37*
%TD*%
D24*
%TO.C,U7*%
X130850000Y-95150000D03*
X129900000Y-95150000D03*
X131800000Y-95150000D03*
X131800000Y-97350000D03*
X130850000Y-97350000D03*
X129900000Y-97350000D03*
%TD*%
D19*
%TO.C,U8*%
X135600000Y-88300000D03*
X135600000Y-87350000D03*
X135600000Y-86400000D03*
X133400000Y-86400000D03*
X133400000Y-88300000D03*
X133400000Y-87350000D03*
%TD*%
%TO.C,C14*%
G36*
G01*
X129645000Y-93830000D02*
X129645000Y-93330000D01*
G75*
G02*
X129870000Y-93105000I225000J0D01*
G01*
X130320000Y-93105000D01*
G75*
G02*
X130545000Y-93330000I0J-225000D01*
G01*
X130545000Y-93830000D01*
G75*
G02*
X130320000Y-94055000I-225000J0D01*
G01*
X129870000Y-94055000D01*
G75*
G02*
X129645000Y-93830000I0J225000D01*
G01*
G37*
G36*
G01*
X131195000Y-93830000D02*
X131195000Y-93330000D01*
G75*
G02*
X131420000Y-93105000I225000J0D01*
G01*
X131870000Y-93105000D01*
G75*
G02*
X132095000Y-93330000I0J-225000D01*
G01*
X132095000Y-93830000D01*
G75*
G02*
X131870000Y-94055000I-225000J0D01*
G01*
X131420000Y-94055000D01*
G75*
G02*
X131195000Y-93830000I0J225000D01*
G01*
G37*
%TD*%
D25*
%TO.C,J4*%
X138465000Y-82260000D03*
D26*
X139735000Y-82260000D03*
X141005000Y-82260000D03*
X142275000Y-82260000D03*
X143545000Y-82260000D03*
X144815000Y-82260000D03*
%TD*%
%TO.C,C35*%
G36*
G01*
X149825000Y-86700000D02*
X149825000Y-87200000D01*
G75*
G02*
X149600000Y-87425000I-225000J0D01*
G01*
X149150000Y-87425000D01*
G75*
G02*
X148925000Y-87200000I0J225000D01*
G01*
X148925000Y-86700000D01*
G75*
G02*
X149150000Y-86475000I225000J0D01*
G01*
X149600000Y-86475000D01*
G75*
G02*
X149825000Y-86700000I0J-225000D01*
G01*
G37*
G36*
G01*
X148275000Y-86700000D02*
X148275000Y-87200000D01*
G75*
G02*
X148050000Y-87425000I-225000J0D01*
G01*
X147600000Y-87425000D01*
G75*
G02*
X147375000Y-87200000I0J225000D01*
G01*
X147375000Y-86700000D01*
G75*
G02*
X147600000Y-86475000I225000J0D01*
G01*
X148050000Y-86475000D01*
G75*
G02*
X148275000Y-86700000I0J-225000D01*
G01*
G37*
%TD*%
%TO.C,C24*%
G36*
G01*
X145805000Y-88165000D02*
X146145000Y-88165000D01*
G75*
G02*
X146285000Y-88305000I0J-140000D01*
G01*
X146285000Y-88585000D01*
G75*
G02*
X146145000Y-88725000I-140000J0D01*
G01*
X145805000Y-88725000D01*
G75*
G02*
X145665000Y-88585000I0J140000D01*
G01*
X145665000Y-88305000D01*
G75*
G02*
X145805000Y-88165000I140000J0D01*
G01*
G37*
G36*
G01*
X145805000Y-89125000D02*
X146145000Y-89125000D01*
G75*
G02*
X146285000Y-89265000I0J-140000D01*
G01*
X146285000Y-89545000D01*
G75*
G02*
X146145000Y-89685000I-140000J0D01*
G01*
X145805000Y-89685000D01*
G75*
G02*
X145665000Y-89545000I0J140000D01*
G01*
X145665000Y-89265000D01*
G75*
G02*
X145805000Y-89125000I140000J0D01*
G01*
G37*
%TD*%
%TO.C,C36*%
G36*
G01*
X151575000Y-107675000D02*
X152975000Y-107675000D01*
G75*
G02*
X153225000Y-107925000I0J-250000D01*
G01*
X153225000Y-111575000D01*
G75*
G02*
X152975000Y-111825000I-250000J0D01*
G01*
X151575000Y-111825000D01*
G75*
G02*
X151325000Y-111575000I0J250000D01*
G01*
X151325000Y-107925000D01*
G75*
G02*
X151575000Y-107675000I250000J0D01*
G01*
G37*
G36*
G01*
X151575000Y-114625000D02*
X152975000Y-114625000D01*
G75*
G02*
X153225000Y-114875000I0J-250000D01*
G01*
X153225000Y-118525000D01*
G75*
G02*
X152975000Y-118775000I-250000J0D01*
G01*
X151575000Y-118775000D01*
G75*
G02*
X151325000Y-118525000I0J250000D01*
G01*
X151325000Y-114875000D01*
G75*
G02*
X151575000Y-114625000I250000J0D01*
G01*
G37*
%TD*%
%TO.C,D2*%
G36*
G01*
X132770000Y-82322500D02*
X132770000Y-81977500D01*
G75*
G02*
X132917500Y-81830000I147500J0D01*
G01*
X133212500Y-81830000D01*
G75*
G02*
X133360000Y-81977500I0J-147500D01*
G01*
X133360000Y-82322500D01*
G75*
G02*
X133212500Y-82470000I-147500J0D01*
G01*
X132917500Y-82470000D01*
G75*
G02*
X132770000Y-82322500I0J147500D01*
G01*
G37*
G36*
G01*
X133740000Y-82322500D02*
X133740000Y-81977500D01*
G75*
G02*
X133887500Y-81830000I147500J0D01*
G01*
X134182500Y-81830000D01*
G75*
G02*
X134330000Y-81977500I0J-147500D01*
G01*
X134330000Y-82322500D01*
G75*
G02*
X134182500Y-82470000I-147500J0D01*
G01*
X133887500Y-82470000D01*
G75*
G02*
X133740000Y-82322500I0J147500D01*
G01*
G37*
%TD*%
%TO.C,D3*%
G36*
G01*
X133740000Y-83297500D02*
X133740000Y-82952500D01*
G75*
G02*
X133887500Y-82805000I147500J0D01*
G01*
X134182500Y-82805000D01*
G75*
G02*
X134330000Y-82952500I0J-147500D01*
G01*
X134330000Y-83297500D01*
G75*
G02*
X134182500Y-83445000I-147500J0D01*
G01*
X133887500Y-83445000D01*
G75*
G02*
X133740000Y-83297500I0J147500D01*
G01*
G37*
G36*
G01*
X132770000Y-83297500D02*
X132770000Y-82952500D01*
G75*
G02*
X132917500Y-82805000I147500J0D01*
G01*
X133212500Y-82805000D01*
G75*
G02*
X133360000Y-82952500I0J-147500D01*
G01*
X133360000Y-83297500D01*
G75*
G02*
X133212500Y-83445000I-147500J0D01*
G01*
X132917500Y-83445000D01*
G75*
G02*
X132770000Y-83297500I0J147500D01*
G01*
G37*
%TD*%
%TO.C,R19*%
G36*
G01*
X136230000Y-81965000D02*
X136230000Y-82335000D01*
G75*
G02*
X136095000Y-82470000I-135000J0D01*
G01*
X135825000Y-82470000D01*
G75*
G02*
X135690000Y-82335000I0J135000D01*
G01*
X135690000Y-81965000D01*
G75*
G02*
X135825000Y-81830000I135000J0D01*
G01*
X136095000Y-81830000D01*
G75*
G02*
X136230000Y-81965000I0J-135000D01*
G01*
G37*
G36*
G01*
X135210000Y-81965000D02*
X135210000Y-82335000D01*
G75*
G02*
X135075000Y-82470000I-135000J0D01*
G01*
X134805000Y-82470000D01*
G75*
G02*
X134670000Y-82335000I0J135000D01*
G01*
X134670000Y-81965000D01*
G75*
G02*
X134805000Y-81830000I135000J0D01*
G01*
X135075000Y-81830000D01*
G75*
G02*
X135210000Y-81965000I0J-135000D01*
G01*
G37*
%TD*%
%TO.C,R22*%
G36*
G01*
X136230000Y-82940000D02*
X136230000Y-83310000D01*
G75*
G02*
X136095000Y-83445000I-135000J0D01*
G01*
X135825000Y-83445000D01*
G75*
G02*
X135690000Y-83310000I0J135000D01*
G01*
X135690000Y-82940000D01*
G75*
G02*
X135825000Y-82805000I135000J0D01*
G01*
X136095000Y-82805000D01*
G75*
G02*
X136230000Y-82940000I0J-135000D01*
G01*
G37*
G36*
G01*
X135210000Y-82940000D02*
X135210000Y-83310000D01*
G75*
G02*
X135075000Y-83445000I-135000J0D01*
G01*
X134805000Y-83445000D01*
G75*
G02*
X134670000Y-83310000I0J135000D01*
G01*
X134670000Y-82940000D01*
G75*
G02*
X134805000Y-82805000I135000J0D01*
G01*
X135075000Y-82805000D01*
G75*
G02*
X135210000Y-82940000I0J-135000D01*
G01*
G37*
%TD*%
D27*
%TO.C,U1*%
X147950000Y-95775000D03*
X147950000Y-96425000D03*
X147950000Y-97075000D03*
X147950000Y-97725000D03*
X147950000Y-98375000D03*
X147950000Y-99025000D03*
X147950000Y-99675000D03*
X147950000Y-100325000D03*
X147950000Y-100975000D03*
X147950000Y-101625000D03*
X147950000Y-102275000D03*
X147950000Y-102925000D03*
X147950000Y-103575000D03*
X147950000Y-104225000D03*
X153650000Y-104225000D03*
X153650000Y-103575000D03*
X153650000Y-102925000D03*
X153650000Y-102275000D03*
X153650000Y-101625000D03*
X153650000Y-100975000D03*
X153650000Y-100325000D03*
X153650000Y-99675000D03*
X153650000Y-99025000D03*
X153650000Y-98375000D03*
X153650000Y-97725000D03*
X153650000Y-97075000D03*
X153650000Y-96425000D03*
X153650000Y-95775000D03*
D28*
X150800000Y-100000000D03*
%TD*%
D29*
%TO.C,L1*%
X163450000Y-88400000D03*
X157950000Y-88400000D03*
%TD*%
%TO.C,L2*%
X157950000Y-111600000D03*
X163450000Y-111600000D03*
%TD*%
%TO.C,L3*%
X157950000Y-95500000D03*
X163450000Y-95500000D03*
%TD*%
%TO.C,L4*%
X163450000Y-104500000D03*
X157950000Y-104500000D03*
%TD*%
%TO.C,R23*%
G36*
G01*
X146165000Y-104320000D02*
X145795000Y-104320000D01*
G75*
G02*
X145660000Y-104185000I0J135000D01*
G01*
X145660000Y-103915000D01*
G75*
G02*
X145795000Y-103780000I135000J0D01*
G01*
X146165000Y-103780000D01*
G75*
G02*
X146300000Y-103915000I0J-135000D01*
G01*
X146300000Y-104185000D01*
G75*
G02*
X146165000Y-104320000I-135000J0D01*
G01*
G37*
G36*
G01*
X146165000Y-103300000D02*
X145795000Y-103300000D01*
G75*
G02*
X145660000Y-103165000I0J135000D01*
G01*
X145660000Y-102895000D01*
G75*
G02*
X145795000Y-102760000I135000J0D01*
G01*
X146165000Y-102760000D01*
G75*
G02*
X146300000Y-102895000I0J-135000D01*
G01*
X146300000Y-103165000D01*
G75*
G02*
X146165000Y-103300000I-135000J0D01*
G01*
G37*
%TD*%
%TO.C,R24*%
G36*
G01*
X150000000Y-81195000D02*
X150000000Y-81565000D01*
G75*
G02*
X149865000Y-81700000I-135000J0D01*
G01*
X149595000Y-81700000D01*
G75*
G02*
X149460000Y-81565000I0J135000D01*
G01*
X149460000Y-81195000D01*
G75*
G02*
X149595000Y-81060000I135000J0D01*
G01*
X149865000Y-81060000D01*
G75*
G02*
X150000000Y-81195000I0J-135000D01*
G01*
G37*
G36*
G01*
X151020000Y-81195000D02*
X151020000Y-81565000D01*
G75*
G02*
X150885000Y-81700000I-135000J0D01*
G01*
X150615000Y-81700000D01*
G75*
G02*
X150480000Y-81565000I0J135000D01*
G01*
X150480000Y-81195000D01*
G75*
G02*
X150615000Y-81060000I135000J0D01*
G01*
X150885000Y-81060000D01*
G75*
G02*
X151020000Y-81195000I0J-135000D01*
G01*
G37*
%TD*%
%TO.C,R25*%
G36*
G01*
X147570000Y-81565000D02*
X147570000Y-81195000D01*
G75*
G02*
X147705000Y-81060000I135000J0D01*
G01*
X147975000Y-81060000D01*
G75*
G02*
X148110000Y-81195000I0J-135000D01*
G01*
X148110000Y-81565000D01*
G75*
G02*
X147975000Y-81700000I-135000J0D01*
G01*
X147705000Y-81700000D01*
G75*
G02*
X147570000Y-81565000I0J135000D01*
G01*
G37*
G36*
G01*
X148590000Y-81565000D02*
X148590000Y-81195000D01*
G75*
G02*
X148725000Y-81060000I135000J0D01*
G01*
X148995000Y-81060000D01*
G75*
G02*
X149130000Y-81195000I0J-135000D01*
G01*
X149130000Y-81565000D01*
G75*
G02*
X148995000Y-81700000I-135000J0D01*
G01*
X148725000Y-81700000D01*
G75*
G02*
X148590000Y-81565000I0J135000D01*
G01*
G37*
%TD*%
D30*
%TO.C,D4*%
X126600000Y-81060000D03*
X128700000Y-81060000D03*
%TD*%
D23*
%TO.C,D5*%
X147900000Y-84550000D03*
X147900000Y-82450000D03*
%TD*%
%TO.C,R15*%
G36*
G01*
X146210000Y-94005000D02*
X146210000Y-94375000D01*
G75*
G02*
X146075000Y-94510000I-135000J0D01*
G01*
X145805000Y-94510000D01*
G75*
G02*
X145670000Y-94375000I0J135000D01*
G01*
X145670000Y-94005000D01*
G75*
G02*
X145805000Y-93870000I135000J0D01*
G01*
X146075000Y-93870000D01*
G75*
G02*
X146210000Y-94005000I0J-135000D01*
G01*
G37*
G36*
G01*
X145190000Y-94005000D02*
X145190000Y-94375000D01*
G75*
G02*
X145055000Y-94510000I-135000J0D01*
G01*
X144785000Y-94510000D01*
G75*
G02*
X144650000Y-94375000I0J135000D01*
G01*
X144650000Y-94005000D01*
G75*
G02*
X144785000Y-93870000I135000J0D01*
G01*
X145055000Y-93870000D01*
G75*
G02*
X145190000Y-94005000I0J-135000D01*
G01*
G37*
%TD*%
%TO.C,C37*%
G36*
G01*
X141730000Y-106470000D02*
X141730000Y-106810000D01*
G75*
G02*
X141590000Y-106950000I-140000J0D01*
G01*
X141310000Y-106950000D01*
G75*
G02*
X141170000Y-106810000I0J140000D01*
G01*
X141170000Y-106470000D01*
G75*
G02*
X141310000Y-106330000I140000J0D01*
G01*
X141590000Y-106330000D01*
G75*
G02*
X141730000Y-106470000I0J-140000D01*
G01*
G37*
G36*
G01*
X140770000Y-106470000D02*
X140770000Y-106810000D01*
G75*
G02*
X140630000Y-106950000I-140000J0D01*
G01*
X140350000Y-106950000D01*
G75*
G02*
X140210000Y-106810000I0J140000D01*
G01*
X140210000Y-106470000D01*
G75*
G02*
X140350000Y-106330000I140000J0D01*
G01*
X140630000Y-106330000D01*
G75*
G02*
X140770000Y-106470000I0J-140000D01*
G01*
G37*
%TD*%
M02*
