%TF.GenerationSoftware,KiCad,Pcbnew,5.1.9-73d0e3b20d~88~ubuntu20.04.1*%
%TF.CreationDate,2021-04-24T16:50:53+02:00*%
%TF.ProjectId,elmo,656c6d6f-2e6b-4696-9361-645f70636258,v1.00*%
%TF.SameCoordinates,Original*%
%TF.FileFunction,Legend,Bot*%
%TF.FilePolarity,Positive*%
%FSLAX46Y46*%
G04 Gerber Fmt 4.6, Leading zero omitted, Abs format (unit mm)*
G04 Created by KiCad (PCBNEW 5.1.9-73d0e3b20d~88~ubuntu20.04.1) date 2021-04-24 16:50:53*
%MOMM*%
%LPD*%
G01*
G04 APERTURE LIST*
%ADD10C,0.150000*%
%ADD11C,0.600000*%
%ADD12C,0.300000*%
G04 APERTURE END LIST*
D10*
X138085000Y-83348571D02*
X138049285Y-83277142D01*
X138049285Y-83170000D01*
X138085000Y-83062857D01*
X138156428Y-82991428D01*
X138227857Y-82955714D01*
X138370714Y-82920000D01*
X138477857Y-82920000D01*
X138620714Y-82955714D01*
X138692142Y-82991428D01*
X138763571Y-83062857D01*
X138799285Y-83170000D01*
X138799285Y-83241428D01*
X138763571Y-83348571D01*
X138727857Y-83384285D01*
X138477857Y-83384285D01*
X138477857Y-83241428D01*
X138799285Y-83705714D02*
X138049285Y-83705714D01*
X138799285Y-84134285D01*
X138049285Y-84134285D01*
X138799285Y-84491428D02*
X138049285Y-84491428D01*
X138049285Y-84670000D01*
X138085000Y-84777142D01*
X138156428Y-84848571D01*
X138227857Y-84884285D01*
X138370714Y-84920000D01*
X138477857Y-84920000D01*
X138620714Y-84884285D01*
X138692142Y-84848571D01*
X138763571Y-84777142D01*
X138799285Y-84670000D01*
X138799285Y-84491428D01*
X140023571Y-82890714D02*
X140059285Y-82997857D01*
X140059285Y-83176428D01*
X140023571Y-83247857D01*
X139987857Y-83283571D01*
X139916428Y-83319285D01*
X139845000Y-83319285D01*
X139773571Y-83283571D01*
X139737857Y-83247857D01*
X139702142Y-83176428D01*
X139666428Y-83033571D01*
X139630714Y-82962142D01*
X139595000Y-82926428D01*
X139523571Y-82890714D01*
X139452142Y-82890714D01*
X139380714Y-82926428D01*
X139345000Y-82962142D01*
X139309285Y-83033571D01*
X139309285Y-83212142D01*
X139345000Y-83319285D01*
X139309285Y-83569285D02*
X140059285Y-83747857D01*
X139523571Y-83890714D01*
X140059285Y-84033571D01*
X139309285Y-84212142D01*
X140059285Y-84497857D02*
X139309285Y-84497857D01*
X139309285Y-84676428D01*
X139345000Y-84783571D01*
X139416428Y-84855000D01*
X139487857Y-84890714D01*
X139630714Y-84926428D01*
X139737857Y-84926428D01*
X139880714Y-84890714D01*
X139952142Y-84855000D01*
X140023571Y-84783571D01*
X140059285Y-84676428D01*
X140059285Y-84497857D01*
X140059285Y-85247857D02*
X139309285Y-85247857D01*
X139309285Y-85747857D02*
X139309285Y-85890714D01*
X139345000Y-85962142D01*
X139416428Y-86033571D01*
X139559285Y-86069285D01*
X139809285Y-86069285D01*
X139952142Y-86033571D01*
X140023571Y-85962142D01*
X140059285Y-85890714D01*
X140059285Y-85747857D01*
X140023571Y-85676428D01*
X139952142Y-85605000D01*
X139809285Y-85569285D01*
X139559285Y-85569285D01*
X139416428Y-85605000D01*
X139345000Y-85676428D01*
X139309285Y-85747857D01*
X141313571Y-82893571D02*
X141349285Y-83000714D01*
X141349285Y-83179285D01*
X141313571Y-83250714D01*
X141277857Y-83286428D01*
X141206428Y-83322142D01*
X141135000Y-83322142D01*
X141063571Y-83286428D01*
X141027857Y-83250714D01*
X140992142Y-83179285D01*
X140956428Y-83036428D01*
X140920714Y-82965000D01*
X140885000Y-82929285D01*
X140813571Y-82893571D01*
X140742142Y-82893571D01*
X140670714Y-82929285D01*
X140635000Y-82965000D01*
X140599285Y-83036428D01*
X140599285Y-83215000D01*
X140635000Y-83322142D01*
X140599285Y-83572142D02*
X141349285Y-83750714D01*
X140813571Y-83893571D01*
X141349285Y-84036428D01*
X140599285Y-84215000D01*
X141277857Y-84929285D02*
X141313571Y-84893571D01*
X141349285Y-84786428D01*
X141349285Y-84715000D01*
X141313571Y-84607857D01*
X141242142Y-84536428D01*
X141170714Y-84500714D01*
X141027857Y-84465000D01*
X140920714Y-84465000D01*
X140777857Y-84500714D01*
X140706428Y-84536428D01*
X140635000Y-84607857D01*
X140599285Y-84715000D01*
X140599285Y-84786428D01*
X140635000Y-84893571D01*
X140670714Y-84929285D01*
X141349285Y-85607857D02*
X141349285Y-85250714D01*
X140599285Y-85250714D01*
X141349285Y-85857857D02*
X140599285Y-85857857D01*
X141349285Y-86286428D02*
X140920714Y-85965000D01*
X140599285Y-86286428D02*
X141027857Y-85857857D01*
X143889285Y-83345000D02*
X143532142Y-83095000D01*
X143889285Y-82916428D02*
X143139285Y-82916428D01*
X143139285Y-83202142D01*
X143175000Y-83273571D01*
X143210714Y-83309285D01*
X143282142Y-83345000D01*
X143389285Y-83345000D01*
X143460714Y-83309285D01*
X143496428Y-83273571D01*
X143532142Y-83202142D01*
X143532142Y-82916428D01*
X143139285Y-83595000D02*
X143889285Y-84095000D01*
X143139285Y-84095000D02*
X143889285Y-83595000D01*
X144399285Y-82908571D02*
X144399285Y-83337142D01*
X145149285Y-83122857D02*
X144399285Y-83122857D01*
X144399285Y-83515714D02*
X145149285Y-84015714D01*
X144399285Y-84015714D02*
X145149285Y-83515714D01*
X141885000Y-83348571D02*
X141849285Y-83277142D01*
X141849285Y-83170000D01*
X141885000Y-83062857D01*
X141956428Y-82991428D01*
X142027857Y-82955714D01*
X142170714Y-82920000D01*
X142277857Y-82920000D01*
X142420714Y-82955714D01*
X142492142Y-82991428D01*
X142563571Y-83062857D01*
X142599285Y-83170000D01*
X142599285Y-83241428D01*
X142563571Y-83348571D01*
X142527857Y-83384285D01*
X142277857Y-83384285D01*
X142277857Y-83241428D01*
X142599285Y-83705714D02*
X141849285Y-83705714D01*
X142599285Y-84134285D01*
X141849285Y-84134285D01*
X142599285Y-84491428D02*
X141849285Y-84491428D01*
X141849285Y-84670000D01*
X141885000Y-84777142D01*
X141956428Y-84848571D01*
X142027857Y-84884285D01*
X142170714Y-84920000D01*
X142277857Y-84920000D01*
X142420714Y-84884285D01*
X142492142Y-84848571D01*
X142563571Y-84777142D01*
X142599285Y-84670000D01*
X142599285Y-84491428D01*
D11*
X137135714Y-87928571D02*
X137135714Y-88928571D01*
X138707142Y-89357142D02*
X138707142Y-87928571D01*
X135707142Y-87928571D01*
X135707142Y-89357142D01*
X138707142Y-91071428D02*
X138564285Y-90785714D01*
X138278571Y-90642857D01*
X135707142Y-90642857D01*
X138707142Y-92214285D02*
X136707142Y-92214285D01*
X136992857Y-92214285D02*
X136850000Y-92357142D01*
X136707142Y-92642857D01*
X136707142Y-93071428D01*
X136850000Y-93357142D01*
X137135714Y-93500000D01*
X138707142Y-93500000D01*
X137135714Y-93500000D02*
X136850000Y-93642857D01*
X136707142Y-93928571D01*
X136707142Y-94357142D01*
X136850000Y-94642857D01*
X137135714Y-94785714D01*
X138707142Y-94785714D01*
X138707142Y-96642857D02*
X138564285Y-96357142D01*
X138421428Y-96214285D01*
X138135714Y-96071428D01*
X137278571Y-96071428D01*
X136992857Y-96214285D01*
X136850000Y-96357142D01*
X136707142Y-96642857D01*
X136707142Y-97071428D01*
X136850000Y-97357142D01*
X136992857Y-97500000D01*
X137278571Y-97642857D01*
X138135714Y-97642857D01*
X138421428Y-97500000D01*
X138564285Y-97357142D01*
X138707142Y-97071428D01*
X138707142Y-96642857D01*
X136707142Y-100928571D02*
X138707142Y-101642857D01*
X136707142Y-102357142D01*
X138707142Y-105071428D02*
X138707142Y-103357142D01*
X138707142Y-104214285D02*
X135707142Y-104214285D01*
X136135714Y-103928571D01*
X136421428Y-103642857D01*
X136564285Y-103357142D01*
X138421428Y-106357142D02*
X138564285Y-106500000D01*
X138707142Y-106357142D01*
X138564285Y-106214285D01*
X138421428Y-106357142D01*
X138707142Y-106357142D01*
X135707142Y-108357142D02*
X135707142Y-108642857D01*
X135850000Y-108928571D01*
X135992857Y-109071428D01*
X136278571Y-109214285D01*
X136850000Y-109357142D01*
X137564285Y-109357142D01*
X138135714Y-109214285D01*
X138421428Y-109071428D01*
X138564285Y-108928571D01*
X138707142Y-108642857D01*
X138707142Y-108357142D01*
X138564285Y-108071428D01*
X138421428Y-107928571D01*
X138135714Y-107785714D01*
X137564285Y-107642857D01*
X136850000Y-107642857D01*
X136278571Y-107785714D01*
X135992857Y-107928571D01*
X135850000Y-108071428D01*
X135707142Y-108357142D01*
X135707142Y-111214285D02*
X135707142Y-111500000D01*
X135850000Y-111785714D01*
X135992857Y-111928571D01*
X136278571Y-112071428D01*
X136850000Y-112214285D01*
X137564285Y-112214285D01*
X138135714Y-112071428D01*
X138421428Y-111928571D01*
X138564285Y-111785714D01*
X138707142Y-111500000D01*
X138707142Y-111214285D01*
X138564285Y-110928571D01*
X138421428Y-110785714D01*
X138135714Y-110642857D01*
X137564285Y-110500000D01*
X136850000Y-110500000D01*
X136278571Y-110642857D01*
X135992857Y-110785714D01*
X135850000Y-110928571D01*
X135707142Y-111214285D01*
X141807142Y-87000000D02*
X143807142Y-87571428D01*
X142378571Y-88142857D01*
X143807142Y-88714285D01*
X141807142Y-89285714D01*
X141807142Y-90142857D02*
X143807142Y-90714285D01*
X142378571Y-91285714D01*
X143807142Y-91857142D01*
X141807142Y-92428571D01*
X141807142Y-93285714D02*
X143807142Y-93857142D01*
X142378571Y-94428571D01*
X143807142Y-95000000D01*
X141807142Y-95571428D01*
X143521428Y-96714285D02*
X143664285Y-96857142D01*
X143807142Y-96714285D01*
X143664285Y-96571428D01*
X143521428Y-96714285D01*
X143807142Y-96714285D01*
X141092857Y-98000000D02*
X140950000Y-98142857D01*
X140807142Y-98428571D01*
X140807142Y-99142857D01*
X140950000Y-99428571D01*
X141092857Y-99571428D01*
X141378571Y-99714285D01*
X141664285Y-99714285D01*
X142092857Y-99571428D01*
X143807142Y-97857142D01*
X143807142Y-99714285D01*
X142664285Y-101000000D02*
X142664285Y-103285714D01*
X140807142Y-105285714D02*
X140807142Y-105571428D01*
X140950000Y-105857142D01*
X141092857Y-106000000D01*
X141378571Y-106142857D01*
X141950000Y-106285714D01*
X142664285Y-106285714D01*
X143235714Y-106142857D01*
X143521428Y-106000000D01*
X143664285Y-105857142D01*
X143807142Y-105571428D01*
X143807142Y-105285714D01*
X143664285Y-105000000D01*
X143521428Y-104857142D01*
X143235714Y-104714285D01*
X142664285Y-104571428D01*
X141950000Y-104571428D01*
X141378571Y-104714285D01*
X141092857Y-104857142D01*
X140950000Y-105000000D01*
X140807142Y-105285714D01*
X143521428Y-107571428D02*
X143664285Y-107714285D01*
X143807142Y-107571428D01*
X143664285Y-107428571D01*
X143521428Y-107571428D01*
X143807142Y-107571428D01*
X143807142Y-110285714D02*
X140807142Y-110285714D01*
X143664285Y-110285714D02*
X143807142Y-110000000D01*
X143807142Y-109428571D01*
X143664285Y-109142857D01*
X143521428Y-109000000D01*
X143235714Y-108857142D01*
X142378571Y-108857142D01*
X142092857Y-109000000D01*
X141950000Y-109142857D01*
X141807142Y-109428571D01*
X141807142Y-110000000D01*
X141950000Y-110285714D01*
X143807142Y-111714285D02*
X140807142Y-111714285D01*
X142664285Y-112000000D02*
X143807142Y-112857142D01*
X141807142Y-112857142D02*
X142950000Y-111714285D01*
D12*
X169071428Y-92607142D02*
X167928571Y-92607142D01*
X169071428Y-107607142D02*
X167928571Y-107607142D01*
X169071428Y-112607142D02*
X167928571Y-112607142D01*
X168500000Y-113178571D02*
X168500000Y-112035714D01*
X169071428Y-87532142D02*
X167928571Y-87532142D01*
X168500000Y-88103571D02*
X168500000Y-86960714D01*
X165428571Y-90678571D02*
X166142857Y-90678571D01*
X166142857Y-89178571D01*
X164357142Y-90607142D02*
X164500000Y-90678571D01*
X164785714Y-90678571D01*
X164928571Y-90607142D01*
X165000000Y-90464285D01*
X165000000Y-89892857D01*
X164928571Y-89750000D01*
X164785714Y-89678571D01*
X164500000Y-89678571D01*
X164357142Y-89750000D01*
X164285714Y-89892857D01*
X164285714Y-90035714D01*
X165000000Y-90178571D01*
X163857142Y-89678571D02*
X163285714Y-89678571D01*
X163642857Y-90678571D02*
X163642857Y-89392857D01*
X163571428Y-89250000D01*
X163428571Y-89178571D01*
X163285714Y-89178571D01*
X163000000Y-89678571D02*
X162428571Y-89678571D01*
X162785714Y-89178571D02*
X162785714Y-90464285D01*
X162714285Y-90607142D01*
X162571428Y-90678571D01*
X162428571Y-90678571D01*
X160857142Y-90607142D02*
X160714285Y-90678571D01*
X160428571Y-90678571D01*
X160285714Y-90607142D01*
X160214285Y-90464285D01*
X160214285Y-90392857D01*
X160285714Y-90250000D01*
X160428571Y-90178571D01*
X160642857Y-90178571D01*
X160785714Y-90107142D01*
X160857142Y-89964285D01*
X160857142Y-89892857D01*
X160785714Y-89750000D01*
X160642857Y-89678571D01*
X160428571Y-89678571D01*
X160285714Y-89750000D01*
X159571428Y-89678571D02*
X159571428Y-91178571D01*
X159571428Y-89750000D02*
X159428571Y-89678571D01*
X159142857Y-89678571D01*
X159000000Y-89750000D01*
X158928571Y-89821428D01*
X158857142Y-89964285D01*
X158857142Y-90392857D01*
X158928571Y-90535714D01*
X159000000Y-90607142D01*
X159142857Y-90678571D01*
X159428571Y-90678571D01*
X159571428Y-90607142D01*
X157642857Y-90607142D02*
X157785714Y-90678571D01*
X158071428Y-90678571D01*
X158214285Y-90607142D01*
X158285714Y-90464285D01*
X158285714Y-89892857D01*
X158214285Y-89750000D01*
X158071428Y-89678571D01*
X157785714Y-89678571D01*
X157642857Y-89750000D01*
X157571428Y-89892857D01*
X157571428Y-90035714D01*
X158285714Y-90178571D01*
X156285714Y-90678571D02*
X156285714Y-89892857D01*
X156357142Y-89750000D01*
X156500000Y-89678571D01*
X156785714Y-89678571D01*
X156928571Y-89750000D01*
X156285714Y-90607142D02*
X156428571Y-90678571D01*
X156785714Y-90678571D01*
X156928571Y-90607142D01*
X157000000Y-90464285D01*
X157000000Y-90321428D01*
X156928571Y-90178571D01*
X156785714Y-90107142D01*
X156428571Y-90107142D01*
X156285714Y-90035714D01*
X155571428Y-90678571D02*
X155571428Y-89178571D01*
X155428571Y-90107142D02*
X155000000Y-90678571D01*
X155000000Y-89678571D02*
X155571428Y-90250000D01*
X153785714Y-90607142D02*
X153928571Y-90678571D01*
X154214285Y-90678571D01*
X154357142Y-90607142D01*
X154428571Y-90464285D01*
X154428571Y-89892857D01*
X154357142Y-89750000D01*
X154214285Y-89678571D01*
X153928571Y-89678571D01*
X153785714Y-89750000D01*
X153714285Y-89892857D01*
X153714285Y-90035714D01*
X154428571Y-90178571D01*
X153071428Y-90678571D02*
X153071428Y-89678571D01*
X153071428Y-89964285D02*
X153000000Y-89821428D01*
X152928571Y-89750000D01*
X152785714Y-89678571D01*
X152642857Y-89678571D01*
X165071428Y-110678571D02*
X165571428Y-109964285D01*
X165928571Y-110678571D02*
X165928571Y-109178571D01*
X165357142Y-109178571D01*
X165214285Y-109250000D01*
X165142857Y-109321428D01*
X165071428Y-109464285D01*
X165071428Y-109678571D01*
X165142857Y-109821428D01*
X165214285Y-109892857D01*
X165357142Y-109964285D01*
X165928571Y-109964285D01*
X164428571Y-110678571D02*
X164428571Y-109678571D01*
X164428571Y-109178571D02*
X164500000Y-109250000D01*
X164428571Y-109321428D01*
X164357142Y-109250000D01*
X164428571Y-109178571D01*
X164428571Y-109321428D01*
X163071428Y-109678571D02*
X163071428Y-110892857D01*
X163142857Y-111035714D01*
X163214285Y-111107142D01*
X163357142Y-111178571D01*
X163571428Y-111178571D01*
X163714285Y-111107142D01*
X163071428Y-110607142D02*
X163214285Y-110678571D01*
X163500000Y-110678571D01*
X163642857Y-110607142D01*
X163714285Y-110535714D01*
X163785714Y-110392857D01*
X163785714Y-109964285D01*
X163714285Y-109821428D01*
X163642857Y-109750000D01*
X163500000Y-109678571D01*
X163214285Y-109678571D01*
X163071428Y-109750000D01*
X162571428Y-109678571D02*
X162000000Y-109678571D01*
X162357142Y-109178571D02*
X162357142Y-110464285D01*
X162285714Y-110607142D01*
X162142857Y-110678571D01*
X162000000Y-110678571D01*
X161500000Y-110678571D02*
X161500000Y-109178571D01*
X160857142Y-110678571D02*
X160857142Y-109892857D01*
X160928571Y-109750000D01*
X161071428Y-109678571D01*
X161285714Y-109678571D01*
X161428571Y-109750000D01*
X161500000Y-109821428D01*
X159071428Y-110607142D02*
X158928571Y-110678571D01*
X158642857Y-110678571D01*
X158500000Y-110607142D01*
X158428571Y-110464285D01*
X158428571Y-110392857D01*
X158500000Y-110250000D01*
X158642857Y-110178571D01*
X158857142Y-110178571D01*
X159000000Y-110107142D01*
X159071428Y-109964285D01*
X159071428Y-109892857D01*
X159000000Y-109750000D01*
X158857142Y-109678571D01*
X158642857Y-109678571D01*
X158500000Y-109750000D01*
X157785714Y-109678571D02*
X157785714Y-111178571D01*
X157785714Y-109750000D02*
X157642857Y-109678571D01*
X157357142Y-109678571D01*
X157214285Y-109750000D01*
X157142857Y-109821428D01*
X157071428Y-109964285D01*
X157071428Y-110392857D01*
X157142857Y-110535714D01*
X157214285Y-110607142D01*
X157357142Y-110678571D01*
X157642857Y-110678571D01*
X157785714Y-110607142D01*
X155857142Y-110607142D02*
X156000000Y-110678571D01*
X156285714Y-110678571D01*
X156428571Y-110607142D01*
X156500000Y-110464285D01*
X156500000Y-109892857D01*
X156428571Y-109750000D01*
X156285714Y-109678571D01*
X156000000Y-109678571D01*
X155857142Y-109750000D01*
X155785714Y-109892857D01*
X155785714Y-110035714D01*
X156500000Y-110178571D01*
X154500000Y-110678571D02*
X154500000Y-109892857D01*
X154571428Y-109750000D01*
X154714285Y-109678571D01*
X155000000Y-109678571D01*
X155142857Y-109750000D01*
X154500000Y-110607142D02*
X154642857Y-110678571D01*
X155000000Y-110678571D01*
X155142857Y-110607142D01*
X155214285Y-110464285D01*
X155214285Y-110321428D01*
X155142857Y-110178571D01*
X155000000Y-110107142D01*
X154642857Y-110107142D01*
X154500000Y-110035714D01*
X153785714Y-110678571D02*
X153785714Y-109178571D01*
X153642857Y-110107142D02*
X153214285Y-110678571D01*
X153214285Y-109678571D02*
X153785714Y-110250000D01*
X152000000Y-110607142D02*
X152142857Y-110678571D01*
X152428571Y-110678571D01*
X152571428Y-110607142D01*
X152642857Y-110464285D01*
X152642857Y-109892857D01*
X152571428Y-109750000D01*
X152428571Y-109678571D01*
X152142857Y-109678571D01*
X152000000Y-109750000D01*
X151928571Y-109892857D01*
X151928571Y-110035714D01*
X152642857Y-110178571D01*
X151285714Y-110678571D02*
X151285714Y-109678571D01*
X151285714Y-109964285D02*
X151214285Y-109821428D01*
X151142857Y-109750000D01*
X151000000Y-109678571D01*
X150857142Y-109678571D01*
X169071428Y-102557142D02*
X167928571Y-102557142D01*
X169071428Y-97557142D02*
X167928571Y-97557142D01*
X168500000Y-98128571D02*
X168500000Y-96985714D01*
X166107142Y-100678571D02*
X166107142Y-99178571D01*
X165750000Y-99178571D01*
X165535714Y-99250000D01*
X165392857Y-99392857D01*
X165321428Y-99535714D01*
X165250000Y-99821428D01*
X165250000Y-100035714D01*
X165321428Y-100321428D01*
X165392857Y-100464285D01*
X165535714Y-100607142D01*
X165750000Y-100678571D01*
X166107142Y-100678571D01*
X163750000Y-100535714D02*
X163821428Y-100607142D01*
X164035714Y-100678571D01*
X164178571Y-100678571D01*
X164392857Y-100607142D01*
X164535714Y-100464285D01*
X164607142Y-100321428D01*
X164678571Y-100035714D01*
X164678571Y-99821428D01*
X164607142Y-99535714D01*
X164535714Y-99392857D01*
X164392857Y-99250000D01*
X164178571Y-99178571D01*
X164035714Y-99178571D01*
X163821428Y-99250000D01*
X163750000Y-99321428D01*
X163107142Y-100535714D02*
X163035714Y-100607142D01*
X163107142Y-100678571D01*
X163178571Y-100607142D01*
X163107142Y-100535714D01*
X163107142Y-100678571D01*
X163107142Y-99750000D02*
X163035714Y-99821428D01*
X163107142Y-99892857D01*
X163178571Y-99821428D01*
X163107142Y-99750000D01*
X163107142Y-99892857D01*
X160607142Y-99178571D02*
X160892857Y-99178571D01*
X161035714Y-99250000D01*
X161107142Y-99321428D01*
X161250000Y-99535714D01*
X161321428Y-99821428D01*
X161321428Y-100392857D01*
X161250000Y-100535714D01*
X161178571Y-100607142D01*
X161035714Y-100678571D01*
X160750000Y-100678571D01*
X160607142Y-100607142D01*
X160535714Y-100535714D01*
X160464285Y-100392857D01*
X160464285Y-100035714D01*
X160535714Y-99892857D01*
X160607142Y-99821428D01*
X160750000Y-99750000D01*
X161035714Y-99750000D01*
X161178571Y-99821428D01*
X161250000Y-99892857D01*
X161321428Y-100035714D01*
X159964285Y-99678571D02*
X159607142Y-100678571D01*
X159250000Y-99678571D01*
X157750000Y-99678571D02*
X157178571Y-99678571D01*
X157535714Y-99178571D02*
X157535714Y-100464285D01*
X157464285Y-100607142D01*
X157321428Y-100678571D01*
X157178571Y-100678571D01*
X156464285Y-100678571D02*
X156607142Y-100607142D01*
X156678571Y-100535714D01*
X156750000Y-100392857D01*
X156750000Y-99964285D01*
X156678571Y-99821428D01*
X156607142Y-99750000D01*
X156464285Y-99678571D01*
X156250000Y-99678571D01*
X156107142Y-99750000D01*
X156035714Y-99821428D01*
X155964285Y-99964285D01*
X155964285Y-100392857D01*
X156035714Y-100535714D01*
X156107142Y-100607142D01*
X156250000Y-100678571D01*
X156464285Y-100678571D01*
X154250000Y-99321428D02*
X154178571Y-99250000D01*
X154035714Y-99178571D01*
X153678571Y-99178571D01*
X153535714Y-99250000D01*
X153464285Y-99321428D01*
X153392857Y-99464285D01*
X153392857Y-99607142D01*
X153464285Y-99821428D01*
X154321428Y-100678571D01*
X153392857Y-100678571D01*
X152107142Y-99678571D02*
X152107142Y-100678571D01*
X152464285Y-99107142D02*
X152821428Y-100178571D01*
X151892857Y-100178571D01*
X151464285Y-99678571D02*
X151107142Y-100678571D01*
X150750000Y-99678571D01*
M02*
