%TF.GenerationSoftware,KiCad,Pcbnew,5.1.9-73d0e3b20d~88~ubuntu20.04.1*%
%TF.CreationDate,2021-04-24T16:50:53+02:00*%
%TF.ProjectId,elmo,656c6d6f-2e6b-4696-9361-645f70636258,v1.00*%
%TF.SameCoordinates,Original*%
%TF.FileFunction,Legend,Top*%
%TF.FilePolarity,Positive*%
%FSLAX46Y46*%
G04 Gerber Fmt 4.6, Leading zero omitted, Abs format (unit mm)*
G04 Created by KiCad (PCBNEW 5.1.9-73d0e3b20d~88~ubuntu20.04.1) date 2021-04-24 16:50:53*
%MOMM*%
%LPD*%
G01*
G04 APERTURE LIST*
%ADD10C,0.150000*%
%ADD11C,0.300000*%
%ADD12C,0.120000*%
%ADD13C,0.127000*%
%ADD14C,0.100000*%
%ADD15C,0.125000*%
G04 APERTURE END LIST*
D10*
X161076190Y-115943571D02*
X161409523Y-115943571D01*
X161552380Y-116467380D02*
X161076190Y-116467380D01*
X161076190Y-115467380D01*
X161552380Y-115467380D01*
X162123809Y-116467380D02*
X162028571Y-116419761D01*
X161980952Y-116324523D01*
X161980952Y-115467380D01*
X162504761Y-116467380D02*
X162504761Y-115800714D01*
X162504761Y-115895952D02*
X162552380Y-115848333D01*
X162647619Y-115800714D01*
X162790476Y-115800714D01*
X162885714Y-115848333D01*
X162933333Y-115943571D01*
X162933333Y-116467380D01*
X162933333Y-115943571D02*
X162980952Y-115848333D01*
X163076190Y-115800714D01*
X163219047Y-115800714D01*
X163314285Y-115848333D01*
X163361904Y-115943571D01*
X163361904Y-116467380D01*
X163980952Y-116467380D02*
X163885714Y-116419761D01*
X163838095Y-116372142D01*
X163790476Y-116276904D01*
X163790476Y-115991190D01*
X163838095Y-115895952D01*
X163885714Y-115848333D01*
X163980952Y-115800714D01*
X164123809Y-115800714D01*
X164219047Y-115848333D01*
X164266666Y-115895952D01*
X164314285Y-115991190D01*
X164314285Y-116276904D01*
X164266666Y-116372142D01*
X164219047Y-116419761D01*
X164123809Y-116467380D01*
X163980952Y-116467380D01*
X165409523Y-115800714D02*
X165647619Y-116467380D01*
X165885714Y-115800714D01*
X166790476Y-116467380D02*
X166219047Y-116467380D01*
X166504761Y-116467380D02*
X166504761Y-115467380D01*
X166409523Y-115610238D01*
X166314285Y-115705476D01*
X166219047Y-115753095D01*
X167219047Y-116372142D02*
X167266666Y-116419761D01*
X167219047Y-116467380D01*
X167171428Y-116419761D01*
X167219047Y-116372142D01*
X167219047Y-116467380D01*
X167885714Y-115467380D02*
X167980952Y-115467380D01*
X168076190Y-115515000D01*
X168123809Y-115562619D01*
X168171428Y-115657857D01*
X168219047Y-115848333D01*
X168219047Y-116086428D01*
X168171428Y-116276904D01*
X168123809Y-116372142D01*
X168076190Y-116419761D01*
X167980952Y-116467380D01*
X167885714Y-116467380D01*
X167790476Y-116419761D01*
X167742857Y-116372142D01*
X167695238Y-116276904D01*
X167647619Y-116086428D01*
X167647619Y-115848333D01*
X167695238Y-115657857D01*
X167742857Y-115562619D01*
X167790476Y-115515000D01*
X167885714Y-115467380D01*
X168838095Y-115467380D02*
X168933333Y-115467380D01*
X169028571Y-115515000D01*
X169076190Y-115562619D01*
X169123809Y-115657857D01*
X169171428Y-115848333D01*
X169171428Y-116086428D01*
X169123809Y-116276904D01*
X169076190Y-116372142D01*
X169028571Y-116419761D01*
X168933333Y-116467380D01*
X168838095Y-116467380D01*
X168742857Y-116419761D01*
X168695238Y-116372142D01*
X168647619Y-116276904D01*
X168600000Y-116086428D01*
X168600000Y-115848333D01*
X168647619Y-115657857D01*
X168695238Y-115562619D01*
X168742857Y-115515000D01*
X168838095Y-115467380D01*
X160766666Y-117450714D02*
X160957142Y-118117380D01*
X161147619Y-117641190D01*
X161338095Y-118117380D01*
X161528571Y-117450714D01*
X161814285Y-117450714D02*
X162004761Y-118117380D01*
X162195238Y-117641190D01*
X162385714Y-118117380D01*
X162576190Y-117450714D01*
X162861904Y-117450714D02*
X163052380Y-118117380D01*
X163242857Y-117641190D01*
X163433333Y-118117380D01*
X163623809Y-117450714D01*
X164004761Y-118022142D02*
X164052380Y-118069761D01*
X164004761Y-118117380D01*
X163957142Y-118069761D01*
X164004761Y-118022142D01*
X164004761Y-118117380D01*
X164433333Y-117212619D02*
X164480952Y-117165000D01*
X164576190Y-117117380D01*
X164814285Y-117117380D01*
X164909523Y-117165000D01*
X164957142Y-117212619D01*
X165004761Y-117307857D01*
X165004761Y-117403095D01*
X164957142Y-117545952D01*
X164385714Y-118117380D01*
X165004761Y-118117380D01*
X165433333Y-117736428D02*
X166195238Y-117736428D01*
X166861904Y-117117380D02*
X166957142Y-117117380D01*
X167052380Y-117165000D01*
X167100000Y-117212619D01*
X167147619Y-117307857D01*
X167195238Y-117498333D01*
X167195238Y-117736428D01*
X167147619Y-117926904D01*
X167100000Y-118022142D01*
X167052380Y-118069761D01*
X166957142Y-118117380D01*
X166861904Y-118117380D01*
X166766666Y-118069761D01*
X166719047Y-118022142D01*
X166671428Y-117926904D01*
X166623809Y-117736428D01*
X166623809Y-117498333D01*
X166671428Y-117307857D01*
X166719047Y-117212619D01*
X166766666Y-117165000D01*
X166861904Y-117117380D01*
X167623809Y-118022142D02*
X167671428Y-118069761D01*
X167623809Y-118117380D01*
X167576190Y-118069761D01*
X167623809Y-118022142D01*
X167623809Y-118117380D01*
X168528571Y-118117380D02*
X168528571Y-117117380D01*
X168528571Y-118069761D02*
X168433333Y-118117380D01*
X168242857Y-118117380D01*
X168147619Y-118069761D01*
X168100000Y-118022142D01*
X168052380Y-117926904D01*
X168052380Y-117641190D01*
X168100000Y-117545952D01*
X168147619Y-117498333D01*
X168242857Y-117450714D01*
X168433333Y-117450714D01*
X168528571Y-117498333D01*
X169004761Y-118117380D02*
X169004761Y-117117380D01*
X169100000Y-117736428D02*
X169385714Y-118117380D01*
X169385714Y-117450714D02*
X169004761Y-117831666D01*
D11*
X129966666Y-102633333D02*
X128966666Y-102633333D01*
X128766666Y-102566666D01*
X128633333Y-102433333D01*
X128566666Y-102233333D01*
X128566666Y-102100000D01*
X128566666Y-103966666D02*
X128566666Y-103300000D01*
X129966666Y-103300000D01*
X128700000Y-105233333D02*
X128633333Y-105166666D01*
X128566666Y-104966666D01*
X128566666Y-104833333D01*
X128633333Y-104633333D01*
X128766666Y-104500000D01*
X128900000Y-104433333D01*
X129166666Y-104366666D01*
X129366666Y-104366666D01*
X129633333Y-104433333D01*
X129766666Y-104500000D01*
X129900000Y-104633333D01*
X129966666Y-104833333D01*
X129966666Y-104966666D01*
X129900000Y-105166666D01*
X129833333Y-105233333D01*
X129966666Y-106233333D02*
X128966666Y-106233333D01*
X128766666Y-106166666D01*
X128633333Y-106033333D01*
X128566666Y-105833333D01*
X128566666Y-105700000D01*
X128566666Y-107566666D02*
X128566666Y-106900000D01*
X129966666Y-106900000D01*
X128700000Y-108833333D02*
X128633333Y-108766666D01*
X128566666Y-108566666D01*
X128566666Y-108433333D01*
X128633333Y-108233333D01*
X128766666Y-108100000D01*
X128900000Y-108033333D01*
X129166666Y-107966666D01*
X129366666Y-107966666D01*
X129633333Y-108033333D01*
X129766666Y-108100000D01*
X129900000Y-108233333D01*
X129966666Y-108433333D01*
X129966666Y-108566666D01*
X129900000Y-108766666D01*
X129833333Y-108833333D01*
X129966666Y-109833333D02*
X128966666Y-109833333D01*
X128766666Y-109766666D01*
X128633333Y-109633333D01*
X128566666Y-109433333D01*
X128566666Y-109300000D01*
X128566666Y-111166666D02*
X128566666Y-110500000D01*
X129966666Y-110500000D01*
X128700000Y-112433333D02*
X128633333Y-112366666D01*
X128566666Y-112166666D01*
X128566666Y-112033333D01*
X128633333Y-111833333D01*
X128766666Y-111700000D01*
X128900000Y-111633333D01*
X129166666Y-111566666D01*
X129366666Y-111566666D01*
X129633333Y-111633333D01*
X129766666Y-111700000D01*
X129900000Y-111833333D01*
X129966666Y-112033333D01*
X129966666Y-112166666D01*
X129900000Y-112366666D01*
X129833333Y-112433333D01*
X129966666Y-113433333D02*
X128966666Y-113433333D01*
X128766666Y-113366666D01*
X128633333Y-113233333D01*
X128566666Y-113033333D01*
X128566666Y-112900000D01*
X128566666Y-114766666D02*
X128566666Y-114100000D01*
X129966666Y-114100000D01*
X128700000Y-116033333D02*
X128633333Y-115966666D01*
X128566666Y-115766666D01*
X128566666Y-115633333D01*
X128633333Y-115433333D01*
X128766666Y-115300000D01*
X128900000Y-115233333D01*
X129166666Y-115166666D01*
X129366666Y-115166666D01*
X129633333Y-115233333D01*
X129766666Y-115300000D01*
X129900000Y-115433333D01*
X129966666Y-115633333D01*
X129966666Y-115766666D01*
X129900000Y-115966666D01*
X129833333Y-116033333D01*
D12*
%TO.C,J3*%
X174300000Y-84900000D02*
X174300000Y-114900000D01*
X166500000Y-84900000D02*
X175000000Y-84900000D01*
X166500000Y-114900000D02*
X166500000Y-84900000D01*
X175000000Y-114900000D02*
X166500000Y-114900000D01*
X175000000Y-84900000D02*
X175000000Y-114900000D01*
X167800002Y-109900000D02*
G75*
G02*
X167800002Y-104900000I2499998J2500000D01*
G01*
X167800001Y-114899999D02*
G75*
G02*
X167800001Y-109900001I2499999J2499999D01*
G01*
X167800002Y-89900000D02*
G75*
G02*
X167800001Y-84900001I2499998J2500000D01*
G01*
X167800002Y-94900000D02*
G75*
G02*
X167800001Y-89900001I2499998J2500000D01*
G01*
X167800001Y-99899999D02*
G75*
G02*
X167800001Y-94900001I2499999J2499999D01*
G01*
X167800001Y-104899999D02*
G75*
G02*
X167800001Y-99900001I2499999J2499999D01*
G01*
%TO.C,L5*%
X151400000Y-81300000D02*
X152500000Y-81300000D01*
X151400000Y-85700000D02*
X151400000Y-81300000D01*
X152500000Y-85700000D02*
X151400000Y-85700000D01*
X155600000Y-85700000D02*
X154500000Y-85700000D01*
X155600000Y-81300000D02*
X155600000Y-85700000D01*
X154500000Y-81300000D02*
X155600000Y-81300000D01*
D13*
%TO.C,J1*%
X123000000Y-116650000D02*
X123000000Y-101650000D01*
D12*
X123000000Y-116650000D02*
X125200000Y-116650000D01*
X127800000Y-116650000D02*
X130700000Y-116650000D01*
X123000000Y-101650000D02*
X125200000Y-101650000D01*
X127800000Y-101650000D02*
X130700000Y-101650000D01*
X134200000Y-116450000D02*
X134200000Y-114050000D01*
X134200000Y-101950000D02*
X134200000Y-104250000D01*
%TO.C,J2*%
X124035000Y-91930000D02*
X124035000Y-82770000D01*
X124035000Y-82770000D02*
X125740000Y-82770000D01*
X125740000Y-91930000D02*
X124035000Y-91930000D01*
X127750000Y-91930000D02*
X129670000Y-91930000D01*
X129670000Y-82770000D02*
X127750000Y-82770000D01*
%TO.C,R9*%
X134880000Y-95146359D02*
X134880000Y-95453641D01*
X134120000Y-95146359D02*
X134120000Y-95453641D01*
%TO.C,U6*%
X154400000Y-87840000D02*
X151950000Y-87840000D01*
X152600000Y-91060000D02*
X154400000Y-91060000D01*
%TO.C,C26*%
X153640580Y-87410000D02*
X153359420Y-87410000D01*
X153640580Y-86390000D02*
X153359420Y-86390000D01*
%TO.C,U4*%
X149360000Y-91030000D02*
X149360000Y-90100000D01*
X149360000Y-87870000D02*
X149360000Y-88800000D01*
X149360000Y-87870000D02*
X147200000Y-87870000D01*
X149360000Y-91030000D02*
X147900000Y-91030000D01*
%TO.C,C16*%
X148338748Y-92935000D02*
X148861252Y-92935000D01*
X148338748Y-91465000D02*
X148861252Y-91465000D01*
%TO.C,C28*%
X157278748Y-84555000D02*
X157801252Y-84555000D01*
X157278748Y-83085000D02*
X157801252Y-83085000D01*
%TO.C,R2*%
X133683641Y-89270000D02*
X133376359Y-89270000D01*
X133683641Y-90030000D02*
X133376359Y-90030000D01*
%TO.C,R10*%
X127066359Y-94460000D02*
X127373641Y-94460000D01*
X127066359Y-93700000D02*
X127373641Y-93700000D01*
%TO.C,C1*%
X155665000Y-95640580D02*
X155665000Y-95359420D01*
X156685000Y-95640580D02*
X156685000Y-95359420D01*
%TO.C,C2*%
X155665000Y-104359420D02*
X155665000Y-104640580D01*
X156685000Y-104359420D02*
X156685000Y-104640580D01*
%TO.C,C3*%
X156685000Y-98640580D02*
X156685000Y-98359420D01*
X155665000Y-98640580D02*
X155665000Y-98359420D01*
%TO.C,C4*%
X156685000Y-101359420D02*
X156685000Y-101640580D01*
X155665000Y-101359420D02*
X155665000Y-101640580D01*
%TO.C,C5*%
X166185000Y-87938748D02*
X166185000Y-88461252D01*
X164715000Y-87938748D02*
X164715000Y-88461252D01*
%TO.C,C6*%
X166185000Y-91901252D02*
X166185000Y-91378748D01*
X164715000Y-91901252D02*
X164715000Y-91378748D01*
%TO.C,C7*%
X166185000Y-108541252D02*
X166185000Y-108018748D01*
X164715000Y-108541252D02*
X164715000Y-108018748D01*
%TO.C,C8*%
X166185000Y-111458748D02*
X166185000Y-111981252D01*
X164715000Y-111458748D02*
X164715000Y-111981252D01*
%TO.C,U2*%
X142190000Y-107990000D02*
X139880000Y-107990000D01*
X139880000Y-107990000D02*
X139880000Y-108265000D01*
X142190000Y-107990000D02*
X144500000Y-107990000D01*
X144500000Y-107990000D02*
X144500000Y-108265000D01*
X142190000Y-117910000D02*
X139880000Y-117910000D01*
X139880000Y-117910000D02*
X139880000Y-117635000D01*
X142190000Y-117910000D02*
X144500000Y-117910000D01*
X144500000Y-117910000D02*
X144500000Y-117635000D01*
X144500000Y-117635000D02*
X145790000Y-117635000D01*
%TO.C,U3*%
X141640000Y-83965000D02*
X139440000Y-83965000D01*
X141640000Y-83965000D02*
X143840000Y-83965000D01*
X141640000Y-90735000D02*
X139440000Y-90735000D01*
X141640000Y-90735000D02*
X145240000Y-90735000D01*
%TO.C,C9*%
X153028080Y-93595000D02*
X152746920Y-93595000D01*
X153028080Y-94615000D02*
X152746920Y-94615000D01*
%TO.C,C10*%
X153028080Y-106405000D02*
X152746920Y-106405000D01*
X153028080Y-105385000D02*
X152746920Y-105385000D01*
%TO.C,C11*%
X162861252Y-99265000D02*
X162338748Y-99265000D01*
X162861252Y-100735000D02*
X162338748Y-100735000D01*
%TO.C,C12*%
X159061252Y-100735000D02*
X158538748Y-100735000D01*
X159061252Y-99265000D02*
X158538748Y-99265000D01*
%TO.C,Q2*%
X137020000Y-97100000D02*
X137020000Y-95400000D01*
X140220000Y-97100000D02*
X140220000Y-94500000D01*
%TO.C,U5*%
X139100000Y-105930000D02*
X140900000Y-105930000D01*
X140900000Y-102710000D02*
X138450000Y-102710000D01*
%TO.C,Q1*%
X128830000Y-95500000D02*
X127900000Y-95500000D01*
X125670000Y-95500000D02*
X126600000Y-95500000D01*
X125670000Y-95500000D02*
X125670000Y-97660000D01*
X128830000Y-95500000D02*
X128830000Y-96960000D01*
%TO.C,C17*%
X137960000Y-101412164D02*
X137960000Y-101627836D01*
X137240000Y-101412164D02*
X137240000Y-101627836D01*
%TO.C,C18*%
X140527836Y-101660000D02*
X140312164Y-101660000D01*
X140527836Y-102380000D02*
X140312164Y-102380000D01*
%TO.C,R1*%
X133683641Y-85430000D02*
X133376359Y-85430000D01*
X133683641Y-84670000D02*
X133376359Y-84670000D01*
%TO.C,R3*%
X137980000Y-104166359D02*
X137980000Y-104473641D01*
X137220000Y-104166359D02*
X137220000Y-104473641D01*
%TO.C,R4*%
X138980000Y-101673641D02*
X138980000Y-101366359D01*
X138220000Y-101673641D02*
X138220000Y-101366359D01*
%TO.C,R5*%
X140563641Y-101400000D02*
X140256359Y-101400000D01*
X140563641Y-100640000D02*
X140256359Y-100640000D01*
%TO.C,R6*%
X139243641Y-106260000D02*
X138936359Y-106260000D01*
X139243641Y-107020000D02*
X138936359Y-107020000D01*
%TO.C,R7*%
X137220000Y-106383641D02*
X137220000Y-106076359D01*
X137980000Y-106383641D02*
X137980000Y-106076359D01*
%TO.C,R8*%
X134120000Y-97046359D02*
X134120000Y-97353641D01*
X134880000Y-97046359D02*
X134880000Y-97353641D01*
%TO.C,R11*%
X133530000Y-97353641D02*
X133530000Y-97046359D01*
X132770000Y-97353641D02*
X132770000Y-97046359D01*
%TO.C,R12*%
X133530000Y-95146359D02*
X133530000Y-95453641D01*
X132770000Y-95146359D02*
X132770000Y-95453641D01*
%TO.C,R13*%
X136020000Y-97363641D02*
X136020000Y-97056359D01*
X136780000Y-97363641D02*
X136780000Y-97056359D01*
%TO.C,R14*%
X136020000Y-95156359D02*
X136020000Y-95463641D01*
X136780000Y-95156359D02*
X136780000Y-95463641D01*
%TO.C,C20*%
X145289420Y-96695000D02*
X145570580Y-96695000D01*
X145289420Y-95675000D02*
X145570580Y-95675000D01*
%TO.C,C21*%
X145289420Y-97450000D02*
X145570580Y-97450000D01*
X145289420Y-98470000D02*
X145570580Y-98470000D01*
%TO.C,C22*%
X148570580Y-106390000D02*
X148289420Y-106390000D01*
X148570580Y-105370000D02*
X148289420Y-105370000D01*
%TO.C,R17*%
X137256359Y-116255000D02*
X137563641Y-116255000D01*
X137256359Y-115495000D02*
X137563641Y-115495000D01*
%TO.C,R18*%
X137236359Y-112570000D02*
X137543641Y-112570000D01*
X137236359Y-113330000D02*
X137543641Y-113330000D01*
%TO.C,C19*%
X137497836Y-112335000D02*
X137282164Y-112335000D01*
X137497836Y-111615000D02*
X137282164Y-111615000D01*
%TO.C,C23*%
X137497836Y-113565000D02*
X137282164Y-113565000D01*
X137497836Y-114285000D02*
X137282164Y-114285000D01*
%TO.C,C25*%
X153228748Y-91535000D02*
X153751252Y-91535000D01*
X153228748Y-93005000D02*
X153751252Y-93005000D01*
%TO.C,D1*%
X149370000Y-85000000D02*
X149370000Y-82450000D01*
X151070000Y-85000000D02*
X151070000Y-82450000D01*
X149370000Y-85000000D02*
X151070000Y-85000000D01*
%TO.C,R20*%
X155530000Y-90553641D02*
X155530000Y-90246359D01*
X156290000Y-90553641D02*
X156290000Y-90246359D01*
%TO.C,R21*%
X156290000Y-88653641D02*
X156290000Y-88346359D01*
X155530000Y-88653641D02*
X155530000Y-88346359D01*
%TO.C,C13*%
X164715000Y-104238748D02*
X164715000Y-104761252D01*
X166185000Y-104238748D02*
X166185000Y-104761252D01*
%TO.C,C29*%
X164765000Y-95761252D02*
X164765000Y-95238748D01*
X166235000Y-95761252D02*
X166235000Y-95238748D01*
%TO.C,C30*%
X164715000Y-99738748D02*
X164715000Y-100261252D01*
X166185000Y-99738748D02*
X166185000Y-100261252D01*
%TO.C,C15*%
X146900000Y-114357836D02*
X146900000Y-114142164D01*
X146180000Y-114357836D02*
X146180000Y-114142164D01*
%TO.C,C31*%
X136930000Y-87302836D02*
X136930000Y-87087164D01*
X137650000Y-87302836D02*
X137650000Y-87087164D01*
%TO.C,C32*%
X137497836Y-114530000D02*
X137282164Y-114530000D01*
X137497836Y-115250000D02*
X137282164Y-115250000D01*
%TO.C,C33*%
X145615000Y-87182836D02*
X145615000Y-86967164D01*
X146335000Y-87182836D02*
X146335000Y-86967164D01*
%TO.C,C34*%
X142770000Y-103712164D02*
X142770000Y-103927836D01*
X142050000Y-103712164D02*
X142050000Y-103927836D01*
%TO.C,C27*%
X157278748Y-82565000D02*
X157801252Y-82565000D01*
X157278748Y-81095000D02*
X157801252Y-81095000D01*
%TO.C,U7*%
X129240000Y-95350000D02*
X129240000Y-97800000D01*
X132460000Y-97150000D02*
X132460000Y-95350000D01*
%TO.C,U8*%
X135400000Y-85740000D02*
X133600000Y-85740000D01*
X133600000Y-88960000D02*
X136050000Y-88960000D01*
%TO.C,C14*%
X130729420Y-93070000D02*
X131010580Y-93070000D01*
X130729420Y-94090000D02*
X131010580Y-94090000D01*
%TO.C,J4*%
X145510000Y-83370000D02*
X145510000Y-82567530D01*
X145510000Y-81952470D02*
X145510000Y-81150000D01*
X139225000Y-83370000D02*
X145510000Y-83370000D01*
X139225000Y-81150000D02*
X145510000Y-81150000D01*
X139225000Y-83370000D02*
X139225000Y-82823471D01*
X139225000Y-81696529D02*
X139225000Y-81150000D01*
X138465000Y-83370000D02*
X137705000Y-83370000D01*
X137705000Y-83370000D02*
X137705000Y-82260000D01*
%TO.C,C35*%
X148740580Y-86440000D02*
X148459420Y-86440000D01*
X148740580Y-87460000D02*
X148459420Y-87460000D01*
%TO.C,C24*%
X145615000Y-88817164D02*
X145615000Y-89032836D01*
X146335000Y-88817164D02*
X146335000Y-89032836D01*
%TO.C,C36*%
X154985000Y-108225000D02*
X153985000Y-108225000D01*
X154485000Y-107725000D02*
X154485000Y-108725000D01*
X149079437Y-108965000D02*
X148015000Y-110029437D01*
X155470563Y-108965000D02*
X156535000Y-110029437D01*
X155470563Y-108965000D02*
X153485000Y-108965000D01*
X149079437Y-108965000D02*
X151065000Y-108965000D01*
X148015000Y-110029437D02*
X148015000Y-117485000D01*
X156535000Y-110029437D02*
X156535000Y-117485000D01*
X156535000Y-117485000D02*
X153485000Y-117485000D01*
X148015000Y-117485000D02*
X151065000Y-117485000D01*
D14*
%TO.C,D2*%
X132510000Y-82150000D02*
G75*
G03*
X132510000Y-82150000I-50000J0D01*
G01*
%TO.C,D3*%
X132510000Y-83125000D02*
G75*
G03*
X132510000Y-83125000I-50000J0D01*
G01*
D12*
%TO.C,R19*%
X135603641Y-82530000D02*
X135296359Y-82530000D01*
X135603641Y-81770000D02*
X135296359Y-81770000D01*
%TO.C,R22*%
X135603641Y-83505000D02*
X135296359Y-83505000D01*
X135603641Y-82745000D02*
X135296359Y-82745000D01*
D10*
%TO.C,U1*%
X148475000Y-95250000D02*
X147400000Y-95250000D01*
X148475000Y-105025800D02*
X153125000Y-105025800D01*
X148475000Y-95025000D02*
X153125000Y-95025000D01*
X148475000Y-105025800D02*
X148475000Y-104700800D01*
X153125000Y-105025800D02*
X153125000Y-104700800D01*
X153125000Y-95025000D02*
X153125000Y-95350000D01*
X148475000Y-95025000D02*
X148475000Y-95250000D01*
D12*
%TO.C,L1*%
X164000000Y-89900000D02*
X164000000Y-91600000D01*
X164000000Y-91600000D02*
X157400000Y-91600000D01*
X157400000Y-91600000D02*
X157400000Y-89900000D01*
X157400000Y-86900000D02*
X157400000Y-85200000D01*
X157400000Y-85200000D02*
X164000000Y-85200000D01*
X164000000Y-85200000D02*
X164000000Y-86900000D01*
%TO.C,L2*%
X164000000Y-108400000D02*
X164000000Y-110100000D01*
X157400000Y-108400000D02*
X164000000Y-108400000D01*
X157400000Y-110100000D02*
X157400000Y-108400000D01*
X157400000Y-114800000D02*
X157400000Y-113100000D01*
X164000000Y-114800000D02*
X157400000Y-114800000D01*
X164000000Y-113100000D02*
X164000000Y-114800000D01*
%TO.C,L3*%
X164000000Y-92300000D02*
X164000000Y-94000000D01*
X157400000Y-92300000D02*
X164000000Y-92300000D01*
X157400000Y-94000000D02*
X157400000Y-92300000D01*
X157400000Y-98700000D02*
X157400000Y-97000000D01*
X164000000Y-98700000D02*
X157400000Y-98700000D01*
X164000000Y-97000000D02*
X164000000Y-98700000D01*
%TO.C,L4*%
X164000000Y-106000000D02*
X164000000Y-107700000D01*
X164000000Y-107700000D02*
X157400000Y-107700000D01*
X157400000Y-107700000D02*
X157400000Y-106000000D01*
X157400000Y-103000000D02*
X157400000Y-101300000D01*
X157400000Y-101300000D02*
X164000000Y-101300000D01*
X164000000Y-101300000D02*
X164000000Y-103000000D01*
%TO.C,R23*%
X145600000Y-103693641D02*
X145600000Y-103386359D01*
X146360000Y-103693641D02*
X146360000Y-103386359D01*
%TO.C,R24*%
X150393641Y-81760000D02*
X150086359Y-81760000D01*
X150393641Y-81000000D02*
X150086359Y-81000000D01*
%TO.C,R25*%
X148196359Y-81760000D02*
X148503641Y-81760000D01*
X148196359Y-81000000D02*
X148503641Y-81000000D01*
%TO.C,D4*%
X129150000Y-81910000D02*
X126600000Y-81910000D01*
X129150000Y-80210000D02*
X126600000Y-80210000D01*
X129150000Y-81910000D02*
X129150000Y-80210000D01*
%TO.C,D5*%
X147050000Y-85000000D02*
X148750000Y-85000000D01*
X148750000Y-85000000D02*
X148750000Y-82450000D01*
X147050000Y-85000000D02*
X147050000Y-82450000D01*
%TO.C,R15*%
X145583641Y-93810000D02*
X145276359Y-93810000D01*
X145583641Y-94570000D02*
X145276359Y-94570000D01*
%TO.C,C37*%
X141077836Y-107000000D02*
X140862164Y-107000000D01*
X141077836Y-106280000D02*
X140862164Y-106280000D01*
%TO.C,J3*%
D10*
X169466666Y-83627380D02*
X169466666Y-84341666D01*
X169419047Y-84484523D01*
X169323809Y-84579761D01*
X169180952Y-84627380D01*
X169085714Y-84627380D01*
X169847619Y-83627380D02*
X170466666Y-83627380D01*
X170133333Y-84008333D01*
X170276190Y-84008333D01*
X170371428Y-84055952D01*
X170419047Y-84103571D01*
X170466666Y-84198809D01*
X170466666Y-84436904D01*
X170419047Y-84532142D01*
X170371428Y-84579761D01*
X170276190Y-84627380D01*
X169990476Y-84627380D01*
X169895238Y-84579761D01*
X169847619Y-84532142D01*
%TO.C,L5*%
X153400000Y-80711428D02*
X153114285Y-80711428D01*
X153114285Y-80111428D01*
X153885714Y-80111428D02*
X153600000Y-80111428D01*
X153571428Y-80397142D01*
X153600000Y-80368571D01*
X153657142Y-80340000D01*
X153800000Y-80340000D01*
X153857142Y-80368571D01*
X153885714Y-80397142D01*
X153914285Y-80454285D01*
X153914285Y-80597142D01*
X153885714Y-80654285D01*
X153857142Y-80682857D01*
X153800000Y-80711428D01*
X153657142Y-80711428D01*
X153600000Y-80682857D01*
X153571428Y-80654285D01*
%TO.C,J1*%
X129250000Y-117489285D02*
X129250000Y-118025000D01*
X129214285Y-118132142D01*
X129142857Y-118203571D01*
X129035714Y-118239285D01*
X128964285Y-118239285D01*
X130000000Y-118239285D02*
X129571428Y-118239285D01*
X129785714Y-118239285D02*
X129785714Y-117489285D01*
X129714285Y-117596428D01*
X129642857Y-117667857D01*
X129571428Y-117703571D01*
%TO.C,J2*%
X127575000Y-81114285D02*
X127575000Y-81650000D01*
X127539285Y-81757142D01*
X127467857Y-81828571D01*
X127360714Y-81864285D01*
X127289285Y-81864285D01*
X127896428Y-81185714D02*
X127932142Y-81150000D01*
X128003571Y-81114285D01*
X128182142Y-81114285D01*
X128253571Y-81150000D01*
X128289285Y-81185714D01*
X128325000Y-81257142D01*
X128325000Y-81328571D01*
X128289285Y-81435714D01*
X127860714Y-81864285D01*
X128325000Y-81864285D01*
%TO.C,R9*%
X135814285Y-95425000D02*
X135457142Y-95675000D01*
X135814285Y-95853571D02*
X135064285Y-95853571D01*
X135064285Y-95567857D01*
X135100000Y-95496428D01*
X135135714Y-95460714D01*
X135207142Y-95425000D01*
X135314285Y-95425000D01*
X135385714Y-95460714D01*
X135421428Y-95496428D01*
X135457142Y-95567857D01*
X135457142Y-95853571D01*
X135814285Y-95067857D02*
X135814285Y-94925000D01*
X135778571Y-94853571D01*
X135742857Y-94817857D01*
X135635714Y-94746428D01*
X135492857Y-94710714D01*
X135207142Y-94710714D01*
X135135714Y-94746428D01*
X135100000Y-94782142D01*
X135064285Y-94853571D01*
X135064285Y-94996428D01*
X135100000Y-95067857D01*
X135135714Y-95103571D01*
X135207142Y-95139285D01*
X135385714Y-95139285D01*
X135457142Y-95103571D01*
X135492857Y-95067857D01*
X135528571Y-94996428D01*
X135528571Y-94853571D01*
X135492857Y-94782142D01*
X135457142Y-94746428D01*
X135385714Y-94710714D01*
%TO.C,U6*%
X150714285Y-90021428D02*
X151321428Y-90021428D01*
X151392857Y-89985714D01*
X151428571Y-89950000D01*
X151464285Y-89878571D01*
X151464285Y-89735714D01*
X151428571Y-89664285D01*
X151392857Y-89628571D01*
X151321428Y-89592857D01*
X150714285Y-89592857D01*
X150714285Y-88914285D02*
X150714285Y-89057142D01*
X150750000Y-89128571D01*
X150785714Y-89164285D01*
X150892857Y-89235714D01*
X151035714Y-89271428D01*
X151321428Y-89271428D01*
X151392857Y-89235714D01*
X151428571Y-89200000D01*
X151464285Y-89128571D01*
X151464285Y-88985714D01*
X151428571Y-88914285D01*
X151392857Y-88878571D01*
X151321428Y-88842857D01*
X151142857Y-88842857D01*
X151071428Y-88878571D01*
X151035714Y-88914285D01*
X151000000Y-88985714D01*
X151000000Y-89128571D01*
X151035714Y-89200000D01*
X151071428Y-89235714D01*
X151142857Y-89271428D01*
%TO.C,C26*%
X155417857Y-87192857D02*
X155382142Y-87228571D01*
X155275000Y-87264285D01*
X155203571Y-87264285D01*
X155096428Y-87228571D01*
X155025000Y-87157142D01*
X154989285Y-87085714D01*
X154953571Y-86942857D01*
X154953571Y-86835714D01*
X154989285Y-86692857D01*
X155025000Y-86621428D01*
X155096428Y-86550000D01*
X155203571Y-86514285D01*
X155275000Y-86514285D01*
X155382142Y-86550000D01*
X155417857Y-86585714D01*
X155703571Y-86585714D02*
X155739285Y-86550000D01*
X155810714Y-86514285D01*
X155989285Y-86514285D01*
X156060714Y-86550000D01*
X156096428Y-86585714D01*
X156132142Y-86657142D01*
X156132142Y-86728571D01*
X156096428Y-86835714D01*
X155667857Y-87264285D01*
X156132142Y-87264285D01*
X156775000Y-86514285D02*
X156632142Y-86514285D01*
X156560714Y-86550000D01*
X156525000Y-86585714D01*
X156453571Y-86692857D01*
X156417857Y-86835714D01*
X156417857Y-87121428D01*
X156453571Y-87192857D01*
X156489285Y-87228571D01*
X156560714Y-87264285D01*
X156703571Y-87264285D01*
X156775000Y-87228571D01*
X156810714Y-87192857D01*
X156846428Y-87121428D01*
X156846428Y-86942857D01*
X156810714Y-86871428D01*
X156775000Y-86835714D01*
X156703571Y-86800000D01*
X156560714Y-86800000D01*
X156489285Y-86835714D01*
X156453571Y-86871428D01*
X156417857Y-86942857D01*
%TO.C,U4*%
X150464285Y-88271428D02*
X151071428Y-88271428D01*
X151142857Y-88235714D01*
X151178571Y-88200000D01*
X151214285Y-88128571D01*
X151214285Y-87985714D01*
X151178571Y-87914285D01*
X151142857Y-87878571D01*
X151071428Y-87842857D01*
X150464285Y-87842857D01*
X150714285Y-87164285D02*
X151214285Y-87164285D01*
X150428571Y-87342857D02*
X150964285Y-87521428D01*
X150964285Y-87057142D01*
%TO.C,C16*%
X145357857Y-92457857D02*
X145322142Y-92493571D01*
X145215000Y-92529285D01*
X145143571Y-92529285D01*
X145036428Y-92493571D01*
X144965000Y-92422142D01*
X144929285Y-92350714D01*
X144893571Y-92207857D01*
X144893571Y-92100714D01*
X144929285Y-91957857D01*
X144965000Y-91886428D01*
X145036428Y-91815000D01*
X145143571Y-91779285D01*
X145215000Y-91779285D01*
X145322142Y-91815000D01*
X145357857Y-91850714D01*
X146072142Y-92529285D02*
X145643571Y-92529285D01*
X145857857Y-92529285D02*
X145857857Y-91779285D01*
X145786428Y-91886428D01*
X145715000Y-91957857D01*
X145643571Y-91993571D01*
X146715000Y-91779285D02*
X146572142Y-91779285D01*
X146500714Y-91815000D01*
X146465000Y-91850714D01*
X146393571Y-91957857D01*
X146357857Y-92100714D01*
X146357857Y-92386428D01*
X146393571Y-92457857D01*
X146429285Y-92493571D01*
X146500714Y-92529285D01*
X146643571Y-92529285D01*
X146715000Y-92493571D01*
X146750714Y-92457857D01*
X146786428Y-92386428D01*
X146786428Y-92207857D01*
X146750714Y-92136428D01*
X146715000Y-92100714D01*
X146643571Y-92065000D01*
X146500714Y-92065000D01*
X146429285Y-92100714D01*
X146393571Y-92136428D01*
X146357857Y-92207857D01*
%TO.C,C28*%
X160377857Y-84087857D02*
X160342142Y-84123571D01*
X160235000Y-84159285D01*
X160163571Y-84159285D01*
X160056428Y-84123571D01*
X159985000Y-84052142D01*
X159949285Y-83980714D01*
X159913571Y-83837857D01*
X159913571Y-83730714D01*
X159949285Y-83587857D01*
X159985000Y-83516428D01*
X160056428Y-83445000D01*
X160163571Y-83409285D01*
X160235000Y-83409285D01*
X160342142Y-83445000D01*
X160377857Y-83480714D01*
X160663571Y-83480714D02*
X160699285Y-83445000D01*
X160770714Y-83409285D01*
X160949285Y-83409285D01*
X161020714Y-83445000D01*
X161056428Y-83480714D01*
X161092142Y-83552142D01*
X161092142Y-83623571D01*
X161056428Y-83730714D01*
X160627857Y-84159285D01*
X161092142Y-84159285D01*
X161520714Y-83730714D02*
X161449285Y-83695000D01*
X161413571Y-83659285D01*
X161377857Y-83587857D01*
X161377857Y-83552142D01*
X161413571Y-83480714D01*
X161449285Y-83445000D01*
X161520714Y-83409285D01*
X161663571Y-83409285D01*
X161735000Y-83445000D01*
X161770714Y-83480714D01*
X161806428Y-83552142D01*
X161806428Y-83587857D01*
X161770714Y-83659285D01*
X161735000Y-83695000D01*
X161663571Y-83730714D01*
X161520714Y-83730714D01*
X161449285Y-83766428D01*
X161413571Y-83802142D01*
X161377857Y-83873571D01*
X161377857Y-84016428D01*
X161413571Y-84087857D01*
X161449285Y-84123571D01*
X161520714Y-84159285D01*
X161663571Y-84159285D01*
X161735000Y-84123571D01*
X161770714Y-84087857D01*
X161806428Y-84016428D01*
X161806428Y-83873571D01*
X161770714Y-83802142D01*
X161735000Y-83766428D01*
X161663571Y-83730714D01*
%TO.C,R2*%
X133400000Y-91014285D02*
X133150000Y-90657142D01*
X132971428Y-91014285D02*
X132971428Y-90264285D01*
X133257142Y-90264285D01*
X133328571Y-90300000D01*
X133364285Y-90335714D01*
X133400000Y-90407142D01*
X133400000Y-90514285D01*
X133364285Y-90585714D01*
X133328571Y-90621428D01*
X133257142Y-90657142D01*
X132971428Y-90657142D01*
X133685714Y-90335714D02*
X133721428Y-90300000D01*
X133792857Y-90264285D01*
X133971428Y-90264285D01*
X134042857Y-90300000D01*
X134078571Y-90335714D01*
X134114285Y-90407142D01*
X134114285Y-90478571D01*
X134078571Y-90585714D01*
X133650000Y-91014285D01*
X134114285Y-91014285D01*
%TO.C,R10*%
X126742857Y-93514285D02*
X126492857Y-93157142D01*
X126314285Y-93514285D02*
X126314285Y-92764285D01*
X126600000Y-92764285D01*
X126671428Y-92800000D01*
X126707142Y-92835714D01*
X126742857Y-92907142D01*
X126742857Y-93014285D01*
X126707142Y-93085714D01*
X126671428Y-93121428D01*
X126600000Y-93157142D01*
X126314285Y-93157142D01*
X127457142Y-93514285D02*
X127028571Y-93514285D01*
X127242857Y-93514285D02*
X127242857Y-92764285D01*
X127171428Y-92871428D01*
X127100000Y-92942857D01*
X127028571Y-92978571D01*
X127921428Y-92764285D02*
X127992857Y-92764285D01*
X128064285Y-92800000D01*
X128100000Y-92835714D01*
X128135714Y-92907142D01*
X128171428Y-93050000D01*
X128171428Y-93228571D01*
X128135714Y-93371428D01*
X128100000Y-93442857D01*
X128064285Y-93478571D01*
X127992857Y-93514285D01*
X127921428Y-93514285D01*
X127850000Y-93478571D01*
X127814285Y-93442857D01*
X127778571Y-93371428D01*
X127742857Y-93228571D01*
X127742857Y-93050000D01*
X127778571Y-92907142D01*
X127814285Y-92835714D01*
X127850000Y-92800000D01*
X127921428Y-92764285D01*
%TO.C,C1*%
X155284285Y-95600000D02*
X155312857Y-95628571D01*
X155341428Y-95714285D01*
X155341428Y-95771428D01*
X155312857Y-95857142D01*
X155255714Y-95914285D01*
X155198571Y-95942857D01*
X155084285Y-95971428D01*
X154998571Y-95971428D01*
X154884285Y-95942857D01*
X154827142Y-95914285D01*
X154770000Y-95857142D01*
X154741428Y-95771428D01*
X154741428Y-95714285D01*
X154770000Y-95628571D01*
X154798571Y-95600000D01*
X155341428Y-95028571D02*
X155341428Y-95371428D01*
X155341428Y-95200000D02*
X154741428Y-95200000D01*
X154827142Y-95257142D01*
X154884285Y-95314285D01*
X154912857Y-95371428D01*
%TO.C,C2*%
X155294285Y-104600000D02*
X155322857Y-104628571D01*
X155351428Y-104714285D01*
X155351428Y-104771428D01*
X155322857Y-104857142D01*
X155265714Y-104914285D01*
X155208571Y-104942857D01*
X155094285Y-104971428D01*
X155008571Y-104971428D01*
X154894285Y-104942857D01*
X154837142Y-104914285D01*
X154780000Y-104857142D01*
X154751428Y-104771428D01*
X154751428Y-104714285D01*
X154780000Y-104628571D01*
X154808571Y-104600000D01*
X154808571Y-104371428D02*
X154780000Y-104342857D01*
X154751428Y-104285714D01*
X154751428Y-104142857D01*
X154780000Y-104085714D01*
X154808571Y-104057142D01*
X154865714Y-104028571D01*
X154922857Y-104028571D01*
X155008571Y-104057142D01*
X155351428Y-104400000D01*
X155351428Y-104028571D01*
%TO.C,C3*%
D15*
X155284285Y-98600000D02*
X155312857Y-98628571D01*
X155341428Y-98714285D01*
X155341428Y-98771428D01*
X155312857Y-98857142D01*
X155255714Y-98914285D01*
X155198571Y-98942857D01*
X155084285Y-98971428D01*
X154998571Y-98971428D01*
X154884285Y-98942857D01*
X154827142Y-98914285D01*
X154770000Y-98857142D01*
X154741428Y-98771428D01*
X154741428Y-98714285D01*
X154770000Y-98628571D01*
X154798571Y-98600000D01*
X154741428Y-98400000D02*
X154741428Y-98028571D01*
X154970000Y-98228571D01*
X154970000Y-98142857D01*
X154998571Y-98085714D01*
X155027142Y-98057142D01*
X155084285Y-98028571D01*
X155227142Y-98028571D01*
X155284285Y-98057142D01*
X155312857Y-98085714D01*
X155341428Y-98142857D01*
X155341428Y-98314285D01*
X155312857Y-98371428D01*
X155284285Y-98400000D01*
%TO.C,C4*%
D10*
X155304285Y-101600000D02*
X155332857Y-101628571D01*
X155361428Y-101714285D01*
X155361428Y-101771428D01*
X155332857Y-101857142D01*
X155275714Y-101914285D01*
X155218571Y-101942857D01*
X155104285Y-101971428D01*
X155018571Y-101971428D01*
X154904285Y-101942857D01*
X154847142Y-101914285D01*
X154790000Y-101857142D01*
X154761428Y-101771428D01*
X154761428Y-101714285D01*
X154790000Y-101628571D01*
X154818571Y-101600000D01*
X154961428Y-101085714D02*
X155361428Y-101085714D01*
X154732857Y-101228571D02*
X155161428Y-101371428D01*
X155161428Y-101000000D01*
%TO.C,C5*%
X168377142Y-88356666D02*
X168424761Y-88404285D01*
X168472380Y-88547142D01*
X168472380Y-88642380D01*
X168424761Y-88785238D01*
X168329523Y-88880476D01*
X168234285Y-88928095D01*
X168043809Y-88975714D01*
X167900952Y-88975714D01*
X167710476Y-88928095D01*
X167615238Y-88880476D01*
X167520000Y-88785238D01*
X167472380Y-88642380D01*
X167472380Y-88547142D01*
X167520000Y-88404285D01*
X167567619Y-88356666D01*
X167472380Y-87451904D02*
X167472380Y-87928095D01*
X167948571Y-87975714D01*
X167900952Y-87928095D01*
X167853333Y-87832857D01*
X167853333Y-87594761D01*
X167900952Y-87499523D01*
X167948571Y-87451904D01*
X168043809Y-87404285D01*
X168281904Y-87404285D01*
X168377142Y-87451904D01*
X168424761Y-87499523D01*
X168472380Y-87594761D01*
X168472380Y-87832857D01*
X168424761Y-87928095D01*
X168377142Y-87975714D01*
%TO.C,C6*%
X168497142Y-91826666D02*
X168544761Y-91874285D01*
X168592380Y-92017142D01*
X168592380Y-92112380D01*
X168544761Y-92255238D01*
X168449523Y-92350476D01*
X168354285Y-92398095D01*
X168163809Y-92445714D01*
X168020952Y-92445714D01*
X167830476Y-92398095D01*
X167735238Y-92350476D01*
X167640000Y-92255238D01*
X167592380Y-92112380D01*
X167592380Y-92017142D01*
X167640000Y-91874285D01*
X167687619Y-91826666D01*
X167592380Y-90969523D02*
X167592380Y-91160000D01*
X167640000Y-91255238D01*
X167687619Y-91302857D01*
X167830476Y-91398095D01*
X168020952Y-91445714D01*
X168401904Y-91445714D01*
X168497142Y-91398095D01*
X168544761Y-91350476D01*
X168592380Y-91255238D01*
X168592380Y-91064761D01*
X168544761Y-90969523D01*
X168497142Y-90921904D01*
X168401904Y-90874285D01*
X168163809Y-90874285D01*
X168068571Y-90921904D01*
X168020952Y-90969523D01*
X167973333Y-91064761D01*
X167973333Y-91255238D01*
X168020952Y-91350476D01*
X168068571Y-91398095D01*
X168163809Y-91445714D01*
%TO.C,C7*%
X168427142Y-108946666D02*
X168474761Y-108994285D01*
X168522380Y-109137142D01*
X168522380Y-109232380D01*
X168474761Y-109375238D01*
X168379523Y-109470476D01*
X168284285Y-109518095D01*
X168093809Y-109565714D01*
X167950952Y-109565714D01*
X167760476Y-109518095D01*
X167665238Y-109470476D01*
X167570000Y-109375238D01*
X167522380Y-109232380D01*
X167522380Y-109137142D01*
X167570000Y-108994285D01*
X167617619Y-108946666D01*
X167522380Y-108613333D02*
X167522380Y-107946666D01*
X168522380Y-108375238D01*
%TO.C,C8*%
X168357142Y-112386666D02*
X168404761Y-112434285D01*
X168452380Y-112577142D01*
X168452380Y-112672380D01*
X168404761Y-112815238D01*
X168309523Y-112910476D01*
X168214285Y-112958095D01*
X168023809Y-113005714D01*
X167880952Y-113005714D01*
X167690476Y-112958095D01*
X167595238Y-112910476D01*
X167500000Y-112815238D01*
X167452380Y-112672380D01*
X167452380Y-112577142D01*
X167500000Y-112434285D01*
X167547619Y-112386666D01*
X167880952Y-111815238D02*
X167833333Y-111910476D01*
X167785714Y-111958095D01*
X167690476Y-112005714D01*
X167642857Y-112005714D01*
X167547619Y-111958095D01*
X167500000Y-111910476D01*
X167452380Y-111815238D01*
X167452380Y-111624761D01*
X167500000Y-111529523D01*
X167547619Y-111481904D01*
X167642857Y-111434285D01*
X167690476Y-111434285D01*
X167785714Y-111481904D01*
X167833333Y-111529523D01*
X167880952Y-111624761D01*
X167880952Y-111815238D01*
X167928571Y-111910476D01*
X167976190Y-111958095D01*
X168071428Y-112005714D01*
X168261904Y-112005714D01*
X168357142Y-111958095D01*
X168404761Y-111910476D01*
X168452380Y-111815238D01*
X168452380Y-111624761D01*
X168404761Y-111529523D01*
X168357142Y-111481904D01*
X168261904Y-111434285D01*
X168071428Y-111434285D01*
X167976190Y-111481904D01*
X167928571Y-111529523D01*
X167880952Y-111624761D01*
%TO.C,U2*%
X141628571Y-118214285D02*
X141628571Y-118821428D01*
X141664285Y-118892857D01*
X141700000Y-118928571D01*
X141771428Y-118964285D01*
X141914285Y-118964285D01*
X141985714Y-118928571D01*
X142021428Y-118892857D01*
X142057142Y-118821428D01*
X142057142Y-118214285D01*
X142378571Y-118285714D02*
X142414285Y-118250000D01*
X142485714Y-118214285D01*
X142664285Y-118214285D01*
X142735714Y-118250000D01*
X142771428Y-118285714D01*
X142807142Y-118357142D01*
X142807142Y-118428571D01*
X142771428Y-118535714D01*
X142342857Y-118964285D01*
X142807142Y-118964285D01*
%TO.C,U3*%
X141068571Y-91014285D02*
X141068571Y-91621428D01*
X141104285Y-91692857D01*
X141140000Y-91728571D01*
X141211428Y-91764285D01*
X141354285Y-91764285D01*
X141425714Y-91728571D01*
X141461428Y-91692857D01*
X141497142Y-91621428D01*
X141497142Y-91014285D01*
X141782857Y-91014285D02*
X142247142Y-91014285D01*
X141997142Y-91300000D01*
X142104285Y-91300000D01*
X142175714Y-91335714D01*
X142211428Y-91371428D01*
X142247142Y-91442857D01*
X142247142Y-91621428D01*
X142211428Y-91692857D01*
X142175714Y-91728571D01*
X142104285Y-91764285D01*
X141890000Y-91764285D01*
X141818571Y-91728571D01*
X141782857Y-91692857D01*
%TO.C,C9*%
X150625000Y-94372857D02*
X150589285Y-94408571D01*
X150482142Y-94444285D01*
X150410714Y-94444285D01*
X150303571Y-94408571D01*
X150232142Y-94337142D01*
X150196428Y-94265714D01*
X150160714Y-94122857D01*
X150160714Y-94015714D01*
X150196428Y-93872857D01*
X150232142Y-93801428D01*
X150303571Y-93730000D01*
X150410714Y-93694285D01*
X150482142Y-93694285D01*
X150589285Y-93730000D01*
X150625000Y-93765714D01*
X150982142Y-94444285D02*
X151125000Y-94444285D01*
X151196428Y-94408571D01*
X151232142Y-94372857D01*
X151303571Y-94265714D01*
X151339285Y-94122857D01*
X151339285Y-93837142D01*
X151303571Y-93765714D01*
X151267857Y-93730000D01*
X151196428Y-93694285D01*
X151053571Y-93694285D01*
X150982142Y-93730000D01*
X150946428Y-93765714D01*
X150910714Y-93837142D01*
X150910714Y-94015714D01*
X150946428Y-94087142D01*
X150982142Y-94122857D01*
X151053571Y-94158571D01*
X151196428Y-94158571D01*
X151267857Y-94122857D01*
X151303571Y-94087142D01*
X151339285Y-94015714D01*
%TO.C,C10*%
X154017857Y-107437857D02*
X153982142Y-107473571D01*
X153875000Y-107509285D01*
X153803571Y-107509285D01*
X153696428Y-107473571D01*
X153625000Y-107402142D01*
X153589285Y-107330714D01*
X153553571Y-107187857D01*
X153553571Y-107080714D01*
X153589285Y-106937857D01*
X153625000Y-106866428D01*
X153696428Y-106795000D01*
X153803571Y-106759285D01*
X153875000Y-106759285D01*
X153982142Y-106795000D01*
X154017857Y-106830714D01*
X154732142Y-107509285D02*
X154303571Y-107509285D01*
X154517857Y-107509285D02*
X154517857Y-106759285D01*
X154446428Y-106866428D01*
X154375000Y-106937857D01*
X154303571Y-106973571D01*
X155196428Y-106759285D02*
X155267857Y-106759285D01*
X155339285Y-106795000D01*
X155375000Y-106830714D01*
X155410714Y-106902142D01*
X155446428Y-107045000D01*
X155446428Y-107223571D01*
X155410714Y-107366428D01*
X155375000Y-107437857D01*
X155339285Y-107473571D01*
X155267857Y-107509285D01*
X155196428Y-107509285D01*
X155125000Y-107473571D01*
X155089285Y-107437857D01*
X155053571Y-107366428D01*
X155017857Y-107223571D01*
X155017857Y-107045000D01*
X155053571Y-106902142D01*
X155089285Y-106830714D01*
X155125000Y-106795000D01*
X155196428Y-106759285D01*
%TO.C,C11*%
X161977142Y-102777142D02*
X161929523Y-102824761D01*
X161786666Y-102872380D01*
X161691428Y-102872380D01*
X161548571Y-102824761D01*
X161453333Y-102729523D01*
X161405714Y-102634285D01*
X161358095Y-102443809D01*
X161358095Y-102300952D01*
X161405714Y-102110476D01*
X161453333Y-102015238D01*
X161548571Y-101920000D01*
X161691428Y-101872380D01*
X161786666Y-101872380D01*
X161929523Y-101920000D01*
X161977142Y-101967619D01*
X162929523Y-102872380D02*
X162358095Y-102872380D01*
X162643809Y-102872380D02*
X162643809Y-101872380D01*
X162548571Y-102015238D01*
X162453333Y-102110476D01*
X162358095Y-102158095D01*
X163881904Y-102872380D02*
X163310476Y-102872380D01*
X163596190Y-102872380D02*
X163596190Y-101872380D01*
X163500952Y-102015238D01*
X163405714Y-102110476D01*
X163310476Y-102158095D01*
%TO.C,C12*%
X158247142Y-102857142D02*
X158199523Y-102904761D01*
X158056666Y-102952380D01*
X157961428Y-102952380D01*
X157818571Y-102904761D01*
X157723333Y-102809523D01*
X157675714Y-102714285D01*
X157628095Y-102523809D01*
X157628095Y-102380952D01*
X157675714Y-102190476D01*
X157723333Y-102095238D01*
X157818571Y-102000000D01*
X157961428Y-101952380D01*
X158056666Y-101952380D01*
X158199523Y-102000000D01*
X158247142Y-102047619D01*
X159199523Y-102952380D02*
X158628095Y-102952380D01*
X158913809Y-102952380D02*
X158913809Y-101952380D01*
X158818571Y-102095238D01*
X158723333Y-102190476D01*
X158628095Y-102238095D01*
X159580476Y-102047619D02*
X159628095Y-102000000D01*
X159723333Y-101952380D01*
X159961428Y-101952380D01*
X160056666Y-102000000D01*
X160104285Y-102047619D01*
X160151904Y-102142857D01*
X160151904Y-102238095D01*
X160104285Y-102380952D01*
X159532857Y-102952380D01*
X160151904Y-102952380D01*
%TO.C,Q2*%
X141285714Y-96321428D02*
X141250000Y-96392857D01*
X141178571Y-96464285D01*
X141071428Y-96571428D01*
X141035714Y-96642857D01*
X141035714Y-96714285D01*
X141214285Y-96678571D02*
X141178571Y-96750000D01*
X141107142Y-96821428D01*
X140964285Y-96857142D01*
X140714285Y-96857142D01*
X140571428Y-96821428D01*
X140500000Y-96750000D01*
X140464285Y-96678571D01*
X140464285Y-96535714D01*
X140500000Y-96464285D01*
X140571428Y-96392857D01*
X140714285Y-96357142D01*
X140964285Y-96357142D01*
X141107142Y-96392857D01*
X141178571Y-96464285D01*
X141214285Y-96535714D01*
X141214285Y-96678571D01*
X140535714Y-96071428D02*
X140500000Y-96035714D01*
X140464285Y-95964285D01*
X140464285Y-95785714D01*
X140500000Y-95714285D01*
X140535714Y-95678571D01*
X140607142Y-95642857D01*
X140678571Y-95642857D01*
X140785714Y-95678571D01*
X141214285Y-96107142D01*
X141214285Y-95642857D01*
%TO.C,U5*%
X142018571Y-105769285D02*
X142018571Y-106376428D01*
X142054285Y-106447857D01*
X142090000Y-106483571D01*
X142161428Y-106519285D01*
X142304285Y-106519285D01*
X142375714Y-106483571D01*
X142411428Y-106447857D01*
X142447142Y-106376428D01*
X142447142Y-105769285D01*
X143161428Y-105769285D02*
X142804285Y-105769285D01*
X142768571Y-106126428D01*
X142804285Y-106090714D01*
X142875714Y-106055000D01*
X143054285Y-106055000D01*
X143125714Y-106090714D01*
X143161428Y-106126428D01*
X143197142Y-106197857D01*
X143197142Y-106376428D01*
X143161428Y-106447857D01*
X143125714Y-106483571D01*
X143054285Y-106519285D01*
X142875714Y-106519285D01*
X142804285Y-106483571D01*
X142768571Y-106447857D01*
%TO.C,Q1*%
X127178571Y-98935714D02*
X127107142Y-98900000D01*
X127035714Y-98828571D01*
X126928571Y-98721428D01*
X126857142Y-98685714D01*
X126785714Y-98685714D01*
X126821428Y-98864285D02*
X126750000Y-98828571D01*
X126678571Y-98757142D01*
X126642857Y-98614285D01*
X126642857Y-98364285D01*
X126678571Y-98221428D01*
X126750000Y-98150000D01*
X126821428Y-98114285D01*
X126964285Y-98114285D01*
X127035714Y-98150000D01*
X127107142Y-98221428D01*
X127142857Y-98364285D01*
X127142857Y-98614285D01*
X127107142Y-98757142D01*
X127035714Y-98828571D01*
X126964285Y-98864285D01*
X126821428Y-98864285D01*
X127857142Y-98864285D02*
X127428571Y-98864285D01*
X127642857Y-98864285D02*
X127642857Y-98114285D01*
X127571428Y-98221428D01*
X127500000Y-98292857D01*
X127428571Y-98328571D01*
%TO.C,C17*%
X135542857Y-101787857D02*
X135507142Y-101823571D01*
X135400000Y-101859285D01*
X135328571Y-101859285D01*
X135221428Y-101823571D01*
X135150000Y-101752142D01*
X135114285Y-101680714D01*
X135078571Y-101537857D01*
X135078571Y-101430714D01*
X135114285Y-101287857D01*
X135150000Y-101216428D01*
X135221428Y-101145000D01*
X135328571Y-101109285D01*
X135400000Y-101109285D01*
X135507142Y-101145000D01*
X135542857Y-101180714D01*
X136257142Y-101859285D02*
X135828571Y-101859285D01*
X136042857Y-101859285D02*
X136042857Y-101109285D01*
X135971428Y-101216428D01*
X135900000Y-101287857D01*
X135828571Y-101323571D01*
X136507142Y-101109285D02*
X137007142Y-101109285D01*
X136685714Y-101859285D01*
%TO.C,C18*%
X141942857Y-102292857D02*
X141907142Y-102328571D01*
X141800000Y-102364285D01*
X141728571Y-102364285D01*
X141621428Y-102328571D01*
X141550000Y-102257142D01*
X141514285Y-102185714D01*
X141478571Y-102042857D01*
X141478571Y-101935714D01*
X141514285Y-101792857D01*
X141550000Y-101721428D01*
X141621428Y-101650000D01*
X141728571Y-101614285D01*
X141800000Y-101614285D01*
X141907142Y-101650000D01*
X141942857Y-101685714D01*
X142657142Y-102364285D02*
X142228571Y-102364285D01*
X142442857Y-102364285D02*
X142442857Y-101614285D01*
X142371428Y-101721428D01*
X142300000Y-101792857D01*
X142228571Y-101828571D01*
X143085714Y-101935714D02*
X143014285Y-101900000D01*
X142978571Y-101864285D01*
X142942857Y-101792857D01*
X142942857Y-101757142D01*
X142978571Y-101685714D01*
X143014285Y-101650000D01*
X143085714Y-101614285D01*
X143228571Y-101614285D01*
X143300000Y-101650000D01*
X143335714Y-101685714D01*
X143371428Y-101757142D01*
X143371428Y-101792857D01*
X143335714Y-101864285D01*
X143300000Y-101900000D01*
X143228571Y-101935714D01*
X143085714Y-101935714D01*
X143014285Y-101971428D01*
X142978571Y-102007142D01*
X142942857Y-102078571D01*
X142942857Y-102221428D01*
X142978571Y-102292857D01*
X143014285Y-102328571D01*
X143085714Y-102364285D01*
X143228571Y-102364285D01*
X143300000Y-102328571D01*
X143335714Y-102292857D01*
X143371428Y-102221428D01*
X143371428Y-102078571D01*
X143335714Y-102007142D01*
X143300000Y-101971428D01*
X143228571Y-101935714D01*
%TO.C,R1*%
X133405000Y-84464285D02*
X133155000Y-84107142D01*
X132976428Y-84464285D02*
X132976428Y-83714285D01*
X133262142Y-83714285D01*
X133333571Y-83750000D01*
X133369285Y-83785714D01*
X133405000Y-83857142D01*
X133405000Y-83964285D01*
X133369285Y-84035714D01*
X133333571Y-84071428D01*
X133262142Y-84107142D01*
X132976428Y-84107142D01*
X134119285Y-84464285D02*
X133690714Y-84464285D01*
X133905000Y-84464285D02*
X133905000Y-83714285D01*
X133833571Y-83821428D01*
X133762142Y-83892857D01*
X133690714Y-83928571D01*
%TO.C,R3*%
X136225000Y-104659285D02*
X135975000Y-104302142D01*
X135796428Y-104659285D02*
X135796428Y-103909285D01*
X136082142Y-103909285D01*
X136153571Y-103945000D01*
X136189285Y-103980714D01*
X136225000Y-104052142D01*
X136225000Y-104159285D01*
X136189285Y-104230714D01*
X136153571Y-104266428D01*
X136082142Y-104302142D01*
X135796428Y-104302142D01*
X136475000Y-103909285D02*
X136939285Y-103909285D01*
X136689285Y-104195000D01*
X136796428Y-104195000D01*
X136867857Y-104230714D01*
X136903571Y-104266428D01*
X136939285Y-104337857D01*
X136939285Y-104516428D01*
X136903571Y-104587857D01*
X136867857Y-104623571D01*
X136796428Y-104659285D01*
X136582142Y-104659285D01*
X136510714Y-104623571D01*
X136475000Y-104587857D01*
%TO.C,R4*%
X138475000Y-100414285D02*
X138225000Y-100057142D01*
X138046428Y-100414285D02*
X138046428Y-99664285D01*
X138332142Y-99664285D01*
X138403571Y-99700000D01*
X138439285Y-99735714D01*
X138475000Y-99807142D01*
X138475000Y-99914285D01*
X138439285Y-99985714D01*
X138403571Y-100021428D01*
X138332142Y-100057142D01*
X138046428Y-100057142D01*
X139117857Y-99914285D02*
X139117857Y-100414285D01*
X138939285Y-99628571D02*
X138760714Y-100164285D01*
X139225000Y-100164285D01*
%TO.C,R5*%
X141925000Y-101364285D02*
X141675000Y-101007142D01*
X141496428Y-101364285D02*
X141496428Y-100614285D01*
X141782142Y-100614285D01*
X141853571Y-100650000D01*
X141889285Y-100685714D01*
X141925000Y-100757142D01*
X141925000Y-100864285D01*
X141889285Y-100935714D01*
X141853571Y-100971428D01*
X141782142Y-101007142D01*
X141496428Y-101007142D01*
X142603571Y-100614285D02*
X142246428Y-100614285D01*
X142210714Y-100971428D01*
X142246428Y-100935714D01*
X142317857Y-100900000D01*
X142496428Y-100900000D01*
X142567857Y-100935714D01*
X142603571Y-100971428D01*
X142639285Y-101042857D01*
X142639285Y-101221428D01*
X142603571Y-101292857D01*
X142567857Y-101328571D01*
X142496428Y-101364285D01*
X142317857Y-101364285D01*
X142246428Y-101328571D01*
X142210714Y-101292857D01*
%TO.C,R6*%
X138990000Y-107791428D02*
X138790000Y-107505714D01*
X138647142Y-107791428D02*
X138647142Y-107191428D01*
X138875714Y-107191428D01*
X138932857Y-107220000D01*
X138961428Y-107248571D01*
X138990000Y-107305714D01*
X138990000Y-107391428D01*
X138961428Y-107448571D01*
X138932857Y-107477142D01*
X138875714Y-107505714D01*
X138647142Y-107505714D01*
X139504285Y-107191428D02*
X139390000Y-107191428D01*
X139332857Y-107220000D01*
X139304285Y-107248571D01*
X139247142Y-107334285D01*
X139218571Y-107448571D01*
X139218571Y-107677142D01*
X139247142Y-107734285D01*
X139275714Y-107762857D01*
X139332857Y-107791428D01*
X139447142Y-107791428D01*
X139504285Y-107762857D01*
X139532857Y-107734285D01*
X139561428Y-107677142D01*
X139561428Y-107534285D01*
X139532857Y-107477142D01*
X139504285Y-107448571D01*
X139447142Y-107420000D01*
X139332857Y-107420000D01*
X139275714Y-107448571D01*
X139247142Y-107477142D01*
X139218571Y-107534285D01*
%TO.C,R7*%
X136200000Y-106789285D02*
X135950000Y-106432142D01*
X135771428Y-106789285D02*
X135771428Y-106039285D01*
X136057142Y-106039285D01*
X136128571Y-106075000D01*
X136164285Y-106110714D01*
X136200000Y-106182142D01*
X136200000Y-106289285D01*
X136164285Y-106360714D01*
X136128571Y-106396428D01*
X136057142Y-106432142D01*
X135771428Y-106432142D01*
X136450000Y-106039285D02*
X136950000Y-106039285D01*
X136628571Y-106789285D01*
%TO.C,R8*%
X135814285Y-97325000D02*
X135457142Y-97575000D01*
X135814285Y-97753571D02*
X135064285Y-97753571D01*
X135064285Y-97467857D01*
X135100000Y-97396428D01*
X135135714Y-97360714D01*
X135207142Y-97325000D01*
X135314285Y-97325000D01*
X135385714Y-97360714D01*
X135421428Y-97396428D01*
X135457142Y-97467857D01*
X135457142Y-97753571D01*
X135385714Y-96896428D02*
X135350000Y-96967857D01*
X135314285Y-97003571D01*
X135242857Y-97039285D01*
X135207142Y-97039285D01*
X135135714Y-97003571D01*
X135100000Y-96967857D01*
X135064285Y-96896428D01*
X135064285Y-96753571D01*
X135100000Y-96682142D01*
X135135714Y-96646428D01*
X135207142Y-96610714D01*
X135242857Y-96610714D01*
X135314285Y-96646428D01*
X135350000Y-96682142D01*
X135385714Y-96753571D01*
X135385714Y-96896428D01*
X135421428Y-96967857D01*
X135457142Y-97003571D01*
X135528571Y-97039285D01*
X135671428Y-97039285D01*
X135742857Y-97003571D01*
X135778571Y-96967857D01*
X135814285Y-96896428D01*
X135814285Y-96753571D01*
X135778571Y-96682142D01*
X135742857Y-96646428D01*
X135671428Y-96610714D01*
X135528571Y-96610714D01*
X135457142Y-96646428D01*
X135421428Y-96682142D01*
X135385714Y-96753571D01*
%TO.C,R11*%
X133067857Y-99089285D02*
X132817857Y-98732142D01*
X132639285Y-99089285D02*
X132639285Y-98339285D01*
X132925000Y-98339285D01*
X132996428Y-98375000D01*
X133032142Y-98410714D01*
X133067857Y-98482142D01*
X133067857Y-98589285D01*
X133032142Y-98660714D01*
X132996428Y-98696428D01*
X132925000Y-98732142D01*
X132639285Y-98732142D01*
X133782142Y-99089285D02*
X133353571Y-99089285D01*
X133567857Y-99089285D02*
X133567857Y-98339285D01*
X133496428Y-98446428D01*
X133425000Y-98517857D01*
X133353571Y-98553571D01*
X134496428Y-99089285D02*
X134067857Y-99089285D01*
X134282142Y-99089285D02*
X134282142Y-98339285D01*
X134210714Y-98446428D01*
X134139285Y-98517857D01*
X134067857Y-98553571D01*
%TO.C,R12*%
X133092857Y-94239285D02*
X132842857Y-93882142D01*
X132664285Y-94239285D02*
X132664285Y-93489285D01*
X132950000Y-93489285D01*
X133021428Y-93525000D01*
X133057142Y-93560714D01*
X133092857Y-93632142D01*
X133092857Y-93739285D01*
X133057142Y-93810714D01*
X133021428Y-93846428D01*
X132950000Y-93882142D01*
X132664285Y-93882142D01*
X133807142Y-94239285D02*
X133378571Y-94239285D01*
X133592857Y-94239285D02*
X133592857Y-93489285D01*
X133521428Y-93596428D01*
X133450000Y-93667857D01*
X133378571Y-93703571D01*
X134092857Y-93560714D02*
X134128571Y-93525000D01*
X134200000Y-93489285D01*
X134378571Y-93489285D01*
X134450000Y-93525000D01*
X134485714Y-93560714D01*
X134521428Y-93632142D01*
X134521428Y-93703571D01*
X134485714Y-93810714D01*
X134057142Y-94239285D01*
X134521428Y-94239285D01*
%TO.C,R13*%
X136642857Y-99189285D02*
X136392857Y-98832142D01*
X136214285Y-99189285D02*
X136214285Y-98439285D01*
X136500000Y-98439285D01*
X136571428Y-98475000D01*
X136607142Y-98510714D01*
X136642857Y-98582142D01*
X136642857Y-98689285D01*
X136607142Y-98760714D01*
X136571428Y-98796428D01*
X136500000Y-98832142D01*
X136214285Y-98832142D01*
X137357142Y-99189285D02*
X136928571Y-99189285D01*
X137142857Y-99189285D02*
X137142857Y-98439285D01*
X137071428Y-98546428D01*
X137000000Y-98617857D01*
X136928571Y-98653571D01*
X137607142Y-98439285D02*
X138071428Y-98439285D01*
X137821428Y-98725000D01*
X137928571Y-98725000D01*
X138000000Y-98760714D01*
X138035714Y-98796428D01*
X138071428Y-98867857D01*
X138071428Y-99046428D01*
X138035714Y-99117857D01*
X138000000Y-99153571D01*
X137928571Y-99189285D01*
X137714285Y-99189285D01*
X137642857Y-99153571D01*
X137607142Y-99117857D01*
%TO.C,R14*%
X136742857Y-93689285D02*
X136492857Y-93332142D01*
X136314285Y-93689285D02*
X136314285Y-92939285D01*
X136600000Y-92939285D01*
X136671428Y-92975000D01*
X136707142Y-93010714D01*
X136742857Y-93082142D01*
X136742857Y-93189285D01*
X136707142Y-93260714D01*
X136671428Y-93296428D01*
X136600000Y-93332142D01*
X136314285Y-93332142D01*
X137457142Y-93689285D02*
X137028571Y-93689285D01*
X137242857Y-93689285D02*
X137242857Y-92939285D01*
X137171428Y-93046428D01*
X137100000Y-93117857D01*
X137028571Y-93153571D01*
X138100000Y-93189285D02*
X138100000Y-93689285D01*
X137921428Y-92903571D02*
X137742857Y-93439285D01*
X138207142Y-93439285D01*
%TO.C,C20*%
X142407857Y-96447857D02*
X142372142Y-96483571D01*
X142265000Y-96519285D01*
X142193571Y-96519285D01*
X142086428Y-96483571D01*
X142015000Y-96412142D01*
X141979285Y-96340714D01*
X141943571Y-96197857D01*
X141943571Y-96090714D01*
X141979285Y-95947857D01*
X142015000Y-95876428D01*
X142086428Y-95805000D01*
X142193571Y-95769285D01*
X142265000Y-95769285D01*
X142372142Y-95805000D01*
X142407857Y-95840714D01*
X142693571Y-95840714D02*
X142729285Y-95805000D01*
X142800714Y-95769285D01*
X142979285Y-95769285D01*
X143050714Y-95805000D01*
X143086428Y-95840714D01*
X143122142Y-95912142D01*
X143122142Y-95983571D01*
X143086428Y-96090714D01*
X142657857Y-96519285D01*
X143122142Y-96519285D01*
X143586428Y-95769285D02*
X143657857Y-95769285D01*
X143729285Y-95805000D01*
X143765000Y-95840714D01*
X143800714Y-95912142D01*
X143836428Y-96055000D01*
X143836428Y-96233571D01*
X143800714Y-96376428D01*
X143765000Y-96447857D01*
X143729285Y-96483571D01*
X143657857Y-96519285D01*
X143586428Y-96519285D01*
X143515000Y-96483571D01*
X143479285Y-96447857D01*
X143443571Y-96376428D01*
X143407857Y-96233571D01*
X143407857Y-96055000D01*
X143443571Y-95912142D01*
X143479285Y-95840714D01*
X143515000Y-95805000D01*
X143586428Y-95769285D01*
%TO.C,C21*%
X144942857Y-99917857D02*
X144907142Y-99953571D01*
X144800000Y-99989285D01*
X144728571Y-99989285D01*
X144621428Y-99953571D01*
X144550000Y-99882142D01*
X144514285Y-99810714D01*
X144478571Y-99667857D01*
X144478571Y-99560714D01*
X144514285Y-99417857D01*
X144550000Y-99346428D01*
X144621428Y-99275000D01*
X144728571Y-99239285D01*
X144800000Y-99239285D01*
X144907142Y-99275000D01*
X144942857Y-99310714D01*
X145228571Y-99310714D02*
X145264285Y-99275000D01*
X145335714Y-99239285D01*
X145514285Y-99239285D01*
X145585714Y-99275000D01*
X145621428Y-99310714D01*
X145657142Y-99382142D01*
X145657142Y-99453571D01*
X145621428Y-99560714D01*
X145192857Y-99989285D01*
X145657142Y-99989285D01*
X146371428Y-99989285D02*
X145942857Y-99989285D01*
X146157142Y-99989285D02*
X146157142Y-99239285D01*
X146085714Y-99346428D01*
X146014285Y-99417857D01*
X145942857Y-99453571D01*
%TO.C,C22*%
X147942857Y-107442857D02*
X147907142Y-107478571D01*
X147800000Y-107514285D01*
X147728571Y-107514285D01*
X147621428Y-107478571D01*
X147550000Y-107407142D01*
X147514285Y-107335714D01*
X147478571Y-107192857D01*
X147478571Y-107085714D01*
X147514285Y-106942857D01*
X147550000Y-106871428D01*
X147621428Y-106800000D01*
X147728571Y-106764285D01*
X147800000Y-106764285D01*
X147907142Y-106800000D01*
X147942857Y-106835714D01*
X148228571Y-106835714D02*
X148264285Y-106800000D01*
X148335714Y-106764285D01*
X148514285Y-106764285D01*
X148585714Y-106800000D01*
X148621428Y-106835714D01*
X148657142Y-106907142D01*
X148657142Y-106978571D01*
X148621428Y-107085714D01*
X148192857Y-107514285D01*
X148657142Y-107514285D01*
X148942857Y-106835714D02*
X148978571Y-106800000D01*
X149050000Y-106764285D01*
X149228571Y-106764285D01*
X149300000Y-106800000D01*
X149335714Y-106835714D01*
X149371428Y-106907142D01*
X149371428Y-106978571D01*
X149335714Y-107085714D01*
X148907142Y-107514285D01*
X149371428Y-107514285D01*
%TO.C,R17*%
X136792857Y-119264285D02*
X136542857Y-118907142D01*
X136364285Y-119264285D02*
X136364285Y-118514285D01*
X136650000Y-118514285D01*
X136721428Y-118550000D01*
X136757142Y-118585714D01*
X136792857Y-118657142D01*
X136792857Y-118764285D01*
X136757142Y-118835714D01*
X136721428Y-118871428D01*
X136650000Y-118907142D01*
X136364285Y-118907142D01*
X137507142Y-119264285D02*
X137078571Y-119264285D01*
X137292857Y-119264285D02*
X137292857Y-118514285D01*
X137221428Y-118621428D01*
X137150000Y-118692857D01*
X137078571Y-118728571D01*
X137757142Y-118514285D02*
X138257142Y-118514285D01*
X137935714Y-119264285D01*
%TO.C,R18*%
X136767857Y-111364285D02*
X136517857Y-111007142D01*
X136339285Y-111364285D02*
X136339285Y-110614285D01*
X136625000Y-110614285D01*
X136696428Y-110650000D01*
X136732142Y-110685714D01*
X136767857Y-110757142D01*
X136767857Y-110864285D01*
X136732142Y-110935714D01*
X136696428Y-110971428D01*
X136625000Y-111007142D01*
X136339285Y-111007142D01*
X137482142Y-111364285D02*
X137053571Y-111364285D01*
X137267857Y-111364285D02*
X137267857Y-110614285D01*
X137196428Y-110721428D01*
X137125000Y-110792857D01*
X137053571Y-110828571D01*
X137910714Y-110935714D02*
X137839285Y-110900000D01*
X137803571Y-110864285D01*
X137767857Y-110792857D01*
X137767857Y-110757142D01*
X137803571Y-110685714D01*
X137839285Y-110650000D01*
X137910714Y-110614285D01*
X138053571Y-110614285D01*
X138125000Y-110650000D01*
X138160714Y-110685714D01*
X138196428Y-110757142D01*
X138196428Y-110792857D01*
X138160714Y-110864285D01*
X138125000Y-110900000D01*
X138053571Y-110935714D01*
X137910714Y-110935714D01*
X137839285Y-110971428D01*
X137803571Y-111007142D01*
X137767857Y-111078571D01*
X137767857Y-111221428D01*
X137803571Y-111292857D01*
X137839285Y-111328571D01*
X137910714Y-111364285D01*
X138053571Y-111364285D01*
X138125000Y-111328571D01*
X138160714Y-111292857D01*
X138196428Y-111221428D01*
X138196428Y-111078571D01*
X138160714Y-111007142D01*
X138125000Y-110971428D01*
X138053571Y-110935714D01*
%TO.C,C19*%
X136742857Y-110292857D02*
X136707142Y-110328571D01*
X136600000Y-110364285D01*
X136528571Y-110364285D01*
X136421428Y-110328571D01*
X136350000Y-110257142D01*
X136314285Y-110185714D01*
X136278571Y-110042857D01*
X136278571Y-109935714D01*
X136314285Y-109792857D01*
X136350000Y-109721428D01*
X136421428Y-109650000D01*
X136528571Y-109614285D01*
X136600000Y-109614285D01*
X136707142Y-109650000D01*
X136742857Y-109685714D01*
X137457142Y-110364285D02*
X137028571Y-110364285D01*
X137242857Y-110364285D02*
X137242857Y-109614285D01*
X137171428Y-109721428D01*
X137100000Y-109792857D01*
X137028571Y-109828571D01*
X137814285Y-110364285D02*
X137957142Y-110364285D01*
X138028571Y-110328571D01*
X138064285Y-110292857D01*
X138135714Y-110185714D01*
X138171428Y-110042857D01*
X138171428Y-109757142D01*
X138135714Y-109685714D01*
X138100000Y-109650000D01*
X138028571Y-109614285D01*
X137885714Y-109614285D01*
X137814285Y-109650000D01*
X137778571Y-109685714D01*
X137742857Y-109757142D01*
X137742857Y-109935714D01*
X137778571Y-110007142D01*
X137814285Y-110042857D01*
X137885714Y-110078571D01*
X138028571Y-110078571D01*
X138100000Y-110042857D01*
X138135714Y-110007142D01*
X138171428Y-109935714D01*
%TO.C,C23*%
X136767857Y-117167857D02*
X136732142Y-117203571D01*
X136625000Y-117239285D01*
X136553571Y-117239285D01*
X136446428Y-117203571D01*
X136375000Y-117132142D01*
X136339285Y-117060714D01*
X136303571Y-116917857D01*
X136303571Y-116810714D01*
X136339285Y-116667857D01*
X136375000Y-116596428D01*
X136446428Y-116525000D01*
X136553571Y-116489285D01*
X136625000Y-116489285D01*
X136732142Y-116525000D01*
X136767857Y-116560714D01*
X137053571Y-116560714D02*
X137089285Y-116525000D01*
X137160714Y-116489285D01*
X137339285Y-116489285D01*
X137410714Y-116525000D01*
X137446428Y-116560714D01*
X137482142Y-116632142D01*
X137482142Y-116703571D01*
X137446428Y-116810714D01*
X137017857Y-117239285D01*
X137482142Y-117239285D01*
X137732142Y-116489285D02*
X138196428Y-116489285D01*
X137946428Y-116775000D01*
X138053571Y-116775000D01*
X138125000Y-116810714D01*
X138160714Y-116846428D01*
X138196428Y-116917857D01*
X138196428Y-117096428D01*
X138160714Y-117167857D01*
X138125000Y-117203571D01*
X138053571Y-117239285D01*
X137839285Y-117239285D01*
X137767857Y-117203571D01*
X137732142Y-117167857D01*
%TO.C,C25*%
X151592857Y-92732142D02*
X151628571Y-92767857D01*
X151664285Y-92875000D01*
X151664285Y-92946428D01*
X151628571Y-93053571D01*
X151557142Y-93125000D01*
X151485714Y-93160714D01*
X151342857Y-93196428D01*
X151235714Y-93196428D01*
X151092857Y-93160714D01*
X151021428Y-93125000D01*
X150950000Y-93053571D01*
X150914285Y-92946428D01*
X150914285Y-92875000D01*
X150950000Y-92767857D01*
X150985714Y-92732142D01*
X150985714Y-92446428D02*
X150950000Y-92410714D01*
X150914285Y-92339285D01*
X150914285Y-92160714D01*
X150950000Y-92089285D01*
X150985714Y-92053571D01*
X151057142Y-92017857D01*
X151128571Y-92017857D01*
X151235714Y-92053571D01*
X151664285Y-92482142D01*
X151664285Y-92017857D01*
X150914285Y-91339285D02*
X150914285Y-91696428D01*
X151271428Y-91732142D01*
X151235714Y-91696428D01*
X151200000Y-91625000D01*
X151200000Y-91446428D01*
X151235714Y-91375000D01*
X151271428Y-91339285D01*
X151342857Y-91303571D01*
X151521428Y-91303571D01*
X151592857Y-91339285D01*
X151628571Y-91375000D01*
X151664285Y-91446428D01*
X151664285Y-91625000D01*
X151628571Y-91696428D01*
X151592857Y-91732142D01*
%TO.C,D1*%
X151009285Y-86373571D02*
X150259285Y-86373571D01*
X150259285Y-86195000D01*
X150295000Y-86087857D01*
X150366428Y-86016428D01*
X150437857Y-85980714D01*
X150580714Y-85945000D01*
X150687857Y-85945000D01*
X150830714Y-85980714D01*
X150902142Y-86016428D01*
X150973571Y-86087857D01*
X151009285Y-86195000D01*
X151009285Y-86373571D01*
X151009285Y-85230714D02*
X151009285Y-85659285D01*
X151009285Y-85445000D02*
X150259285Y-85445000D01*
X150366428Y-85516428D01*
X150437857Y-85587857D01*
X150473571Y-85659285D01*
%TO.C,R20*%
X155664285Y-92946428D02*
X155464285Y-92660714D01*
X155321428Y-92946428D02*
X155321428Y-92346428D01*
X155550000Y-92346428D01*
X155607142Y-92375000D01*
X155635714Y-92403571D01*
X155664285Y-92460714D01*
X155664285Y-92546428D01*
X155635714Y-92603571D01*
X155607142Y-92632142D01*
X155550000Y-92660714D01*
X155321428Y-92660714D01*
X155892857Y-92403571D02*
X155921428Y-92375000D01*
X155978571Y-92346428D01*
X156121428Y-92346428D01*
X156178571Y-92375000D01*
X156207142Y-92403571D01*
X156235714Y-92460714D01*
X156235714Y-92517857D01*
X156207142Y-92603571D01*
X155864285Y-92946428D01*
X156235714Y-92946428D01*
X156607142Y-92346428D02*
X156664285Y-92346428D01*
X156721428Y-92375000D01*
X156750000Y-92403571D01*
X156778571Y-92460714D01*
X156807142Y-92575000D01*
X156807142Y-92717857D01*
X156778571Y-92832142D01*
X156750000Y-92889285D01*
X156721428Y-92917857D01*
X156664285Y-92946428D01*
X156607142Y-92946428D01*
X156550000Y-92917857D01*
X156521428Y-92889285D01*
X156492857Y-92832142D01*
X156464285Y-92717857D01*
X156464285Y-92575000D01*
X156492857Y-92460714D01*
X156521428Y-92403571D01*
X156550000Y-92375000D01*
X156607142Y-92346428D01*
%TO.C,R21*%
X155664285Y-92096428D02*
X155464285Y-91810714D01*
X155321428Y-92096428D02*
X155321428Y-91496428D01*
X155550000Y-91496428D01*
X155607142Y-91525000D01*
X155635714Y-91553571D01*
X155664285Y-91610714D01*
X155664285Y-91696428D01*
X155635714Y-91753571D01*
X155607142Y-91782142D01*
X155550000Y-91810714D01*
X155321428Y-91810714D01*
X155892857Y-91553571D02*
X155921428Y-91525000D01*
X155978571Y-91496428D01*
X156121428Y-91496428D01*
X156178571Y-91525000D01*
X156207142Y-91553571D01*
X156235714Y-91610714D01*
X156235714Y-91667857D01*
X156207142Y-91753571D01*
X155864285Y-92096428D01*
X156235714Y-92096428D01*
X156807142Y-92096428D02*
X156464285Y-92096428D01*
X156635714Y-92096428D02*
X156635714Y-91496428D01*
X156578571Y-91582142D01*
X156521428Y-91639285D01*
X156464285Y-91667857D01*
%TO.C,C13*%
X168377142Y-105082857D02*
X168424761Y-105130476D01*
X168472380Y-105273333D01*
X168472380Y-105368571D01*
X168424761Y-105511428D01*
X168329523Y-105606666D01*
X168234285Y-105654285D01*
X168043809Y-105701904D01*
X167900952Y-105701904D01*
X167710476Y-105654285D01*
X167615238Y-105606666D01*
X167520000Y-105511428D01*
X167472380Y-105368571D01*
X167472380Y-105273333D01*
X167520000Y-105130476D01*
X167567619Y-105082857D01*
X168472380Y-104130476D02*
X168472380Y-104701904D01*
X168472380Y-104416190D02*
X167472380Y-104416190D01*
X167615238Y-104511428D01*
X167710476Y-104606666D01*
X167758095Y-104701904D01*
X167472380Y-103797142D02*
X167472380Y-103178095D01*
X167853333Y-103511428D01*
X167853333Y-103368571D01*
X167900952Y-103273333D01*
X167948571Y-103225714D01*
X168043809Y-103178095D01*
X168281904Y-103178095D01*
X168377142Y-103225714D01*
X168424761Y-103273333D01*
X168472380Y-103368571D01*
X168472380Y-103654285D01*
X168424761Y-103749523D01*
X168377142Y-103797142D01*
%TO.C,C29*%
X168407142Y-96142857D02*
X168454761Y-96190476D01*
X168502380Y-96333333D01*
X168502380Y-96428571D01*
X168454761Y-96571428D01*
X168359523Y-96666666D01*
X168264285Y-96714285D01*
X168073809Y-96761904D01*
X167930952Y-96761904D01*
X167740476Y-96714285D01*
X167645238Y-96666666D01*
X167550000Y-96571428D01*
X167502380Y-96428571D01*
X167502380Y-96333333D01*
X167550000Y-96190476D01*
X167597619Y-96142857D01*
X167597619Y-95761904D02*
X167550000Y-95714285D01*
X167502380Y-95619047D01*
X167502380Y-95380952D01*
X167550000Y-95285714D01*
X167597619Y-95238095D01*
X167692857Y-95190476D01*
X167788095Y-95190476D01*
X167930952Y-95238095D01*
X168502380Y-95809523D01*
X168502380Y-95190476D01*
X168502380Y-94714285D02*
X168502380Y-94523809D01*
X168454761Y-94428571D01*
X168407142Y-94380952D01*
X168264285Y-94285714D01*
X168073809Y-94238095D01*
X167692857Y-94238095D01*
X167597619Y-94285714D01*
X167550000Y-94333333D01*
X167502380Y-94428571D01*
X167502380Y-94619047D01*
X167550000Y-94714285D01*
X167597619Y-94761904D01*
X167692857Y-94809523D01*
X167930952Y-94809523D01*
X168026190Y-94761904D01*
X168073809Y-94714285D01*
X168121428Y-94619047D01*
X168121428Y-94428571D01*
X168073809Y-94333333D01*
X168026190Y-94285714D01*
X167930952Y-94238095D01*
%TO.C,C30*%
X168407142Y-100642857D02*
X168454761Y-100690476D01*
X168502380Y-100833333D01*
X168502380Y-100928571D01*
X168454761Y-101071428D01*
X168359523Y-101166666D01*
X168264285Y-101214285D01*
X168073809Y-101261904D01*
X167930952Y-101261904D01*
X167740476Y-101214285D01*
X167645238Y-101166666D01*
X167550000Y-101071428D01*
X167502380Y-100928571D01*
X167502380Y-100833333D01*
X167550000Y-100690476D01*
X167597619Y-100642857D01*
X167502380Y-100309523D02*
X167502380Y-99690476D01*
X167883333Y-100023809D01*
X167883333Y-99880952D01*
X167930952Y-99785714D01*
X167978571Y-99738095D01*
X168073809Y-99690476D01*
X168311904Y-99690476D01*
X168407142Y-99738095D01*
X168454761Y-99785714D01*
X168502380Y-99880952D01*
X168502380Y-100166666D01*
X168454761Y-100261904D01*
X168407142Y-100309523D01*
X167502380Y-99071428D02*
X167502380Y-98976190D01*
X167550000Y-98880952D01*
X167597619Y-98833333D01*
X167692857Y-98785714D01*
X167883333Y-98738095D01*
X168121428Y-98738095D01*
X168311904Y-98785714D01*
X168407142Y-98833333D01*
X168454761Y-98880952D01*
X168502380Y-98976190D01*
X168502380Y-99071428D01*
X168454761Y-99166666D01*
X168407142Y-99214285D01*
X168311904Y-99261904D01*
X168121428Y-99309523D01*
X167883333Y-99309523D01*
X167692857Y-99261904D01*
X167597619Y-99214285D01*
X167550000Y-99166666D01*
X167502380Y-99071428D01*
%TO.C,C15*%
X146892857Y-117157142D02*
X146928571Y-117192857D01*
X146964285Y-117300000D01*
X146964285Y-117371428D01*
X146928571Y-117478571D01*
X146857142Y-117550000D01*
X146785714Y-117585714D01*
X146642857Y-117621428D01*
X146535714Y-117621428D01*
X146392857Y-117585714D01*
X146321428Y-117550000D01*
X146250000Y-117478571D01*
X146214285Y-117371428D01*
X146214285Y-117300000D01*
X146250000Y-117192857D01*
X146285714Y-117157142D01*
X146964285Y-116442857D02*
X146964285Y-116871428D01*
X146964285Y-116657142D02*
X146214285Y-116657142D01*
X146321428Y-116728571D01*
X146392857Y-116800000D01*
X146428571Y-116871428D01*
X146214285Y-115764285D02*
X146214285Y-116121428D01*
X146571428Y-116157142D01*
X146535714Y-116121428D01*
X146500000Y-116050000D01*
X146500000Y-115871428D01*
X146535714Y-115800000D01*
X146571428Y-115764285D01*
X146642857Y-115728571D01*
X146821428Y-115728571D01*
X146892857Y-115764285D01*
X146928571Y-115800000D01*
X146964285Y-115871428D01*
X146964285Y-116050000D01*
X146928571Y-116121428D01*
X146892857Y-116157142D01*
%TO.C,C31*%
X137542857Y-89682142D02*
X137578571Y-89717857D01*
X137614285Y-89825000D01*
X137614285Y-89896428D01*
X137578571Y-90003571D01*
X137507142Y-90075000D01*
X137435714Y-90110714D01*
X137292857Y-90146428D01*
X137185714Y-90146428D01*
X137042857Y-90110714D01*
X136971428Y-90075000D01*
X136900000Y-90003571D01*
X136864285Y-89896428D01*
X136864285Y-89825000D01*
X136900000Y-89717857D01*
X136935714Y-89682142D01*
X136864285Y-89432142D02*
X136864285Y-88967857D01*
X137150000Y-89217857D01*
X137150000Y-89110714D01*
X137185714Y-89039285D01*
X137221428Y-89003571D01*
X137292857Y-88967857D01*
X137471428Y-88967857D01*
X137542857Y-89003571D01*
X137578571Y-89039285D01*
X137614285Y-89110714D01*
X137614285Y-89325000D01*
X137578571Y-89396428D01*
X137542857Y-89432142D01*
X137614285Y-88253571D02*
X137614285Y-88682142D01*
X137614285Y-88467857D02*
X136864285Y-88467857D01*
X136971428Y-88539285D01*
X137042857Y-88610714D01*
X137078571Y-88682142D01*
%TO.C,C32*%
X136742857Y-118167857D02*
X136707142Y-118203571D01*
X136600000Y-118239285D01*
X136528571Y-118239285D01*
X136421428Y-118203571D01*
X136350000Y-118132142D01*
X136314285Y-118060714D01*
X136278571Y-117917857D01*
X136278571Y-117810714D01*
X136314285Y-117667857D01*
X136350000Y-117596428D01*
X136421428Y-117525000D01*
X136528571Y-117489285D01*
X136600000Y-117489285D01*
X136707142Y-117525000D01*
X136742857Y-117560714D01*
X136992857Y-117489285D02*
X137457142Y-117489285D01*
X137207142Y-117775000D01*
X137314285Y-117775000D01*
X137385714Y-117810714D01*
X137421428Y-117846428D01*
X137457142Y-117917857D01*
X137457142Y-118096428D01*
X137421428Y-118167857D01*
X137385714Y-118203571D01*
X137314285Y-118239285D01*
X137100000Y-118239285D01*
X137028571Y-118203571D01*
X136992857Y-118167857D01*
X137742857Y-117560714D02*
X137778571Y-117525000D01*
X137850000Y-117489285D01*
X138028571Y-117489285D01*
X138100000Y-117525000D01*
X138135714Y-117560714D01*
X138171428Y-117632142D01*
X138171428Y-117703571D01*
X138135714Y-117810714D01*
X137707142Y-118239285D01*
X138171428Y-118239285D01*
%TO.C,C33*%
X146224285Y-85695714D02*
X146252857Y-85724285D01*
X146281428Y-85810000D01*
X146281428Y-85867142D01*
X146252857Y-85952857D01*
X146195714Y-86010000D01*
X146138571Y-86038571D01*
X146024285Y-86067142D01*
X145938571Y-86067142D01*
X145824285Y-86038571D01*
X145767142Y-86010000D01*
X145710000Y-85952857D01*
X145681428Y-85867142D01*
X145681428Y-85810000D01*
X145710000Y-85724285D01*
X145738571Y-85695714D01*
X145681428Y-85495714D02*
X145681428Y-85124285D01*
X145910000Y-85324285D01*
X145910000Y-85238571D01*
X145938571Y-85181428D01*
X145967142Y-85152857D01*
X146024285Y-85124285D01*
X146167142Y-85124285D01*
X146224285Y-85152857D01*
X146252857Y-85181428D01*
X146281428Y-85238571D01*
X146281428Y-85410000D01*
X146252857Y-85467142D01*
X146224285Y-85495714D01*
X145681428Y-84924285D02*
X145681428Y-84552857D01*
X145910000Y-84752857D01*
X145910000Y-84667142D01*
X145938571Y-84610000D01*
X145967142Y-84581428D01*
X146024285Y-84552857D01*
X146167142Y-84552857D01*
X146224285Y-84581428D01*
X146252857Y-84610000D01*
X146281428Y-84667142D01*
X146281428Y-84838571D01*
X146252857Y-84895714D01*
X146224285Y-84924285D01*
%TO.C,C34*%
X143467857Y-104087857D02*
X143432142Y-104123571D01*
X143325000Y-104159285D01*
X143253571Y-104159285D01*
X143146428Y-104123571D01*
X143075000Y-104052142D01*
X143039285Y-103980714D01*
X143003571Y-103837857D01*
X143003571Y-103730714D01*
X143039285Y-103587857D01*
X143075000Y-103516428D01*
X143146428Y-103445000D01*
X143253571Y-103409285D01*
X143325000Y-103409285D01*
X143432142Y-103445000D01*
X143467857Y-103480714D01*
X143717857Y-103409285D02*
X144182142Y-103409285D01*
X143932142Y-103695000D01*
X144039285Y-103695000D01*
X144110714Y-103730714D01*
X144146428Y-103766428D01*
X144182142Y-103837857D01*
X144182142Y-104016428D01*
X144146428Y-104087857D01*
X144110714Y-104123571D01*
X144039285Y-104159285D01*
X143825000Y-104159285D01*
X143753571Y-104123571D01*
X143717857Y-104087857D01*
X144825000Y-103659285D02*
X144825000Y-104159285D01*
X144646428Y-103373571D02*
X144467857Y-103909285D01*
X144932142Y-103909285D01*
%TO.C,C27*%
X160377857Y-82097857D02*
X160342142Y-82133571D01*
X160235000Y-82169285D01*
X160163571Y-82169285D01*
X160056428Y-82133571D01*
X159985000Y-82062142D01*
X159949285Y-81990714D01*
X159913571Y-81847857D01*
X159913571Y-81740714D01*
X159949285Y-81597857D01*
X159985000Y-81526428D01*
X160056428Y-81455000D01*
X160163571Y-81419285D01*
X160235000Y-81419285D01*
X160342142Y-81455000D01*
X160377857Y-81490714D01*
X160663571Y-81490714D02*
X160699285Y-81455000D01*
X160770714Y-81419285D01*
X160949285Y-81419285D01*
X161020714Y-81455000D01*
X161056428Y-81490714D01*
X161092142Y-81562142D01*
X161092142Y-81633571D01*
X161056428Y-81740714D01*
X160627857Y-82169285D01*
X161092142Y-82169285D01*
X161342142Y-81419285D02*
X161842142Y-81419285D01*
X161520714Y-82169285D01*
%TO.C,U7*%
X129228571Y-98339285D02*
X129228571Y-98946428D01*
X129264285Y-99017857D01*
X129300000Y-99053571D01*
X129371428Y-99089285D01*
X129514285Y-99089285D01*
X129585714Y-99053571D01*
X129621428Y-99017857D01*
X129657142Y-98946428D01*
X129657142Y-98339285D01*
X129942857Y-98339285D02*
X130442857Y-98339285D01*
X130121428Y-99089285D01*
%TO.C,U8*%
X136378571Y-85314285D02*
X136378571Y-85921428D01*
X136414285Y-85992857D01*
X136450000Y-86028571D01*
X136521428Y-86064285D01*
X136664285Y-86064285D01*
X136735714Y-86028571D01*
X136771428Y-85992857D01*
X136807142Y-85921428D01*
X136807142Y-85314285D01*
X137271428Y-85635714D02*
X137200000Y-85600000D01*
X137164285Y-85564285D01*
X137128571Y-85492857D01*
X137128571Y-85457142D01*
X137164285Y-85385714D01*
X137200000Y-85350000D01*
X137271428Y-85314285D01*
X137414285Y-85314285D01*
X137485714Y-85350000D01*
X137521428Y-85385714D01*
X137557142Y-85457142D01*
X137557142Y-85492857D01*
X137521428Y-85564285D01*
X137485714Y-85600000D01*
X137414285Y-85635714D01*
X137271428Y-85635714D01*
X137200000Y-85671428D01*
X137164285Y-85707142D01*
X137128571Y-85778571D01*
X137128571Y-85921428D01*
X137164285Y-85992857D01*
X137200000Y-86028571D01*
X137271428Y-86064285D01*
X137414285Y-86064285D01*
X137485714Y-86028571D01*
X137521428Y-85992857D01*
X137557142Y-85921428D01*
X137557142Y-85778571D01*
X137521428Y-85707142D01*
X137485714Y-85671428D01*
X137414285Y-85635714D01*
%TO.C,C14*%
X132517857Y-92667857D02*
X132482142Y-92703571D01*
X132375000Y-92739285D01*
X132303571Y-92739285D01*
X132196428Y-92703571D01*
X132125000Y-92632142D01*
X132089285Y-92560714D01*
X132053571Y-92417857D01*
X132053571Y-92310714D01*
X132089285Y-92167857D01*
X132125000Y-92096428D01*
X132196428Y-92025000D01*
X132303571Y-91989285D01*
X132375000Y-91989285D01*
X132482142Y-92025000D01*
X132517857Y-92060714D01*
X133232142Y-92739285D02*
X132803571Y-92739285D01*
X133017857Y-92739285D02*
X133017857Y-91989285D01*
X132946428Y-92096428D01*
X132875000Y-92167857D01*
X132803571Y-92203571D01*
X133875000Y-92239285D02*
X133875000Y-92739285D01*
X133696428Y-91953571D02*
X133517857Y-92489285D01*
X133982142Y-92489285D01*
%TO.C,J4*%
X146400000Y-80229285D02*
X146400000Y-80765000D01*
X146364285Y-80872142D01*
X146292857Y-80943571D01*
X146185714Y-80979285D01*
X146114285Y-80979285D01*
X147078571Y-80479285D02*
X147078571Y-80979285D01*
X146900000Y-80193571D02*
X146721428Y-80729285D01*
X147185714Y-80729285D01*
%TO.C,C35*%
X148384285Y-86044285D02*
X148355714Y-86072857D01*
X148270000Y-86101428D01*
X148212857Y-86101428D01*
X148127142Y-86072857D01*
X148070000Y-86015714D01*
X148041428Y-85958571D01*
X148012857Y-85844285D01*
X148012857Y-85758571D01*
X148041428Y-85644285D01*
X148070000Y-85587142D01*
X148127142Y-85530000D01*
X148212857Y-85501428D01*
X148270000Y-85501428D01*
X148355714Y-85530000D01*
X148384285Y-85558571D01*
X148584285Y-85501428D02*
X148955714Y-85501428D01*
X148755714Y-85730000D01*
X148841428Y-85730000D01*
X148898571Y-85758571D01*
X148927142Y-85787142D01*
X148955714Y-85844285D01*
X148955714Y-85987142D01*
X148927142Y-86044285D01*
X148898571Y-86072857D01*
X148841428Y-86101428D01*
X148670000Y-86101428D01*
X148612857Y-86072857D01*
X148584285Y-86044285D01*
X149498571Y-85501428D02*
X149212857Y-85501428D01*
X149184285Y-85787142D01*
X149212857Y-85758571D01*
X149270000Y-85730000D01*
X149412857Y-85730000D01*
X149470000Y-85758571D01*
X149498571Y-85787142D01*
X149527142Y-85844285D01*
X149527142Y-85987142D01*
X149498571Y-86044285D01*
X149470000Y-86072857D01*
X149412857Y-86101428D01*
X149270000Y-86101428D01*
X149212857Y-86072857D01*
X149184285Y-86044285D01*
%TO.C,C24*%
X144124285Y-91564285D02*
X144095714Y-91592857D01*
X144010000Y-91621428D01*
X143952857Y-91621428D01*
X143867142Y-91592857D01*
X143810000Y-91535714D01*
X143781428Y-91478571D01*
X143752857Y-91364285D01*
X143752857Y-91278571D01*
X143781428Y-91164285D01*
X143810000Y-91107142D01*
X143867142Y-91050000D01*
X143952857Y-91021428D01*
X144010000Y-91021428D01*
X144095714Y-91050000D01*
X144124285Y-91078571D01*
X144352857Y-91078571D02*
X144381428Y-91050000D01*
X144438571Y-91021428D01*
X144581428Y-91021428D01*
X144638571Y-91050000D01*
X144667142Y-91078571D01*
X144695714Y-91135714D01*
X144695714Y-91192857D01*
X144667142Y-91278571D01*
X144324285Y-91621428D01*
X144695714Y-91621428D01*
X145210000Y-91221428D02*
X145210000Y-91621428D01*
X145067142Y-90992857D02*
X144924285Y-91421428D01*
X145295714Y-91421428D01*
%TO.C,C36*%
X148867857Y-118792857D02*
X148832142Y-118828571D01*
X148725000Y-118864285D01*
X148653571Y-118864285D01*
X148546428Y-118828571D01*
X148475000Y-118757142D01*
X148439285Y-118685714D01*
X148403571Y-118542857D01*
X148403571Y-118435714D01*
X148439285Y-118292857D01*
X148475000Y-118221428D01*
X148546428Y-118150000D01*
X148653571Y-118114285D01*
X148725000Y-118114285D01*
X148832142Y-118150000D01*
X148867857Y-118185714D01*
X149117857Y-118114285D02*
X149582142Y-118114285D01*
X149332142Y-118400000D01*
X149439285Y-118400000D01*
X149510714Y-118435714D01*
X149546428Y-118471428D01*
X149582142Y-118542857D01*
X149582142Y-118721428D01*
X149546428Y-118792857D01*
X149510714Y-118828571D01*
X149439285Y-118864285D01*
X149225000Y-118864285D01*
X149153571Y-118828571D01*
X149117857Y-118792857D01*
X150225000Y-118114285D02*
X150082142Y-118114285D01*
X150010714Y-118150000D01*
X149975000Y-118185714D01*
X149903571Y-118292857D01*
X149867857Y-118435714D01*
X149867857Y-118721428D01*
X149903571Y-118792857D01*
X149939285Y-118828571D01*
X150010714Y-118864285D01*
X150153571Y-118864285D01*
X150225000Y-118828571D01*
X150260714Y-118792857D01*
X150296428Y-118721428D01*
X150296428Y-118542857D01*
X150260714Y-118471428D01*
X150225000Y-118435714D01*
X150153571Y-118400000D01*
X150010714Y-118400000D01*
X149939285Y-118435714D01*
X149903571Y-118471428D01*
X149867857Y-118542857D01*
%TO.C,D2*%
X133107142Y-80746428D02*
X133107142Y-80146428D01*
X133250000Y-80146428D01*
X133335714Y-80175000D01*
X133392857Y-80232142D01*
X133421428Y-80289285D01*
X133450000Y-80403571D01*
X133450000Y-80489285D01*
X133421428Y-80603571D01*
X133392857Y-80660714D01*
X133335714Y-80717857D01*
X133250000Y-80746428D01*
X133107142Y-80746428D01*
X133678571Y-80203571D02*
X133707142Y-80175000D01*
X133764285Y-80146428D01*
X133907142Y-80146428D01*
X133964285Y-80175000D01*
X133992857Y-80203571D01*
X134021428Y-80260714D01*
X134021428Y-80317857D01*
X133992857Y-80403571D01*
X133650000Y-80746428D01*
X134021428Y-80746428D01*
%TO.C,D3*%
X133107142Y-81571428D02*
X133107142Y-80971428D01*
X133250000Y-80971428D01*
X133335714Y-81000000D01*
X133392857Y-81057142D01*
X133421428Y-81114285D01*
X133450000Y-81228571D01*
X133450000Y-81314285D01*
X133421428Y-81428571D01*
X133392857Y-81485714D01*
X133335714Y-81542857D01*
X133250000Y-81571428D01*
X133107142Y-81571428D01*
X133650000Y-80971428D02*
X134021428Y-80971428D01*
X133821428Y-81200000D01*
X133907142Y-81200000D01*
X133964285Y-81228571D01*
X133992857Y-81257142D01*
X134021428Y-81314285D01*
X134021428Y-81457142D01*
X133992857Y-81514285D01*
X133964285Y-81542857D01*
X133907142Y-81571428D01*
X133735714Y-81571428D01*
X133678571Y-81542857D01*
X133650000Y-81514285D01*
%TO.C,R19*%
X135064285Y-85296428D02*
X134864285Y-85010714D01*
X134721428Y-85296428D02*
X134721428Y-84696428D01*
X134950000Y-84696428D01*
X135007142Y-84725000D01*
X135035714Y-84753571D01*
X135064285Y-84810714D01*
X135064285Y-84896428D01*
X135035714Y-84953571D01*
X135007142Y-84982142D01*
X134950000Y-85010714D01*
X134721428Y-85010714D01*
X135635714Y-85296428D02*
X135292857Y-85296428D01*
X135464285Y-85296428D02*
X135464285Y-84696428D01*
X135407142Y-84782142D01*
X135350000Y-84839285D01*
X135292857Y-84867857D01*
X135921428Y-85296428D02*
X136035714Y-85296428D01*
X136092857Y-85267857D01*
X136121428Y-85239285D01*
X136178571Y-85153571D01*
X136207142Y-85039285D01*
X136207142Y-84810714D01*
X136178571Y-84753571D01*
X136150000Y-84725000D01*
X136092857Y-84696428D01*
X135978571Y-84696428D01*
X135921428Y-84725000D01*
X135892857Y-84753571D01*
X135864285Y-84810714D01*
X135864285Y-84953571D01*
X135892857Y-85010714D01*
X135921428Y-85039285D01*
X135978571Y-85067857D01*
X136092857Y-85067857D01*
X136150000Y-85039285D01*
X136178571Y-85010714D01*
X136207142Y-84953571D01*
%TO.C,R22*%
X135064285Y-81571428D02*
X134864285Y-81285714D01*
X134721428Y-81571428D02*
X134721428Y-80971428D01*
X134950000Y-80971428D01*
X135007142Y-81000000D01*
X135035714Y-81028571D01*
X135064285Y-81085714D01*
X135064285Y-81171428D01*
X135035714Y-81228571D01*
X135007142Y-81257142D01*
X134950000Y-81285714D01*
X134721428Y-81285714D01*
X135292857Y-81028571D02*
X135321428Y-81000000D01*
X135378571Y-80971428D01*
X135521428Y-80971428D01*
X135578571Y-81000000D01*
X135607142Y-81028571D01*
X135635714Y-81085714D01*
X135635714Y-81142857D01*
X135607142Y-81228571D01*
X135264285Y-81571428D01*
X135635714Y-81571428D01*
X135864285Y-81028571D02*
X135892857Y-81000000D01*
X135950000Y-80971428D01*
X136092857Y-80971428D01*
X136150000Y-81000000D01*
X136178571Y-81028571D01*
X136207142Y-81085714D01*
X136207142Y-81142857D01*
X136178571Y-81228571D01*
X135835714Y-81571428D01*
X136207142Y-81571428D01*
%TO.C,U1*%
X147188571Y-93959285D02*
X147188571Y-94566428D01*
X147224285Y-94637857D01*
X147260000Y-94673571D01*
X147331428Y-94709285D01*
X147474285Y-94709285D01*
X147545714Y-94673571D01*
X147581428Y-94637857D01*
X147617142Y-94566428D01*
X147617142Y-93959285D01*
X148367142Y-94709285D02*
X147938571Y-94709285D01*
X148152857Y-94709285D02*
X148152857Y-93959285D01*
X148081428Y-94066428D01*
X148010000Y-94137857D01*
X147938571Y-94173571D01*
%TO.C,L1*%
X160533333Y-88852380D02*
X160057142Y-88852380D01*
X160057142Y-87852380D01*
X161390476Y-88852380D02*
X160819047Y-88852380D01*
X161104761Y-88852380D02*
X161104761Y-87852380D01*
X161009523Y-87995238D01*
X160914285Y-88090476D01*
X160819047Y-88138095D01*
%TO.C,L2*%
X160533333Y-112052380D02*
X160057142Y-112052380D01*
X160057142Y-111052380D01*
X160819047Y-111147619D02*
X160866666Y-111100000D01*
X160961904Y-111052380D01*
X161200000Y-111052380D01*
X161295238Y-111100000D01*
X161342857Y-111147619D01*
X161390476Y-111242857D01*
X161390476Y-111338095D01*
X161342857Y-111480952D01*
X160771428Y-112052380D01*
X161390476Y-112052380D01*
%TO.C,L3*%
X160533333Y-95952380D02*
X160057142Y-95952380D01*
X160057142Y-94952380D01*
X160771428Y-94952380D02*
X161390476Y-94952380D01*
X161057142Y-95333333D01*
X161200000Y-95333333D01*
X161295238Y-95380952D01*
X161342857Y-95428571D01*
X161390476Y-95523809D01*
X161390476Y-95761904D01*
X161342857Y-95857142D01*
X161295238Y-95904761D01*
X161200000Y-95952380D01*
X160914285Y-95952380D01*
X160819047Y-95904761D01*
X160771428Y-95857142D01*
%TO.C,L4*%
X160533333Y-104952380D02*
X160057142Y-104952380D01*
X160057142Y-103952380D01*
X161295238Y-104285714D02*
X161295238Y-104952380D01*
X161057142Y-103904761D02*
X160819047Y-104619047D01*
X161438095Y-104619047D01*
%TO.C,R23*%
X144897857Y-102439285D02*
X144647857Y-102082142D01*
X144469285Y-102439285D02*
X144469285Y-101689285D01*
X144755000Y-101689285D01*
X144826428Y-101725000D01*
X144862142Y-101760714D01*
X144897857Y-101832142D01*
X144897857Y-101939285D01*
X144862142Y-102010714D01*
X144826428Y-102046428D01*
X144755000Y-102082142D01*
X144469285Y-102082142D01*
X145183571Y-101760714D02*
X145219285Y-101725000D01*
X145290714Y-101689285D01*
X145469285Y-101689285D01*
X145540714Y-101725000D01*
X145576428Y-101760714D01*
X145612142Y-101832142D01*
X145612142Y-101903571D01*
X145576428Y-102010714D01*
X145147857Y-102439285D01*
X145612142Y-102439285D01*
X145862142Y-101689285D02*
X146326428Y-101689285D01*
X146076428Y-101975000D01*
X146183571Y-101975000D01*
X146255000Y-102010714D01*
X146290714Y-102046428D01*
X146326428Y-102117857D01*
X146326428Y-102296428D01*
X146290714Y-102367857D01*
X146255000Y-102403571D01*
X146183571Y-102439285D01*
X145969285Y-102439285D01*
X145897857Y-102403571D01*
X145862142Y-102367857D01*
%TO.C,R24*%
X149854285Y-80781428D02*
X149654285Y-80495714D01*
X149511428Y-80781428D02*
X149511428Y-80181428D01*
X149740000Y-80181428D01*
X149797142Y-80210000D01*
X149825714Y-80238571D01*
X149854285Y-80295714D01*
X149854285Y-80381428D01*
X149825714Y-80438571D01*
X149797142Y-80467142D01*
X149740000Y-80495714D01*
X149511428Y-80495714D01*
X150082857Y-80238571D02*
X150111428Y-80210000D01*
X150168571Y-80181428D01*
X150311428Y-80181428D01*
X150368571Y-80210000D01*
X150397142Y-80238571D01*
X150425714Y-80295714D01*
X150425714Y-80352857D01*
X150397142Y-80438571D01*
X150054285Y-80781428D01*
X150425714Y-80781428D01*
X150940000Y-80381428D02*
X150940000Y-80781428D01*
X150797142Y-80152857D02*
X150654285Y-80581428D01*
X151025714Y-80581428D01*
%TO.C,R25*%
X147964285Y-80771428D02*
X147764285Y-80485714D01*
X147621428Y-80771428D02*
X147621428Y-80171428D01*
X147850000Y-80171428D01*
X147907142Y-80200000D01*
X147935714Y-80228571D01*
X147964285Y-80285714D01*
X147964285Y-80371428D01*
X147935714Y-80428571D01*
X147907142Y-80457142D01*
X147850000Y-80485714D01*
X147621428Y-80485714D01*
X148192857Y-80228571D02*
X148221428Y-80200000D01*
X148278571Y-80171428D01*
X148421428Y-80171428D01*
X148478571Y-80200000D01*
X148507142Y-80228571D01*
X148535714Y-80285714D01*
X148535714Y-80342857D01*
X148507142Y-80428571D01*
X148164285Y-80771428D01*
X148535714Y-80771428D01*
X149078571Y-80171428D02*
X148792857Y-80171428D01*
X148764285Y-80457142D01*
X148792857Y-80428571D01*
X148850000Y-80400000D01*
X148992857Y-80400000D01*
X149050000Y-80428571D01*
X149078571Y-80457142D01*
X149107142Y-80514285D01*
X149107142Y-80657142D01*
X149078571Y-80714285D01*
X149050000Y-80742857D01*
X148992857Y-80771428D01*
X148850000Y-80771428D01*
X148792857Y-80742857D01*
X148764285Y-80714285D01*
%TO.C,D4*%
X126911904Y-83362380D02*
X126911904Y-82362380D01*
X127150000Y-82362380D01*
X127292857Y-82410000D01*
X127388095Y-82505238D01*
X127435714Y-82600476D01*
X127483333Y-82790952D01*
X127483333Y-82933809D01*
X127435714Y-83124285D01*
X127388095Y-83219523D01*
X127292857Y-83314761D01*
X127150000Y-83362380D01*
X126911904Y-83362380D01*
X128340476Y-82695714D02*
X128340476Y-83362380D01*
X128102380Y-82314761D02*
X127864285Y-83029047D01*
X128483333Y-83029047D01*
%TO.C,D5*%
X146791428Y-84302857D02*
X146191428Y-84302857D01*
X146191428Y-84160000D01*
X146220000Y-84074285D01*
X146277142Y-84017142D01*
X146334285Y-83988571D01*
X146448571Y-83960000D01*
X146534285Y-83960000D01*
X146648571Y-83988571D01*
X146705714Y-84017142D01*
X146762857Y-84074285D01*
X146791428Y-84160000D01*
X146791428Y-84302857D01*
X146191428Y-83417142D02*
X146191428Y-83702857D01*
X146477142Y-83731428D01*
X146448571Y-83702857D01*
X146420000Y-83645714D01*
X146420000Y-83502857D01*
X146448571Y-83445714D01*
X146477142Y-83417142D01*
X146534285Y-83388571D01*
X146677142Y-83388571D01*
X146734285Y-83417142D01*
X146762857Y-83445714D01*
X146791428Y-83502857D01*
X146791428Y-83645714D01*
X146762857Y-83702857D01*
X146734285Y-83731428D01*
%TO.C,R15*%
X142927857Y-94529285D02*
X142677857Y-94172142D01*
X142499285Y-94529285D02*
X142499285Y-93779285D01*
X142785000Y-93779285D01*
X142856428Y-93815000D01*
X142892142Y-93850714D01*
X142927857Y-93922142D01*
X142927857Y-94029285D01*
X142892142Y-94100714D01*
X142856428Y-94136428D01*
X142785000Y-94172142D01*
X142499285Y-94172142D01*
X143642142Y-94529285D02*
X143213571Y-94529285D01*
X143427857Y-94529285D02*
X143427857Y-93779285D01*
X143356428Y-93886428D01*
X143285000Y-93957857D01*
X143213571Y-93993571D01*
X144320714Y-93779285D02*
X143963571Y-93779285D01*
X143927857Y-94136428D01*
X143963571Y-94100714D01*
X144035000Y-94065000D01*
X144213571Y-94065000D01*
X144285000Y-94100714D01*
X144320714Y-94136428D01*
X144356428Y-94207857D01*
X144356428Y-94386428D01*
X144320714Y-94457857D01*
X144285000Y-94493571D01*
X144213571Y-94529285D01*
X144035000Y-94529285D01*
X143963571Y-94493571D01*
X143927857Y-94457857D01*
%TO.C,C37*%
X140584285Y-107724285D02*
X140555714Y-107752857D01*
X140470000Y-107781428D01*
X140412857Y-107781428D01*
X140327142Y-107752857D01*
X140270000Y-107695714D01*
X140241428Y-107638571D01*
X140212857Y-107524285D01*
X140212857Y-107438571D01*
X140241428Y-107324285D01*
X140270000Y-107267142D01*
X140327142Y-107210000D01*
X140412857Y-107181428D01*
X140470000Y-107181428D01*
X140555714Y-107210000D01*
X140584285Y-107238571D01*
X140784285Y-107181428D02*
X141155714Y-107181428D01*
X140955714Y-107410000D01*
X141041428Y-107410000D01*
X141098571Y-107438571D01*
X141127142Y-107467142D01*
X141155714Y-107524285D01*
X141155714Y-107667142D01*
X141127142Y-107724285D01*
X141098571Y-107752857D01*
X141041428Y-107781428D01*
X140870000Y-107781428D01*
X140812857Y-107752857D01*
X140784285Y-107724285D01*
X141355714Y-107181428D02*
X141755714Y-107181428D01*
X141498571Y-107781428D01*
%TD*%
M02*
